<svg width="65" height="31" viewBox="0 0 65 31" fill="none" xmlns="http://www.w3.org/2000/svg">
<g opacity="0.95">
<g opacity="0.95">
<path opacity="0.95" d="M60.4227 1L6.93392 7.10107C6.85034 10.0262 4.34305 12.7843 1.33431 13.2021L1 25.3207C4.00875 24.8192 6.43246 26.8251 6.34888 29.8338L60.0049 19.9718C60.0884 17.4645 61.76 15.208 63.8494 14.8737L64.1001 5.01166C62.0107 5.26239 60.3392 3.42371 60.4227 1Z" fill="url(#paint0_linear)" stroke="black" stroke-width="0.32" stroke-miterlimit="10"/>
<path opacity="0.95" d="M59.5035 2.4209L8.02051 8.52197C7.93694 11.0293 5.51322 13.7037 2.92236 14.1216L2.67163 23.9C5.2625 23.4821 7.60263 25.4044 7.51906 27.9952L59.1692 18.7183C59.2528 16.6289 61.0079 14.2887 62.763 14.038L62.9301 6.01468C61.175 6.26541 59.4199 4.51031 59.5035 2.4209Z" fill="url(#paint1_linear)" stroke="black" stroke-width="0.32" stroke-miterlimit="10"/>
</g>
<g opacity="0.95">
<path opacity="0.95" d="M25.7387 20.9747L24.6522 21.1419C23.6493 21.309 22.8136 21.0583 22.0614 20.5568C21.3928 19.9718 20.6406 19.3868 19.972 18.8017C18.8855 18.0495 17.5482 17.5481 15.8767 17.2973C15.626 17.6317 15.2081 18.0495 14.7902 18.551C14.2888 19.0524 13.7873 19.6375 13.1187 20.2225C12.4501 20.8075 11.9486 21.1419 11.5308 21.1419C11.3636 21.1419 11.1964 21.1419 11.1129 21.0583C11.0293 20.9747 11.0293 20.8911 11.0293 20.724C11.0293 20.5568 11.4472 20.2225 12.3665 19.7211C13.2859 19.136 14.2888 18.3003 15.4588 17.2138C14.9574 17.1302 14.5395 17.2138 14.1216 17.2138C13.7037 17.2973 13.3694 17.2974 13.1187 17.3809C12.868 17.4645 12.6172 17.6317 12.1994 17.7988C12.5337 17.5481 12.868 17.2973 13.2023 17.2138C13.6202 17.0466 14.038 16.963 14.4559 16.963C14.8738 16.8795 15.2081 16.8795 15.626 16.963C16.5453 15.8766 17.2975 14.7901 17.9661 13.7036C18.6347 12.6171 19.0526 11.6142 19.3869 10.6948C19.7212 11.9485 20.1391 13.2857 20.557 14.7065C20.9749 16.1273 21.6435 17.5481 22.4792 18.7181C23.3986 19.8882 24.4851 20.6404 25.7387 20.9747ZM18.5512 13.4528C18.2169 14.0379 17.8826 14.6229 17.5482 15.2079C17.1304 15.793 16.7125 16.378 16.211 17.0466C16.9632 17.1302 17.7154 17.2138 18.384 17.3809C19.0526 17.5481 19.6377 17.7152 20.0555 17.966C19.8048 17.6317 19.5541 17.0466 19.3033 16.1273C18.969 15.2915 18.7183 14.3722 18.5512 13.4528Z" fill="black"/>
<path opacity="0.95" d="M24.3178 15.1241C24.7357 14.3719 25.2371 13.8705 25.655 13.4526C26.0729 13.1183 26.4072 12.8676 26.7415 12.8676C27.0758 12.8676 27.3265 12.8676 27.4101 13.0347C27.4937 13.2019 27.5772 13.4526 27.5772 13.8705V15.3748C27.5772 16.2106 27.3265 16.8792 26.8251 17.3807C26.3236 17.8821 25.655 18.2164 24.9028 18.3C24.3178 18.3836 23.8999 18.3 23.5656 17.9657C23.2313 17.715 23.0641 17.1299 22.9805 16.2942L22.897 12.3661C22.897 11.7811 23.0641 11.2796 23.3984 10.7781C23.7327 10.3603 24.2342 10.1095 24.8192 10.026L26.0729 9.94238C25.8221 10.4438 25.4043 10.6946 24.9028 10.7781C24.4013 10.8617 24.1506 10.9453 24.1506 11.0289L24.3178 15.1241ZM24.3178 16.7956C24.3178 17.5478 24.6521 17.7986 25.2371 17.7986C25.4878 17.7986 25.7386 17.6314 25.9057 17.3807C26.0729 17.13 26.1564 16.7121 26.1564 16.2106V14.7062C26.1564 14.5391 26.1564 14.3719 26.0729 14.2883C26.0729 14.2048 25.9057 14.2048 25.7386 14.2048C25.4043 14.2048 25.1535 14.4555 24.8192 14.8734C24.4849 15.2913 24.3178 15.6256 24.3178 15.7927V16.7956Z" fill="black"/>
<path opacity="0.95" d="M31.0877 12.4498C31.8399 12.3663 32.3413 12.5334 32.7592 12.9513C33.1771 13.3692 33.3442 13.9542 33.4278 14.6228C33.4278 15.375 33.1771 16.0436 32.5921 16.6287C32.007 17.2137 31.3384 17.6316 30.5862 17.7152C29.9176 17.7987 29.3326 17.6316 28.9147 17.2137C28.4968 16.7958 28.2461 16.2108 28.2461 15.5422C28.2461 14.79 28.4968 14.1214 29.0819 13.5363C29.6669 12.8677 30.3355 12.5334 31.0877 12.4498ZM29.3326 14.6228C29.3326 15.2914 29.4162 15.8765 29.6669 16.3779C29.834 16.8794 30.3355 17.1301 31.0041 17.0465C31.422 16.963 31.6727 16.7958 31.9235 16.5451C32.1742 16.2108 32.2578 15.8765 32.2578 15.4586C32.2578 14.79 32.0906 14.2885 31.8399 13.7871C31.5891 13.2856 31.1713 13.0349 30.5862 13.1185C30.1683 13.1185 29.9176 13.2856 29.6669 13.6199C29.4997 13.7871 29.3326 14.205 29.3326 14.6228Z" fill="black"/>
<path opacity="0.95" d="M35.0156 12.0321C35.2663 12.0321 35.4335 12.1156 35.5171 12.2828C35.6006 12.4499 35.6006 12.7007 35.6842 12.8678V15.0408V15.3751C35.6842 15.6258 35.6842 15.793 35.7678 15.8766C35.8514 15.9601 36.0185 16.0437 36.1857 16.0437C36.4364 16.0437 36.6871 15.8766 36.9379 15.5423C37.2722 15.208 37.3557 14.9572 37.3557 14.7065V12.7007C37.3557 12.4499 37.4393 12.2828 37.69 12.0321C37.9408 11.8649 38.1915 11.6978 38.5258 11.6978L38.6094 15.7094L38.693 15.793C38.693 15.793 38.7765 15.793 38.8601 15.793C38.9437 15.793 39.1108 15.7094 39.278 15.6258C39.4451 15.5423 39.6123 15.3751 39.863 15.1244C39.6959 15.3751 39.4451 15.7094 39.1108 16.1273C38.7765 16.4616 38.4422 16.7123 38.1079 16.7123C37.8572 16.7123 37.69 16.7123 37.6065 16.5452C37.5229 16.4616 37.4393 16.2944 37.4393 16.0437V15.5423C37.0214 15.9601 36.6871 16.2945 36.3528 16.5452C36.0185 16.7959 35.6842 16.9631 35.3499 17.0466C35.0156 17.0466 34.8485 16.9631 34.6813 16.7123C34.5141 16.4616 34.5141 16.1273 34.5141 15.793L34.4306 13.1185C34.4306 12.9514 34.4306 12.8678 34.347 12.7842C34.347 12.7007 34.2634 12.7007 34.0963 12.7007C33.9291 12.7007 33.762 12.7842 33.5112 12.9514C33.6784 12.6171 33.9291 12.4499 34.1798 12.2828C34.5141 12.1156 34.6813 12.0321 35.0156 12.0321Z" fill="black"/>
<path opacity="0.95" d="M41.7017 11.4469L42.7046 11.3633C42.6211 11.6141 42.4539 11.6976 42.2867 11.7812C42.1196 11.8648 41.9524 11.8648 41.7853 11.9484L41.8689 15.375C41.8689 15.5422 41.9524 15.6257 42.036 15.6257C42.1196 15.6257 42.2867 15.5422 42.4539 15.4586C42.6211 15.375 42.7882 15.1243 43.0389 14.9571C42.7882 15.375 42.5375 15.7093 42.2867 16.0436C41.9524 16.2943 41.7017 16.4615 41.3674 16.5451C41.1167 16.5451 40.9495 16.4615 40.8659 16.2943C40.7824 16.1272 40.6988 15.7929 40.6988 15.2914L40.6152 12.1155L39.863 12.1991C39.863 12.0319 40.1138 11.7812 40.5316 11.5305C40.9495 11.2798 41.2838 10.6947 41.7017 9.77539V11.4469Z" fill="black"/>
<path opacity="0.95" d="M47.0506 10.8618C47.3013 10.8618 47.4685 10.9454 47.5521 11.1125C47.6356 11.2797 47.6356 11.4468 47.6356 11.614V13.6198V13.9541C47.6356 14.2049 47.6356 14.372 47.7192 14.4556C47.8028 14.5392 47.8864 14.6227 48.1371 14.6227C48.3042 14.6227 48.555 14.4556 48.8057 14.1213C49.0564 13.787 49.2236 13.5363 49.2236 13.3691V11.5304C49.2236 11.2797 49.3072 11.1125 49.4743 10.9454C49.6415 10.7782 49.8922 10.6947 50.2265 10.6111L50.3101 14.4556L50.3937 14.5392C50.3937 14.5392 50.4772 14.5392 50.5608 14.5392C50.6444 14.5392 50.8115 14.4556 50.8951 14.372C51.0623 14.2884 51.2294 14.1213 51.3966 13.9541C51.2294 14.2049 50.9787 14.5392 50.728 14.8735C50.3937 15.2078 50.1429 15.3749 49.8922 15.4585C49.725 15.4585 49.5579 15.4585 49.4743 15.3749C49.3907 15.2914 49.3072 15.1242 49.3072 14.8735V14.372C48.9729 14.7899 48.6386 15.1242 48.3878 15.3749C48.1371 15.6257 47.8028 15.7928 47.4685 15.7928C47.2178 15.7928 46.967 15.7092 46.8834 15.4585C46.7999 15.2078 46.7163 14.957 46.7163 14.5392V12.0319C46.7163 11.8647 46.7163 11.7812 46.6327 11.6976C46.6327 11.614 46.5491 11.614 46.4656 11.614C46.382 11.614 46.1313 11.6976 45.9641 11.8647C46.1313 11.614 46.2984 11.3633 46.5491 11.1961C46.6327 10.9454 46.8834 10.8618 47.0506 10.8618Z" fill="black"/>
<path opacity="0.95" d="M54.7398 10.1097C54.6562 10.2768 54.5726 10.5276 54.4891 10.6947C54.4055 10.8619 54.4055 11.029 54.3219 11.1962C54.0712 10.9455 53.904 10.7783 53.6533 10.6947C53.4861 10.6112 53.2354 10.6112 52.9847 10.6112C52.734 10.6112 52.5668 10.6947 52.3996 10.7783C52.3161 10.8619 52.2325 11.029 52.2325 11.1962C52.2325 11.3633 52.4832 11.5305 53.0683 11.6976C53.5697 11.8648 53.9876 12.0319 54.3219 12.1991C54.6562 12.3663 54.8234 12.7006 54.8234 13.202C54.8234 13.7871 54.6562 14.1214 54.3219 14.3721C53.9876 14.6228 53.5697 14.7064 52.9847 14.79C52.3996 14.8735 52.0653 14.79 51.8982 14.6228C51.731 14.4557 51.6475 13.9542 51.6475 13.202C51.8146 13.5363 51.9818 13.8706 52.3161 14.1214C52.6504 14.3721 52.9847 14.4557 53.4026 14.4557C53.904 14.3721 54.1547 14.1214 54.1547 13.7035C54.1547 13.4527 53.904 13.2856 53.4026 13.1184C52.9011 12.9513 52.4832 12.7841 52.1489 12.5334C51.8146 12.3663 51.731 11.9484 51.6475 11.4469C51.6475 11.029 51.8146 10.6947 52.0653 10.444C52.3161 10.2769 52.734 10.1097 53.1518 10.1097C53.2354 10.1097 53.4026 10.1097 53.6533 10.1097C53.904 10.1097 53.9876 10.1933 53.9876 10.1097C54.0712 10.1097 54.1547 10.1097 54.2383 10.0261C54.4891 10.1933 54.5726 10.1933 54.7398 10.1097Z" fill="black"/>
</g>
</g>
<defs>
<linearGradient id="paint0_linear" x1="15.7901" y1="-1.76437" x2="48.7405" y2="31.1863" gradientUnits="userSpaceOnUse">
<stop stop-color="#EAC459"/>
<stop offset="0.01" stop-color="#EAC459"/>
<stop offset="0.25" stop-color="#EAC459"/>
<stop offset="0.67" stop-color="#FCF16B"/>
<stop offset="1" stop-color="#DABB3B"/>
</linearGradient>
<linearGradient id="paint1_linear" x1="12.9782" y1="34.2493" x2="52.1555" y2="-4.92813" gradientUnits="userSpaceOnUse">
<stop stop-color="#EAC459"/>
<stop offset="0.01" stop-color="#EAC459"/>
<stop offset="0.25" stop-color="#EAC459"/>
<stop offset="0.67" stop-color="#FCF16B"/>
<stop offset="1" stop-color="#DABB3B"/>
</linearGradient>
</defs>
</svg>
