<svg width="68" height="31" viewBox="0 0 68 31" fill="none" xmlns="http://www.w3.org/2000/svg">
<g opacity="0.95">
<path opacity="0.95" d="M4.82804 9.10122L60.3793 1C60.5573 4.20488 63.228 6.43049 66.2549 6.07439L67.0561 19.161C63.9402 19.428 61.6256 22.3658 61.8036 25.5707L5.54025 30.2C5.45122 27.4402 3.5817 25.3037 1.35609 25.5707L1 14.6207C3.22561 14.2646 4.91706 11.7719 4.82804 9.10122Z" fill="url(#paint0_linear)" stroke="black" stroke-width="0.3242" stroke-miterlimit="10"/>
<path opacity="0.95" d="M5.89642 10.4367L59.4001 2.86963C59.5781 5.62938 62.0708 7.85499 64.7415 7.4989L65.3647 18.0928C62.694 18.3599 60.4684 21.1196 60.6464 23.9684L6.51961 28.6867C6.43058 26.283 4.47202 24.2355 2.60251 24.4135L2.33545 15.5111C4.11594 15.155 5.98545 12.7513 5.89642 10.4367Z" fill="url(#paint1_linear)" stroke="black" stroke-width="0.3242" stroke-miterlimit="10"/>
<g opacity="0.95">
<path opacity="0.95" d="M17.6474 13.3745L19.784 13.1074C19.873 13.3745 19.962 13.8196 20.2291 14.2647C20.4071 14.7099 20.5852 15.066 20.6742 15.333C20.2291 14.8879 19.784 14.5318 19.3389 14.0867C18.8047 13.7306 18.2705 13.6416 17.7364 13.7306C16.9352 13.8196 16.401 14.2647 16.134 15.066C15.8669 15.7782 15.7779 16.7574 15.7779 17.9147C15.8669 19.2501 16.134 20.4964 16.5791 21.6538C17.1132 22.9001 17.7364 23.4342 18.6266 23.3452C19.3388 23.2562 19.873 22.9891 20.1401 22.633C20.4962 22.1879 20.6742 21.6538 20.9413 21.0306C20.9413 21.8318 20.8523 22.455 20.4962 22.9001C20.1401 23.3452 19.5169 23.6123 18.5376 23.7013C17.5584 23.7903 16.6681 23.4342 15.9559 22.7221C15.2437 22.0099 14.8876 20.7635 14.7986 19.1611C14.7096 17.4696 14.9766 16.1342 15.5108 15.066C16.134 14.0867 16.8462 13.4635 17.6474 13.3745Z" fill="black"/>
<path opacity="0.95" d="M23.078 15.511C23.6121 15.4219 23.9682 15.689 24.2353 16.1341C24.5024 16.5792 24.6804 17.2024 24.7695 18.0036C24.7695 18.8049 24.5914 19.5171 24.2353 20.1402C23.8792 20.7634 23.4341 21.1195 22.9 21.2085C22.4548 21.2975 22.0097 21.0305 21.7426 20.5853C21.4755 20.1402 21.2975 19.5171 21.2085 18.7158C21.2085 17.9146 21.3865 17.2024 21.7426 16.5792C22.0987 15.8671 22.5438 15.511 23.078 15.511ZM22.0097 17.8256C22.0097 18.5378 22.0987 19.161 22.2768 19.7841C22.4548 20.3183 22.7219 20.5853 23.167 20.5853C23.4341 20.5853 23.6121 20.4073 23.7902 20.0512C23.9682 19.6951 23.9682 19.339 23.9682 18.8049C23.9682 18.0927 23.7902 17.4695 23.6121 16.9353C23.4341 16.4012 23.167 16.1341 22.7219 16.1341C22.4548 16.1341 22.2768 16.3122 22.0987 16.6683C22.0097 16.9353 21.9207 17.3805 22.0097 17.8256Z" fill="black"/>
<path opacity="0.95" d="M28.5083 19.6953C28.5083 19.8733 28.5973 19.9623 28.6864 19.9623C28.7754 19.9623 28.9534 19.7843 29.2205 19.4282C29.1315 19.7843 28.9534 20.0514 28.7754 20.2294C28.5973 20.4075 28.4193 20.4965 28.3303 20.5855C28.1522 20.5855 28.0632 20.5855 27.8851 20.4074C27.7961 20.3184 27.7071 20.0514 27.7071 19.7843L27.6181 16.8465C27.6181 16.6684 27.618 16.4904 27.529 16.4014C27.529 16.3123 27.44 16.2233 27.262 16.2233C27.0839 16.2233 26.9059 16.4904 26.6388 17.0245C26.3717 17.4696 26.2827 17.8257 26.2827 17.9148L26.3717 20.0514C26.3717 20.2294 26.2827 20.4075 26.1047 20.5855C25.9266 20.7635 25.7485 20.8526 25.5705 20.8526L25.3924 16.4014C25.3924 16.2233 25.3034 16.2233 25.3034 16.2233C25.2144 16.2233 25.0364 16.4014 24.7693 16.6684C24.9473 16.2233 25.2144 15.8672 25.3924 15.6001C25.5705 15.3331 25.7485 15.244 25.8376 15.155C26.0156 15.155 26.1046 15.244 26.1937 15.5111C26.2827 15.7782 26.2827 16.2233 26.2827 16.7574V17.2026C26.4607 16.6684 26.7278 16.1343 26.9949 15.6892C27.262 15.244 27.529 14.977 27.7961 14.8879C28.0632 14.8879 28.1522 14.977 28.2412 15.155C28.3303 15.3331 28.4193 15.6892 28.4193 16.1343C28.4193 16.2233 28.4193 16.4014 28.4193 16.4904C28.4193 16.5794 28.4193 16.7575 28.4193 16.8465C28.4193 17.1135 28.4193 17.3806 28.4193 17.6477C28.4193 17.9148 28.4193 18.2709 28.5083 18.716C28.5083 18.9831 28.5083 19.1611 28.5083 19.3392C28.5083 19.6062 28.5083 19.6953 28.5083 19.6953Z" fill="black"/>
<path opacity="0.95" d="M30.378 14.6207L31.1792 14.5317C31.0902 14.7988 31.0012 14.9768 30.8231 15.0659C30.6451 15.1549 30.5561 15.1549 30.378 15.2439L30.5561 19.25C30.5561 19.428 30.6451 19.5171 30.7341 19.5171C30.8231 19.5171 30.9121 19.4281 31.0902 19.339C31.1792 19.25 31.3573 18.9829 31.5353 18.7159C31.3573 19.161 31.1792 19.6061 31.0012 19.9622C30.7341 20.3183 30.5561 20.4963 30.289 20.4963C30.1109 20.4963 29.9329 20.4073 29.8439 20.2293C29.7548 20.0512 29.6658 19.6061 29.6658 19.072L29.4878 15.422L28.9536 15.511C28.9536 15.3329 29.1317 15.0659 29.3987 14.7988C29.6658 14.5317 29.9329 13.8195 30.1999 12.7512L30.378 14.6207Z" fill="black"/>
<path opacity="0.95" d="M35.1853 14.0864L35.4524 19.0718C35.4524 19.1608 35.5414 19.2498 35.6304 19.2498C35.7195 19.2498 35.7195 19.2498 35.8085 19.1608C35.8975 19.0718 35.9865 18.9828 36.1646 18.8047C36.0756 19.0718 35.9865 19.3389 35.8085 19.6059C35.6305 19.873 35.4524 19.962 35.2743 20.0511C35.1853 20.0511 35.0073 19.962 34.8292 19.784C34.6512 19.6059 34.5622 19.3389 34.5622 18.9828V18.2706C34.2061 18.8937 33.85 19.3389 33.6719 19.695C33.4048 20.0511 33.2268 20.2291 32.9597 20.2291C32.7817 20.2291 32.5146 20.0511 32.3366 19.784C32.1585 19.4279 32.0695 18.9828 31.9804 18.3596C31.8914 17.1133 32.1585 16.223 32.6036 15.5108C33.0487 14.7986 33.6719 14.3535 34.3841 14.2645L35.1853 14.0864ZM32.7817 17.2023C32.7817 17.6474 32.8707 17.9145 32.9597 18.1815C33.0487 18.3596 33.2268 18.4486 33.4048 18.4486C33.5829 18.4486 33.7609 18.3596 33.85 18.1815C34.028 18.0035 34.2061 17.8255 34.3841 17.5584L34.206 14.6206C33.7609 14.7096 33.3158 14.9767 33.0487 15.5108C32.8707 15.9559 32.7817 16.5791 32.7817 17.2023Z" fill="black"/>
<path opacity="0.95" d="M38.3899 13.6414C38.6569 13.6414 38.924 13.7304 39.1911 13.9084C39.4582 14.0865 39.6362 14.3536 39.6362 14.7097C39.6362 14.7987 39.5472 14.9767 39.3691 15.2438C39.1911 15.5109 39.1021 15.6889 38.924 15.7779C38.835 15.4218 38.6569 15.0657 38.3899 14.7987C38.1228 14.5316 37.8557 14.4426 37.5887 14.5316C37.3216 14.5316 37.1435 14.7987 37.0545 15.1548C37.0545 15.5999 37.0545 16.045 37.0545 16.4901C37.0545 17.3804 37.2326 17.9145 37.5887 18.2706C37.8557 18.6267 38.2118 18.7157 38.6569 18.7157C38.835 18.7157 39.013 18.6267 39.1911 18.4487C39.3691 18.2706 39.5472 18.0926 39.7252 17.9145C39.4582 18.5377 39.2801 18.8938 39.0131 19.1609C38.746 19.4279 38.3899 19.517 37.9448 19.606C37.3216 19.695 36.8765 19.517 36.6984 19.0718C36.5204 18.6267 36.4314 18.0926 36.3423 17.3804C36.2533 16.3121 36.4313 15.5109 36.8765 14.7987C37.2325 14.1755 37.7667 13.7304 38.3899 13.6414Z" fill="black"/>
<path opacity="0.95" d="M41.239 13.3744L42.0402 13.2854C41.9512 13.5524 41.8622 13.7305 41.6841 13.8195C41.5061 13.9085 41.4171 13.9085 41.239 13.9975L41.417 18.0927C41.417 18.2707 41.5061 18.3597 41.5951 18.3597C41.6841 18.3597 41.7731 18.2707 41.9512 18.1817C42.1292 18.0036 42.2183 17.8256 42.4853 17.5585C42.3073 18.0927 42.1292 18.4488 41.8622 18.8049C41.5951 19.161 41.328 19.339 41.15 19.339C40.9719 19.339 40.7939 19.25 40.7049 19.0719C40.6158 18.8939 40.5268 18.4488 40.5268 17.9146L40.3488 14.0866L39.7256 14.1756C39.7256 13.9975 39.9036 13.7305 40.2597 13.3744C40.6158 13.1073 40.8829 12.3951 41.15 11.2378L41.239 13.3744Z" fill="black"/>
<path opacity="0.95" d="M45.9571 12.751C46.2242 12.751 46.3132 12.8401 46.4023 13.0181C46.4913 13.2852 46.4913 13.4632 46.5803 13.7303L46.6693 16.312V16.6681C46.6693 16.9352 46.7584 17.2022 46.7584 17.2913C46.8474 17.4693 46.9364 17.4693 47.1144 17.4693C47.2925 17.4693 47.4706 17.2913 47.7376 16.8462C48.0047 16.4901 48.0937 16.134 48.0937 15.8669L48.0047 13.4632C48.0047 13.1962 48.0937 12.9291 48.2718 12.662C48.4498 12.3949 48.6279 12.3059 48.984 12.3059L49.2511 17.2913L49.3401 17.3803C49.3401 17.3803 49.4291 17.4693 49.5181 17.3803C49.6071 17.3803 49.6962 17.2913 49.8742 17.2022C49.9632 17.1132 50.1413 16.9352 50.3193 16.6681C50.1413 17.0242 49.9632 17.3803 49.6962 17.8254C49.4291 18.2705 49.162 18.4486 48.8949 18.5376C48.7169 18.5376 48.5388 18.5376 48.4498 18.3596C48.3608 18.1815 48.2718 18.0035 48.2718 17.7364V17.1132C48.0047 17.6474 47.6486 18.0035 47.4706 18.2705C47.2035 18.5376 46.9364 18.7157 46.6693 18.8047C46.4022 18.8047 46.2242 18.7157 46.1352 18.3596C46.0462 18.0925 45.9571 17.6474 45.9571 17.2022L45.7791 13.9974C45.7791 13.8193 45.7791 13.7303 45.6901 13.6413C45.6901 13.5522 45.601 13.5523 45.512 13.5523C45.423 13.5523 45.2449 13.6413 45.0669 13.8193C45.2449 13.4632 45.334 13.1962 45.512 13.0181C45.601 12.8401 45.7791 12.751 45.9571 12.751Z" fill="black"/>
<path opacity="0.95" d="M53.3462 11.772C53.2571 12.039 53.1681 12.3061 53.0791 12.5732C53.0791 12.8403 52.9901 13.1073 52.9901 13.2854C52.723 12.9293 52.545 12.7512 52.2779 12.6622C52.0998 12.5732 51.8327 12.4842 51.5657 12.5732C51.2986 12.5732 51.1206 12.6622 51.0315 12.8403C50.9425 13.0183 50.8535 13.1073 50.8535 13.3744C50.8535 13.6415 51.1206 13.8195 51.6547 14.0866C52.1888 14.3537 52.634 14.5317 52.9901 14.7988C53.3462 15.0659 53.5242 15.511 53.5242 16.1342C53.5242 16.9354 53.4352 17.3805 53.0791 17.7366C52.723 18.0037 52.2779 18.1817 51.7437 18.2708C51.2096 18.3598 50.8535 18.2708 50.6754 18.0037C50.4974 17.7366 50.4084 17.1134 50.3193 16.0451C50.4974 16.4903 50.6754 16.9354 51.0315 17.2915C51.3876 17.6476 51.7437 17.8256 52.1889 17.7366C52.723 17.6476 52.901 17.3805 52.901 16.7573C52.901 16.4903 52.634 16.2232 52.0998 15.9561C51.5657 15.689 51.1206 15.422 50.8535 15.1549C50.5864 14.8878 50.4084 14.4427 50.3193 13.7305C50.3193 13.1073 50.4084 12.7512 50.6754 12.4842C50.9425 12.2171 51.2986 12.039 51.7437 12.039C51.8328 12.039 52.0108 12.039 52.2779 12.039C52.4559 12.039 52.634 12.1281 52.634 12.1281C52.723 12.1281 52.812 12.1281 52.901 12.039C53.0791 11.95 53.2571 11.861 53.3462 11.772Z" fill="black"/>
</g>
</g>
<defs>
<linearGradient id="paint0_linear" x1="55.4614" y1="-4.81427" x2="13.0479" y2="37.5993" gradientUnits="userSpaceOnUse">
<stop stop-color="#EAC459"/>
<stop offset="0.01" stop-color="#EAC459"/>
<stop offset="0.25" stop-color="#EAC459"/>
<stop offset="0.67" stop-color="#FCF16B"/>
<stop offset="1" stop-color="#DABB3B"/>
</linearGradient>
<linearGradient id="paint1_linear" x1="51.0467" y1="33.4548" x2="16.9258" y2="-0.666143" gradientUnits="userSpaceOnUse">
<stop stop-color="#EAC459"/>
<stop offset="0.01" stop-color="#EAC459"/>
<stop offset="0.25" stop-color="#EAC459"/>
<stop offset="0.67" stop-color="#FCF16B"/>
<stop offset="1" stop-color="#DABB3B"/>
</linearGradient>
</defs>
</svg>
