<svg width="60" height="30" viewBox="0 0 60 30" fill="none" xmlns="http://www.w3.org/2000/svg">
<g opacity="0.95">
<g opacity="0.95">
<path opacity="0.95" d="M4.45636 1L54.0934 5.96051C54.1575 9.03283 56.4297 11.7211 59.15 12.0731L59.47 24.5544C56.7177 24.1384 54.6055 26.3146 54.6695 29.3869L4.8724 21.1301C4.80839 18.5058 3.17622 16.1056 1.22402 15.8175L1 5.38445C2.9522 5.57647 4.52036 3.65627 4.45636 1Z" fill="url(#paint0_linear_1361_185)" stroke="black" stroke-width="0.32" stroke-miterlimit="10"/>
<path opacity="0.95" d="M5.35223 2.50415L53.1331 7.49666C53.1971 10.1209 55.3734 12.8092 57.7096 13.0972L57.9656 23.1783C55.5974 22.8262 53.5492 24.9385 53.6132 27.5947L5.67226 19.8499C5.64026 17.6097 3.91208 15.2095 2.2159 14.9854L2.08789 6.47256C3.75206 6.69658 5.38423 4.77638 5.35223 2.50415Z" fill="url(#paint1_linear_1361_185)" stroke="black" stroke-width="0.32" stroke-miterlimit="10"/>
</g>
<path d="M14.7293 8.42484L17.1615 8.68087C16.8415 9.03291 16.5215 9.57696 16.2975 10.313C16.0414 11.0491 15.9134 11.9452 15.9134 13.0013C15.9134 14.2174 16.0734 15.3055 16.3615 16.2656C16.6815 17.2257 17.0975 17.7698 17.6416 17.8658C17.7696 17.8978 17.9936 17.7698 18.3137 17.4818C18.6337 17.1937 18.9537 16.7457 19.2098 16.0736C19.4978 15.4336 19.6258 14.6015 19.6258 13.5774C19.6258 12.8733 19.4978 12.2012 19.2098 11.5932C18.9217 10.9851 18.5697 10.6331 18.1536 10.6011C18.0896 10.6011 17.9936 10.6331 17.9296 10.6971C17.8336 10.7611 17.7376 10.8891 17.6416 11.0171C17.7056 10.6011 17.8656 10.185 18.1536 9.76898C18.4417 9.38494 18.6977 9.19292 18.9537 9.22493C19.3058 9.25693 19.7218 9.67297 20.2339 10.5051C20.7459 11.3371 21.0019 12.2012 21.0019 13.1613C21.0019 14.2494 20.5859 15.3696 19.7538 16.5857C18.9217 17.7698 18.1216 18.2819 17.2896 18.1538C16.4255 18.0258 15.7854 17.4498 15.3694 16.5217C14.9533 15.5936 14.7613 14.5055 14.7613 13.3213C14.7613 12.4253 14.8893 11.6252 15.1773 10.9211C15.4334 10.217 15.7854 9.54496 16.2334 8.90489L14.9533 8.77688C14.2492 8.71287 13.6732 8.84089 13.1931 9.22493C12.7131 9.57696 12.4891 10.121 12.4891 10.7931C12.4891 11.3051 12.6171 11.8492 12.8731 12.4253C13.1291 13.0013 13.5772 13.5774 14.2172 14.0894C13.5772 13.9934 13.0651 13.6734 12.6491 13.1293C12.233 12.5853 12.041 11.9452 12.041 11.1771C12.041 10.217 12.329 9.48095 12.8731 9.0009C13.3211 8.55286 13.9612 8.36084 14.7293 8.42484Z" fill="black"/>
<path d="M22.5379 11.8172C22.7619 11.8492 22.9219 11.9453 22.9859 12.1693C23.0819 12.3613 23.1139 12.6173 23.1139 12.8734V16.2337C23.1459 16.4577 23.2099 16.5857 23.3379 16.5857C23.434 16.5857 23.53 16.5537 23.626 16.4897C23.754 16.3937 23.818 16.3617 23.85 16.3297C23.69 16.6177 23.498 16.8418 23.3379 16.9698C23.1779 17.0978 22.9539 17.1298 22.7619 17.0978C22.5699 17.0658 22.4419 16.9698 22.3138 16.7778C22.2178 16.5857 22.1538 16.3617 22.1538 16.1377V12.6493C22.1538 12.4893 22.0898 12.4253 21.9938 12.3933C21.8658 12.3613 21.6418 12.4893 21.3857 12.7133C21.4177 12.5533 21.5778 12.3933 21.8018 12.1373C22.0578 11.8812 22.3138 11.7852 22.5379 11.8172ZM22.6659 9.22498C22.8579 9.25698 22.9859 9.32099 23.1139 9.481C23.2419 9.64102 23.3059 9.83304 23.3059 10.0891C23.3059 10.3771 23.2099 10.5691 22.9859 10.6971C22.7619 10.8251 22.5699 10.8891 22.4098 10.8571C22.2498 10.8251 22.1538 10.7291 22.0898 10.5691C22.0258 10.3771 21.9938 10.1851 21.9938 9.92905C21.9938 9.64102 22.0578 9.417 22.1858 9.32099C22.2818 9.25698 22.4419 9.22498 22.6659 9.22498Z" fill="black"/>
<path d="M28.235 17.0978C28.235 17.1938 28.299 17.2578 28.395 17.2898C28.459 17.2898 28.555 17.2898 28.6511 17.2578C28.7471 17.2258 28.9071 17.1618 29.0991 17.0658C29.0031 17.2578 28.8431 17.4498 28.619 17.6098C28.395 17.7698 28.171 17.8659 27.947 17.8659C27.819 17.8339 27.6589 17.7378 27.4669 17.5138C27.2749 17.2898 27.1789 17.0338 27.1789 16.7457V16.1057C26.7309 16.5217 26.3468 16.8738 26.0268 17.1298C25.7067 17.3858 25.4507 17.5138 25.2267 17.4498C24.9707 17.4178 24.7467 17.2258 24.5546 16.8738C24.3626 16.5217 24.2666 16.0737 24.2666 15.5296C24.2666 14.4415 24.5226 13.6414 25.0667 13.0974C25.6107 12.5533 26.3148 12.3293 27.1469 12.4253V11.5932C27.1469 11.0172 27.3069 10.5371 27.5629 10.1531C27.851 9.76903 28.235 9.60901 28.7471 9.67302L29.7712 9.76903C29.5151 10.2171 29.1951 10.4411 28.8111 10.4411C28.427 10.4411 28.203 10.4731 28.203 10.6011L28.235 17.0978ZM25.3227 14.7295C25.3227 15.1136 25.3867 15.4336 25.4827 15.6256C25.6107 15.8176 25.7708 15.9457 25.9628 15.9777C26.1548 16.0097 26.3148 15.9777 26.5388 15.8817C26.7309 15.7856 26.9549 15.6576 27.1469 15.4976V12.7773C26.6028 12.7133 26.1548 12.8733 25.8028 13.2894C25.4827 13.6734 25.3227 14.1535 25.3227 14.7295Z" fill="black"/>
<path d="M32.0752 12.9372C32.3953 12.9692 32.6513 13.0652 32.8433 13.1933C33.0353 13.3213 33.3233 13.6093 33.6754 14.0253L30.7631 16.7136C30.9231 17.0016 31.1151 17.2257 31.3391 17.3217C31.5632 17.4497 31.8192 17.5137 32.1392 17.5457C32.4273 17.5777 32.7153 17.5457 32.9713 17.4497C33.2273 17.3537 33.4834 17.2257 33.6754 17.0977C33.3554 17.5777 33.0033 17.8977 32.6193 18.1218C32.2352 18.3138 31.7872 18.3778 31.3071 18.3138C30.6031 18.2178 30.123 17.8977 29.835 17.3857C29.547 16.8736 29.4189 16.3296 29.4189 15.7855C29.4189 14.8254 29.675 14.0893 30.187 13.5773C30.6991 13.0972 31.3391 12.8732 32.0752 12.9372ZM30.6671 16.4576C30.9551 16.2016 31.2111 15.9775 31.4992 15.7215C31.9152 15.3055 32.1392 14.9534 32.1392 14.7294C32.1392 14.4414 32.0752 14.1854 31.9472 14.0253C31.8192 13.8333 31.6272 13.7373 31.4032 13.7053C31.1151 13.6733 30.9231 13.8333 30.7631 14.1534C30.6031 14.4734 30.5391 14.8894 30.5391 15.3695C30.5391 15.5615 30.5391 15.7535 30.5711 15.9455C30.5711 16.0735 30.6031 16.2656 30.6671 16.4576Z" fill="black"/>
<path d="M37.0033 13.5134C37.7073 13.6094 38.2514 13.9294 38.6354 14.4735C39.0195 15.0495 39.2435 15.6896 39.2115 16.4577C39.2115 17.2577 38.9235 17.9298 38.3154 18.4739C37.7393 19.0179 37.0993 19.2099 36.3952 19.1139C35.7231 19.0179 35.2111 18.6979 34.827 18.1218C34.443 17.5458 34.251 16.9057 34.251 16.1376C34.251 15.3695 34.539 14.7295 35.0831 14.1854C35.6591 13.6734 36.2672 13.4493 37.0033 13.5134ZM35.3711 15.5296C35.3711 16.2336 35.4671 16.8737 35.6271 17.5138C35.7871 18.1218 36.2032 18.4739 36.8432 18.5699C37.1953 18.6339 37.5153 18.5059 37.7393 18.2178C37.9634 17.9298 38.0914 17.5458 38.0914 17.0657C38.0914 16.3616 37.9954 15.6896 37.7713 15.0815C37.5473 14.4735 37.1633 14.1214 36.6192 14.0574C36.2672 14.0254 35.9472 14.1214 35.7551 14.4094C35.4671 14.6975 35.3711 15.0495 35.3711 15.5296Z" fill="black"/>
<path d="M43.6927 14.2495C43.5327 14.4735 43.4367 14.6976 43.3407 14.9536C43.2767 15.1776 43.2127 15.4016 43.1487 15.5936C42.8606 15.2416 42.6046 14.9856 42.3486 14.8256C42.0925 14.6655 41.8045 14.5695 41.4845 14.5375C41.1645 14.5055 40.9404 14.5375 40.7804 14.6335C40.6524 14.7296 40.5884 14.8896 40.5884 15.0816C40.5884 15.3056 40.9084 15.5936 41.5805 15.9457C42.2526 16.2977 42.7646 16.6498 43.1487 17.0018C43.5327 17.3218 43.7247 17.8019 43.7247 18.4099C43.7247 19.146 43.5007 19.5621 43.0526 19.7541C42.6046 19.9141 42.0605 19.9461 41.3565 19.8501C40.6844 19.7541 40.2364 19.5621 40.0763 19.274C39.8843 18.986 39.8203 18.3779 39.8203 17.3858C39.9803 17.8659 40.2364 18.3139 40.6204 18.73C41.0044 19.146 41.4525 19.402 41.9965 19.498C42.6046 19.5941 42.9246 19.37 42.9246 18.794C42.9246 18.5379 42.6046 18.1859 41.9645 17.8019C41.3245 17.4178 40.8124 17.0658 40.4604 16.7458C40.1083 16.4257 39.9163 15.9457 39.9163 15.3056C39.9163 14.7616 40.0763 14.3775 40.4284 14.2175C40.7804 14.0575 41.2285 13.9935 41.8045 14.0575C41.9645 14.0895 42.1566 14.1215 42.4446 14.2175C42.7006 14.3135 42.8606 14.3775 42.9246 14.3775C43.0526 14.4095 43.1807 14.4095 43.2767 14.3775C43.3727 14.3775 43.5327 14.3135 43.6927 14.2495Z" fill="black"/>
</g>
<defs>
<linearGradient id="paint0_linear_1361_185" x1="46.4511" y1="-1.67487" x2="14.2497" y2="30.5266" gradientUnits="userSpaceOnUse">
<stop stop-color="#EAC459"/>
<stop offset="0.01" stop-color="#EAC459"/>
<stop offset="0.25" stop-color="#EAC459"/>
<stop offset="0.67" stop-color="#FCF16B"/>
<stop offset="1" stop-color="#DABB3B"/>
</linearGradient>
<linearGradient id="paint1_linear_1361_185" x1="48.4689" y1="32.7516" x2="11.7903" y2="-3.92688" gradientUnits="userSpaceOnUse">
<stop stop-color="#EAC459"/>
<stop offset="0.01" stop-color="#EAC459"/>
<stop offset="0.25" stop-color="#EAC459"/>
<stop offset="0.67" stop-color="#FCF16B"/>
<stop offset="1" stop-color="#DABB3B"/>
</linearGradient>
</defs>
</svg>
