<svg width="60" height="30" viewBox="0 0 60 30" fill="none" xmlns="http://www.w3.org/2000/svg">
<g opacity="0.95">
<g opacity="0.95">
<path opacity="0.95" d="M4.23587 0.600098L53.8479 5.59636C53.9356 8.66424 56.2146 11.3815 58.9318 11.7321L59.2824 24.179C56.5652 23.7407 54.3738 25.932 54.4615 28.9999L4.67414 20.7605C4.58649 18.1308 3.00874 15.7642 0.992701 15.4136L0.817383 4.98279C2.65811 5.15809 4.23587 3.22971 4.23587 0.600098Z" fill="url(#paint0_linear)" stroke="black" stroke-width="0.3242" stroke-miterlimit="10"/>
<path opacity="0.95" d="M5.11257 2.09033L52.8839 7.08659C52.9715 9.71621 55.1629 12.4335 57.4419 12.6964L57.7048 22.7766C55.3382 22.426 53.3221 24.5297 53.3221 27.1593L5.37555 19.4458C5.28789 17.1668 3.62248 14.8001 1.95706 14.5372L1.78174 6.03475C3.53481 6.29771 5.11257 4.36933 5.11257 2.09033Z" fill="url(#paint1_linear)" stroke="black" stroke-width="0.3242" stroke-miterlimit="10"/>
</g>
</g>
<path d="M16.6827 7.78761L16.858 7.6123V7.78761L20.7148 8.13822C20.7148 8.48883 20.8025 8.83946 21.0654 9.36538C21.3284 9.8913 21.5037 10.2419 21.5037 10.5925C21.0654 10.0666 20.5395 9.54068 20.1012 9.01476C19.5753 8.57649 19.0494 8.40119 18.4358 8.31354L16.7704 8.13822V11.995C17.121 11.5567 17.4716 11.2061 17.8222 10.8555C18.1728 10.5925 18.6111 10.5049 19.137 10.5049C19.4 10.5049 19.663 10.6802 19.7506 10.8555C19.9259 11.0308 20.0136 11.2938 20.0136 11.6444C20.0136 11.9073 19.9259 12.1703 19.7506 12.5209C19.7506 12.3456 19.7506 12.1703 19.7506 11.995C19.7506 11.6444 19.6629 11.4691 19.5753 11.2938C19.4876 11.2061 19.3123 11.1185 19.137 11.1185C18.7864 11.0308 18.2605 11.3814 17.6469 11.995C17.0333 12.6086 16.7704 13.4851 16.7704 14.6246C16.7704 15.3258 16.858 15.6764 17.0333 15.8518C17.2086 16.0271 17.6469 16.1147 18.2605 16.2024C18.9617 16.29 19.5753 16.2024 20.1889 15.8518C20.7148 15.5888 21.1531 15.0629 21.5037 14.3616C21.5037 14.7123 21.3284 15.1505 21.1531 15.5888C20.9778 16.0271 20.8025 16.4653 20.6271 16.8159L14.4037 15.9394C14.579 15.8518 14.6667 15.8518 14.842 15.7641C15.2803 15.5011 15.4556 15.1505 15.4556 14.7999V10.5049C15.4556 10.1543 15.4556 9.80365 15.5432 9.54068C15.6309 9.27772 15.8062 8.7518 16.1568 8.05057C15.0173 7.96292 14.2284 8.05057 13.7902 8.40118C13.3519 8.7518 13.0889 9.36538 13.0889 10.2419C13.0889 11.1185 13.1766 11.8197 13.4395 12.3456C13.7025 12.8715 14.1408 13.3098 14.6667 13.7481C13.8778 13.6604 13.2642 13.3098 13.0013 12.6962C12.6506 12.0826 12.563 11.3814 12.563 10.5049C12.563 9.45304 12.8259 8.7518 13.4395 8.22588C14.2284 7.87526 15.1926 7.69996 16.6827 7.78761Z" fill="black"/>
<path d="M25.974 11.3812C26.0617 11.3812 26.237 11.5565 26.4999 11.9948C26.7629 12.3454 26.8505 12.7837 26.8505 13.2219C26.8505 13.3972 26.5876 14.0108 26.0617 14.7997C25.5357 15.6762 25.1851 16.4651 24.9222 17.0787C24.5715 16.3775 24.2209 15.5886 23.8703 14.712C23.5197 13.7478 23.2567 13.2219 23.0814 12.959C22.9061 12.696 22.7308 12.5207 22.3802 12.5207C22.2925 12.5207 22.2049 12.5207 21.9419 12.6083C21.7666 12.696 21.5913 12.696 21.5037 12.7837C21.679 12.5207 21.9419 12.2577 22.2925 11.9071C22.6432 11.5565 22.9938 11.3812 23.1691 11.3812C23.5197 11.3812 23.8703 12.0824 24.3962 13.2219C24.8345 14.4491 25.1851 15.238 25.4481 15.5009C25.5357 15.4133 25.6234 15.1503 25.7987 14.8874C25.8863 14.6244 25.974 14.2738 25.974 13.9232C25.974 13.5725 25.8863 13.3096 25.711 13.0466C25.5357 12.7837 25.3604 12.6083 25.0098 12.3454C25.0975 12.1701 25.2728 11.9948 25.4481 11.7318C25.6234 11.4688 25.7987 11.2935 25.974 11.3812Z" fill="black"/>
<path d="M30.0937 11.995C30.4443 11.995 30.6197 12.0826 30.8826 12.2579C31.0579 12.4332 31.3209 12.6962 31.7592 13.1345L28.8666 15.9394C29.0419 16.2023 29.2172 16.4653 29.4802 16.5529C29.7431 16.6406 30.0061 16.7283 30.269 16.8159C30.532 16.8159 30.8826 16.8159 31.0579 16.7282C31.3209 16.6406 31.5839 16.4653 31.7592 16.3776C31.4086 16.9036 31.0579 17.2542 30.7073 17.4295C30.3567 17.6048 29.9184 17.6924 29.3925 17.6924C28.6913 17.6048 28.1653 17.2542 27.9024 16.7282C27.6394 16.2023 27.4641 15.6764 27.4641 15.0628C27.4641 14.0986 27.7271 13.3098 28.253 12.7838C28.6913 12.1703 29.3048 11.9073 30.0937 11.995ZM28.6913 15.5887C28.9542 15.3258 29.2172 15.0628 29.4802 14.7999C29.9184 14.3616 30.0937 14.011 30.0937 13.748C30.0937 13.4851 30.0061 13.2221 29.9184 13.0468C29.7431 12.8715 29.5678 12.7838 29.3925 12.6962C29.1295 12.6962 28.8666 12.7838 28.7789 13.1345C28.6036 13.4851 28.516 13.9233 28.516 14.3616C28.516 14.5369 28.516 14.7999 28.516 14.9752C28.6036 15.2381 28.6036 15.4134 28.6913 15.5887Z" fill="black"/>
<path d="M36.4924 17.6046C36.4924 17.7799 36.58 17.8675 36.6676 17.9552C36.843 17.9552 37.1059 17.8675 37.3689 17.6046C37.1936 17.9552 37.0183 18.1305 36.7553 18.3058C36.4923 18.4811 36.317 18.4811 36.0541 18.4811C35.7911 18.4811 35.6158 18.3934 35.5282 18.2181C35.3529 18.0428 35.3528 17.7799 35.3528 17.5169V14.5367C35.3528 14.3614 35.3529 14.1861 35.2652 14.0108C35.2652 13.9231 35.0899 13.8355 34.9146 13.7478C34.7393 13.7478 34.3887 13.9231 34.1257 14.3614C33.7751 14.7996 33.5998 15.0626 33.5998 15.1503V17.3416C33.5998 17.5169 33.4245 17.6922 33.1615 17.7799C32.8985 17.8675 32.7232 17.9552 32.4603 17.9552V13.4848C32.4603 13.3095 32.3726 13.3095 32.285 13.2219C32.1973 13.2219 31.9344 13.3095 31.5837 13.4848C31.8467 13.1342 32.1973 12.7836 32.4603 12.6083C32.7232 12.433 32.8986 12.2577 33.0739 12.3453C33.3368 12.3453 33.4245 12.5206 33.5121 12.7836C33.5998 13.0466 33.5998 13.4848 33.5998 14.0108V14.5367C33.9504 14.0108 34.2134 13.5725 34.6516 13.2219C35.0022 12.7836 35.3528 12.6083 35.7911 12.696C36.1417 12.696 36.317 12.8713 36.4047 13.1342C36.4924 13.3972 36.58 13.7478 36.58 14.1861C36.58 14.3614 36.58 14.449 36.58 14.5367C36.58 14.6243 36.58 14.7996 36.58 14.8873C36.58 15.1503 36.58 15.4132 36.58 15.6762C36.58 15.9391 36.58 16.2898 36.58 16.728C36.58 16.991 36.58 17.1663 36.58 17.3416C36.58 17.5169 36.4924 17.6046 36.4924 17.6046Z" fill="black"/>
<path d="M39.2973 13.0468L40.3491 13.1345C40.2615 13.3974 40.0862 13.4851 39.9109 13.5727C39.7356 13.5727 39.4726 13.6604 39.2973 13.5727V17.6048C39.2973 17.7801 39.3849 17.8678 39.4726 17.9554C39.5602 17.9554 39.7356 17.9554 39.9109 17.8678C40.0862 17.7801 40.3491 17.6048 40.6121 17.4295C40.3491 17.8678 40.0862 18.2184 39.7355 18.4813C39.3849 18.7443 39.122 18.832 38.7714 18.832C38.5084 18.832 38.3331 18.6567 38.2454 18.3937C38.1578 18.1307 38.0701 17.7801 38.0701 17.1665V13.3974L37.2812 13.3098C37.2812 13.1345 37.5442 12.8715 37.9825 12.6962C38.4207 12.5209 38.859 11.9073 39.2096 10.8555V13.0468H39.2973Z" fill="black"/>
<path d="M44.9071 13.6604C44.7318 13.9233 44.6441 14.0986 44.5564 14.3616C44.4688 14.6246 44.3812 14.7999 44.3812 14.9752C44.1182 14.6246 43.8552 14.3616 43.5923 14.1863C43.3293 14.011 43.0664 13.9233 42.7157 13.9233C42.3651 13.9233 42.1898 13.9233 42.0145 14.011C41.9268 14.0986 41.8392 14.2739 41.8392 14.4493C41.8392 14.7122 42.1898 14.9752 42.8034 15.3258C43.5046 15.6764 44.0305 16.027 44.3812 16.3776C44.7318 16.7283 44.9947 17.1665 44.9947 17.7801C44.9947 18.4813 44.7318 19.0072 44.2935 19.1826C43.8552 19.3579 43.3293 19.4455 42.6281 19.3579C41.9268 19.2702 41.4886 19.0949 41.3133 18.8319C41.138 18.569 41.0503 17.8677 41.0503 16.9035C41.2256 17.4295 41.4886 17.8677 41.8392 18.306C42.1898 18.7443 42.6281 19.0072 43.2416 19.0949C43.8552 19.1825 44.1182 18.9196 44.1182 18.3937C44.1182 18.1307 43.7676 17.7801 43.154 17.4295C42.5404 17.0789 42.0145 16.7283 41.6639 16.3776C41.3133 16.027 41.138 15.5888 41.138 14.8875C41.138 14.2739 41.3133 13.9233 41.6639 13.748C42.0145 13.5727 42.4528 13.4851 43.0663 13.5727C43.2417 13.5727 43.4169 13.6604 43.6799 13.748C43.9429 13.8357 44.1182 13.9233 44.1182 13.9233C44.2935 13.9233 44.3812 13.9233 44.4688 13.9233C44.6441 13.748 44.7318 13.6604 44.9071 13.6604Z" fill="black"/>
<defs>
<linearGradient id="paint0_linear" x1="46.1708" y1="-2.0928" x2="13.9783" y2="30.0996" gradientUnits="userSpaceOnUse">
<stop stop-color="#EAC459"/>
<stop offset="0.01" stop-color="#EAC459"/>
<stop offset="0.25" stop-color="#EAC459"/>
<stop offset="0.67" stop-color="#FCF16B"/>
<stop offset="1" stop-color="#DABB3B"/>
</linearGradient>
<linearGradient id="paint1_linear" x1="48.1886" y1="32.3243" x2="11.52" y2="-4.34414" gradientUnits="userSpaceOnUse">
<stop stop-color="#EAC459"/>
<stop offset="0.01" stop-color="#EAC459"/>
<stop offset="0.25" stop-color="#EAC459"/>
<stop offset="0.67" stop-color="#FCF16B"/>
<stop offset="1" stop-color="#DABB3B"/>
</linearGradient>
</defs>
</svg>
