<svg width="229" height="56" viewBox="0 0 229 56" fill="none" xmlns="http://www.w3.org/2000/svg">
<path d="M212.516 0H16.4844C16.4844 7.32308 9.08872 13.2821 0 13.2821V42.7179C9.08872 42.7179 16.4844 48.6769 16.4844 56H212.516C212.516 48.6769 219.911 42.7179 229 42.7179V13.2821C219.911 13.2821 212.516 7.35897 212.516 0Z" fill="url(#paint0_linear_1370_159)"/>
<path d="M20.4011 4.44873H208.11C208.301 7.60988 210.278 10.5755 213.1 12.7661C215.955 14.9819 219.733 16.4564 223.6 16.5744V39.4615C219.734 39.5787 215.955 41.0443 213.101 43.256C210.277 45.4435 208.3 48.4101 208.11 51.5872H20.4011C20.2223 48.4206 18.3614 45.4547 15.64 43.2619C12.8897 41.0459 9.21536 39.5789 5.35645 39.4615V16.5744C9.21536 16.457 12.8897 14.99 15.64 12.774C18.3614 10.5812 20.2223 7.61532 20.4011 4.44873Z" fill="url(#paint1_linear_1370_159)" stroke="black"/>
<path d="M78.7273 14.168H86.7593C85.6713 15.256 84.7113 16.8773 83.8793 19.032C83.0686 21.1867 82.6633 23.7573 82.6633 26.744C82.6633 30.1573 83.1753 33.1547 84.1993 35.736C85.2233 38.3387 86.5993 39.64 88.3273 39.64C88.7326 39.64 89.4473 39.1707 90.4713 38.232C91.5166 37.3147 92.4766 35.9067 93.3513 34.008C94.2259 32.1093 94.6633 29.7733 94.6633 27C94.6633 25.0587 94.2046 23.288 93.2873 21.688C92.3913 20.0667 91.2819 19.256 89.9593 19.256C89.7246 19.256 89.4686 19.3733 89.1913 19.608C88.9353 19.8427 88.6153 20.1733 88.2313 20.6C88.4233 19.384 88.9566 18.1893 89.8313 17.016C90.7059 15.8213 91.5486 15.224 92.3593 15.224C93.4473 15.224 94.7806 16.2693 96.3593 18.36C97.9593 20.4293 98.7593 22.7653 98.7593 25.368C98.7593 28.2907 97.4579 31.5547 94.8553 35.16C92.2739 38.7867 89.6606 40.6 87.0153 40.6C84.1566 40.6 82.0446 39.352 80.6793 36.856C79.3139 34.3813 78.6313 31.448 78.6313 28.056C78.6313 25.5173 79.0793 23.192 79.9753 21.08C80.8713 18.968 82.0233 16.9733 83.4313 15.096H79.1433C76.7753 15.096 74.7806 15.6933 73.1593 16.888C71.5379 18.0613 70.7273 19.64 70.7273 21.624C70.7273 23.096 71.1539 24.6213 72.0073 26.2C72.8606 27.7787 74.3859 29.1973 76.5833 30.456C74.4286 30.456 72.6366 29.7627 71.2073 28.376C69.7993 26.968 69.0953 25.176 69.0953 23C69.0953 20.2053 70.0659 18.04 72.0073 16.504C73.9699 14.9467 76.2099 14.168 78.7273 14.168ZM104.07 14.168C104.603 14.168 105.051 14.36 105.414 14.744C105.777 15.128 105.958 15.6507 105.958 16.312C105.958 17.0587 105.638 17.6453 104.998 18.072C104.358 18.4987 103.782 18.712 103.27 18.712C102.822 18.712 102.481 18.4773 102.246 18.008C102.033 17.5173 101.926 16.952 101.926 16.312C101.926 15.5013 102.118 14.9467 102.502 14.648C102.886 14.328 103.409 14.168 104.07 14.168ZM103.654 21.144C104.315 21.144 104.774 21.4 105.03 21.912C105.307 22.424 105.446 23.032 105.446 23.736V32.728C105.531 33.3253 105.755 33.624 106.118 33.624C106.374 33.624 106.673 33.4853 107.014 33.208C107.355 32.9307 107.579 32.7493 107.686 32.664C107.174 33.5387 106.651 34.1787 106.118 34.584C105.606 34.9893 105.019 35.192 104.358 35.192C103.803 35.192 103.355 34.9573 103.014 34.488C102.673 34.0187 102.502 33.464 102.502 32.824V23.384C102.502 22.9787 102.353 22.776 102.054 22.776C101.649 22.776 101.019 23.1387 100.166 23.864C100.273 23.4587 100.71 22.904 101.478 22.2C102.246 21.496 102.971 21.144 103.654 21.144ZM120.35 33.144C120.371 33.4213 120.51 33.56 120.766 33.56C120.958 33.56 121.182 33.496 121.438 33.368C121.715 33.2187 122.152 32.9733 122.75 32.632C122.494 33.1867 122.035 33.7413 121.374 34.296C120.712 34.8293 120.083 35.128 119.486 35.192C119.144 35.192 118.696 34.9467 118.142 34.456C117.608 33.9653 117.342 33.336 117.342 32.568V30.84C116.062 32.12 114.963 33.1653 114.046 33.976C113.15 34.7867 112.371 35.192 111.71 35.192C110.984 35.192 110.334 34.7653 109.758 33.912C109.203 33.0373 108.926 31.8853 108.926 30.456C108.926 27.5547 109.715 25.304 111.294 23.704C112.872 22.104 114.888 21.304 117.342 21.304V19.128C117.342 17.592 117.747 16.3013 118.558 15.256C119.368 14.1893 120.467 13.656 121.854 13.656H124.702C124.019 14.8933 123.123 15.5547 122.014 15.64C120.904 15.704 120.35 15.896 120.35 16.216V33.144ZM111.998 28.024C111.998 29.0693 112.168 29.8373 112.51 30.328C112.851 30.8187 113.32 31.064 113.918 31.064C114.43 31.064 114.974 30.9147 115.55 30.616C116.147 30.296 116.744 29.8693 117.342 29.336V22.2C115.742 22.2 114.451 22.7973 113.47 23.992C112.488 25.1653 111.998 26.5093 111.998 28.024ZM130.942 21.176C131.774 21.176 132.457 21.3253 132.99 21.624C133.545 21.9227 134.291 22.5413 135.23 23.48L127.454 31.256C127.881 31.96 128.403 32.4187 129.022 32.632C129.662 32.824 130.377 32.92 131.166 32.92C131.955 32.92 132.691 32.7387 133.374 32.376C134.078 32.0133 134.707 31.6293 135.262 31.224C134.409 32.5253 133.47 33.5067 132.446 34.168C131.422 34.808 130.249 35.128 128.926 35.128C127.027 35.128 125.683 34.52 124.894 33.304C124.105 32.088 123.71 30.776 123.71 29.368C123.71 26.8933 124.403 24.9093 125.79 23.416C127.177 21.9227 128.894 21.176 130.942 21.176ZM127.166 30.52C127.913 29.7947 128.659 29.0693 129.406 28.344C130.537 27.128 131.102 26.2107 131.102 25.592C131.102 24.8453 130.921 24.2693 130.558 23.864C130.195 23.4373 129.715 23.224 129.118 23.224C128.371 23.224 127.785 23.672 127.358 24.568C126.931 25.4427 126.718 26.488 126.718 27.704C126.718 28.216 126.75 28.7067 126.814 29.176C126.878 29.624 126.995 30.072 127.166 30.52ZM143.808 21.144C145.557 21.144 146.923 21.7733 147.904 23.032C148.907 24.2907 149.408 25.848 149.408 27.704C149.408 29.6667 148.683 31.4053 147.232 32.92C145.781 34.4347 144.16 35.192 142.368 35.192C140.683 35.192 139.339 34.5627 138.336 33.304C137.333 32.024 136.832 30.424 136.832 28.504C136.832 26.584 137.536 24.8773 138.944 23.384C140.352 21.8907 141.973 21.144 143.808 21.144ZM139.648 26.616C139.648 28.3653 139.872 29.976 140.32 31.448C140.789 32.92 141.824 33.656 143.424 33.656C144.341 33.656 145.088 33.272 145.664 32.504C146.24 31.736 146.528 30.7547 146.528 29.56C146.528 27.832 146.24 26.2533 145.664 24.824C145.088 23.3733 144.107 22.648 142.72 22.648C141.781 22.648 141.035 23.0213 140.48 23.768C139.925 24.5147 139.648 25.464 139.648 26.616ZM160.166 21.048C159.804 21.624 159.537 22.2 159.366 22.776C159.196 23.352 159.046 23.8747 158.918 24.344C158.236 23.5973 157.596 23.0747 156.998 22.776C156.401 22.4773 155.708 22.328 154.918 22.328C154.129 22.328 153.574 22.4667 153.254 22.744C152.934 23.0213 152.774 23.3947 152.774 23.864C152.774 24.3973 153.574 25.0053 155.174 25.688C156.774 26.3493 158.033 27.0107 158.95 27.672C159.889 28.3333 160.358 29.3893 160.358 30.84C160.358 32.5467 159.825 33.6773 158.758 34.232C157.713 34.7867 156.38 35.064 154.758 35.064C153.116 35.064 152.07 34.7653 151.622 34.168C151.174 33.5493 150.95 32.056 150.95 29.688C151.356 30.7973 152.017 31.8 152.934 32.696C153.852 33.592 154.95 34.04 156.23 34.04C157.702 34.04 158.438 33.3787 158.438 32.056C158.438 31.416 157.66 30.744 156.102 30.04C154.545 29.336 153.329 28.6533 152.454 27.992C151.58 27.3307 151.142 26.2213 151.142 24.664C151.142 23.32 151.558 22.392 152.39 21.88C153.222 21.368 154.332 21.112 155.718 21.112C156.081 21.112 156.582 21.176 157.222 21.304C157.862 21.432 158.236 21.496 158.342 21.496C158.684 21.496 158.972 21.4747 159.206 21.432C159.441 21.368 159.761 21.24 160.166 21.048Z" fill="black"/>
<defs>
<linearGradient id="paint0_linear_1370_159" x1="48.1167" y1="-25.4872" x2="152.643" y2="104.241" gradientUnits="userSpaceOnUse">
<stop stop-color="#EAC459"/>
<stop offset="0.00819684" stop-color="#EAC459"/>
<stop offset="0.2464" stop-color="#EAC459"/>
<stop offset="0.373" stop-color="#C8972C"/>
<stop offset="0.8876" stop-color="#FCF16B"/>
<stop offset="1" stop-color="#DABB3B"/>
</linearGradient>
<linearGradient id="paint1_linear_1370_159" x1="52.2603" y1="78.1487" x2="150.228" y2="-43.439" gradientUnits="userSpaceOnUse">
<stop stop-color="#EAC459"/>
<stop offset="0.00819684" stop-color="#EAC459"/>
<stop offset="0.2464" stop-color="#EAC459"/>
<stop offset="0.373" stop-color="#C8972C"/>
<stop offset="0.8876" stop-color="#FCF16B"/>
<stop offset="1" stop-color="#DABB3B"/>
</linearGradient>
</defs>
</svg>
