<svg width="133" height="256" viewBox="0 0 133 256" fill="none" xmlns="http://www.w3.org/2000/svg">
<path d="M94.5527 92.7357C97.6091 93.1636 100.702 93.6037 103.795 93.457C106.888 93.3103 110.226 92.1 112.451 90.4007C106.497 89.4471 99.9563 90.5596 94.5527 92.7357Z" fill="#EDC188"/>
<path d="M65.6397 57.8938L77.5838 57.6371C77.5838 57.6371 74.8209 55.4487 74.3685 50.7176C73.904 45.9741 74.0262 36.4995 74.0262 36.4995L65.2362 40.0693L56.4462 36.4995C56.4462 36.4995 56.5563 45.9741 56.1039 50.7176C55.6394 55.461 52.8887 57.6371 52.8887 57.6371L64.8328 57.8938V57.906L65.2362 57.8938L65.6397 57.906V57.8938Z" fill="#FED9A8"/>
<path d="M57.0566 43.309C57.6068 44.9472 58.8049 46.292 60.2474 47.2945C62.5703 48.9082 65.5043 50.2041 68.3895 49.6539C70.26 49.2994 71.9715 48.4436 73.4997 47.3434C73.353 42.2821 73.4141 36.4995 73.4141 36.4995L65.2476 40.3749L57.0811 36.4995C57.0689 36.4995 57.1055 39.6292 57.0566 43.309Z" fill="#EDC188"/>
<path d="M47.0198 30.1299C47.8267 30.7045 48.9637 30.8146 49.5749 31.5848C50.284 32.4772 49.9784 33.8098 50.4307 34.8611C50.9808 36.1448 52.4601 36.6827 53.7804 37.1228C55.1008 37.5629 56.5678 38.2109 56.9712 39.5434C55.5164 36.8905 54.0616 34.2132 53.0714 31.3525C52.0811 28.4918 51.5677 25.411 52.0567 22.428C50.0517 22.3913 48.0468 23.3693 46.8365 24.9709C46.2619 25.7411 45.8584 26.658 45.834 27.6238C45.834 28.5896 46.2374 29.5798 47.0198 30.1299Z" fill="#B77C41"/>
<path d="M48.9758 25.081C48.3278 25.3989 47.8266 26.0224 47.6677 26.7437C47.521 27.4527 47.741 28.2474 48.2545 28.7486C48.7924 29.2865 49.5748 29.4821 50.235 29.8489C50.8951 30.2279 51.4942 30.9614 51.2497 31.6827C51.5675 30.7902 51.3842 29.7389 50.7851 29.0053C50.3817 28.5163 49.7826 28.1007 49.7215 27.465C49.6848 27.0493 49.9171 26.6459 50.1861 26.3158C50.455 25.9857 50.7729 25.6923 50.9685 25.3133C51.1641 24.9343 51.2008 24.4331 50.9196 24.1274C50.4428 24.6898 49.6237 24.7509 48.9758 25.081Z" fill="#703A18"/>
<path d="M51.5191 21.8779C51.3357 21.7557 51.1034 21.8168 50.8956 21.8657C50.1743 22.0613 49.3919 22.2936 48.9273 22.8926C48.3161 23.6873 48.4995 24.8609 48.964 25.7534C49.4286 26.6458 50.1254 27.416 50.5411 28.3329C50.9445 29.2376 51.0545 30.2523 51.458 31.1569C51.8614 32.0616 52.7416 32.8929 53.7319 32.734C52.3382 29.5432 51.6536 26.059 51.7392 22.5748C51.7514 22.3303 51.7392 22.0246 51.5191 21.8779Z" fill="#FED9A8"/>
<path d="M84.051 30.1299C83.2441 30.7045 82.1072 30.8146 81.4959 31.5848C80.7869 32.4772 81.0925 33.8098 80.6402 34.8611C80.09 36.1448 78.6107 36.6827 77.2904 37.1228C75.9701 37.5629 74.503 38.2109 74.0996 39.5434C75.5544 36.8905 77.0092 34.2132 77.9995 31.3525C78.9897 28.4918 79.5032 25.411 79.0142 22.428C81.0191 22.3913 83.0241 23.3693 84.2344 24.9709C84.809 25.7411 85.2124 26.658 85.2369 27.6238C85.2369 28.5896 84.8334 29.5798 84.051 30.1299Z" fill="#B77C41"/>
<path d="M82.0949 25.081C82.7429 25.3989 83.2441 26.0224 83.403 26.7437C83.5497 27.4527 83.3297 28.2474 82.8162 28.7486C82.2783 29.2865 81.4959 29.4821 80.8357 29.8489C80.1755 30.2279 79.5765 30.9614 79.821 31.6827C79.5032 30.7902 79.6865 29.7389 80.2856 29.0053C80.689 28.5163 81.2881 28.1007 81.3492 27.465C81.3859 27.0493 81.1536 26.6459 80.8846 26.3158C80.6157 25.9857 80.2978 25.6923 80.1022 25.3133C79.9066 24.9343 79.8699 24.4331 80.1511 24.1274C80.6157 24.6898 81.4348 24.7509 82.0949 25.081Z" fill="#703A18"/>
<path d="M79.6259 21.8779C79.8092 21.7557 80.0415 21.8168 80.2494 21.8657C80.9707 22.0613 81.7531 22.2936 82.2176 22.8926C82.8289 23.6873 82.6455 24.8609 82.181 25.7534C81.7164 26.6458 81.0196 27.416 80.6039 28.3329C80.2005 29.2376 80.0904 30.2523 79.687 31.1569C79.2836 32.0616 78.4033 32.8929 77.4131 32.734C78.8068 29.5432 79.4914 26.059 79.4058 22.5748C79.3936 22.3303 79.4058 22.0246 79.6259 21.8779Z" fill="#FED9A8"/>
<path d="M65.5907 1.47395C59.4291 0.0191383 50.6758 8.71134 50.6758 13.7359C50.6758 18.785 51.1892 25.5334 52.3873 30.8758C53.5732 36.2183 57.4364 41.5608 59.8814 43.2723C60.2971 43.5657 60.7372 43.8102 61.1773 44.018C62.5343 44.666 64.0136 44.9716 65.5173 44.9716H65.6518C67.1555 44.9716 68.6348 44.666 69.9918 44.018C70.4319 43.8102 70.872 43.5535 71.2877 43.2723C73.7327 41.5608 77.5959 36.2183 78.7818 30.8758C79.9676 25.5334 80.4933 18.7728 80.4933 13.7359C80.4933 8.71134 71.74 0.0191383 65.5907 1.47395Z" fill="#EDC188"/>
<path d="M65.5903 1.46162C60.2233 0.141291 52.3747 8.14887 52.228 12.9167C52.0813 17.8069 52.3625 24.5186 53.316 29.9711C54.2818 35.558 57.8272 41.2673 60.1378 43.1255C60.529 43.4434 60.9446 43.7123 61.3725 43.9446C62.6562 44.6537 64.0865 44.996 65.5291 44.996H65.6514C67.094 44.996 68.5121 44.6537 69.808 43.9446C70.2359 43.7123 70.6515 43.4434 71.0427 43.1255C73.3533 41.2673 76.8987 35.558 77.8645 29.9711C78.818 24.5186 79.087 17.8069 78.9525 12.9167C78.7936 8.14887 70.9449 0.141291 65.5903 1.46162Z" fill="#FED9A8"/>
<path d="M70.052 36.9764C68.6094 36.8664 67.1669 36.8052 65.7365 36.6218V36.6096C65.7243 36.6096 65.6998 36.6096 65.6876 36.6218C65.6754 36.6218 65.6509 36.6218 65.6387 36.6096V36.6218C64.2083 36.8052 62.7535 36.8664 61.3232 36.9764C61.1765 37.2087 61.3476 37.5265 61.5188 37.7344C62.5457 39.0058 64.1594 39.6782 65.6998 39.4826C67.2402 39.6782 68.854 39.0058 69.8809 37.7344C70.0276 37.5143 70.1987 37.2087 70.052 36.9764Z" fill="#FDC374"/>
<path d="M67.693 35.7292C67.3507 35.5458 66.9595 35.3869 66.6049 35.5336C66.446 35.5947 66.3115 35.717 66.1771 35.8148C66.0304 35.9126 65.8592 35.9859 65.688 36.0349C65.5169 35.9859 65.3457 35.9248 65.199 35.8148C65.0523 35.717 64.9301 35.5947 64.7712 35.5336C64.4166 35.3869 64.0254 35.5581 63.6831 35.7292C62.7295 36.2305 61.8126 36.9151 60.749 36.9884C61.7759 37.4408 62.9985 36.964 64.0621 37.3185C64.3066 37.4041 64.5511 37.5263 64.8078 37.5263C64.979 37.5263 65.1501 37.4897 65.3091 37.4408C65.4313 37.4041 65.5536 37.3674 65.688 37.343C65.8103 37.3796 65.9326 37.4163 66.067 37.4408C66.2382 37.4897 66.3971 37.5386 66.5683 37.5263C66.825 37.5141 67.0695 37.3919 67.314 37.3185C68.3776 36.9762 69.6001 37.4408 70.6271 36.9884C69.5635 36.9151 68.6343 36.2427 67.693 35.7292Z" fill="#F8991D"/>
<path d="M62.1562 21.3035C62.9876 21.9392 63.2565 23.015 63.4032 24.0664C63.5988 25.4723 63.6722 26.976 63.6233 28.5531C63.5988 29.47 63.5255 30.4113 63.5744 31.3771C63.5988 31.7561 63.6355 32.1473 63.7944 32.4896C64.0145 32.9664 64.4179 33.3087 64.8703 33.6144C65.0536 33.7366 65.2859 33.81 65.5182 33.81H65.6282C65.8605 33.81 66.0928 33.7366 66.2762 33.6144C66.7163 33.3087 67.132 32.9664 67.352 32.4896C67.5109 32.1473 67.5476 31.7561 67.5721 31.3771C67.621 30.4113 67.5476 29.47 67.5232 28.5531C67.4743 26.976 67.5476 25.4723 67.7432 24.0664C67.8899 23.0272 68.1589 21.9514 68.9902 21.3035H62.1562Z" fill="#CEA16F"/>
<path d="M64.1486 31.8293C63.9896 31.1569 63.8429 30.4356 64.0263 29.7755C63.9774 29.7632 63.9285 29.7388 63.8918 29.7266C63.7573 30.0077 63.4639 30.1789 63.2194 30.3623C62.5593 30.8635 62.0825 31.597 61.8869 32.4039C61.8624 32.4895 61.8502 32.5873 61.8747 32.6729C61.8991 32.7707 61.9725 32.8318 62.0458 32.9051C62.2781 33.1741 62.4126 33.5531 62.7304 33.712C62.9749 33.8343 63.2561 33.7854 63.5251 33.7731C64.1608 33.7242 64.8209 33.8098 65.42 34.0299C65.4444 33.9687 65.4689 33.8954 65.4933 33.8343C65.1021 33.492 64.6865 33.1496 64.4542 32.6851C64.2953 32.4161 64.2097 32.1227 64.1486 31.8293Z" fill="#CEA16F"/>
<path d="M67.1924 31.7805C67.3514 31.1081 67.4981 30.3868 67.3147 29.7266C67.3636 29.7144 67.4125 29.69 67.4492 29.6777C67.5836 29.9589 67.8771 30.1301 68.1216 30.3135C68.7817 30.8147 69.2585 31.5482 69.4541 32.3551C69.4786 32.4407 69.4908 32.5385 69.4663 32.624C69.4419 32.7218 69.3685 32.783 69.2952 32.8563C69.0629 33.1253 68.9284 33.5043 68.6106 33.6632C68.3661 33.7854 68.0849 33.7365 67.8159 33.7243C67.1802 33.6754 66.52 33.761 65.921 33.981C65.8966 33.9199 65.8721 33.8466 65.8477 33.7854C66.2389 33.4431 66.6545 33.1008 66.8868 32.6363C67.0457 32.3673 67.1191 32.0739 67.1924 31.7805Z" fill="#CEA16F"/>
<path d="M64.5157 32.3185C64.3079 31.5972 64.1612 30.827 64.3201 30.1057C64.1367 30.3258 63.8311 30.2646 63.5744 30.3135C63.1465 30.3991 62.8164 30.7903 62.5719 31.206C62.4252 31.4627 62.2907 31.7439 62.2663 32.0495C62.2174 32.6486 62.5719 33.1743 62.902 33.6266C62.9264 33.6511 62.9387 33.6755 62.9631 33.6877C63.0487 33.7122 63.0854 33.5655 63.0854 33.4555C63.0854 33.2476 63.1343 33.0398 63.2076 32.8442C63.2565 32.7342 63.3176 32.6241 63.4154 32.5997C63.4888 32.5752 63.5621 32.6119 63.6355 32.6486C63.8433 32.7464 64.0389 32.8564 64.2223 32.9909C64.4913 33.1865 64.7847 33.431 65.0903 33.3332C64.7847 33.1498 64.6257 32.7097 64.5157 32.3185Z" fill="#DDAC73"/>
<path d="M66.8256 32.3185C67.0334 31.5972 67.1801 30.827 67.0212 30.1057C67.2046 30.3258 67.5102 30.2646 67.7669 30.3135C68.1948 30.3991 68.5249 30.7903 68.7694 31.206C68.9161 31.4627 69.0506 31.7439 69.075 32.0495C69.1239 32.6486 68.7694 33.1743 68.4393 33.6266C68.4149 33.6511 68.4026 33.6755 68.3782 33.6877C68.2926 33.7122 68.2559 33.5655 68.2559 33.4555C68.2559 33.2476 68.207 33.0398 68.1337 32.8442C68.0848 32.7342 68.0237 32.6241 67.9258 32.5997C67.8525 32.5752 67.7791 32.6119 67.7058 32.6486C67.498 32.7464 67.3024 32.8564 67.119 32.9909C66.85 33.1865 66.5566 33.431 66.251 33.3332C66.5566 33.1498 66.7155 32.7097 66.8256 32.3185Z" fill="#DDAC73"/>
<path d="M68.0359 20.7898C67.6814 20.7654 63.4514 20.7654 63.1091 20.7898C62.8279 20.802 62.8646 21.0588 62.6201 21.2055C63.4025 21.829 63.647 22.9659 63.7693 24.0662C63.9282 25.4721 64.0016 26.9758 63.9527 28.5529C63.9282 29.4698 63.8671 30.4111 63.916 31.3769C63.9282 31.7559 63.9649 32.1471 64.0994 32.4895C64.2828 32.9662 64.6251 33.3085 64.9918 33.6142C65.1385 33.7364 65.3341 33.8098 65.5297 33.8098H65.6275C65.8231 33.8098 66.0188 33.7364 66.1655 33.6142C66.5322 33.3085 66.8745 32.9662 67.0579 32.4895C67.1924 32.1471 67.2291 31.7559 67.2413 31.3769C67.278 30.4111 67.2291 29.4698 67.2046 28.5529C67.1679 26.9758 67.2291 25.4721 67.388 24.0662C67.5102 22.9659 67.7547 21.829 68.5372 21.2055C68.2804 21.0588 68.3171 20.8143 68.0359 20.7898Z" fill="#EDC188"/>
<path d="M67.4863 20.423C67.2173 20.4108 63.9409 20.4108 63.672 20.423C63.4519 20.4352 63.4764 20.6064 63.2686 20.7164C63.8676 21.1687 64.0143 22.0001 64.0876 22.8558C64.1855 23.9928 64.1977 25.2764 64.1243 26.7068C64.0754 27.5748 63.9898 28.5161 64.0021 29.5064C64.0021 29.9098 64.0265 30.3255 64.1366 30.7045C64.2955 31.2302 64.6256 31.6214 64.9923 31.9759C65.139 32.1226 65.3346 32.196 65.5302 32.196H65.628C65.8236 32.196 66.0192 32.1104 66.166 31.9759C66.5205 31.6336 66.8506 31.2424 67.0217 30.7045C67.144 30.3255 67.1562 29.9098 67.1562 29.5064C67.1684 28.5039 67.0829 27.5748 67.034 26.7068C66.9484 25.2764 66.9728 23.9928 67.0706 22.8558C67.144 22.0123 67.3029 21.1687 67.8897 20.7164C67.6819 20.6064 67.6941 20.4352 67.4863 20.423Z" fill="#FED9A8"/>
<path d="M61.5926 20.5086C61.1647 20.2885 60.6757 20.1907 60.1989 20.1052C59.6977 20.0074 59.1842 19.9218 58.683 19.8362C58.3652 19.7873 58.0351 19.7262 57.7172 19.7384C57.3382 19.7506 56.9837 19.8607 56.6169 19.9585C56.2502 20.0563 55.8834 20.1663 55.5289 20.2885C54.7342 20.5697 53.9763 20.9854 53.3039 21.4988C53.255 21.5355 53.1938 21.5844 53.1694 21.6455C53.1449 21.7189 53.1572 21.7923 53.1694 21.8656C53.3894 22.8925 54.0252 23.8217 54.9054 24.3962C55.6022 24.8486 56.4213 25.0686 57.2282 25.2765C57.7417 25.4109 58.2673 25.5332 58.793 25.5332C59.9178 25.5454 60.9691 24.9953 62.0816 24.8364C62.644 24.763 63.3042 24.8364 63.6098 25.3009C63.622 24.8241 63.5731 24.3351 63.4876 23.8706C63.3775 23.2104 63.2308 22.5502 62.9252 21.9512C62.6318 21.3644 62.1794 20.8265 61.5926 20.5086Z" fill="#CEA16F"/>
<path d="M56.7757 22.8315C56.5678 22.9782 56.3845 23.1616 56.1889 23.3328C55.7732 23.7117 55.3575 24.103 54.9541 24.4819C55.7121 24.7631 56.3967 25.2277 57.1791 25.4355C58.0593 25.6678 59.0007 25.5455 59.8809 25.3499C60.7734 25.1543 61.6536 24.8976 62.5705 24.8609C62.1181 23.7729 61.2379 22.856 60.1376 22.4403C59.0374 22.0124 57.7292 22.1347 56.7757 22.8315Z" fill="#BE6328"/>
<path d="M53.5605 21.1688C53.8662 21.1443 54.1351 20.9732 54.4041 20.8142C55.8711 19.9707 57.6927 19.7629 59.3065 20.2763C59.8566 20.4475 60.3945 20.7042 60.9569 20.802C61.2014 20.8387 61.4581 20.8509 61.6659 20.7287C61.8738 20.6064 61.996 20.3008 61.8493 20.1052C61.7515 19.9707 61.5804 19.934 61.4337 19.8973C60.0644 19.5795 58.6585 19.2861 57.2526 19.3839C55.8589 19.4939 54.4285 20.044 53.5605 21.1688Z" fill="#E47625"/>
<path d="M62.1308 24.9951C62.2776 24.9095 62.302 24.7139 62.2287 24.5672C62.1553 24.4205 62.0208 24.3105 61.8986 24.2249C61.4462 23.8948 60.9939 23.5525 60.456 23.3813C59.808 23.1857 59.1112 23.2591 58.4633 23.4669C57.8275 23.6747 57.2285 24.0171 56.6417 24.3471C56.4094 24.4816 56.1649 24.6161 55.9326 24.7628C56.8984 25.5208 58.1454 25.912 59.3679 25.8386C59.6491 25.8264 59.9425 25.7775 60.2115 25.6797C60.5293 25.5574 60.8105 25.3618 61.1284 25.2274C61.3729 25.1296 61.6296 25.0562 61.8986 25.044C61.9719 25.0318 62.0575 25.0318 62.1308 24.9951Z" fill="#EDC188"/>
<path d="M57.7414 24.5185C57.9126 24.983 58.2916 25.3742 58.7562 25.5576C59.2207 25.741 59.7709 25.6799 60.1865 25.3987C60.6022 25.1175 60.8467 24.604 60.7856 24.115C60.7733 23.9806 60.7367 23.8583 60.6755 23.7483C60.4555 23.3815 59.9787 23.2837 59.563 23.2715C59.2207 23.2715 58.8784 23.3082 58.5483 23.3815C58.3527 23.4304 58.1571 23.4915 57.986 23.6138C57.8148 23.736 57.6925 23.9072 57.6681 24.1028C57.6559 24.2495 57.6803 24.3962 57.7414 24.5185Z" fill="#BE6328"/>
<path d="M57.3746 23.5405C56.9957 23.7483 56.6411 23.9928 56.2499 24.1762C55.8587 24.3596 55.4308 24.4818 55.0029 24.4329C55.2841 24.6897 55.6386 24.873 56.0176 24.9464C56.2377 24.7263 56.5066 24.5552 56.7634 24.3962C57.069 24.2129 57.3746 24.0295 57.7047 23.895C59.0984 23.3204 60.81 23.6138 61.9225 24.6407C62.0203 24.7263 62.1181 24.8486 62.1058 24.9831C62.2403 24.9708 62.3626 24.9586 62.497 24.9342C62.2281 24.5307 61.9469 24.1151 61.5679 23.785C61.3112 23.5527 61.0056 23.3815 60.6999 23.2226C60.4921 23.1126 60.2598 23.0148 60.0398 22.9659C59.4529 22.8314 58.8417 22.9537 58.2793 23.1493C57.9737 23.2471 57.668 23.3815 57.3746 23.5405Z" fill="#703A18"/>
<path d="M69.5024 20.5086C69.9303 20.2885 70.4193 20.1907 70.8961 20.1052C71.3974 20.0074 71.9108 19.9218 72.4121 19.8362C72.7299 19.7873 73.06 19.7262 73.3779 19.7384C73.7568 19.7506 74.1114 19.8607 74.4781 19.9585C74.8449 20.0563 75.2117 20.1663 75.5662 20.2885C76.3608 20.5697 77.1188 20.9854 77.7912 21.4988C77.8401 21.5355 77.9012 21.5844 77.9257 21.6455C77.9501 21.7189 77.9379 21.7923 77.9257 21.8656C77.7056 22.8925 77.0699 23.8217 76.1897 24.3962C75.4928 24.8486 74.6737 25.0686 73.8669 25.2765C73.3534 25.4109 72.8277 25.5332 72.302 25.5332C71.1773 25.5454 70.1259 24.9953 69.0134 24.8364C68.4511 24.763 67.7909 24.8364 67.4853 25.3009C67.473 24.8241 67.5219 24.3351 67.6075 23.8706C67.7175 23.2104 67.8642 22.5502 68.1699 21.9512C68.4633 21.3644 68.9156 20.8265 69.5024 20.5086Z" fill="#CEA16F"/>
<path d="M74.3192 22.8315C74.527 22.9782 74.7104 23.1616 74.906 23.3328C75.3217 23.7117 75.7374 24.103 76.1408 24.4819C75.3828 24.7631 74.6982 25.2277 73.9158 25.4355C73.0356 25.6678 72.0942 25.5455 71.214 25.3499C70.3215 25.1543 69.4413 24.8976 68.5244 24.8609C68.9768 23.7729 69.857 22.856 70.9573 22.4403C72.0575 22.0124 73.3656 22.1347 74.3192 22.8315Z" fill="#BE6328"/>
<path d="M77.5348 21.1688C77.2291 21.1443 76.9602 20.9732 76.6912 20.8142C75.2242 19.9707 73.4026 19.7629 71.7889 20.2763C71.2387 20.4475 70.7008 20.7042 70.1385 20.802C69.894 20.8387 69.6372 20.8509 69.4294 20.7287C69.2216 20.6064 69.0993 20.3008 69.246 20.1052C69.3438 19.9707 69.515 19.934 69.6617 19.8973C71.0309 19.5795 72.4368 19.2861 73.8427 19.3839C75.2364 19.4939 76.6668 20.044 77.5348 21.1688Z" fill="#E47625"/>
<path d="M68.964 24.9951C68.8173 24.9095 68.7929 24.7139 68.8662 24.5672C68.9396 24.4205 69.0741 24.3105 69.1963 24.2249C69.6486 23.8948 70.101 23.5525 70.6389 23.3813C71.2868 23.1857 71.9837 23.2591 72.6316 23.4669C73.2673 23.6747 73.8664 24.0171 74.4532 24.3471C74.6855 24.4816 74.93 24.6161 75.1623 24.7628C74.1965 25.5208 72.9495 25.912 71.7269 25.8386C71.4458 25.8264 71.1524 25.7775 70.8834 25.6797C70.5655 25.5574 70.2844 25.3618 69.9665 25.2274C69.722 25.1296 69.4653 25.0562 69.1963 25.044C69.123 25.0318 69.0374 25.0318 68.964 24.9951Z" fill="#EDC188"/>
<path d="M73.3532 24.5185C73.1821 24.983 72.8031 25.3742 72.3385 25.5576C71.874 25.741 71.3238 25.6799 70.9082 25.3987C70.4925 25.1175 70.248 24.604 70.3091 24.115C70.3213 23.9806 70.358 23.8583 70.4191 23.7483C70.6392 23.3815 71.116 23.2837 71.5316 23.2715C71.874 23.2715 72.2163 23.3082 72.5463 23.3815C72.7419 23.4304 72.9376 23.4915 73.1087 23.6138C73.2799 23.736 73.4021 23.9072 73.4266 24.1028C73.4388 24.2495 73.4021 24.3962 73.3532 24.5185Z" fill="#BE6328"/>
<path d="M73.7201 23.5405C74.099 23.7483 74.4536 23.9928 74.8448 24.1762C75.236 24.3596 75.6639 24.4818 76.0918 24.4329C75.8106 24.6897 75.4561 24.873 75.0771 24.9464C74.857 24.7263 74.5881 24.5552 74.3313 24.3962C74.0257 24.2129 73.7201 24.0295 73.39 23.895C71.9963 23.3204 70.2847 23.6138 69.1722 24.6407C69.0744 24.7263 68.9766 24.8486 68.9889 24.9831C68.8544 24.9708 68.7321 24.9586 68.5977 24.9342C68.8666 24.5307 69.1478 24.1151 69.5268 23.785C69.7835 23.5527 70.0891 23.3815 70.3948 23.2226C70.6026 23.1126 70.8349 23.0148 71.0549 22.9659C71.6418 22.8314 72.253 22.9537 72.8154 23.1493C73.121 23.2471 73.4267 23.3815 73.7201 23.5405Z" fill="#703A18"/>
<path d="M65.7002 6.46191C64.8567 7.47662 63.5852 8.02675 62.326 8.41796C61.0668 8.80918 59.7587 9.10258 58.6095 9.75052C56.4946 10.9486 55.1864 13.1858 53.2671 14.6773C52.6191 15.1786 51.8978 15.5942 51.2499 16.1077C50.6142 16.6212 50.0396 17.2813 49.8073 18.076C49.4895 19.2007 49.9173 20.3743 50.2963 21.4868C50.6631 22.5871 50.9809 23.8463 50.4553 24.8855C51.4455 24.2986 51.7022 23.0028 51.8245 21.8658C51.9467 20.7166 52.0934 19.433 52.9981 18.7239C53.6705 18.1982 54.5752 18.1371 55.4187 18.0393C56.2623 17.9415 57.1914 17.7092 57.6682 17.0124C58.0838 16.4133 58.0716 15.6064 58.4506 14.983C59.0374 14.0294 60.3211 13.846 61.4458 13.8216C62.5583 13.7971 63.8053 13.8093 64.6244 13.0514C65.4435 12.2934 65.5291 11.0586 65.5657 9.94613C65.6269 8.78472 65.6635 7.62332 65.7002 6.46191Z" fill="#703A18"/>
<path d="M65.6152 5.12919C65.5907 4.02891 65.6396 2.34182 65.4685 1.25376C65.4073 0.838103 65.1506 0.385767 64.7961 0.165711C64.6005 0.0434577 64.3682 0.0312324 64.1359 0.0190071C62.0698 -0.115471 59.8693 0.471344 58.0844 1.53495C56.7396 2.34182 55.7982 3.6866 54.5757 4.6524C53.3043 5.6671 51.7517 6.26614 50.4435 7.23194C48.4997 8.6623 47.1794 10.8873 46.7148 13.2712C46.2503 15.6552 46.617 18.1614 47.6195 20.3742C48.0107 21.2422 48.5364 22.0857 49.331 22.5992C49.5144 19.6651 50.7981 16.8044 52.8764 14.7261C54.9425 12.6478 57.791 11.3641 60.7006 11.1929C61.4586 11.144 62.2287 11.1685 62.9378 10.924C64.0136 10.545 64.7961 9.5792 65.1995 8.50338C65.5907 7.43977 65.6518 6.27837 65.6152 5.12919Z" fill="#CEA16F"/>
<path d="M51.6656 8.49124C51.25 9.0047 51.0421 9.66487 50.6387 10.1906C50.1741 10.8018 49.4895 11.193 48.9638 11.7554C48.1203 12.6478 47.7413 13.9193 47.7658 15.154C47.7902 16.3888 48.2059 17.5869 48.7682 18.6749C48.377 16.1076 49.7707 13.5525 51.6901 11.8043C53.6095 10.0561 55.9934 8.93135 58.2551 7.67214C59.9666 6.71857 61.8249 5.63052 63.7565 5.9606C64.001 5.99728 64.2455 6.07063 64.49 5.99728C64.7589 5.9117 64.9546 5.66719 65.0524 5.41046C65.3458 4.65249 65.0157 3.76004 64.4044 3.23436C63.7931 2.70867 62.9496 2.52529 62.1427 2.54974C60.9569 2.58641 59.7955 3.05098 58.8419 3.76004C57.6805 4.62804 56.7758 5.8628 55.5044 6.54742C54.2329 7.21981 52.5825 7.36651 51.6656 8.49124Z" fill="#B77C41"/>
<path d="M65.6271 6.33949C65.7494 6.59623 65.7371 6.87741 65.7127 7.15859C65.6638 8.14884 65.6027 9.13909 65.3093 10.0804C65.0036 11.0218 64.4168 11.902 63.5366 12.3543C61.8128 13.2346 59.4044 12.2932 57.9618 13.5891C57.3384 14.1515 57.0816 14.995 56.6415 15.7041C55.8713 16.9755 54.4654 17.8557 52.9739 17.978C52.6683 18.0024 52.326 18.0147 52.0815 18.1981C51.9103 18.3203 51.8003 18.5159 51.7269 18.7115C51.2624 19.8607 51.6414 21.1444 51.8003 22.3791C51.9592 23.6016 51.7392 25.1054 50.6267 25.6433C49.8687 26.01 48.9885 25.79 48.1449 25.7288C47.3136 25.6677 46.2989 25.9 46.0299 26.6946C45.6754 25.9367 45.3209 25.1543 45.1742 24.3229C45.0397 23.4916 45.1375 22.5869 45.6265 21.9023C46.0177 21.3766 46.6045 21.0221 47.0202 20.5209C48.0227 19.3228 47.876 17.5746 48.1816 16.0464C48.585 13.9559 49.9298 12.0732 51.7758 11.0096C52.6561 10.5083 53.6341 10.1782 54.4409 9.56698C55.0155 9.13909 55.4801 8.58895 55.9936 8.09994C58.1941 6.02164 61.4094 5.06806 64.3801 5.6182C64.8692 5.716 65.4193 5.88716 65.6271 6.33949Z" fill="#CEA16F"/>
<path d="M63.4139 10.4962C63.9518 10.3006 64.343 9.84824 64.7465 9.45703C64.7587 10.215 64.3308 10.9241 63.7318 11.3764C63.1327 11.8287 62.3625 12.0243 61.6168 12.0732C60.6021 12.1344 59.5385 11.9265 58.5727 12.2444C57.2279 12.6967 56.3966 14.0537 55.9932 15.4108C56.0543 14.3594 56.3844 13.3202 56.9956 12.4767C57.6069 11.6209 58.5116 10.973 59.5385 10.7407C60.4799 10.5206 61.4579 10.6551 62.4114 10.6429C62.7538 10.6307 63.0961 10.6062 63.4139 10.4962Z" fill="#B77C41"/>
<path d="M48.353 23.565C48.7809 23.6017 49.2454 23.7851 49.6244 23.5895C50.0278 23.3817 50.1501 22.856 50.1623 22.4036C50.1868 21.6823 50.0767 20.9488 50.1623 20.2275C50.2479 19.5062 50.5902 18.7605 51.2504 18.4426C50.7614 19.0906 50.7491 19.983 50.8836 20.7899C51.0181 21.5968 51.2748 22.3914 51.2626 23.1983C51.2381 24.0174 50.8469 24.8976 50.089 25.1788C49.4777 25.3988 48.8053 25.191 48.1696 25.0687C47.5339 24.9465 46.7759 24.9465 46.3602 25.4477C46.3358 24.9343 46.5558 24.4086 46.9226 24.0418C47.3016 23.7117 47.8395 23.5284 48.353 23.565Z" fill="#B77C41"/>
<path d="M50.37 17.9903C49.771 18.3449 49.3553 18.9683 49.1352 19.6285C48.9152 20.2887 48.8541 20.9977 48.8052 21.6946C48.4751 20.6554 48.4384 19.5063 48.7929 18.4793C49.1475 17.4524 49.9054 16.5355 50.9079 16.1198C51.6292 15.8142 52.4483 15.7531 53.1574 15.3986C54.0131 14.9584 54.5877 14.1393 55.0401 13.2836C55.4924 12.44 55.8469 11.5354 56.4215 10.7774C56.9961 10.0194 57.8763 9.39592 58.8299 9.42037C57.7541 9.72601 56.9717 10.6796 56.4827 11.6821C55.9936 12.6968 55.7491 13.797 55.2968 14.824C54.8445 15.8509 54.1476 16.8411 53.1085 17.269C52.2282 17.5991 51.1891 17.5135 50.37 17.9903Z" fill="#B77C41"/>
<path d="M51.4946 15.6066C51.0301 15.68 50.5533 15.6188 50.0887 15.6555C49.6241 15.6922 49.1229 15.8756 48.9029 16.3035C48.8662 15.521 49.5141 14.8731 50.1987 14.5063C50.8834 14.1396 51.6658 13.944 52.2893 13.4794C52.8883 13.0393 53.2917 12.4036 53.6585 11.7679C54.0253 11.1321 54.3676 10.472 54.8688 9.93406C55.37 9.39615 56.0791 8.99271 56.8126 9.04161C55.8957 9.3717 55.2478 10.2275 54.8321 11.1077C54.4165 11.9879 54.1475 12.9537 53.6707 13.8095C53.2184 14.653 52.4726 15.4355 51.4946 15.6066Z" fill="#EAC095"/>
<path d="M60.9448 8.72341C59.7467 8.76008 58.5241 8.11214 57.3994 8.51558C57.705 8.08769 58.2307 7.87986 58.7442 7.81874C59.2577 7.74538 59.7833 7.80651 60.309 7.78206C61.5805 7.73316 62.8397 7.24415 63.8055 6.42505C63.4876 7.69648 62.2651 8.68673 60.9448 8.72341Z" fill="#EAC095"/>
<path d="M64.8205 7.09741C63.8547 8.88231 61.7887 10.007 59.7715 9.86033C60.8473 10.3371 62.1187 10.4471 63.1823 9.94591C64.2337 9.44467 64.9917 8.25882 64.8205 7.09741Z" fill="#B77C41"/>
<path d="M65.248 6.46191C66.0916 7.47662 67.363 8.02675 68.6222 8.41796C69.8814 8.80918 71.1895 9.10258 72.3387 9.75052C74.4537 10.9486 75.7618 13.1858 77.6812 14.6773C78.3291 15.1786 79.0504 15.5942 79.6984 16.1077C80.3341 16.6212 80.9087 17.2813 81.141 18.076C81.4588 19.2007 81.0309 20.3743 80.6519 21.4868C80.2852 22.5871 79.9673 23.8463 80.493 24.8855C79.5028 24.2986 79.246 23.0028 79.1238 21.8658C79.0015 20.7166 78.8548 19.433 77.9501 18.7239C77.2778 18.1982 76.3731 18.1371 75.5295 18.0393C74.686 17.9415 73.7569 17.7092 73.2801 17.0124C72.8644 16.4133 72.8766 15.6064 72.4977 14.983C71.9108 14.0294 70.6272 13.846 69.5025 13.8216C68.39 13.7971 67.143 13.8093 66.3239 13.0514C65.5048 12.2934 65.4192 11.0586 65.3825 9.94613C65.3214 8.78472 65.2847 7.62332 65.248 6.46191Z" fill="#703A18"/>
<path d="M65.3334 5.12933C65.3578 4.02905 65.3089 2.34196 65.4801 1.25391C65.5412 0.838246 65.7979 0.38591 66.1525 0.165854C66.3481 0.0436008 66.5803 0.0313755 66.8126 0.0191502C68.8787 -0.103103 71.0793 0.471487 72.8642 1.54731C74.2089 2.35419 75.1503 3.69897 76.3728 4.66477C77.6442 5.67947 79.1969 6.27851 80.505 7.24431C82.4488 8.67467 83.7691 10.8997 84.2337 13.2836C84.6983 15.6676 84.3315 18.1737 83.329 20.3865C82.9378 21.2545 82.4121 22.0981 81.6175 22.6115C81.4341 19.6775 80.1504 16.8167 78.0721 14.7384C76.0061 12.6601 73.1576 11.3765 70.2479 11.2053C69.49 11.1564 68.7198 11.1809 68.0107 10.9364C66.9349 10.5574 66.1525 9.59157 65.749 8.51574C65.3578 7.43992 65.2967 6.27851 65.3334 5.12933Z" fill="#CEA16F"/>
<path d="M79.2823 8.49124C79.698 9.0047 79.9058 9.66487 80.3093 10.1906C80.7738 10.8018 81.4584 11.193 81.9841 11.7554C82.8277 12.6478 83.2067 13.9193 83.1822 15.154C83.1578 16.3888 82.7421 17.5869 82.1797 18.6749C82.5709 16.1076 81.1773 13.5525 79.2579 11.8043C77.3385 10.0561 74.9546 8.93135 72.6929 7.67215C70.9814 6.71857 69.1231 5.63052 67.1915 5.9606C66.947 5.99728 66.7025 6.07063 66.458 5.99728C66.189 5.9117 65.9934 5.66719 65.8956 5.41046C65.6022 4.65249 65.9323 3.76004 66.5436 3.23436C67.1548 2.70867 67.9984 2.52529 68.8052 2.54974C69.9911 2.58641 71.1525 3.05098 72.1061 3.76004C73.2675 4.62804 74.1722 5.8628 75.4436 6.54742C76.715 7.21981 78.3654 7.36651 79.2823 8.49124Z" fill="#B77C41"/>
<path d="M65.3213 6.33949C65.199 6.59623 65.2112 6.87741 65.2357 7.15859C65.2846 8.14884 65.3457 9.13909 65.6391 10.0804C65.9447 11.0218 66.5316 11.902 67.4118 12.3543C69.1356 13.2346 71.5439 12.2932 72.9865 13.5891C73.61 14.1515 73.8667 14.995 74.3069 15.7041C75.0771 16.9755 76.483 17.8557 77.9745 17.978C78.2801 18.0024 78.6224 18.0147 78.8669 18.1981C79.0381 18.3203 79.1481 18.5159 79.2214 18.7115C79.686 19.8607 79.307 21.1444 79.1481 22.3791C78.9892 23.6139 79.2092 25.1054 80.3217 25.6433C81.0797 26.01 81.9599 25.79 82.8035 25.7288C83.647 25.6677 84.6495 25.9 84.9184 26.6946C85.273 25.9367 85.6275 25.1543 85.7742 24.3229C85.9087 23.4916 85.8109 22.5869 85.3219 21.9023C84.9307 21.3766 84.3438 21.0221 83.9282 20.5209C82.9257 19.3228 83.0724 17.5746 82.7668 16.0464C82.3633 13.9559 81.0186 12.0732 79.1848 11.0096C78.3045 10.5083 77.3265 10.1782 76.5196 9.56698C75.9451 9.13909 75.4805 8.58895 74.967 8.09994C72.7665 6.02164 69.5512 5.06806 66.5805 5.6182C66.0792 5.716 65.5291 5.88716 65.3213 6.33949Z" fill="#CEA16F"/>
<path d="M67.534 10.4962C66.9961 10.3006 66.6049 9.84824 66.2014 9.45703C66.1892 10.215 66.6171 10.9241 67.2161 11.3764C67.8152 11.8287 68.5854 12.0243 69.3311 12.0732C70.3458 12.1344 71.4094 11.9265 72.3752 12.2444C73.72 12.6967 74.5513 14.0537 74.9547 15.4108C74.8936 14.3594 74.5635 13.3202 73.9523 12.4767C73.341 11.6209 72.4363 10.973 71.4094 10.7407C70.4681 10.5206 69.49 10.6551 68.5365 10.6429C68.1942 10.6307 67.8518 10.6062 67.534 10.4962Z" fill="#B77C41"/>
<path d="M82.5956 23.565C82.1677 23.6017 81.7031 23.7851 81.3242 23.5895C80.9207 23.3817 80.7985 22.856 80.7862 22.4036C80.7618 21.6823 80.8718 20.9488 80.7862 20.2275C80.7007 19.5062 80.3584 18.7605 79.6982 18.4426C80.1872 19.0906 80.1994 19.983 80.065 20.7899C79.9305 21.5968 79.6737 22.3914 79.686 23.1983C79.7104 24.0174 80.1016 24.8976 80.8596 25.1788C81.4709 25.3988 82.1433 25.191 82.779 25.0687C83.4147 24.9465 84.1727 24.9465 84.5883 25.4477C84.6128 24.9343 84.3927 24.4086 84.026 24.0418C83.647 23.7117 83.1091 23.5284 82.5956 23.565Z" fill="#B77C41"/>
<path d="M80.5781 17.9903C81.1771 18.3449 81.5928 18.9683 81.8128 19.6285C82.0329 20.2887 82.094 20.9977 82.1429 21.6946C82.473 20.6554 82.5097 19.5063 82.1551 18.4793C81.8006 17.4524 81.0426 16.5355 80.0402 16.1198C79.3189 15.8142 78.4998 15.7531 77.7907 15.3986C76.9349 14.9584 76.3603 14.1393 75.908 13.2836C75.4557 12.44 75.1011 11.5354 74.5266 10.7774C73.952 10.0194 73.0717 9.39592 72.1182 9.42037C73.194 9.72601 73.9764 10.6796 74.4654 11.6821C74.9544 12.6968 75.1989 13.797 75.6513 14.824C76.1036 15.8509 76.8005 16.8411 77.8396 17.269C78.7198 17.5991 79.759 17.5135 80.5781 17.9903Z" fill="#B77C41"/>
<path d="M79.4538 15.6066C79.9183 15.68 80.3951 15.6188 80.8597 15.6555C81.3242 15.6922 81.8255 15.8756 82.0455 16.3035C82.0822 15.521 81.4343 14.8731 80.7496 14.5063C80.065 14.1396 79.2826 13.944 78.6591 13.4794C78.0601 13.0393 77.6566 12.4036 77.2899 11.7679C76.9231 11.1321 76.5808 10.472 76.0796 9.93406C75.5783 9.39615 74.8693 8.99271 74.1357 9.04161C75.0526 9.3717 75.7006 10.2275 76.1162 11.1077C76.5441 11.9879 76.8009 12.9537 77.2776 13.8095C77.73 14.653 78.4757 15.4355 79.4538 15.6066Z" fill="#EAC095"/>
<path d="M70.0033 8.72341C71.2014 8.76008 72.4239 8.11214 73.5486 8.51558C73.243 8.08769 72.7173 7.87986 72.2039 7.81873C71.6904 7.74538 71.1647 7.80651 70.639 7.78206C69.3676 7.73316 68.1084 7.24414 67.1426 6.42505C67.4604 7.69648 68.683 8.68673 70.0033 8.72341Z" fill="#EAC095"/>
<path d="M66.1277 7.09741C67.0935 8.88231 69.1596 10.007 71.1767 9.86033C70.1009 10.3371 68.8295 10.4472 67.7659 9.94591C66.7145 9.44467 65.9565 8.25882 66.1277 7.09741Z" fill="#B77C41"/>
<path d="M80.799 12.4887C80.4933 11.7919 79.9676 11.2173 79.4419 10.6794C77.4737 8.63777 75.2609 6.80397 72.7303 5.52032C70.4074 4.33446 67.8157 3.62539 65.2239 3.68652C62.6321 3.62539 60.0404 4.33446 57.7176 5.52032C55.1992 6.80397 52.9741 8.63777 51.0059 10.6794C50.4802 11.2295 49.9667 11.8041 49.6489 12.4887C49.3432 13.1856 49.2576 14.0169 49.6244 14.6893C49.9545 13.5523 50.8592 12.6599 51.7883 11.9142C55.4681 8.95563 60.1993 7.34189 64.9305 7.42746V7.45192C65.0283 7.45192 65.1261 7.43969 65.2239 7.43969C65.3217 7.43969 65.4195 7.45192 65.5173 7.45192V7.42746C70.2363 7.34189 74.9797 8.95563 78.6595 11.9142C79.5887 12.6599 80.4811 13.5523 80.8234 14.6893C81.1902 14.0169 81.1168 13.1734 80.799 12.4887Z" fill="#F8991D"/>
<path d="M51.7998 11.902C55.4797 8.94344 60.2109 7.3297 64.9421 7.41527V7.43972C65.0399 7.43972 65.1377 7.4275 65.2355 7.4275C65.3333 7.4275 65.4311 7.43972 65.5411 7.43972V7.41527C70.2601 7.3297 75.0035 8.94344 78.6833 11.902C79.6124 12.6477 80.5049 13.5402 80.8472 14.6771C81.0061 14.3837 81.0795 14.0658 81.0795 13.7358C81.0306 13.6013 80.9817 13.479 80.9083 13.3446C80.6027 12.7822 80.077 12.3299 79.5513 11.8897C77.583 10.2515 75.3702 8.77228 72.8396 7.73313C70.5168 6.77956 67.925 6.21719 65.3333 6.25387C62.7415 6.20497 60.1497 6.77956 57.8269 7.73313C55.3085 8.77228 53.0835 10.2393 51.1152 11.8897C50.5895 12.3299 50.0761 12.7944 49.7582 13.3446C49.5871 13.6502 49.4893 13.9925 49.4893 14.3348C49.5259 14.4571 49.5748 14.5671 49.636 14.6771C49.966 13.5402 50.8707 12.6477 51.7998 11.902Z" fill="#E47625"/>
<path d="M95.2003 60.3023C85.2366 59.9355 75.4442 56.1823 68.0845 49.8496C67.241 50.0208 66.2752 50.1919 65.2849 50.3753C64.2947 50.1919 63.3167 50.0208 62.4853 49.8496C55.1379 56.1823 45.3332 59.9355 35.3696 60.3023C33.927 60.3512 32.7534 61.4637 32.6311 62.9062C32.1054 69.349 32.7534 75.8773 34.5383 82.1122C35.2596 84.6306 36.1642 87.1001 37.0689 89.5574C39.6851 96.6726 42.3013 103.8 44.9176 110.915C45.9567 113.739 47.0692 116.673 49.3676 118.739C51.6659 120.805 55.5291 121.661 58.0353 119.815L64.6248 120.182C64.6248 120.206 64.6248 120.231 64.6248 120.255L65.2849 120.219L65.9451 120.255C65.9451 120.231 65.9451 120.206 65.9451 120.182L72.5345 119.815C75.0407 121.649 78.9039 120.805 81.2023 118.739C83.5006 116.673 84.6132 113.739 85.6523 110.915C88.2685 103.8 90.8847 96.6726 93.501 89.5574C94.4056 87.0879 95.3103 84.6306 96.0316 82.1122C97.8287 75.8773 98.4644 69.349 97.9387 62.9062C97.8165 61.4637 96.6429 60.3512 95.2003 60.3023Z" fill="#FED9A8"/>
<path d="M95.8851 76.4395C96.7531 79.1535 96.1663 82.0142 95.2127 84.716C94.3203 87.2222 93.1222 89.6673 91.6185 92.0145C90.4204 89.4105 89.8458 86.6354 90.2004 83.9091C90.5427 81.1829 91.8263 78.4811 94.1002 76.2805C94.3936 75.9871 94.8704 75.6693 95.335 75.8037C95.6773 75.8893 95.8118 76.1827 95.8851 76.4395Z" fill="#EDC188"/>
<path d="M50.0034 74.3123C53.5242 74.8624 57.1918 75.4737 60.1015 77.5275C61.6541 78.6278 63.1089 80.1682 65.0038 80.266L64.796 96.3912C64.1236 95.0708 63.4512 93.7627 62.7788 92.4424C62.0453 90.9998 61.2995 89.5572 60.4438 88.1758C58.989 85.8285 57.2041 83.7013 55.1624 81.8431C53.9644 80.755 52.6685 79.7647 51.6538 78.5055C50.6391 77.2463 49.82 75.9138 50.0034 74.3123Z" fill="#EDC188"/>
<path d="M79.4907 74.3123C75.9698 74.8624 72.3022 75.4737 69.3926 77.5275C67.84 78.6278 66.3852 80.1682 64.4902 80.266L64.6981 96.3912C65.3705 95.0708 66.0428 93.7627 66.7152 92.4424C67.4488 90.9998 68.1945 89.5572 69.0503 88.1758C70.5051 85.8285 72.29 83.7013 74.3316 81.8431C75.5297 80.755 76.8256 79.7647 77.8403 78.5055C78.855 77.2463 79.6619 75.9138 79.4907 74.3123Z" fill="#EDC188"/>
<path d="M36.4818 99.5942C36.8608 100.792 37.3742 101.978 38.2422 102.883C39.0736 103.751 40.1738 104.338 40.9318 105.279C42.9368 107.785 40.6017 111.563 41.6409 114.607C42.2032 116.221 43.7314 117.675 45.4185 117.431C44.7583 118.397 45.3574 119.815 46.3476 120.438C46.641 120.622 46.9589 120.756 47.2767 120.854H82.449C82.7791 120.756 83.0847 120.622 83.3781 120.438C84.3684 119.815 84.9674 118.397 84.3072 117.431C85.9943 117.675 87.5347 116.221 88.0849 114.607C89.1362 111.575 86.2144 107.797 88.2193 105.279C88.9651 104.338 90.0776 103.751 90.9089 102.883C91.7769 101.966 92.2904 100.78 92.6693 99.5942C96.8015 86.7209 87.3636 72.0627 92.486 59.544C90.7744 59.2262 90.0776 59.9352 88.366 59.6174C85.7009 66.2068 81.581 72.1972 76.3974 77.0507C73.6712 79.6058 70.6516 81.8552 68.2432 84.7037C66.4705 86.8065 65.0524 89.3371 64.5878 92.0145C64.1232 89.3371 62.6929 86.8065 60.9324 84.7037C58.524 81.843 55.5044 79.5935 52.7781 77.0507C47.5946 72.1972 43.4747 66.2068 40.8096 59.6174C39.098 59.9352 38.4012 59.2262 36.6896 59.544C41.7876 72.0627 32.3496 86.7209 36.4818 99.5942Z" fill="#FFF3CB"/>
<path d="M92.8776 98.5917C89.7112 100.804 85.9947 101.33 82.3149 100.23C78.9774 99.2274 76.0066 97.4303 72.8036 96.1467C69.4294 94.7896 65.9941 94.3495 62.4488 95.352C59.0379 96.3178 55.896 98.066 52.4729 98.9707C48.9887 99.8876 45.2233 99.7653 42.0325 97.956C38.6828 96.0611 36.8612 92.9314 35.5164 89.5083C35.2719 92.9436 35.4553 96.3178 36.4944 99.5942C36.8734 100.792 37.3869 101.978 38.2549 102.883C39.0862 103.751 40.1865 104.338 40.9444 105.279C42.9494 107.785 40.6144 111.563 41.6535 114.607C42.2159 116.221 43.744 117.675 45.4311 117.431C44.771 118.397 45.37 119.815 46.3603 120.438C46.6537 120.622 46.9715 120.756 47.2894 120.854H82.4494C82.7795 120.756 83.0851 120.622 83.3785 120.438C84.3688 119.815 84.9678 118.397 84.3076 117.431C85.9947 117.675 87.5351 116.221 88.0853 114.607C89.1366 111.575 86.2148 107.797 88.2197 105.279C88.9655 104.338 90.078 103.751 90.9093 102.883C91.7773 101.966 92.2908 100.78 92.6697 99.5942C92.7798 99.2397 92.8898 98.8851 92.9754 98.5184C92.9387 98.5428 92.9143 98.5673 92.8776 98.5917Z" fill="#F2E2AF"/>
<path d="M36.2377 66.3047C36.4455 64.8621 36.6534 63.2484 35.7731 62.087C34.4895 60.3876 31.7999 60.8278 29.9539 61.8791C25.3816 64.5076 22.8021 69.6422 21.5551 74.7768C20.3081 79.9115 20.137 85.2417 19 90.4008C24.7459 92.0757 30.7485 92.8825 36.7389 92.7725C35.1252 84.0559 34.954 75.0702 36.2377 66.3047Z" fill="#FED9A8"/>
<path d="M95.2129 66.3047C95.0051 64.8621 94.7972 63.2484 95.6775 62.087C96.9611 60.3876 99.6507 60.8278 101.497 61.8791C106.069 64.5076 108.649 69.6422 109.896 74.7768C111.142 79.8992 111.314 85.2417 112.451 90.3886C106.705 92.0634 100.543 92.8703 94.5527 92.7603C96.1543 84.0558 96.4966 75.0702 95.2129 66.3047Z" fill="#FED9A8"/>
<path d="M40.6139 65.5344C40.4061 64.5931 40.076 63.5784 39.2324 63.1016C40.076 66.1701 39.2202 69.4098 39.2569 72.5884C39.2691 73.1386 39.3058 73.7009 39.5503 74.1899C39.7337 74.5445 40.1249 74.8746 40.4916 74.7279C40.8217 74.6056 40.9195 74.1899 40.9684 73.8476C41.3352 71.0725 41.2251 68.2484 40.6139 65.5344Z" fill="#E3D19C"/>
<path d="M42.8638 69.6665C43.1939 70.6568 43.5362 71.647 43.9763 72.6006C44.4409 73.5909 45.0277 74.52 45.6023 75.4491C47.5339 78.5421 49.5388 81.7085 52.424 83.9212C52.4729 82.173 51.287 80.6693 50.2234 79.2756C47.485 75.7058 45.1255 71.8426 43.1939 67.7838C42.2281 65.7667 41.3723 63.6761 40.8955 61.4878C40.3821 62.0502 40.5899 62.9426 40.8344 63.6761C41.519 65.6811 42.1914 67.6738 42.8638 69.6665Z" fill="#E3D19C"/>
<path d="M90.0047 67.234C90.2493 65.6447 90.6282 64.0676 90.5671 62.4539C90.237 62.1482 89.6624 62.3316 89.4057 62.6984C89.149 63.0651 89.1123 63.5297 89.0878 63.982C88.7944 69.5812 88.8678 75.2904 90.4693 80.6696C89.7113 76.2318 89.3201 71.684 90.0047 67.234Z" fill="#E3D19C"/>
<path d="M83.819 78.9212C83.8068 79.1169 83.8068 79.3125 83.9046 79.4836C84.0758 79.777 84.5036 79.8259 84.8093 79.667C85.1027 79.5081 85.2983 79.1902 85.4205 78.8846C85.7384 78.1266 85.824 77.2953 85.9218 76.4884C86.423 72.2707 87.2421 68.0896 88.3669 63.9941C87.291 67.1116 86.2274 70.2291 85.1638 73.3465C84.5403 75.1436 83.9168 77.0019 83.819 78.9212Z" fill="#E3D19C"/>
<path d="M56.7756 108.274C55.1497 109.423 53.8171 110.939 52.3012 112.235C50.7852 113.531 48.9759 114.644 46.9832 114.717C46.2863 114.742 45.5773 114.631 44.9904 114.265C44.4036 113.898 43.3523 113.311 44.0246 112.541C45.4061 112.785 46.7753 112.101 48.0101 111.441C51.0909 109.79 54.1717 108.152 57.2524 106.502C58.2182 105.988 59.2329 105.45 60.3332 105.401C59.5141 106.685 58.0349 107.394 56.7756 108.274Z" fill="#E3D19C"/>
<path d="M54.1353 114.852C53.084 115.658 52.0203 116.453 50.8223 117.015C51.1523 115.94 51.9348 115.072 52.7294 114.277C54.5999 112.431 56.6782 110.793 58.9154 109.399C61.0549 108.067 63.6955 106.942 66.0428 107.859C61.5928 109.13 57.8274 112.052 54.1353 114.852Z" fill="#E3D19C"/>
<path d="M43.8049 107.48C43.5604 107.48 43.3526 107.7 43.2548 107.92C42.9125 108.666 43.426 109.595 44.1717 109.949C44.9174 110.304 45.7854 110.218 46.5801 109.998C48.4872 109.485 50.1377 108.299 51.7025 107.101C50.1499 107.663 48.4995 107.944 46.849 107.92C46.1767 107.908 45.5043 107.847 44.8808 107.614C44.2451 107.382 44.1228 108.067 43.8049 107.48Z" fill="#E3D19C"/>
<path d="M75.065 100.352C71.7398 98.6039 68.1822 96.8435 64.5268 97.2591C60.8715 96.8435 57.3139 98.6039 53.9886 100.352C50.6144 102.125 47.0568 103.983 43.3281 103.653C46.4211 105.071 49.4408 106.049 52.7294 105.303C54.4043 104.924 56.0425 104.313 57.6073 103.58C61.2871 101.856 68.0477 101.758 71.4586 103.58C72.9745 104.399 74.6616 104.924 76.3365 105.303C79.6251 106.049 82.6447 105.071 85.7377 103.653C82.009 103.983 78.4392 102.125 75.065 100.352Z" fill="#CEBA80"/>
<path d="M75.0898 107.7C76.7158 108.849 78.0483 110.365 79.5643 111.661C81.0802 112.957 82.8895 114.069 84.8823 114.143C85.5791 114.167 86.2882 114.057 86.875 113.69C87.4618 113.324 87.8897 112.651 87.8408 111.966C86.4593 112.211 85.0901 111.526 83.8553 110.866C80.7746 109.216 77.6938 107.578 74.613 105.927C73.6472 105.414 72.6325 104.876 71.5322 104.827C72.3635 106.111 73.8306 106.807 75.0898 107.7Z" fill="#CEBA80"/>
<path d="M78.8918 114.852C79.9432 115.658 81.0068 116.453 82.2049 117.015C81.8748 115.94 81.0924 115.072 80.2977 114.277C78.4273 112.431 76.349 110.793 74.1117 109.399C71.9723 108.067 69.3316 106.942 66.9844 107.859C71.4466 109.13 75.212 112.052 78.8918 114.852Z" fill="#CEBA80"/>
<path d="M86.8136 106.991C87.0581 106.991 87.2659 107.211 87.3637 107.431C87.706 108.176 87.1926 109.106 86.4468 109.46C85.7011 109.815 84.8331 109.729 84.0384 109.509C82.1313 108.996 80.4809 107.81 78.916 106.612C80.4686 107.174 82.119 107.455 83.7695 107.431C84.4419 107.418 85.1143 107.357 85.7377 107.125C86.3735 106.893 86.4957 107.577 86.8136 106.991Z" fill="#E3D19C"/>
<path d="M39.0007 64.4218C41.0532 64.4218 42.7172 62.7578 42.7172 60.7053C42.7172 58.6527 41.0532 56.9888 39.0007 56.9888C36.9481 56.9888 35.2842 58.6527 35.2842 60.7053C35.2842 62.7578 36.9481 64.4218 39.0007 64.4218Z" fill="#E47625"/>
<path d="M35.6384 61.2191C35.6384 59.2875 37.2032 57.7227 39.1348 57.7227C40.663 57.7227 41.9589 58.7129 42.4357 60.0821C42.1423 58.4562 40.7119 57.2214 39.0003 57.2214C37.0687 57.2214 35.5039 58.7863 35.5039 60.7179C35.5039 61.1213 35.5773 61.5003 35.6995 61.8548C35.6628 61.647 35.6384 61.4269 35.6384 61.2191Z" fill="#FFF3CB"/>
<path d="M41.3763 60.6924C41.7068 59.2789 40.829 57.8651 39.4155 57.5346C38.002 57.204 36.5882 58.0819 36.2577 59.4954C35.9271 60.9088 36.805 62.3226 38.2185 62.6532C39.632 62.9837 41.0458 62.1058 41.3763 60.6924Z" fill="#9A4F23"/>
<path d="M41.3763 60.6924C41.7068 59.2789 40.829 57.8651 39.4155 57.5346C38.002 57.204 36.5882 58.0819 36.2577 59.4954C35.9271 60.9088 36.805 62.3226 38.2185 62.6532C39.632 62.9837 41.0458 62.1058 41.3763 60.6924Z" fill="#9A4F23"/>
<path d="M38.2913 61.4882C39.4932 61.4882 40.4674 60.5139 40.4674 59.3121C40.4674 58.1103 39.4932 57.136 38.2913 57.136C37.0895 57.136 36.1152 58.1103 36.1152 59.3121C36.1152 60.5139 37.0895 61.4882 38.2913 61.4882Z" fill="#F8991D"/>
<path d="M37.769 59.5856C38.2303 59.3935 38.4485 58.8639 38.2564 58.4026C38.0644 57.9414 37.5347 57.7231 37.0735 57.9152C36.6122 58.1072 36.394 58.6369 36.586 59.0981C36.7781 59.5594 37.3077 59.7776 37.769 59.5856Z" fill="#FFF3CB"/>
<path d="M37.5218 62.9549C38.3654 63.2117 39.3189 63.1139 40.0891 62.6738C40.8593 62.2336 41.4217 61.4635 41.6295 60.5955C41.8863 60.7177 42.1552 60.84 42.4119 60.9744C42.2897 62.1236 41.5928 63.1995 40.5904 63.7496C39.5757 64.2997 38.2676 64.2753 37.3018 63.6518C37.3751 63.4195 37.4485 63.1872 37.5218 62.9549Z" fill="#BE6328"/>
<path d="M90.0046 64.422C92.0571 64.422 93.7211 62.7581 93.7211 60.7055C93.7211 58.6529 92.0571 56.989 90.0046 56.989C87.952 56.989 86.2881 58.6529 86.2881 60.7055C86.2881 62.7581 87.952 64.422 90.0046 64.422Z" fill="#E47625"/>
<path d="M86.6423 61.2191C86.6423 59.2875 88.2071 57.7227 90.1387 57.7227C91.6669 57.7227 92.9628 58.7129 93.4396 60.0821C93.1462 58.4562 91.7158 57.2214 90.0042 57.2214C88.0726 57.2214 86.5078 58.7863 86.5078 60.7179C86.5078 61.1213 86.5812 61.5003 86.7034 61.8548C86.6667 61.647 86.6423 61.4269 86.6423 61.2191Z" fill="#FFF3CB"/>
<path d="M92.388 60.7014C92.7186 59.2879 91.8407 57.8741 90.4272 57.5436C89.0137 57.213 87.5999 58.0909 87.2694 59.5044C86.9389 60.9179 87.8167 62.3317 89.2302 62.6622C90.6437 62.9928 92.0575 62.1149 92.388 60.7014Z" fill="#9A4F23"/>
<path d="M92.388 60.7014C92.7186 59.2879 91.8407 57.8741 90.4272 57.5436C89.0137 57.213 87.5999 58.0909 87.2694 59.5044C86.9389 60.9179 87.8167 62.3317 89.2302 62.6622C90.6437 62.9928 92.0575 62.1149 92.388 60.7014Z" fill="#9A4F23"/>
<path d="M89.2952 61.4882C90.4971 61.4882 91.4713 60.5139 91.4713 59.3121C91.4713 58.1103 90.4971 57.136 89.2952 57.136C88.0934 57.136 87.1191 58.1103 87.1191 59.3121C87.1191 60.5139 88.0934 61.4882 89.2952 61.4882Z" fill="#F8991D"/>
<path d="M88.7748 59.5888C89.2361 59.3967 89.4543 58.8671 89.2623 58.4058C89.0702 57.9445 88.5406 57.7263 88.0793 57.9184C87.6181 58.1104 87.3998 58.64 87.5919 59.1013C87.784 59.5626 88.3136 59.7808 88.7748 59.5888Z" fill="#FFF3CB"/>
<path d="M88.5374 62.9549C89.381 63.2117 90.3346 63.1139 91.1048 62.6738C91.8749 62.2336 92.4373 61.4635 92.6451 60.5955C92.9019 60.7177 93.1708 60.84 93.4276 60.9744C93.3053 62.1236 92.6085 63.1995 91.606 63.7496C90.5913 64.2997 89.2832 64.2753 88.3174 63.6518C88.3785 63.4195 88.4519 63.1872 88.5374 62.9549Z" fill="#BE6328"/>
<path d="M67.2651 92.149C66.6539 91.0243 67.1184 89.6184 67.7419 88.5059C69.698 84.9606 72.9866 82.3932 75.884 79.557C78.3535 77.1364 80.5663 74.4835 82.7668 71.8306C80.4563 75.5715 77.8034 79.0924 74.8448 82.3566C74.0746 83.2123 73.28 84.0437 72.6565 85.0217C71.8374 86.3298 71.3729 87.8335 70.6393 89.1905C69.8936 90.5353 68.7689 91.819 67.2651 92.149Z" fill="#E3D19C"/>
<path d="M62.6079 93.726C62.29 92.1123 61.8621 90.4985 61.1409 89.0192C60.334 87.3811 59.1848 85.9385 58.0112 84.5326C55.2605 81.2562 52.3264 78.1265 49.2334 75.168C51.0305 77.3808 52.7787 79.6424 54.527 81.9041C55.8962 83.6768 57.2777 85.4617 58.2801 87.4666C59.2093 89.3127 59.8083 91.3298 60.0283 93.3837C60.1017 94.0194 60.1384 94.6796 60.4685 95.2175C60.7985 95.7676 61.5076 96.1344 62.0822 95.841C62.7913 95.4864 62.7668 94.4962 62.6079 93.726Z" fill="#E3D19C"/>
<path d="M59.7961 95.0099C59.9795 94.1175 59.6494 93.2006 59.2826 92.3692C58.5613 90.7188 57.6322 89.1662 56.5319 87.7358C57.3144 88.6894 57.4977 90.0342 57.241 91.2445C56.972 92.4548 56.3119 93.5306 55.5539 94.5087C53.5856 97.0638 50.9083 99.0565 47.9131 100.23C51.2017 99.8878 54.5148 99.2521 57.3999 97.6506C58.4758 97.0638 59.5516 96.2202 59.7961 95.0099Z" fill="#E3D19C"/>
<path d="M91.2031 91.2198C90.7997 92.6746 90.0906 94.0683 89.0392 95.1564C87.5233 96.7212 85.3594 97.5525 83.1955 97.7237C81.0194 97.8826 78.8433 97.4058 76.8139 96.6479C75.2368 96.0611 73.6964 95.2786 72.0093 95.1931C71.8015 95.8777 72.2172 96.6112 72.804 97.0391C73.3786 97.4547 74.0877 97.6381 74.76 97.8949C76.9117 98.6895 78.721 100.181 80.6649 101.416C82.5965 102.663 84.8337 103.69 87.1076 103.408C87.8167 103.323 88.5135 103.103 89.1126 102.687C90.4818 101.746 91.0319 100.034 91.4843 98.445C92.6701 94.2884 93.7826 89.7283 92.0344 85.7796C91.8999 85.4617 91.5698 85.095 91.2764 85.2783C91.7655 87.1977 91.741 89.276 91.2031 91.2198Z" fill="#E3D19C"/>
<path d="M48.7806 60.8032C48.7929 61.1333 49.1596 61.3045 49.4652 61.4145C52.9495 62.6248 56.3725 63.9818 59.7223 65.51C60.1257 65.6934 60.7248 65.8034 60.8959 65.4C61.0548 65.021 60.6392 64.6787 60.2724 64.4953C58.7443 63.7251 57.1061 63.1138 55.798 62.0258C54.4899 60.9377 53.5363 59.1773 53.9764 57.5269C52.4238 58.4071 50.8712 59.2751 49.3185 60.1553C49.074 60.302 48.7684 60.5098 48.7806 60.8032Z" fill="#EDC188"/>
<path d="M52.2773 9.57934C54.1845 8.08786 56.165 6.65749 58.3411 5.58166C60.5172 4.50584 62.9011 3.79677 65.3218 3.80899C60.6395 4.81147 56.165 6.79197 52.2773 9.57934Z" fill="#FED9A8"/>
<path d="M65.7492 5.30033C60.419 6.14387 55.2965 8.27108 50.9443 11.4497C52.9248 9.45693 55.3088 7.91654 57.8516 6.73069C60.3212 5.58151 63.0841 4.76241 65.7492 5.30033Z" fill="#FDC374"/>
<path d="M106.46 73.7744C108.489 79.2636 109.761 85.0217 110.225 90.8532C109.272 91.4033 108.306 91.9657 107.352 92.5158C107.047 86.2687 106.753 80.0215 106.46 73.7744Z" fill="#EDC188"/>
<path d="M102.059 88.8481C102.487 90.1563 102.915 91.4644 103.343 92.7725C102.817 92.7969 102.279 92.8214 101.753 92.8458C101.655 91.5133 101.753 90.1563 102.059 88.8481Z" fill="#EDC188"/>
<path d="M32.2885 73.2608C33.2421 69.9844 34.5991 66.5858 33.8044 63.2727C35.5649 67.7594 35.2104 72.7595 34.7091 77.5519C34.2079 82.3442 33.5966 87.271 34.8803 91.9044C33.6088 91.831 32.3252 91.7699 31.0537 91.6966C30.1368 85.5595 30.5525 79.2267 32.2885 73.2608Z" fill="#EDC188"/>
<path d="M37.3497 98.6162C37.3375 100.413 38.6822 102.039 40.3571 102.699C42.032 103.36 43.9391 103.176 45.6262 102.565C47.3133 101.954 48.8293 100.951 50.3207 99.961C48.2424 100.963 45.8218 101.245 43.5601 100.743C41.2985 100.218 38.8045 100.401 37.3497 98.6162Z" fill="#FFF3CB"/>
<path d="M51.2744 109.338C54.1229 107.48 57.1303 105.793 60.37 104.753C63.6098 103.714 67.1306 103.36 70.4437 104.191C67.1551 102.834 63.4264 102.59 59.9911 103.519C56.5557 104.423 53.4383 106.514 51.2744 109.338Z" fill="#FFF3CB"/>
<path d="M69.8941 110.353C73.7084 111.453 76.5814 114.509 79.8944 116.71C77.3393 116.319 74.9065 115.353 72.4736 114.448C70.0408 113.543 67.5469 112.712 64.9673 112.578C62.3755 112.443 59.6493 113.103 57.7666 114.876C60.2728 111.001 65.4563 109.069 69.8941 110.353Z" fill="#FFF3CB"/>
<path d="M78.122 118.373C69.112 120.17 59.7474 120.231 50.7129 118.544C54.7839 116.637 59.0383 114.681 63.5372 114.742C68.5618 114.815 73.1952 117.395 78.122 118.373Z" fill="#FFF3CB"/>
<path d="M82.2905 114.216C79.931 112.357 77.9505 110.059 75.5788 108.201C73.2193 106.343 70.2974 104.912 67.3145 105.254C72.3024 108.237 77.3025 111.233 82.2905 114.216Z" fill="#FFF3CB"/>
<path d="M64.8935 94.6185C64.6734 93.7994 65.5292 93.0903 66.3116 92.7725C68.0721 92.0512 70.0893 91.9289 71.9231 92.4424C71.1162 93.1759 71.324 94.5818 72.0453 95.4132C72.7666 96.2445 73.8302 96.6724 74.8082 97.1736C76.7765 98.1639 78.5492 99.5331 80.0162 101.184C75.4317 99.3619 70.8472 97.5404 66.2505 95.731C65.6881 95.511 65.0524 95.2053 64.8935 94.6185Z" fill="#FFF3CB"/>
<path d="M59.0625 107.944C59.6371 106.832 60.6273 105.939 61.801 105.499C62.9746 105.059 64.3072 105.059 65.4808 105.511C65.7008 105.597 65.9331 105.743 65.9454 105.964C65.9576 106.281 65.5541 106.416 65.2363 106.465C62.7912 106.807 61.1653 106.673 59.0625 107.944Z" fill="#FFF3CB"/>
<path d="M84.3622 124.835H45.2041V229.944H84.3622V124.835Z" fill="#703A18"/>
<path d="M77.5908 124.835H51.6816V229.944H77.5908V124.835Z" fill="#B77C41"/>
<path d="M69.6407 124.835H59.9248V229.944H69.6407V124.835Z" fill="#CEA16F"/>
<path d="M84.4305 124.937H45.0771V133.116H84.4305V124.937Z" fill="#703A18"/>
<path d="M88.0854 122.712H41.4336V120.891C41.4336 119.754 42.3627 118.824 43.4997 118.824H86.0193C87.1563 118.824 88.0854 119.754 88.0854 120.891V122.712Z" fill="#FFF3CB"/>
<path d="M41.4703 120.524C41.4458 120.646 41.4336 120.768 41.4336 120.891V122.712H88.0732V120.891C88.0732 120.768 88.0609 120.646 88.0365 120.524H41.4703Z" fill="#B77C41"/>
<path d="M93.0852 121.453H36.4209V130.451H93.0852V121.453Z" fill="#B77C41"/>
<path d="M93.0852 121.453H36.4209V128.153H93.0852V121.453Z" fill="#FED9A8"/>
<path d="M36.4212 137.81C39.5878 137.81 42.1549 135.243 42.1549 132.077C42.1549 128.91 39.5878 126.343 36.4212 126.343C33.2546 126.343 30.6875 128.91 30.6875 132.077C30.6875 135.243 33.2546 137.81 36.4212 137.81Z" fill="#703A18"/>
<path d="M43.9298 139.593C48.0786 135.444 48.0786 128.718 43.9298 124.569C39.781 120.42 33.0545 120.42 28.9056 124.569C24.7568 128.718 24.7568 135.444 28.9056 139.593C33.0545 143.742 39.781 143.742 43.9298 139.593Z" fill="#FED9A8"/>
<path d="M36.4212 137.81C39.5878 137.81 42.1549 135.243 42.1549 132.077C42.1549 128.91 39.5878 126.343 36.4212 126.343C33.2546 126.343 30.6875 128.91 30.6875 132.077C30.6875 135.243 33.2546 137.81 36.4212 137.81Z" fill="#B77C41"/>
<path d="M38.7266 134.894C40.2833 133.619 40.512 131.324 39.2373 129.767C37.9627 128.211 35.6674 127.982 34.1107 129.257C32.554 130.531 32.3253 132.826 33.5999 134.383C34.8746 135.94 37.1698 136.169 38.7266 134.894Z" fill="#CEA16F"/>
<path d="M93.0852 137.81C96.2519 137.81 98.8189 135.243 98.8189 132.077C98.8189 128.91 96.2519 126.343 93.0852 126.343C89.9186 126.343 87.3516 128.91 87.3516 132.077C87.3516 135.243 89.9186 137.81 93.0852 137.81Z" fill="#703A18"/>
<path d="M100.593 139.592C104.742 135.444 104.742 128.717 100.593 124.568C96.4441 120.419 89.7175 120.419 85.5687 124.568C81.4199 128.717 81.4199 135.444 85.5687 139.592C89.7175 143.741 96.4441 143.741 100.593 139.592Z" fill="#FED9A8"/>
<path d="M93.0852 137.81C96.2519 137.81 98.8189 135.243 98.8189 132.077C98.8189 128.91 96.2519 126.343 93.0852 126.343C89.9186 126.343 87.3516 128.91 87.3516 132.077C87.3516 135.243 89.9186 137.81 93.0852 137.81Z" fill="#B77C41"/>
<path d="M95.6569 134.656C97.0796 133.233 97.0796 130.927 95.6569 129.504C94.2342 128.081 91.9275 128.081 90.5048 129.504C89.0821 130.927 89.0821 133.233 90.5048 134.656C91.9275 136.079 94.2342 136.079 95.6569 134.656Z" fill="#CEA16F"/>
<path d="M27.2891 130.94C27.1424 128.739 28.0348 126.49 29.6608 124.986C31.2868 123.495 33.5973 122.786 35.7857 123.116C33.5362 123.495 31.4335 124.693 29.942 126.429C28.4627 128.165 27.6069 130.426 27.5825 132.712L27.2891 130.94Z" fill="#F8E9D9"/>
<path d="M84.4541 130.94C84.3074 128.739 85.1999 126.49 86.8258 124.986C88.4518 123.495 90.7624 122.786 92.9507 123.116C90.7013 123.495 88.5985 124.693 87.107 126.429C85.6277 128.165 84.772 130.426 84.7475 132.712L84.4541 130.94Z" fill="#F8E9D9"/>
<path d="M67.2849 247.903H61.9854V153.766C61.9854 144.915 63.1535 137.789 64.6044 137.789H64.6536C66.1045 137.789 67.2727 144.915 67.2727 153.766V247.903H67.2849Z" fill="#FED9A8"/>
<path d="M58.4529 247.903H53.1533V153.766C53.1533 144.915 54.3214 137.789 55.7724 137.789H55.8216C57.2725 137.789 58.4406 144.915 58.4406 153.766V247.903H58.4529Z" fill="#FED9A8"/>
<path d="M76.4129 247.903H71.1133V153.766C71.1133 144.915 72.2814 137.789 73.7323 137.789H73.7815C75.2325 137.789 76.4006 144.915 76.4006 153.766V247.903H76.4129Z" fill="#FED9A8"/>
<path d="M83.1844 247.903H79.0625V150.016C79.0625 143.265 79.9771 137.789 81.1047 137.789H81.1422C82.2698 137.789 83.1844 143.265 83.1844 150.016V247.903Z" fill="#B77C41"/>
<path d="M50.2088 247.903H46.0869V150.016C46.0869 143.265 47.0015 137.789 48.1291 137.789H48.1667C49.2942 137.789 50.2088 143.265 50.2088 150.016V247.903Z" fill="#B77C41"/>
<path d="M10.0672 201.5H122.933C123.027 205.011 124.109 208.187 125.831 210.529C127.527 212.836 129.867 214.357 132.5 214.529V242.471C129.866 242.644 127.526 244.174 125.83 246.485C124.109 248.83 123.027 252.005 122.933 255.5H10.0672C9.97261 252.005 8.89054 248.83 7.16953 246.485C5.47376 244.174 3.13386 242.644 0.5 242.471V214.529C3.13386 214.356 5.47376 212.826 7.16953 210.515C8.89054 208.17 9.97261 204.995 10.0672 201.5Z" fill="url(#paint0_linear_1449_159)" stroke="black"/>
<path d="M12.0575 205.378H120.658C120.771 208.398 121.892 211.283 123.546 213.453C125.166 215.58 127.348 217.082 129.654 217.274V239.761C127.349 239.952 125.167 241.445 123.546 243.568C121.892 245.736 120.77 248.621 120.658 251.657H12.0575C11.9519 248.628 10.8962 245.745 9.30414 243.576C7.74351 241.45 5.62069 239.953 3.32031 239.761V217.274C5.62069 217.082 7.74351 215.586 9.30414 213.459C10.8962 211.29 11.9519 208.407 12.0575 205.378Z" fill="url(#paint1_linear_1449_159)" stroke="black"/>
<path d="M47.1379 210.668C49.2819 210.668 50.9085 211.201 52.0179 212.268C53.1272 213.335 53.6819 214.876 53.6819 216.892C53.6819 219.185 53.0952 220.935 51.9219 222.14C50.7592 223.356 49.1219 223.964 47.0099 223.964C44.8765 223.964 43.2499 223.415 42.1299 222.316C41.0205 221.228 40.4659 219.729 40.4659 217.82C40.4659 216.903 40.6365 215.911 40.9779 214.844C41.3192 213.767 41.9859 212.801 42.9779 211.948C43.9699 211.095 45.3565 210.668 47.1379 210.668ZM42.4659 215.948C42.4659 218.231 42.8925 220.044 43.7459 221.388C44.6099 222.743 45.9645 223.42 47.8099 223.42C49.2819 223.42 50.3059 223.009 50.8819 222.188C51.4579 221.367 51.7459 220.22 51.7459 218.748C51.7459 217.436 51.6072 216.231 51.3299 215.132C51.0632 214.033 50.5405 213.1 49.7619 212.332C48.9832 211.564 47.9005 211.18 46.5139 211.18C45.2979 211.18 44.3165 211.543 43.5699 212.268C42.8339 212.983 42.4659 214.209 42.4659 215.948ZM60.1752 214.492V220.412C60.1859 220.551 60.2552 220.62 60.3832 220.62C60.4792 220.62 60.5912 220.588 60.7192 220.524C60.8579 220.449 61.0766 220.327 61.3752 220.156C61.2366 220.444 61.0019 220.727 60.6712 221.004C60.3512 221.281 60.0419 221.42 59.7432 221.42C59.5726 221.42 59.3486 221.303 59.0712 221.068C58.8046 220.833 58.6712 220.519 58.6712 220.124V219.26C58.0206 219.911 57.4712 220.433 57.0232 220.828C56.5752 221.223 56.1859 221.42 55.8552 221.42C55.4926 221.42 55.1672 221.207 54.8792 220.78C54.6019 220.353 54.4632 219.783 54.4632 219.068C54.4632 217.617 54.8632 216.492 55.6632 215.692C56.4632 214.892 57.5032 214.492 58.7832 214.492H60.1752ZM55.9992 217.852C55.9992 218.375 56.0846 218.759 56.2552 219.004C56.4259 219.249 56.6606 219.372 56.9592 219.372C57.2152 219.372 57.4872 219.297 57.7752 219.148C58.0739 218.988 58.3726 218.775 58.6712 218.508V214.94C57.8712 214.94 57.2259 215.239 56.7352 215.836C56.2446 216.423 55.9992 217.095 55.9992 217.852ZM66.3179 214.364C66.1365 214.652 66.0032 214.94 65.9179 215.228C65.8325 215.516 65.7579 215.777 65.6939 216.012C65.3525 215.639 65.0325 215.377 64.7339 215.228C64.4352 215.079 64.0885 215.004 63.6939 215.004C63.2992 215.004 63.0219 215.073 62.8619 215.212C62.7019 215.351 62.6219 215.537 62.6219 215.772C62.6219 216.039 63.0219 216.343 63.8219 216.684C64.6219 217.015 65.2512 217.345 65.7099 217.676C66.1792 218.007 66.4139 218.535 66.4139 219.26C66.4139 220.113 66.1472 220.679 65.6139 220.956C65.0912 221.233 64.4245 221.372 63.6139 221.372C62.7925 221.372 62.2699 221.223 62.0459 220.924C61.8219 220.615 61.7099 219.868 61.7099 218.684C61.9125 219.239 62.2432 219.74 62.7019 220.188C63.1605 220.636 63.7099 220.86 64.3499 220.86C65.0859 220.86 65.4539 220.529 65.4539 219.868C65.4539 219.548 65.0645 219.212 64.2859 218.86C63.5072 218.508 62.8992 218.167 62.4619 217.836C62.0245 217.505 61.8059 216.951 61.8059 216.172C61.8059 215.5 62.0139 215.036 62.4299 214.78C62.8459 214.524 63.4005 214.396 64.0939 214.396C64.2752 214.396 64.5259 214.428 64.8459 214.492C65.1659 214.556 65.3525 214.588 65.4059 214.588C65.5765 214.588 65.7205 214.577 65.8379 214.556C65.9552 214.524 66.1152 214.46 66.3179 214.364ZM68.8791 210.924C69.1458 210.924 69.3698 211.02 69.5511 211.212C69.7324 211.404 69.8231 211.665 69.8231 211.996C69.8231 212.369 69.6631 212.663 69.3431 212.876C69.0231 213.089 68.7351 213.196 68.4791 213.196C68.2551 213.196 68.0844 213.079 67.9671 212.844C67.8604 212.599 67.8071 212.316 67.8071 211.996C67.8071 211.591 67.9031 211.313 68.0951 211.164C68.2871 211.004 68.5484 210.924 68.8791 210.924ZM68.6711 214.412C69.0018 214.412 69.2311 214.54 69.3591 214.796C69.4978 215.052 69.5671 215.356 69.5671 215.708V220.204C69.6098 220.503 69.7218 220.652 69.9031 220.652C70.0311 220.652 70.1804 220.583 70.3511 220.444C70.5218 220.305 70.6338 220.215 70.6871 220.172C70.4311 220.609 70.1698 220.929 69.9031 221.132C69.6471 221.335 69.3538 221.436 69.0231 221.436C68.7458 221.436 68.5218 221.319 68.3511 221.084C68.1804 220.849 68.0951 220.572 68.0951 220.252V215.532C68.0951 215.329 68.0204 215.228 67.8711 215.228C67.6684 215.228 67.3538 215.409 66.9271 215.772C66.9804 215.569 67.1991 215.292 67.5831 214.94C67.9671 214.588 68.3298 214.412 68.6711 214.412ZM75.771 214.364C75.5897 214.652 75.4563 214.94 75.371 215.228C75.2857 215.516 75.211 215.777 75.147 216.012C74.8057 215.639 74.4857 215.377 74.187 215.228C73.8883 215.079 73.5417 215.004 73.147 215.004C72.7523 215.004 72.475 215.073 72.315 215.212C72.155 215.351 72.075 215.537 72.075 215.772C72.075 216.039 72.475 216.343 73.275 216.684C74.075 217.015 74.7043 217.345 75.163 217.676C75.6323 218.007 75.867 218.535 75.867 219.26C75.867 220.113 75.6003 220.679 75.067 220.956C74.5443 221.233 73.8777 221.372 73.067 221.372C72.2457 221.372 71.723 221.223 71.499 220.924C71.275 220.615 71.163 219.868 71.163 218.684C71.3657 219.239 71.6963 219.74 72.155 220.188C72.6137 220.636 73.163 220.86 73.803 220.86C74.539 220.86 74.907 220.529 74.907 219.868C74.907 219.548 74.5177 219.212 73.739 218.86C72.9603 218.508 72.3523 218.167 71.915 217.836C71.4777 217.505 71.259 216.951 71.259 216.172C71.259 215.5 71.467 215.036 71.883 214.78C72.299 214.524 72.8537 214.396 73.547 214.396C73.7283 214.396 73.979 214.428 74.299 214.492C74.619 214.556 74.8057 214.588 74.859 214.588C75.0297 214.588 75.1737 214.577 75.291 214.556C75.4083 214.524 75.5683 214.46 75.771 214.364ZM81.1802 210.732C81.4682 210.988 81.6816 211.26 81.8202 211.548C81.9589 211.825 82.0282 212.097 82.0282 212.364C82.0282 212.727 81.9109 213.073 81.6762 213.404C81.4416 213.735 81.1216 214.017 80.7162 214.252C80.9189 213.964 81.0202 213.676 81.0202 213.388C81.0202 213.068 80.9509 212.833 80.8122 212.684C80.6736 212.535 80.3962 212.284 79.9802 211.932C80.0656 211.719 80.1882 211.5 80.3482 211.276C80.5082 211.041 80.7856 210.86 81.1802 210.732ZM85.4362 214.444V220.316C85.4362 220.604 85.4736 220.807 85.5482 220.924C85.6229 221.031 85.7882 221.169 86.0442 221.34H83.3082C83.4576 221.223 83.6069 221.1 83.7562 220.972C83.8949 220.812 83.9642 220.593 83.9642 220.316V216.108C83.9642 215.809 83.8256 215.66 83.5482 215.66C83.3456 215.66 83.1002 215.756 82.8122 215.948C83.1856 215.521 83.5376 215.164 83.8682 214.876C84.2096 214.588 84.7322 214.444 85.4362 214.444ZM89.9206 211.356C90.7099 211.356 91.2806 211.569 91.6326 211.996C91.9846 212.412 92.1606 212.892 92.1606 213.436C92.1606 213.948 92.0273 214.332 91.7606 214.588C91.4939 214.833 91.0193 215.191 90.3366 215.66C90.8806 215.98 91.4193 216.385 91.9526 216.876C92.4966 217.367 92.7686 218.049 92.7686 218.924C92.7686 219.735 92.4486 220.364 91.8086 220.812C91.1793 221.249 90.3793 221.468 89.4086 221.468C87.7233 221.468 86.8806 220.711 86.8806 219.196C86.8806 218.449 87.0299 217.884 87.3286 217.5C87.6273 217.116 88.0966 216.7 88.7366 216.252C88.3206 215.847 88.0113 215.452 87.8086 215.068C87.6166 214.673 87.5206 214.172 87.5206 213.564C87.5206 212.636 87.7659 212.039 88.2566 211.772C88.7473 211.495 89.3019 211.356 89.9206 211.356ZM88.2566 212.94C88.2566 213.452 88.4379 213.937 88.8006 214.396C89.1633 214.844 89.5793 215.191 90.0486 215.436C90.2833 215.297 90.5233 215.137 90.7686 214.956C91.0139 214.775 91.1366 214.396 91.1366 213.82C91.1366 213.255 90.9659 212.785 90.6246 212.412C90.2939 212.028 89.9046 211.836 89.4566 211.836C89.1153 211.836 88.8273 211.916 88.5926 212.076C88.3686 212.236 88.2566 212.524 88.2566 212.94ZM87.9046 218.38C87.9046 219.223 88.1339 219.857 88.5926 220.284C89.0619 220.711 89.5579 220.924 90.0806 220.924C90.4326 220.924 90.6993 220.828 90.8806 220.636C91.0726 220.444 91.1686 220.097 91.1686 219.596C91.1686 218.657 90.9873 217.996 90.6246 217.612C90.2619 217.217 89.7179 216.828 88.9926 216.444C88.5979 216.764 88.3153 217.052 88.1446 217.308C87.9846 217.553 87.9046 217.911 87.9046 218.38ZM44.6871 245.036H43.4711C42.3298 245.036 41.3645 244.636 40.5751 243.836C39.8178 242.961 39.0658 242.092 38.3191 241.228C37.1671 240.097 35.7111 239.271 33.9511 238.748C33.6524 239.111 33.2524 239.591 32.7511 240.188C32.2498 240.775 31.6578 241.372 30.9751 241.98C30.2924 242.599 29.7431 242.908 29.3271 242.908C29.1244 242.908 28.9804 242.865 28.8951 242.78C28.8204 242.705 28.7831 242.567 28.7831 242.364C28.7831 242.204 29.2418 241.847 30.1591 241.292C31.0871 240.727 32.1751 239.82 33.4231 238.572C32.9431 238.455 32.4898 238.396 32.0631 238.396C31.6151 238.396 31.2684 238.439 31.0231 238.524C30.7884 238.599 30.4844 238.732 30.1111 238.924C30.4204 238.636 30.7724 238.428 31.1671 238.3C31.5724 238.172 31.9991 238.108 32.4471 238.108C32.8631 238.108 33.2738 238.151 33.6791 238.236C34.6604 237.009 35.5138 235.719 36.2391 234.364C36.9645 233.009 37.4818 231.777 37.7911 230.668C38.1431 232.289 38.5538 234.076 39.0231 236.028C39.4925 237.969 40.1911 239.793 41.1191 241.5C42.0471 243.217 43.2365 244.396 44.6871 245.036ZM36.8311 234.14C36.5004 234.865 36.1164 235.575 35.6791 236.268C35.2524 236.951 34.7671 237.649 34.2231 238.364C35.0444 238.567 35.8071 238.812 36.5111 239.1C37.2258 239.377 37.8284 239.713 38.3191 240.108C38.0844 239.628 37.8231 238.817 37.5351 237.676C37.2471 236.535 37.0125 235.356 36.8311 234.14ZM45.8096 234.14C45.5963 234.631 45.3403 234.967 45.0416 235.148C44.7536 235.329 44.3483 235.42 43.8256 235.42V242.092C43.8256 243.703 43.5323 244.871 42.9456 245.596C42.3696 246.321 41.6976 246.684 40.9296 246.684H39.2336C39.4469 245.991 40.0176 245.633 40.9456 245.612C41.8736 245.591 42.3376 245.212 42.3376 244.476V235.42H41.2336L42.0816 234.476H42.3536V233.692C42.3536 232.871 42.5563 232.161 42.9616 231.564C43.3776 230.967 43.9216 230.668 44.5936 230.668H47.6656C47.3989 231.127 47.0523 231.415 46.6256 231.532C46.2096 231.649 45.6816 231.708 45.0416 231.708C44.5189 231.708 44.1829 231.724 44.0336 231.756C43.8949 231.777 43.8256 231.889 43.8256 232.092V234.476C45.0416 234.476 45.7029 234.364 45.8096 234.14ZM48.1641 234.476H49.4761C49.3374 234.785 49.1401 234.977 48.8841 235.052C48.6388 235.116 48.3988 235.153 48.1641 235.164V240.012C48.1641 240.247 48.2548 240.364 48.4361 240.364C48.5854 240.364 48.7721 240.295 48.9961 240.156C49.2308 240.007 49.5081 239.783 49.8281 239.484C49.5294 240.049 49.1774 240.519 48.7721 240.892C48.3668 241.255 47.9561 241.436 47.5401 241.436C47.2201 241.436 46.9961 241.308 46.8681 241.052C46.7508 240.785 46.6921 240.316 46.6921 239.644V235.164H45.7481C45.7801 234.919 46.0628 234.647 46.5961 234.348C47.1401 234.039 47.6628 233.244 48.1641 231.964V234.476ZM54.1901 234.428C54.6061 234.428 54.9474 234.503 55.2141 234.652C55.4914 234.801 55.8648 235.111 56.3341 235.58L52.4461 239.468C52.6594 239.82 52.9208 240.049 53.2301 240.156C53.5501 240.252 53.9074 240.3 54.3021 240.3C54.6968 240.3 55.0648 240.209 55.4061 240.028C55.7581 239.847 56.0728 239.655 56.3501 239.452C55.9234 240.103 55.4541 240.593 54.9421 240.924C54.4301 241.244 53.8434 241.404 53.1821 241.404C52.2328 241.404 51.5608 241.1 51.1661 240.492C50.7714 239.884 50.5741 239.228 50.5741 238.524C50.5741 237.287 50.9208 236.295 51.6141 235.548C52.3074 234.801 53.1661 234.428 54.1901 234.428ZM52.3021 239.1C52.6754 238.737 53.0488 238.375 53.4221 238.012C53.9874 237.404 54.2701 236.945 54.2701 236.636C54.2701 236.263 54.1794 235.975 53.9981 235.772C53.8168 235.559 53.5768 235.452 53.2781 235.452C52.9048 235.452 52.6114 235.676 52.3981 236.124C52.1848 236.561 52.0781 237.084 52.0781 237.692C52.0781 237.948 52.0941 238.193 52.1261 238.428C52.1581 238.652 52.2168 238.876 52.3021 239.1ZM58.3831 234.412C58.6818 234.412 58.8684 234.556 58.9431 234.844C59.0284 235.121 59.0711 235.612 59.0711 236.316V237.036C59.4764 236.471 59.8871 235.905 60.3031 235.34C60.8258 234.721 61.3431 234.412 61.8551 234.412C62.1431 234.412 62.3671 234.519 62.5271 234.732C62.6978 234.935 62.7831 235.185 62.7831 235.484C62.7831 235.847 62.5804 236.252 62.1751 236.7C61.7698 237.137 61.3698 237.548 60.9751 237.932C61.0284 237.825 61.0818 237.649 61.1351 237.404C61.1991 237.148 61.2311 236.924 61.2311 236.732C61.2311 236.497 61.1884 236.305 61.1031 236.156C61.0284 236.007 60.8951 235.932 60.7031 235.932C60.5004 235.932 60.2444 236.119 59.9351 236.492C59.6364 236.855 59.3484 237.223 59.0711 237.596V240.588C58.8898 240.759 58.6764 240.935 58.4311 241.116C58.1858 241.287 57.9031 241.393 57.5831 241.436V236.14C57.5831 235.916 57.4764 235.804 57.2631 235.804C57.1671 235.804 57.0551 235.841 56.9271 235.916C56.7991 235.98 56.6551 236.092 56.4951 236.252C56.6658 235.9 56.9698 235.505 57.4071 235.068C57.8444 234.631 58.1698 234.412 58.3831 234.412ZM73.6526 230.684C74.3886 230.684 74.9646 230.956 75.3806 231.5C75.7966 232.033 76.106 232.679 76.3086 233.436C76.5113 234.193 76.698 234.887 76.8686 235.516C77.0499 236.145 77.2153 236.668 77.3646 237.084C77.5673 236.401 77.7753 235.713 77.9886 235.02C78.426 233.815 78.9806 232.791 79.6526 231.948C80.3353 231.105 81.178 230.684 82.1806 230.684C82.65 230.684 83.0233 230.775 83.3006 230.956C83.5886 231.137 83.8019 231.377 83.9406 231.676C83.7273 231.441 83.482 231.271 83.2046 231.164C82.9273 231.047 82.634 230.988 82.3246 230.988C81.6633 230.988 81.1459 231.297 80.7726 231.916C80.3993 232.535 80.2126 233.212 80.2126 233.948C80.2126 234.855 80.4686 236.081 80.9806 237.628C81.5033 239.175 82.2446 240.636 83.2046 242.012C84.1753 243.388 85.306 244.337 86.5966 244.86H85.1086C83.2313 244.86 81.8286 244.097 80.9006 242.572C79.9726 241.047 79.3539 239.26 79.0446 237.212C78.97 236.316 78.8953 235.42 78.8206 234.524C78.5326 235.089 78.1913 236.065 77.7966 237.452C77.4019 238.839 77.1193 239.921 76.9486 240.7C76.714 240.295 76.4526 239.724 76.1646 238.988C75.8873 238.241 75.5673 237.345 75.2046 236.3C74.8526 235.244 74.602 234.503 74.4526 234.076C74.4526 235.004 74.2499 236.348 73.8446 238.108C73.4393 239.857 72.8526 241.425 72.0846 242.812C71.3166 244.199 70.4099 244.892 69.3646 244.892C68.7139 244.892 68.1539 244.588 67.6846 243.98C67.2153 243.372 66.9806 242.652 66.9806 241.82C67.2579 242.161 67.6153 242.444 68.0526 242.668C68.5006 242.903 68.9806 243.02 69.4926 243.02C70.6126 243.02 71.5086 242.433 72.1806 241.26C72.8633 240.087 73.3433 238.78 73.6206 237.34C73.8979 235.9 74.0366 234.769 74.0366 233.948C74.0366 232.913 73.9299 232.188 73.7166 231.772C73.5033 231.356 73.0339 231.148 72.3086 231.148C70.9966 231.148 69.9566 231.484 69.1886 232.156C68.4206 232.828 68.0366 233.74 68.0366 234.892C68.0366 235.745 68.2019 236.492 68.5326 237.132C68.8953 237.633 69.2633 238.129 69.6366 238.62C69.6366 238.759 69.5193 238.881 69.2846 238.988C69.0606 239.095 68.8686 239.148 68.7086 239.148C68.3779 238.881 68.0473 238.508 67.7166 238.028C67.3966 237.548 67.2366 236.764 67.2366 235.676C67.2366 234.033 67.7913 232.791 68.9006 231.948C70.0206 231.105 71.6046 230.684 73.6526 230.684ZM86.6387 234.412C87.5134 234.412 88.1961 234.727 88.6867 235.356C89.1881 235.985 89.4387 236.764 89.4387 237.692C89.4387 238.673 89.0761 239.543 88.3507 240.3C87.6254 241.057 86.8147 241.436 85.9187 241.436C85.0761 241.436 84.4041 241.121 83.9027 240.492C83.4014 239.852 83.1507 239.052 83.1507 238.092C83.1507 237.132 83.5027 236.279 84.2067 235.532C84.9107 234.785 85.7214 234.412 86.6387 234.412ZM84.5587 237.148C84.5587 238.023 84.6707 238.828 84.8947 239.564C85.1294 240.3 85.6467 240.668 86.4467 240.668C86.9054 240.668 87.2787 240.476 87.5667 240.092C87.8547 239.708 87.9987 239.217 87.9987 238.62C87.9987 237.756 87.8547 236.967 87.5667 236.252C87.2787 235.527 86.7881 235.164 86.0947 235.164C85.6254 235.164 85.2521 235.351 84.9747 235.724C84.6974 236.097 84.5587 236.572 84.5587 237.148ZM95.9699 234.172C96.1405 234.172 96.3912 234.391 96.7219 234.828C97.0525 235.255 97.2179 235.729 97.2179 236.252C97.2179 236.519 96.8659 237.228 96.1619 238.38C95.4579 239.532 94.9192 240.567 94.5459 241.484C94.0445 240.705 93.5379 239.756 93.0259 238.636C92.5245 237.516 92.1672 236.796 91.9539 236.476C91.7405 236.145 91.3992 235.98 90.9299 235.98C90.8552 235.98 90.6579 236.039 90.3379 236.156C90.0285 236.263 89.7992 236.364 89.6499 236.46C89.8632 236.108 90.2419 235.687 90.7859 235.196C91.3405 234.695 91.7459 234.444 92.0019 234.444C92.4819 234.444 93.0579 235.18 93.7299 236.652C94.4019 238.113 94.8872 239.025 95.1859 239.388C95.3352 239.207 95.4899 238.919 95.6499 238.524C95.8205 238.119 95.9059 237.708 95.9059 237.292C95.9059 236.876 95.7992 236.535 95.5859 236.268C95.3832 235.991 95.0632 235.713 94.6259 235.436C94.7432 235.212 94.9405 234.945 95.2179 234.636C95.5059 234.327 95.7565 234.172 95.9699 234.172ZM99.6447 230.924C99.9114 230.924 100.135 231.02 100.317 231.212C100.498 231.404 100.589 231.665 100.589 231.996C100.589 232.369 100.429 232.663 100.109 232.876C99.7887 233.089 99.5007 233.196 99.2447 233.196C99.0207 233.196 98.8501 233.079 98.7327 232.844C98.6261 232.599 98.5727 232.316 98.5727 231.996C98.5727 231.591 98.6687 231.313 98.8607 231.164C99.0527 231.004 99.3141 230.924 99.6447 230.924ZM99.4367 234.412C99.7674 234.412 99.9967 234.54 100.125 234.796C100.263 235.052 100.333 235.356 100.333 235.708V240.204C100.375 240.503 100.487 240.652 100.669 240.652C100.797 240.652 100.946 240.583 101.117 240.444C101.287 240.305 101.399 240.215 101.453 240.172C101.197 240.609 100.935 240.929 100.669 241.132C100.413 241.335 100.119 241.436 99.7887 241.436C99.5114 241.436 99.2874 241.319 99.1167 241.084C98.9461 240.849 98.8607 240.572 98.8607 240.252V235.532C98.8607 235.329 98.7861 235.228 98.6367 235.228C98.4341 235.228 98.1194 235.409 97.6927 235.772C97.7461 235.569 97.9647 235.292 98.3487 234.94C98.7327 234.588 99.0954 234.412 99.4367 234.412ZM105.753 234.428C106.169 234.428 106.51 234.503 106.777 234.652C107.054 234.801 107.427 235.111 107.897 235.58L104.009 239.468C104.222 239.82 104.483 240.049 104.793 240.156C105.113 240.252 105.47 240.3 105.865 240.3C106.259 240.3 106.627 240.209 106.969 240.028C107.321 239.847 107.635 239.655 107.913 239.452C107.486 240.103 107.017 240.593 106.505 240.924C105.993 241.244 105.406 241.404 104.745 241.404C103.795 241.404 103.123 241.1 102.729 240.492C102.334 239.884 102.137 239.228 102.137 238.524C102.137 237.287 102.483 236.295 103.177 235.548C103.87 234.801 104.729 234.428 105.753 234.428ZM103.865 239.1C104.238 238.737 104.611 238.375 104.985 238.012C105.55 237.404 105.833 236.945 105.833 236.636C105.833 236.263 105.742 235.975 105.561 235.772C105.379 235.559 105.139 235.452 104.841 235.452C104.467 235.452 104.174 235.676 103.961 236.124C103.747 236.561 103.641 237.084 103.641 237.692C103.641 237.948 103.657 238.193 103.689 238.428C103.721 238.652 103.779 238.876 103.865 239.1Z" fill="black"/>
<defs>
<linearGradient id="paint0_linear_1449_159" x1="27.9455" y1="175.968" x2="128.175" y2="249.529" gradientUnits="userSpaceOnUse">
<stop stop-color="#EAC459"/>
<stop offset="0.00819684" stop-color="#EAC459"/>
<stop offset="0.2464" stop-color="#EAC459"/>
<stop offset="0.373" stop-color="#C8972C"/>
<stop offset="0.8876" stop-color="#FCF16B"/>
<stop offset="1" stop-color="#DABB3B"/>
</linearGradient>
<linearGradient id="paint1_linear_1449_159" x1="30.3518" y1="277.753" x2="124.292" y2="208.808" gradientUnits="userSpaceOnUse">
<stop stop-color="#EAC459"/>
<stop offset="0.00819684" stop-color="#EAC459"/>
<stop offset="0.2464" stop-color="#EAC459"/>
<stop offset="0.373" stop-color="#C8972C"/>
<stop offset="0.8876" stop-color="#FCF16B"/>
<stop offset="1" stop-color="#DABB3B"/>
</linearGradient>
</defs>
</svg>
