<svg width="72" height="96" viewBox="0 0 72 96" fill="none" xmlns="http://www.w3.org/2000/svg">
<path d="M53.7679 3.40015C53.7679 3.40015 43.17 6.23364 38.8889 15.9272C34.6079 25.6506 36.4041 32.5404 37.8711 34.8669C39.3081 37.1635 39.6973 44.8289 38.0806 49.1238C38.0806 49.1238 39.9368 43.3674 39.817 34.8669C39.6973 26.3664 43.0802 26.3664 44.9962 20.0134C46.9122 13.6902 50.0257 7.87409 50.2054 7.63548C50.385 7.39687 52.8698 4.53355 52.8698 4.53355L53.7679 3.40015Z" fill="#798533"/>
<path d="M29.6982 31.0492C29.6982 31.0492 30.0575 8.79875 47.5411 0C47.5411 0 43.3199 8.02327 42.6612 13.7201C42.0026 19.4169 37.482 24.1593 35.7756 26.2173C34.0093 28.3051 29.6982 31.0492 29.6982 31.0492Z" fill="#798533"/>
<path d="M39.578 10.2305C38.9493 11.3937 38.2608 12.7657 37.662 14.2869C37.0333 15.808 36.4645 17.4484 35.9257 19.1187C35.4167 20.789 34.9377 22.4593 34.5485 24.0699C34.1593 25.591 33.8899 26.9929 33.6504 28.2456C33.7402 28.1859 33.83 28.0964 33.8899 28.0368C34.1593 26.8735 34.4886 25.5612 34.8479 24.1594C35.267 22.5786 35.746 20.9083 36.255 19.238C37.2728 15.9273 38.5602 12.6762 39.7577 10.3498C40.3564 9.18656 40.9252 8.26195 41.3743 7.63559C41.8234 7.00924 42.0928 6.68115 42.0928 6.68115C42.0928 6.68115 41.7934 7.00924 41.3144 7.60577C40.8354 8.17247 40.2067 9.06726 39.578 10.2305Z" fill="#1C4222"/>
<path d="M20.3576 7.36709C20.5073 7.78466 20.657 8.20223 20.8067 8.6198C20.8965 8.58997 20.9863 8.58997 21.1061 8.58997C22.5131 8.58997 22.6628 10.5883 21.4653 10.9164C21.7048 11.9007 21.9144 12.8551 22.0042 13.7499C22.6628 19.4467 27.1834 24.1891 28.8898 26.2471C30.6262 28.3051 34.9672 31.079 34.9672 31.079C34.9672 31.079 34.6379 8.79875 17.1543 0C17.1543 0 18.3817 2.32645 19.6092 5.39856C20.6271 5.51786 20.8965 6.71091 20.3576 7.36709ZM23.8903 11.9305C25.4171 11.9305 25.477 14.2868 23.9202 14.2868C22.3934 14.2868 22.3634 11.9305 23.8903 11.9305Z" fill="#798533"/>
<path d="M25.1173 10.2305C25.746 11.3937 26.4346 12.7657 27.0333 14.2869C27.662 15.808 28.2308 17.4484 28.7697 19.1187C29.2786 20.789 29.7576 22.4593 30.1468 24.0699C30.536 25.591 30.8054 26.9929 31.0449 28.2456C30.9551 28.1859 30.8653 28.0964 30.8054 28.0368C30.536 26.8735 30.2067 25.5612 29.8474 24.1594C29.4283 22.5786 28.9793 20.9083 28.4404 19.238C27.4225 15.9273 26.1352 12.6762 24.9377 10.3498C24.3389 9.18656 23.7701 8.26195 23.321 7.63559C22.872 7.00924 22.6025 6.68115 22.6025 6.68115C22.6025 6.68115 22.9019 7.00924 23.3809 7.60577C23.83 8.17247 24.4587 9.06726 25.1173 10.2305Z" fill="#1C4222"/>
<path d="M37.3925 77.757C37.3925 77.757 34.9676 66.1247 34.6083 64.3053C34.2491 62.4561 33.9796 55.3276 31.2553 54.7013C28.531 54.0749 25.8066 56.9979 25.8066 56.9979C25.8066 56.9979 32.3929 58.9068 34.1592 64.2159C35.9256 69.5249 37.0033 77.7868 37.0033 77.7868H37.3925V77.757Z" fill="#1C4222"/>
<path d="M11.6462 59.8911C12.5443 58.4296 13.5622 57.3261 14.5801 56.4909C14.7896 56.6997 15.089 56.8488 15.4183 56.8488H15.5081C16.1668 56.8488 16.6757 56.2821 16.6757 55.6558C16.6757 55.4768 16.6458 55.3277 16.5559 55.1786C18.3223 54.2539 19.7892 54.1048 20.2682 54.2838C21.1963 54.6417 24.4595 54.94 27.0042 54.4926C29.5489 54.0452 31.2553 54.7312 31.2553 54.7312C31.2553 54.7312 26.6749 56.8787 25.8067 57.0278C24.9085 57.1769 22.0944 58.37 18.5019 61.4421C14.9094 64.5142 8.53266 72.448 7.75428 72.5673C6.9759 72.6568 8.50272 64.9616 11.6462 59.8911Z" fill="#798533"/>
<path d="M22.5136 54.6118C22.8728 54.6416 22.783 54.6416 23.2021 54.6416C19.1306 55.8049 10.6583 59.5928 7.96387 71.4637C7.96387 71.4935 9.46075 59.2647 22.5136 54.6118Z" fill="#1C4222"/>
<path d="M38.6191 77.7573C38.6191 77.7573 41.0441 66.125 41.4033 64.3056C41.7626 62.4564 42.032 55.3279 44.7564 54.7015C47.4807 54.0752 50.205 56.9981 50.205 56.9981C50.205 56.9981 43.6187 58.907 41.8524 64.2161C40.0861 69.5252 39.0083 77.7871 39.0083 77.7871H38.6191V77.7573Z" fill="#1C4222"/>
<path d="M44.7266 54.7015C44.7266 54.7015 46.433 54.0155 48.9777 54.4628C51.5224 54.9102 54.7856 54.5821 55.7137 54.2541C56.6417 53.8961 61.1923 54.7909 64.3657 59.8912C67.539 64.9915 69.0359 72.6569 68.2575 72.5376C67.4792 72.4183 61.1025 64.4845 57.5099 61.4124C53.9174 58.3403 51.0733 57.177 50.2052 56.9981C49.307 56.8489 44.7266 54.7015 44.7266 54.7015Z" fill="#798533"/>
<path d="M53.4679 54.6121C53.1086 54.6419 53.1984 54.6419 52.7793 54.6419C56.8508 55.8051 65.3232 59.593 68.0175 71.4639C68.0175 71.4937 66.5207 59.265 53.4679 54.6121Z" fill="#1C4222"/>
<path d="M1.58691 32.8983C1.58691 32.8983 7.81394 28.3051 14.52 32.6001C15.4181 33.1668 16.1965 33.7335 16.915 34.2405C17.0946 33.9124 17.4239 33.644 17.9029 33.644C19.0705 33.644 19.3699 35.0458 18.7412 35.6722C19.0705 35.9406 19.3699 36.2091 19.6692 36.4477C19.8189 36.3582 20.0285 36.2985 20.2381 36.2985C21.1961 36.2985 21.5852 37.253 21.3158 37.939C23.4114 39.8777 25.3574 41.6673 28.8302 43.606C35.2368 47.1851 35.7158 54.3733 35.7158 57.5945C35.7158 60.8158 37.1528 63.4106 36.9732 65.5283C36.7936 67.646 37.3624 77.7273 37.3624 77.7273H38.0509C38.0509 77.7273 38.1707 53.1802 37.3624 51.5398C36.5541 49.8993 33.3807 41.0409 32.752 38.2671C32.1233 35.4932 32.3329 33.8826 32.3329 33.8826C32.3329 33.8826 30.4767 29.7964 25.1778 28.7525C19.8788 27.7086 18.0227 27.1419 16.2264 25.9786C14.4601 24.9049 4.88005 24.1592 1.58691 32.8983ZM24.3096 35.5827C25.8364 35.5827 25.8963 37.939 24.3395 37.939C22.8426 37.939 22.7828 35.5827 24.3096 35.5827Z" fill="#798533"/>
<path d="M13.9512 29.4983C14.52 29.5281 15.1487 29.6176 15.8373 29.7369C16.5258 29.8562 17.2443 30.0351 18.0227 30.2439C18.8011 30.4527 19.5795 30.7211 20.4177 31.0194C21.226 31.3177 22.0643 31.6756 22.9025 32.0633C23.7109 32.4511 24.5491 32.8686 25.3574 33.316C28.1716 34.8968 30.8061 36.8057 32.8418 38.4461C32.8418 38.5058 32.8718 38.5654 32.8718 38.5953C30.8061 36.9548 28.1416 35.0161 25.2676 33.4353C24.4593 32.9879 23.651 32.5405 22.8127 32.1528C22.0044 31.7651 21.1662 31.4071 20.3578 31.079C19.5495 30.7808 18.7412 30.5123 17.9928 30.2737C17.2443 30.0351 16.4959 29.886 15.8073 29.7369C15.1188 29.6176 14.4901 29.5281 13.9213 29.4684C13.3524 29.3789 12.8734 29.4088 12.4543 29.3789C11.646 29.3789 11.167 29.3789 11.167 29.3789C11.167 29.3789 11.6161 29.3491 12.4543 29.3491C12.9034 29.4386 13.3824 29.4088 13.9512 29.4983Z" fill="#1C4222"/>
<path d="M35.5356 76.6535H36.2241C36.2241 76.6535 36.7929 66.6021 36.6133 64.4546C36.4337 62.3369 37.8707 59.742 37.8707 56.5208C37.8707 53.2995 38.3198 46.1114 44.7563 42.5322C51.163 38.9531 52.3904 35.7915 59.0665 31.4965C65.7726 27.1717 71.9996 31.7948 71.9996 31.7948C69.6645 25.5611 64.0961 24.1593 60.4736 24.2786C60.773 24.9646 60.4137 25.9488 59.4557 25.9488C58.6175 25.9488 58.2283 25.233 58.2882 24.5768C57.869 24.6961 57.5397 24.8154 57.3301 24.9646C55.5339 26.1278 53.7077 26.6945 48.3788 27.7384C43.0798 28.7823 41.2237 32.8685 41.2237 32.8685C41.2237 32.8685 41.4632 34.4791 40.8345 37.253C40.2058 40.0268 37.0324 48.8852 36.2241 50.5257C35.4158 52.0767 35.5356 76.6535 35.5356 76.6535ZM49.247 27.5893C50.7738 27.5893 50.8337 29.9456 49.2769 29.9456C47.78 29.9456 47.7202 27.5893 49.247 27.5893Z" fill="#798533"/>
<path d="M59.6651 28.3647C59.0962 28.3945 58.4676 28.484 57.779 28.6033C57.0904 28.7226 56.3719 28.9016 55.5935 29.1104C54.8152 29.3191 54.0368 29.5876 53.1985 29.8858C52.3902 30.1841 51.552 30.542 50.7436 30.9298C49.9054 31.3175 49.0971 31.7351 48.2888 32.1825C45.4746 33.7633 42.8401 35.6721 40.8044 37.3126C40.8044 37.3722 40.7744 37.4319 40.7744 37.4617C42.8401 35.8213 45.5046 33.8826 48.3786 32.3018C49.1869 31.8544 49.9952 31.407 50.8335 31.0192C51.6418 30.6315 52.48 30.2736 53.2883 29.9455C54.0967 29.6472 54.905 29.349 55.6534 29.1402C56.4019 28.9314 57.1503 28.7525 57.8389 28.6033C58.5274 28.484 59.1561 28.3647 59.7249 28.3349C60.2937 28.2454 60.7727 28.2752 61.1919 28.2454C62.0002 28.2454 62.4792 28.2454 62.4792 28.2454C62.4792 28.2454 62.0301 28.2156 61.1919 28.2156C60.7129 28.3051 60.2039 28.2752 59.6651 28.3647Z" fill="#1C4222"/>
<path d="M25.3272 19.4171C25.3272 19.4171 22.6927 18.1346 19.669 18.1644C16.6453 18.1942 15.6873 17.2696 14.6994 16.8818C13.7114 16.4643 5.0894 17.6275 0 24.2489C0 24.2489 6.2869 20.8487 14.5198 20.0136C22.7526 19.1785 21.6449 19.6855 21.6449 19.6855L24.2495 20.3119L25.3272 19.4171Z" fill="#798533"/>
<path d="M38.0804 77.7572C38.0804 77.7572 37.9607 55.6559 38.0804 49.124C38.2002 42.5622 35.6555 29.3491 34.1586 25.5314C32.6617 21.7434 23.1416 16.2852 14.5195 20.0135C14.5195 20.0135 19.8185 20.0731 21.2256 21.6838C22.6027 23.2944 26.0156 27.4402 27.9915 28.8719C29.9673 30.3036 30.8056 39.7883 33.2306 44.6202C35.6555 49.452 37.1524 51.5697 37.3919 55.5366C37.6314 59.5035 37.7811 77.7274 37.7811 77.7274H38.0804V77.7572Z" fill="#1C4222"/>
<path d="M60.4141 3.01237C60.4141 3.01237 52.3908 1.72984 48.4989 6.62135C44.607 11.5427 35.2066 23.7118 38.0806 31.0491C40.9546 38.3863 38.0806 49.1238 38.0806 49.1238C38.0806 49.1238 41.0444 43.3077 40.7151 34.0317C40.3559 24.7557 45.565 23.6522 49.4569 13.9884C53.3488 4.32472 56.0432 3.45976 60.4141 3.01237Z" fill="#1C4222"/>
<path d="M38.6199 46.678L38.4403 77.757H38.0811L38.111 48.9746L38.6199 46.678Z" fill="#1C4222"/>
<path d="M34.9975 55.447C34.9975 55.447 34.5185 58.3103 36.2249 64.0072V77.7571H36.644V64.3651C36.644 64.3651 38.59 59.9508 41.0449 58.9665C41.0449 58.9665 36.4644 55.6856 34.9975 55.447Z" fill="#1C4222"/>
<path d="M40.5056 58.3701C40.5056 58.3701 40.0265 52.1364 42.1521 49.8994C44.2777 47.6624 49.9958 47.0361 52.2411 41.7867C54.4864 36.5372 57.0611 33.2563 57.0611 33.2563C57.0611 33.2563 45.4752 35.8811 42.1521 41.7867C38.829 47.6923 39.6374 58.3701 39.6374 58.3701H40.5056Z" fill="#1C4222"/>
<path d="M49.667 35.8213C49.667 35.8213 56.6425 33.0177 61.9115 34.7774C67.1805 36.5372 67.9888 33.2563 67.9888 33.2563C67.9888 33.2563 67.6595 34.1511 62.151 32.8685C56.6425 31.6158 52.5111 33.5545 49.667 35.8213Z" fill="#798533"/>
<path d="M29.189 72.1499C29.189 72.1499 29.2189 72.1499 29.189 72.1499C28.4405 81.0083 34.6376 87.242 42.2118 90.1351C41.5831 90.4931 40.9245 90.7913 40.2359 91.0001H34.5179C30.0571 89.5983 26.7939 85.0349 26.7939 79.6363C26.7939 76.773 27.6921 74.1781 29.189 72.1499Z" fill="#BF7824"/>
<path d="M29.1893 72.1499C29.8479 72.4482 33.3207 72.657 37.4521 72.657C41.3739 72.657 44.6671 72.4482 45.5951 72.2096C47.0621 74.2377 47.9602 76.8326 47.9602 79.6363C47.9602 84.2295 45.6251 88.1964 42.2122 90.1351C34.638 87.2122 28.4409 81.0083 29.1893 72.1499Z" fill="#D18629"/>
<path d="M43.0503 54.1943C43.0503 54.1943 39.1584 55.9243 34.9971 55.447C34.9971 55.447 45.0561 59.3543 44.9962 83.1855C44.9962 83.1855 50.8341 68.3618 43.0503 54.1943Z" fill="#798533"/>
<path d="M40.2962 55.0593C40.386 55.1786 40.4459 55.2681 40.5357 55.3874C40.865 55.8646 41.1943 56.4015 41.5236 56.998C41.8529 57.5946 42.2122 58.1911 42.5116 58.8473C42.6612 59.1754 42.8109 59.5034 42.9906 59.8614C43.1402 60.2193 43.26 60.5772 43.4097 60.9053C43.7091 61.6211 43.9186 62.3668 44.1881 63.0826C44.4276 63.8282 44.5772 64.6037 44.7868 65.3196C44.9365 66.0652 45.0562 66.8109 45.2059 67.5267C45.3257 68.2425 45.3556 68.9584 45.4454 69.6145C45.5353 70.2707 45.5053 70.9269 45.5353 71.4936C45.5353 72.0901 45.5951 72.5972 45.5353 73.0744C45.5053 73.5516 45.4754 73.9692 45.4754 74.2973C45.4454 74.9833 45.4155 75.371 45.4155 75.371C45.4155 75.371 45.4155 74.9833 45.4155 74.2973C45.4155 73.9692 45.4155 73.5516 45.4155 73.0744C45.4454 72.5972 45.3556 72.0603 45.3556 71.4936C45.2957 70.9269 45.3257 70.2707 45.2059 69.6145C45.1161 68.9584 45.0563 68.2724 44.9365 67.5565C44.7868 66.8407 44.6671 66.095 44.5174 65.3792C44.3078 64.6336 44.1581 63.8879 43.9186 63.1721C43.6791 62.4264 43.4696 61.6808 43.1702 60.9948C43.0205 60.6368 42.9007 60.2789 42.7511 59.9508C42.6014 59.6227 42.4517 59.2648 42.302 58.9367C42.0026 58.2806 41.6733 57.6542 41.3739 57.0577C41.0446 56.491 40.7452 55.9243 40.4159 55.4471C40.3261 55.2979 40.2363 55.1786 40.1465 55.0593C40.1764 55.0892 40.2363 55.0892 40.2962 55.0593Z" fill="#1C4222"/>
<rect x="15" y="91" width="45" height="5" rx="2" fill="#FDC88E"/>
</svg>
