<svg width="92" height="115" viewBox="0 0 92 115" fill="none" xmlns="http://www.w3.org/2000/svg">
<g clip-path="url(#clip0_1431_159)">
<path d="M56.5388 88.9642C56.4722 88.8651 56.6387 89.0632 56.5388 88.9642C55.44 88.667 51.5776 88.1716 47.2489 88.1716C43.22 88.1716 39.4574 88.766 38.1255 88.9972C38.0256 89.1293 38.2254 88.8651 38.1255 88.9972C39.1577 89.2944 42.8537 89.4925 47.2489 89.4925C51.9438 89.5256 55.8063 89.2944 56.5388 88.9642Z" fill="#493E3A"/>
<path d="M44.5849 89.0303C44.6515 89.5587 44.7181 90.054 44.7847 90.5164H45.8835C45.717 87.9736 45.5838 85.695 45.5505 85.2657C45.4839 84.308 45.2175 79.2225 45.4839 77.4062C45.717 75.5899 47.3485 71.1318 47.8813 69.3485C48.414 67.5653 52.11 58.616 52.2099 55.3467C52.3098 52.1105 52.3098 45.9352 51.8769 43.2603C51.4441 40.5854 49.8458 34.7073 49.2132 33.1882C49.2132 33.1882 49.1799 36.0282 49.08 38.3398C48.9468 40.6515 48.9801 45.1426 48.414 46.7938C47.848 48.4449 45.3507 66.3434 44.7181 70.5044C44.0854 74.6653 43.3529 77.3071 43.7191 79.6848C43.9855 81.9964 44.2186 85.5299 44.5849 89.0303Z" fill="url(#paint0_linear_1431_159)"/>
<path d="M15.816 55.2147C17.7805 57.0309 21.1102 59.7388 22.0758 60.9937C23.0414 62.2486 24.7729 64.5932 25.9716 65.8481C27.1703 67.103 28.6687 68.3248 30.4001 69.4476C32.1316 70.6034 34.3958 71.9904 35.428 73.7076C36.4602 75.4248 38.791 80.4773 39.8232 83.0862C40.8554 85.662 42.0208 88.2378 42.7533 90.2522C42.7866 90.3182 42.8199 90.4173 42.8532 90.4833H44.5514C44.1185 88.4689 43.6857 86.1243 43.5525 84.5392C43.2528 81.369 43.5192 81.435 42.72 78.1987C41.9209 74.9625 40.6889 69.0183 37.2926 64.5932C33.8963 60.1681 31.8985 57.5923 27.7696 54.9174C23.6408 52.2095 19.412 49.1384 16.8815 48.1807C14.3509 47.2231 5.22746 44.0859 3.89558 43.9538C2.56369 43.8217 0.665755 43.7226 0.0664062 42.9961C0.0664062 42.9961 1.49818 46.0342 2.56369 46.9258C3.6292 47.8175 5.32735 48.1477 7.59156 49.4026C9.78917 50.7235 13.8514 53.3984 15.816 55.2147Z" fill="url(#paint1_linear_1431_159)"/>
<path d="M44.7514 90.5163H45.8503C45.817 89.9219 45.7837 89.3275 45.7504 88.7661C45.6838 88.7991 45.6505 88.8652 45.5839 88.8982C45.4174 89.0633 45.2509 89.2615 45.0844 89.3936C44.9845 89.2615 44.818 89.1624 44.6849 89.0633C44.6516 89.0303 44.6516 88.9973 44.6183 88.9973H44.585C44.585 88.9973 44.585 88.9973 44.585 89.0303C44.6183 89.5587 44.6849 90.054 44.7514 90.5163Z" fill="url(#paint2_linear_1431_159)"/>
<path d="M43.1534 90.5165C42.8871 90.1863 42.654 89.856 42.4209 89.5258C42.5208 89.79 42.6207 90.0211 42.7206 90.2853C42.7539 90.3514 42.7872 90.4504 42.8205 90.5165H44.5186C44.452 90.2523 44.4187 89.9881 44.3521 89.6909C44.2855 89.9221 44.2522 90.1863 44.0858 90.3844C43.9526 90.2193 43.8527 90.0542 43.7195 89.889C43.6196 89.757 43.5197 89.5918 43.4198 89.4597C43.3532 89.3937 43.3199 89.3276 43.2533 89.2616L43.1534 89.1956V89.2616C43.1534 89.2946 43.1534 89.2946 43.1534 89.3276C43.1201 89.7239 43.1534 90.1202 43.1534 90.5165C43.1867 90.5165 43.1534 90.5165 43.1534 90.5165Z" fill="url(#paint3_linear_1431_159)"/>
<path d="M44.7514 90.5164H45.2509C45.2509 90.1201 45.2509 89.6908 45.2176 89.2945C45.1843 89.3275 45.1177 89.3606 45.0844 89.3936C44.9845 89.2615 44.818 89.1624 44.6849 89.0634C44.6516 89.0303 44.6516 88.9973 44.6183 88.9973H44.585C44.585 88.9973 44.585 88.9973 44.585 89.0303C44.6183 89.5587 44.6849 90.0541 44.7514 90.5164Z" fill="url(#paint4_linear_1431_159)"/>
<path opacity="0.41" d="M45.8504 90.5163C45.8171 89.9219 45.7838 89.3275 45.7505 88.7661C45.6839 88.7991 45.6506 88.8652 45.584 88.8982C45.4509 89.0303 45.351 89.1624 45.2178 89.2615C45.2511 89.6577 45.2511 90.087 45.2511 90.4833H45.8504V90.5163Z" fill="url(#paint5_linear_1431_159)"/>
<path d="M7.52487 49.4356C9.78908 50.7235 13.8513 53.3654 15.8159 55.2147C17.7804 57.0309 21.1101 59.7388 22.0757 60.9937C23.0413 62.2486 24.7728 64.5932 25.9715 65.8481C27.1702 67.103 28.6686 68.3248 30.4 69.4476C32.1315 70.6034 34.3957 71.9904 35.4279 73.7076C36.4601 75.4248 38.7909 80.4773 39.8231 83.0862C40.7221 85.3317 41.721 87.5773 42.4536 89.4596C42.6201 89.7238 42.7865 89.955 42.9863 90.1861C43.0196 90.2522 43.0862 90.2852 43.1195 90.3513C43.1528 90.3843 43.1528 90.4173 43.1861 90.4173L43.2194 90.4503V90.4173C43.2194 90.2852 43.1861 90.1201 43.1861 89.988C43.1528 89.7238 43.1528 89.4266 43.1528 89.1624C43.3526 89.2945 43.4858 89.4927 43.619 89.6908C43.7522 89.8889 43.8853 90.0871 44.0185 90.2522C44.0518 90.2852 44.0518 90.2852 44.0851 90.3182L44.1184 90.3513C44.1517 90.3513 44.1184 90.3513 44.1517 90.3513C44.185 90.3182 44.185 90.2852 44.2183 90.2522C44.2516 90.1861 44.2849 90.0871 44.3182 90.021C44.3515 89.922 44.3848 89.7899 44.4181 89.6578C44.0518 87.8745 43.7189 85.8931 43.5857 84.5392C43.286 81.369 43.5524 81.435 42.7532 78.1987C41.9541 74.9625 40.7221 69.0183 37.3258 64.5932C33.9295 60.1681 31.9317 57.5923 27.8028 54.9174C23.674 52.2095 19.4452 49.1384 16.9147 48.1807C14.3841 47.2231 5.26067 44.0859 3.92878 43.9538C2.59689 43.8217 0.698958 43.7226 0.0996094 42.9961C0.0996094 42.9961 1.53139 46.0342 2.59689 46.9258C3.56251 47.8505 5.26067 48.1807 7.52487 49.4356Z" fill="#798533"/>
<path d="M19.9117 55.5119C18.7463 54.4221 17.5476 53.3984 16.2823 52.4077C16.249 52.3747 16.1824 52.3416 16.1491 52.3086C15.8494 52.0774 15.5165 51.8463 15.1835 51.6151C13.6851 50.5914 12.0536 49.8319 10.3221 49.2044C8.95693 48.6761 7.59175 48.2137 6.25986 47.6193C6.22657 47.6193 6.22657 47.5863 6.19327 47.5863C5.59392 47.3221 4.99457 47.0249 4.42852 46.6617C4.39522 46.6286 4.36193 46.6286 4.36193 46.5956C4.29533 46.5626 4.19544 46.4965 4.12885 46.4635C4.09555 46.4635 4.09555 46.4305 4.06225 46.4305C3.99566 46.3645 3.89577 46.3314 3.82917 46.2654C3.82917 46.2654 3.79587 46.2654 3.79587 46.2324C2.63047 45.4398 1.56497 44.4821 0.632646 43.4254C0.366269 43.3263 0.133189 43.1942 0 42.9961C0 42.9961 1.43178 46.0342 2.49729 46.9258C3.56279 47.8175 5.26095 48.1477 7.52515 49.4026C9.78936 50.6905 13.8516 53.3323 15.8161 55.1816C17.7807 56.9979 21.1104 59.7058 22.076 60.9607C23.0416 62.2155 24.7731 64.5602 25.9718 65.8151C27.1705 67.0699 28.6688 68.2918 30.4003 69.4146C32.1317 70.5704 34.396 71.9574 35.4282 73.6746C36.4604 75.3918 38.7912 80.4443 39.8234 83.0531C40.7224 85.2987 41.7213 87.5443 42.4539 89.4266C42.6203 89.6908 42.7868 89.9219 42.9866 90.1531C43.0199 90.2191 43.0865 90.2522 43.1198 90.3182C43.1531 90.3512 43.1531 90.3843 43.1864 90.3843C42.92 88.9312 42.5537 87.4782 42.1542 86.0582C41.8878 85.0345 41.5881 84.0108 41.3883 82.9541C41.1553 81.7983 40.9555 80.6424 40.7224 79.4866C40.456 78.3638 40.0898 77.3071 39.6569 76.2173C39.1907 75.0946 38.7246 73.9388 38.0919 72.882C37.4593 71.8583 36.6269 70.9336 35.8277 70.075C34.9953 69.1834 34.1296 68.3248 33.2305 67.4992C31.3992 65.782 29.4347 64.1309 27.5367 62.4797C27.1039 62.0835 26.671 61.7202 26.2381 61.3239C25.439 60.6304 24.6732 59.9039 23.9073 59.1774C22.5089 58.0216 21.2436 56.7337 19.9117 55.5119Z" fill="#1C4222"/>
<path d="M77.3827 65.0556C75.5181 66.3105 72.4215 68.0937 71.4559 69.0184C70.4902 69.943 68.7588 71.6272 67.5934 72.5188C66.4613 73.4105 65.0295 74.203 63.4645 74.9295C61.8996 75.656 59.8351 76.5146 58.7696 77.8025C57.7041 79.0904 55.107 82.9541 53.9083 84.9685C52.7096 86.9499 51.411 88.9313 50.5452 90.5164C50.5119 90.5825 50.4787 90.6485 50.4454 90.7146L49.0469 90.4834C49.6795 88.8983 50.3455 86.983 50.6784 85.7281C51.3444 83.1523 51.1113 83.1853 52.2101 80.6095C53.3089 78.0337 55.107 73.3114 58.47 70.1081C61.8663 66.9049 63.8308 65.0556 67.5934 63.3714C71.356 61.6872 75.2517 59.6728 77.4493 59.2435C79.6469 58.7812 87.605 57.3612 88.7038 57.4273C89.8026 57.4933 91.4008 57.6584 92.0002 57.1631C92.0002 57.1631 90.4352 59.4747 89.4363 60.0691C88.4374 60.6635 87.0056 60.7296 84.9745 61.4561C82.9101 62.1166 79.2141 63.8007 77.3827 65.0556Z" fill="url(#paint6_linear_1431_159)"/>
<path d="M84.9407 61.3571C82.9096 62.1166 79.2136 63.8008 77.349 65.0557C75.4843 66.3105 72.3877 68.0938 71.4221 69.0184C70.4565 69.9431 68.725 71.6273 67.5596 72.5189C66.4275 73.4105 64.9957 74.2031 63.4308 74.9296C61.8658 75.6561 59.8014 76.5147 58.7359 77.8026C57.6704 79.0905 55.0732 82.9542 53.8745 84.9686C52.8423 86.7188 51.7102 88.436 50.8777 89.8891C50.7113 90.0872 50.5448 90.2523 50.345 90.4174C50.3117 90.4504 50.2451 90.4835 50.2118 90.5495C50.1785 90.5825 50.1785 90.5825 50.1452 90.6156L50.1119 90.6486V90.6156C50.1452 90.4835 50.1785 90.3844 50.2118 90.2523C50.2784 90.0211 50.3117 89.79 50.345 89.5918C50.1785 89.6909 50.012 89.823 49.8788 89.9551C49.7456 90.0872 49.6125 90.2523 49.4793 90.3844C49.446 90.4174 49.446 90.4174 49.4127 90.4504L49.3794 90.4835C49.3461 90.4835 49.3794 90.4835 49.3461 90.4835C49.3128 90.4504 49.3128 90.4174 49.3128 90.4174C49.2795 90.3514 49.2795 90.2853 49.2462 90.2193C49.2129 90.1202 49.2129 90.0211 49.2129 89.9221C49.7456 88.5021 50.2784 86.917 50.5781 85.8272C51.244 83.2514 51.0109 83.2844 52.1097 80.7086C53.2085 78.1328 55.0066 73.4105 58.3696 70.2073C61.7659 67.004 63.7304 65.1547 67.493 63.4706C71.2556 61.7864 75.1514 59.772 77.349 59.3427C79.5466 58.8803 87.5046 57.4603 88.6034 57.5264C89.7022 57.5924 91.3005 57.7576 91.8998 57.2622C91.8998 57.2622 90.3349 59.5738 89.3359 60.1682C88.4036 60.5645 86.9719 60.5975 84.9407 61.3571Z" fill="#798533"/>
<path d="M73.9196 64.7584C75.0184 64.0318 76.1505 63.3384 77.3159 62.6779C77.3492 62.6449 77.3825 62.6449 77.4491 62.6118C77.7487 62.4467 78.0151 62.3146 78.3148 62.1825C79.68 61.5551 81.1451 61.1258 82.6434 60.7956C83.8421 60.5314 85.0408 60.3333 86.2062 60.036C86.2395 60.036 86.2395 60.036 86.2728 60.036C86.8056 59.904 87.3383 59.7058 87.8378 59.5077C87.8711 59.5077 87.8711 59.4747 87.9044 59.4747C87.971 59.4416 88.0376 59.4086 88.1042 59.3756C88.1375 59.3756 88.1375 59.3426 88.1707 59.3426C88.2373 59.3095 88.3039 59.2765 88.3705 59.2435H88.4038C89.4693 58.7481 90.4683 58.0877 91.4006 57.3282C91.6337 57.2621 91.8334 57.1961 91.9999 57.064C91.9999 57.064 90.435 59.3756 89.436 59.97C88.4371 60.5644 87.0054 60.6305 84.9742 61.357C82.9431 62.1165 79.2471 63.8007 77.3825 65.0556C75.5178 66.3104 72.4212 68.0937 71.4556 69.0183C70.49 69.943 68.7585 71.6272 67.5931 72.5188C66.461 73.4104 65.0292 74.203 63.4643 74.9295C61.8993 75.656 59.8349 76.5146 58.7694 77.8025C57.7039 79.0904 55.1067 82.9541 53.908 84.9685C52.8758 86.7187 51.7437 88.4359 50.9112 89.8889C50.7448 90.0871 50.5783 90.2522 50.3785 90.4173C50.3452 90.4503 50.2786 90.4834 50.2453 90.5494C50.212 90.5824 50.212 90.5824 50.1787 90.6155C50.5783 89.4596 51.0777 88.3038 51.6105 87.181C51.9768 86.3555 52.343 85.5629 52.676 84.7373C53.0423 83.8127 53.3419 82.888 53.7082 81.9634C54.0745 81.0718 54.5406 80.2462 55.0068 79.4206C55.5396 78.529 56.0723 77.6704 56.7382 76.8778C57.3709 76.1183 58.2033 75.4578 59.0025 74.8634C59.8016 74.236 60.634 73.6416 61.4997 73.0802C63.2645 71.8913 65.0625 70.8016 66.8606 69.6788C67.2601 69.4146 67.693 69.1504 68.0926 68.8862C68.8251 68.4239 69.5577 67.9286 70.2902 67.4002C71.4556 66.4756 72.6876 65.5839 73.9196 64.7584Z" fill="#1C4222"/>
<path d="M48.9136 22.9841C48.8137 25.9892 48.9469 31.8013 48.2476 33.9478C47.5484 36.0943 44.7847 59.3426 44.0522 64.6923C43.3196 70.0751 42.4872 73.5425 42.9867 76.6137C43.4861 79.6848 43.8524 84.2751 44.4185 88.7992C44.5183 88.9313 44.6848 89.0304 44.818 89.1295C44.8846 89.1625 44.9512 89.2285 44.9845 89.2615C45.0178 89.2946 45.0178 89.3276 45.0511 89.3276C45.0844 89.3606 45.0844 89.3606 45.0844 89.3276L45.1177 89.2946C45.3841 89.0634 45.6172 88.7662 45.8835 88.535C45.6837 86.2234 45.5506 84.3741 45.5173 83.9778C45.4174 82.723 44.9512 76.1183 45.2176 73.7407C45.484 71.363 47.4485 65.617 48.0811 63.3054C48.7138 60.9938 53.2422 49.4357 53.3088 45.2087C53.3754 40.9817 53.2089 32.9571 52.5763 29.4567C51.9436 25.9562 49.746 18.2618 48.9136 16.3135C48.9802 16.3135 49.0135 19.979 48.9136 22.9841Z" fill="#798533"/>
<path d="M46.549 59.5076C47.3814 57.1299 48.2472 54.7523 48.8132 52.2755C49.346 49.9639 49.6456 47.6193 49.8454 45.2746C50.0452 42.963 50.1784 40.6514 50.3782 38.3728C50.6113 35.9621 50.9442 33.5184 50.7444 31.0747C50.5447 28.4659 49.8121 25.8901 49.3793 23.3143C49.1795 22.0264 49.0796 20.7054 48.9797 19.3845C48.9797 20.5403 48.9464 21.8282 48.9131 23.0501C48.8132 26.0552 48.9464 31.8673 48.2472 34.0138C47.5479 36.1603 44.7843 59.4085 44.0517 64.7583C43.9518 65.5839 43.8186 66.3764 43.7188 67.1359C44.6844 64.5601 45.6167 62.0504 46.549 59.5076Z" fill="#1C4222"/>
<path d="M43.6523 79.6519C43.9853 81.9965 44.2184 85.53 44.5847 88.9974L43.6523 79.6519Z" fill="#798533"/>
<path d="M57.3043 56.3044C55.1399 60.135 52.5428 71.7592 52.4096 72.1554C52.2764 72.5517 52.1765 74.7313 51.7769 76.6466C51.4107 78.5619 49.4794 82.6898 48.8135 84.2419C48.2474 85.5628 46.4494 89.7237 45.3506 91.9033L46.7824 92.2995C48.1808 89.4265 49.9789 86.9828 50.9778 85.728C52.01 84.44 56.8714 79.4866 61.3665 75.2596C65.8616 71.0327 66.1946 63.4704 66.128 62.2155C65.8616 58.3518 64.2634 52.3746 62.4653 49.1714C60.6673 45.9681 62.3654 42.2695 62.3654 42.2695C61.6662 42.6328 60.4009 43.8877 59.5352 45.5058C58.7027 47.0909 58.7693 53.7286 57.3043 56.3044ZM58.9691 51.1858C58.9691 51.1858 59.8015 66.1783 59.2022 68.622C58.6028 71.0657 57.3708 75.0285 55.9058 77.3401C54.474 79.6517 49.879 85.3977 48.314 88.0065C48.314 88.0065 50.4118 82.3266 51.111 80.7415C51.8102 79.1563 54.141 75.0615 55.5062 72.8159C56.8714 70.5373 58.6694 67.7634 58.9025 61.9843C59.2022 56.2053 58.9691 51.1858 58.9691 51.1858Z" fill="#84A820"/>
<path d="M57.3043 56.3044C55.1399 60.135 52.5428 71.7592 52.4096 72.1554C52.2764 72.5517 52.1765 74.7313 51.7769 76.6466C51.4107 78.5619 49.4794 82.6898 48.8135 84.2419C48.2474 85.5628 46.4494 89.7237 45.3506 91.9033L46.7824 92.2995C48.1808 89.4265 49.9789 86.9828 50.9778 85.728C52.01 84.44 56.8714 79.4866 61.3665 75.2596C65.8616 71.0327 66.1946 63.4704 66.128 62.2155C65.8616 58.3518 64.2634 52.3746 62.4653 49.1714C60.6673 45.9681 62.3654 42.2695 62.3654 42.2695C61.6662 42.6328 60.4009 43.8877 59.5352 45.5058C58.7027 47.0909 58.7693 53.7286 57.3043 56.3044ZM58.9691 51.1858C58.9691 51.1858 59.8015 66.1783 59.2022 68.622C58.6028 71.0657 57.3708 75.0285 55.9058 77.3401C54.474 79.6517 49.879 85.3977 48.314 88.0065C48.314 88.0065 50.4118 82.3266 51.111 80.7415C51.8102 79.1563 54.141 75.0615 55.5062 72.8159C56.8714 70.5373 58.6694 67.7634 58.9025 61.9843C59.2022 56.2053 58.9691 51.1858 58.9691 51.1858Z" fill="#1C4222"/>
<path d="M62.3985 42.2036C61.6993 42.5669 60.434 43.8217 59.5682 45.4399C58.7025 47.091 58.7691 53.7287 57.304 56.3045C55.1397 60.1352 52.5426 71.7593 52.4094 72.1556C52.2762 72.5519 52.1763 74.7314 51.7767 76.6467C51.4105 78.5621 49.4792 82.6899 48.8133 84.242C48.6135 84.7044 48.2805 85.5299 47.8477 86.4546C47.8477 86.5536 47.881 86.6857 47.881 86.7848C47.9143 87.2471 47.9475 87.7095 48.0141 88.1718C48.0141 88.2048 48.0141 88.2378 48.0141 88.2709C48.0141 88.3039 48.0141 88.3369 48.0474 88.3369C48.0807 88.3369 48.114 88.3039 48.1473 88.3039C48.1806 88.3039 48.2139 88.2709 48.2139 88.2709C48.3138 88.2378 48.447 88.1718 48.5469 88.1388C48.78 88.0397 49.0131 87.9406 49.2461 87.8085C49.346 87.7755 49.4126 87.7095 49.5125 87.6764C50.0786 86.8509 50.6113 86.1904 51.0109 85.6951C52.0431 84.4072 56.9045 79.4537 61.3996 75.2267C65.8947 70.9998 66.2277 63.4375 66.1611 62.1826C65.8947 58.3189 64.2964 52.3417 62.4984 49.1385C60.7004 45.9022 62.3985 42.2036 62.3985 42.2036ZM59.202 68.5891C58.6026 71.0328 57.3706 74.9956 55.9056 77.3072C54.4738 79.6188 49.8788 85.3648 48.3138 87.9736C48.3138 87.9736 50.4115 82.2937 51.1108 80.7086C51.81 79.1235 54.1408 75.0286 55.506 72.783C56.8712 70.5044 58.6692 67.7305 58.9023 61.9514C59.1354 56.2054 58.9356 51.1529 58.9356 51.1529C58.9356 51.1529 59.8346 66.1454 59.202 68.5891Z" fill="#798533"/>
<path d="M62.7316 68.7871C62.7649 68.721 62.7649 68.655 62.7649 68.5889C63.1311 66.9378 63.3642 65.2536 63.4308 63.5694C63.4974 61.2578 63.2976 58.9462 62.8648 56.6676C62.7649 56.2053 62.6983 55.743 62.5651 55.2806C62.4652 54.8513 62.3653 54.422 62.2321 54.0258C62.1988 53.9597 62.1988 53.9267 62.1655 53.8606C61.999 53.3323 61.8326 52.8369 61.6661 52.3086C61.2332 50.9546 60.8669 49.5676 60.6672 48.1476C60.4674 46.7937 60.3342 45.3407 60.7005 44.0198C60.7338 43.8546 60.8003 43.6895 60.8669 43.5244C60.4008 44.0528 59.9346 44.7132 59.5351 45.4398C58.6693 47.0909 58.7359 53.7285 57.2708 56.3044C55.1065 60.135 52.5094 71.7592 52.3762 72.1554C52.243 72.5517 52.1431 74.7312 51.7435 76.6466C51.3772 78.5619 49.446 82.6898 48.7801 84.2419C48.5803 84.7042 48.2473 85.5298 47.8145 86.4544C47.8145 86.5535 47.8477 86.6856 47.8477 86.7847C47.881 87.247 47.9143 87.7093 47.9809 88.1716C47.9809 88.2047 47.9809 88.2377 47.9809 88.2707C47.9809 88.3037 47.9809 88.3368 48.0142 88.3368C48.0475 88.3368 48.0808 88.3037 48.1141 88.3037C48.1474 88.3037 48.1807 88.2707 48.1807 88.2707C48.2806 88.2377 48.4138 88.1716 48.5137 88.1386C48.547 88.1386 48.547 88.1056 48.5803 88.1056C48.7801 87.9075 48.9799 87.7423 49.1796 87.5442C49.6458 87.1149 50.0787 86.6856 50.5448 86.2563C50.7113 86.0251 50.8778 85.827 51.011 85.6619C51.8434 84.6382 55.0732 81.3028 58.6027 77.8684C58.8358 77.5382 59.0689 77.208 59.302 76.8777C60.4674 75.0945 61.3664 73.1792 62.0323 71.1978C62.2987 70.4052 62.5318 69.6127 62.7316 68.7871C62.7316 68.7871 62.7316 68.8201 62.7316 68.7871ZM55.939 77.307C54.5072 79.6187 49.9122 85.3647 48.3472 87.9735C48.3472 87.9735 50.4449 82.2935 51.1442 80.7084C51.8434 79.1233 54.1742 75.0284 55.5394 72.7829C56.9046 70.5043 58.7026 67.7303 58.9357 61.9513C59.1688 56.2053 58.969 51.1527 58.969 51.1527C58.969 51.1527 59.8014 66.1452 59.2021 68.5889C58.6027 71.0327 57.3707 74.9954 55.939 77.307Z" fill="#1C4222"/>
<path d="M50.1791 86.6198C49.6797 87.1152 49.1469 87.5775 48.6475 88.0729C48.8472 87.9738 49.047 87.8747 49.2468 87.7756C49.3467 87.7426 49.4133 87.6766 49.5132 87.6436C49.8794 87.1152 50.2124 86.6529 50.5121 86.2566C50.4122 86.3887 50.3123 86.5208 50.1791 86.6198Z" fill="#798533"/>
<path d="M45.8167 6.67067C45.4172 3.5665 44.4515 0.924647 43.8189 0C43.8189 0 44.4515 6.93485 41.4215 11.5251C38.3915 16.0823 34.6955 25.3948 33.1305 31.7022C32.6311 33.7826 30.4667 46.5626 33.9296 55.6109C37.3925 64.6262 40.9886 75.0946 41.6879 77.6704C42.3871 80.2132 43.4859 85.1336 44.052 90.5164H45.7168C45.284 86.4215 44.6846 78.6611 44.5181 76.2174C44.3184 73.3443 43.6191 65.5839 43.8522 62.2155C44.0853 58.8472 44.6846 55.1486 44.6513 54.4221C44.6513 53.6956 45.7168 33.1222 44.618 25.7911C43.9521 20.8706 46.2163 9.80787 45.8167 6.67067ZM41.0219 34.5422C39.3904 44.284 40.3893 49.6998 41.1218 54.1249C41.8544 58.517 43.0198 66.3765 43.2528 69.3155C43.4859 72.2546 43.8855 82.6899 43.8855 82.6899C43.0531 77.6373 40.023 66.0132 39.2239 61.5221C38.4248 57.0309 38.3915 49.8649 38.5579 45.5059C38.7244 41.1798 44.5847 16.5116 44.5847 16.5116C44.5847 16.5116 42.6535 24.8004 41.0219 34.5422Z" fill="#84A820"/>
<path d="M45.8167 6.67067C45.4172 3.5665 44.4515 0.924647 43.8189 0C43.8189 0 44.4515 6.93485 41.4215 11.5251C38.3915 16.0823 34.6955 25.3948 33.1305 31.7022C32.6311 33.7826 30.4667 46.5626 33.9296 55.6109C37.3925 64.6262 40.9886 75.0946 41.6879 77.6704C42.3871 80.2132 43.4859 85.1336 44.052 90.5164H45.7168C45.284 86.4215 44.6846 78.6611 44.5181 76.2174C44.3184 73.3443 43.6191 65.5839 43.8522 62.2155C44.0853 58.8472 44.6846 55.1486 44.6513 54.4221C44.6513 53.6956 45.7168 33.1222 44.618 25.7911C43.9521 20.8706 46.2163 9.80787 45.8167 6.67067ZM41.0219 34.5422C39.3904 44.284 40.3893 49.6998 41.1218 54.1249C41.8544 58.517 43.0198 66.3765 43.2528 69.3155C43.4859 72.2546 43.8855 82.6899 43.8855 82.6899C43.0531 77.6373 40.023 66.0132 39.2239 61.5221C38.4248 57.0309 38.3915 49.8649 38.5579 45.5059C38.7244 41.1798 44.5847 16.5116 44.5847 16.5116C44.5847 16.5116 42.6535 24.8004 41.0219 34.5422Z" fill="#1C4222"/>
<path d="M41.4215 11.5251C38.3915 16.0823 34.6955 25.3948 33.1305 31.7022C32.6311 33.7827 30.4667 46.5626 33.9296 55.611C37.3925 64.6263 40.9886 75.0946 41.6879 77.6704C41.9543 78.6611 42.2872 80.0481 42.6535 81.6662C42.7534 81.7653 42.82 81.8974 42.9199 81.9965C43.1197 82.2937 43.3527 82.5578 43.5525 82.855C43.6524 82.9871 43.7523 83.1192 43.8855 83.2513C43.9188 83.2844 43.9188 83.3174 43.9521 83.3504C43.9854 83.3834 44.0187 83.4495 44.0187 83.4495C44.052 83.4495 44.052 83.3504 44.052 83.3174C44.052 83.2844 44.0853 83.2183 44.0853 83.1853C44.3184 82.4588 44.4848 81.6992 44.6846 80.9397C44.7179 80.7746 44.7845 80.5765 44.8178 80.4113C44.6846 78.6281 44.5847 77.109 44.5181 76.2504C44.3184 73.3774 43.6191 65.617 43.8522 62.2486C44.0853 58.8803 44.6846 55.1817 44.6513 54.4552C44.6513 53.7287 45.7168 33.1553 44.618 25.8241C43.8855 20.8707 46.1497 9.80792 45.7501 6.70375C45.3506 3.59957 44.3849 0.957724 43.7523 0.0330765C43.8189 5.33722e-05 44.4515 6.93491 41.4215 11.5251ZM44.5514 16.5116C44.5514 16.5116 42.6535 24.8004 41.0219 34.5422C39.3904 44.284 40.3893 49.6998 41.1218 54.1249C41.8544 58.517 43.0198 66.3765 43.2528 69.3156C43.4859 72.2546 43.8855 82.6899 43.8855 82.6899C43.0531 77.6374 40.023 66.0133 39.2239 61.5221C38.4248 57.031 38.3915 49.865 38.5579 45.5059C38.6911 41.1799 44.5514 16.5116 44.5514 16.5116Z" fill="#798533"/>
<path d="M34.6624 44.35C34.5958 45.77 34.5958 47.223 34.5958 48.676C34.6624 52.2756 34.9954 55.8751 35.6613 59.3425C35.7945 60.003 35.9277 60.6304 36.0609 61.2909C38.7579 68.622 41.122 75.6229 41.6881 77.6703C41.788 78.0336 41.8879 78.4299 41.9878 78.8592C42.3207 79.7838 42.687 80.6754 43.02 81.6001C43.1865 81.9964 43.3196 82.3926 43.4528 82.7889C43.4861 82.8219 43.4861 82.8219 43.5194 82.855C43.6193 82.9871 43.7192 83.1192 43.8524 83.2513C43.8857 83.2843 43.8857 83.3173 43.919 83.3503C43.9523 83.3833 43.9856 83.4494 43.9856 83.4494C44.0189 83.4494 44.0189 83.3503 44.0189 83.3173C44.0189 83.2843 44.0522 83.2182 44.0522 83.1852C44.2853 82.4587 44.4518 81.6992 44.6515 80.9396C44.6848 80.7745 44.7514 80.5764 44.7847 80.4113C44.6515 78.628 44.5516 77.1089 44.485 76.2503C44.2853 73.3773 43.586 65.6169 43.8191 62.2485C44.0522 58.8802 44.6515 55.1816 44.6182 54.4551C44.6182 53.7286 45.6837 33.1552 44.5849 25.824C43.8524 20.8706 46.1166 9.80784 45.717 6.70366C45.5506 5.31669 45.2509 3.99577 44.9179 2.90601C44.9512 3.20321 44.9512 3.50042 44.9512 3.79763C44.9179 6.20832 44.3186 8.55296 43.6193 10.7325C42.9201 12.9781 42.0544 15.1246 41.1553 17.238C40.8224 18.0306 40.4561 18.8231 40.1231 19.6157C40.0898 19.7148 40.0565 19.7808 40.0232 19.8799C39.7569 20.5403 39.4905 21.1678 39.2241 21.8283C38.9577 22.5548 38.6913 23.2813 38.4583 23.9748C37.2263 27.5743 36.2274 31.3719 35.5614 35.2687C35.062 38.1086 34.729 41.0147 34.5958 43.9207C34.5958 44.0528 34.5958 44.1519 34.5625 44.284C34.6624 44.317 34.6624 44.317 34.6624 44.35ZM38.5249 45.5058C38.6913 41.1798 44.5516 16.5115 44.5516 16.5115C44.5516 16.5115 42.6537 24.8003 41.0221 34.5421C39.3906 44.284 40.3895 49.6998 41.122 54.1249C41.8546 58.5169 43.02 66.3764 43.253 69.3155C43.4861 72.2545 43.8857 82.6898 43.8857 82.6898C43.0533 77.6373 40.0232 66.0132 39.2241 61.522C38.3917 57.0309 38.3584 49.8649 38.5249 45.5058Z" fill="#1C4222"/>
<path d="M42.3202 79.6519C42.6865 80.6756 43.1193 81.6993 43.4856 82.723C43.2858 82.4919 43.1193 82.2277 42.9195 81.9965C42.8196 81.8974 42.753 81.7653 42.6532 81.6663C42.4201 80.6426 42.2203 79.7179 42.0205 78.8923C42.1204 79.1235 42.2203 79.3877 42.3202 79.6519Z" fill="#798533"/>
<path d="M27.7031 42.699C28.036 43.9538 31.8985 51.9785 33.1305 54.6533C34.3958 57.3282 35.3614 59.6728 36.0939 60.7626C36.8265 61.8524 38.0252 63.3054 38.5912 64.0319C39.1573 64.7584 40.3227 67.2021 40.6889 67.7635C41.0219 68.3249 43.6857 70.7686 44.5514 71.8584C45.3838 72.9812 45.5836 74.4342 46.2163 75.8542C46.8489 77.3072 46.8156 79.1895 46.8822 79.883C46.9488 80.5765 46.9155 85.9262 46.8489 87.3462C46.8156 87.9736 46.8489 90.3843 46.8822 92.9601H48.9466C48.8134 90.1202 48.647 87.1481 48.6137 86.5206C48.5471 85.3648 48.2474 79.5858 48.314 78.9583C48.3806 78.3309 49.9788 71.5612 50.3118 70.2733C50.6448 68.9854 52.8424 65.0556 53.7081 63.9989C54.6072 62.9421 58.9691 55.8091 59.9014 53.3324C60.8004 50.8557 62.7649 43.9208 63.1312 42.2697C63.5308 40.6185 64.6629 35.6981 64.6296 33.1223C64.5963 30.5795 64.2633 26.2204 63.4642 23.0502C62.6651 19.88 61.766 17.1721 61.8659 16.0823C61.9325 15.4219 62.0324 14.9926 62.099 14.7944C61.766 15.7521 60.1678 20.3423 59.5351 22.9842C58.8026 25.9562 57.9036 29.5888 56.4385 32.9902C54.9734 36.3916 54.7736 37.7125 54.4074 39.1325C54.0411 40.5525 54.3408 43.1613 53.0089 46.4306C51.677 49.6999 51.4106 51.8133 51.2108 52.9031C51.0111 53.9929 49.8124 57.4933 49.5793 58.8142C49.3462 60.1352 49.0465 61.1919 49.1464 62.9752C49.2463 64.7584 49.7458 65.9803 49.4128 68.1928C49.0798 70.3723 49.213 71.8584 48.6803 72.684C48.1808 73.4765 48.0143 74.9956 48.0143 75.1607C48.1475 74.3021 47.415 73.0142 47.0487 72.0895C46.6824 71.1319 46.5492 69.6128 46.4494 68.6882C46.3162 67.7635 46.4827 66.5416 46.8156 65.617C47.1486 64.6924 47.981 63.0742 48.4805 61.7863C48.9466 60.4984 49.1131 57.3282 49.1131 55.0166C49.1131 52.705 48.2807 50.1622 47.8811 48.9073C47.4816 47.6524 45.85 44.119 45.0176 42.4018C44.1851 40.6846 42.6535 38.406 42.0541 37.5474C41.4215 36.6888 40.2561 35.599 39.6234 35.0376C38.9575 34.4762 37.1595 33.3864 36.1605 32.759C35.1949 32.1316 34.0295 30.2823 33.63 29.6218C33.2304 28.9613 31.8985 27.6734 31.166 27.013C30.4334 26.3525 30.3002 24.9325 30.3002 24.9325C30.3002 24.9325 30.3002 24.9325 29.5344 25.8902C28.7686 26.8479 28.5688 28.0697 27.6365 29.7869C26.7042 31.5041 27.0038 35.7971 27.0704 37.1841C27.1703 38.6701 27.4034 41.4111 27.7031 42.699Z" fill="#84A820"/>
<path d="M33.6631 29.688C33.2635 29.0275 31.9316 27.7396 31.1991 27.0791C30.6663 26.6168 30.4332 25.7582 30.3666 25.2959C29.9005 28.7633 30.966 32.1317 32.4311 35.2689C33.7629 38.1089 35.4278 40.7507 36.8596 43.5247C38.591 46.893 39.9562 50.6246 40.5556 54.3893C40.8885 56.4037 41.055 58.4181 41.7876 60.3334C42.5534 62.3148 43.5856 64.1641 44.5179 66.0464C44.9841 67.0041 45.5168 67.9618 45.9164 68.9855C46.2494 69.778 46.549 70.6036 46.8487 71.3962C46.882 71.4622 46.9153 71.5613 46.9486 71.6273C46.7155 70.7027 46.6156 69.5138 46.5157 68.7543C46.3826 67.8297 46.549 66.6078 46.882 65.6832C47.215 64.7585 48.0474 63.1404 48.5469 61.8525C49.013 60.5646 49.1795 57.3944 49.1795 55.0827C49.1795 52.7711 48.3471 50.2283 47.9475 48.9735C47.548 47.7186 45.9164 44.1851 45.084 42.4679C44.2515 40.7507 42.7199 38.4721 42.1205 37.6135C41.4879 36.7549 40.3225 35.6652 39.6898 35.1038C39.0239 34.5424 37.2258 33.4526 36.2269 32.8252C35.228 32.1977 34.0626 30.3484 33.6631 29.688Z" fill="#1C4222"/>
<path d="M47.4816 78.8923C47.648 78.0337 47.7479 77.142 47.8145 76.2504C47.7479 76.2174 47.7146 76.1844 47.7146 76.0853C47.7812 74.1699 46.8822 72.3207 46.183 70.5704C45.7834 69.5797 45.4171 68.556 44.951 67.5984C44.4182 66.5086 43.8855 65.4188 43.3194 64.3621C42.3538 62.4798 41.3882 60.5974 40.922 58.517C40.4892 56.5026 40.356 54.4551 39.8565 52.4407C38.9575 48.7752 37.5257 45.2747 35.6944 41.9724C32.8974 36.8868 29.1348 31.1738 30.1338 25.1306C30.0339 25.2627 29.8341 25.4939 29.5344 25.8901C28.7686 26.8478 28.5688 28.0697 27.6365 29.7869C26.7042 31.5041 27.0038 35.7971 27.0704 37.1841C27.137 38.604 27.3701 41.378 27.7031 42.6329C28.036 43.8878 31.8985 51.9124 33.1305 54.5872C34.3958 57.2621 35.3614 59.6068 36.0939 60.6965C36.8265 61.7863 38.0252 63.2393 38.5912 63.9658C39.1573 64.6923 40.3227 67.136 40.6889 67.6974C41.0219 68.2588 43.6857 70.7025 44.5514 71.7923C45.3838 72.9151 45.5836 74.3681 46.2163 75.7881C46.8489 77.2411 46.8156 79.1234 46.8822 79.8169C46.8822 79.982 46.9155 80.4774 46.9155 81.1048C47.1486 80.4443 47.3151 79.6848 47.4816 78.8923Z" fill="#798533"/>
<path d="M47.7812 73.7078C47.6813 73.4436 47.5814 73.2124 47.4482 72.9482C47.5814 73.3115 47.6813 73.7078 47.7812 74.071C47.7812 73.972 47.7812 73.8399 47.7812 73.7078Z" fill="#798533"/>
<path d="M59.6021 23.0832C58.8696 26.0553 57.9706 29.6878 56.5055 33.0892C55.0404 36.4906 54.8406 37.8115 54.4744 39.2315C54.1081 40.6515 54.4078 43.2603 53.0759 46.5296C51.744 49.7989 51.4776 51.9123 51.2779 53.0021C51.0781 54.0919 49.8794 57.5923 49.6463 58.9132C49.4132 60.2342 49.1135 61.2909 49.2134 63.0742C49.3133 64.8574 49.8128 66.0793 49.4798 68.2918C49.1468 70.4713 49.28 71.9574 48.7473 72.783C48.2478 73.5755 48.0813 75.0615 48.0813 75.2597C48.1146 74.9955 48.0813 74.6983 47.9814 74.3681C47.9814 75.3918 48.0147 76.4155 48.0813 77.4392C48.1146 78.2318 48.2145 79.0573 48.1812 79.8829C48.2478 79.6848 48.2811 79.4536 48.3144 79.2555C48.3144 79.1564 48.3144 79.0573 48.3144 78.9913C48.381 78.3639 49.9793 71.5941 50.3122 70.3062C50.6452 69.0183 52.8428 65.0886 53.7085 64.0318C54.6076 62.9751 58.9695 55.8421 59.9018 53.3654C60.8008 50.8886 62.7654 43.9538 63.1316 42.3026C63.5312 40.6515 64.6633 35.731 64.63 33.1552C64.5967 30.6124 64.2637 26.2534 63.4646 23.0832C62.6655 19.913 61.7664 17.2051 61.8663 16.1153C61.9329 15.4548 62.0328 15.0255 62.0994 14.8274C61.833 15.8181 60.2348 20.4083 59.6021 23.0832Z" fill="#798533"/>
<path d="M50.2119 67.202C50.4783 66.1122 50.6115 65.0225 50.8779 63.9327C51.1776 62.8099 51.5105 61.6871 51.9101 60.5643C52.5427 58.649 53.242 56.7667 54.0078 54.9174C54.7403 53.1011 55.5395 51.2849 56.1055 49.4025C57.3375 45.5058 57.6039 41.4109 58.5695 37.4812C59.069 35.4998 59.7682 33.6175 60.1345 31.6031C60.4675 29.8528 60.6339 28.1026 60.7005 26.3194C60.7671 24.371 60.6672 22.3896 60.9669 20.4743C61.1001 19.6157 61.2666 18.7571 61.533 17.9315C61.6661 17.5352 61.8326 17.1389 61.9658 16.7096C61.9325 16.4785 61.9325 16.3134 61.9658 16.1483C62.0324 15.4878 62.1323 15.0585 62.1989 14.8604C61.8659 15.818 60.2677 20.4082 59.635 23.0501C58.9025 26.0222 58.0035 29.6547 56.5384 33.0561C55.0733 36.4575 54.8735 37.7784 54.5073 39.1984C54.141 40.6184 54.4407 43.2272 53.1088 46.4965C51.7769 49.7658 51.5105 51.8793 51.3107 52.969C51.111 54.0588 49.9123 57.5592 49.6792 58.8802C49.4461 60.2011 49.1464 61.2578 49.2463 63.0411C49.3462 64.8243 49.8457 66.0462 49.5127 68.2587C49.3795 69.1173 49.3129 69.8438 49.2463 70.4713C49.5793 69.4145 49.9456 68.3248 50.2119 67.202Z" fill="#1C4222"/>
<path d="M48.9797 92.9603C48.8465 90.1203 48.68 87.1482 48.6467 86.5208C48.5801 85.6291 48.3803 81.8645 48.347 79.9822C48.1806 80.5766 47.9142 81.105 47.3814 81.0719C47.2149 81.0719 47.0817 80.9729 46.9486 80.8408C46.9818 82.624 46.9486 86.1905 46.882 87.3133C46.8487 87.9408 46.882 90.3514 46.9153 92.9272H48.9797V92.9603Z" fill="#1C4222"/>
<path d="M56.3057 89.0633C55.107 89.3275 51.5442 89.5256 47.3488 89.5256C42.9536 89.5256 39.2576 89.2945 38.2587 89.0303C36.5938 91.3089 39.0245 94.9744 39.0245 98.1116C39.0245 103.23 38.2587 106.863 42.0545 109.042C42.6872 109.406 43.3198 109.703 44.0191 109.934C51.1447 106.004 54.5077 97.154 56.3057 89.0633Z" fill="#D18629"/>
<path d="M56.4727 89.0303C56.4394 89.0303 56.3728 89.0633 56.3395 89.0633C54.5414 97.154 51.1784 106.004 44.0195 109.934C44.1194 109.967 44.186 110 44.2859 110.033H47.3825H50.4792C51.245 109.802 52.0108 109.472 52.7101 109.075C56.5393 106.896 55.7401 103.263 55.7401 98.1447C55.7068 94.9744 58.1042 91.2758 56.4727 89.0303Z" fill="#BF7824"/>
</g>
<rect x="26" y="110" width="45" height="5" rx="2" fill="#FDC88E"/>
<defs>
<linearGradient id="paint0_linear_1431_159" x1="47.2107" y1="53.5903" x2="50.9699" y2="108.533" gradientUnits="userSpaceOnUse">
<stop stop-color="#84A820"/>
<stop offset="0.6237" stop-color="#BE997E"/>
<stop offset="1" stop-color="white"/>
</linearGradient>
<linearGradient id="paint1_linear_1431_159" x1="21.4598" y1="55.3516" x2="25.2189" y2="110.296" gradientUnits="userSpaceOnUse">
<stop stop-color="#84A820"/>
<stop offset="0.6237" stop-color="#BE997E"/>
<stop offset="1" stop-color="white"/>
</linearGradient>
<linearGradient id="paint2_linear_1431_159" x1="42.7171" y1="53.896" x2="46.4764" y2="108.842" gradientUnits="userSpaceOnUse">
<stop stop-color="#84A820"/>
<stop offset="0.6237" stop-color="#BE997E"/>
<stop offset="1" stop-color="white"/>
</linearGradient>
<linearGradient id="paint3_linear_1431_159" x1="40.9728" y1="54.0072" x2="44.7329" y2="108.965" gradientUnits="userSpaceOnUse">
<stop stop-color="#84A820"/>
<stop offset="0.6237" stop-color="#BE997E"/>
<stop offset="1" stop-color="white"/>
</linearGradient>
<linearGradient id="paint4_linear_1431_159" x1="42.4379" y1="53.921" x2="46.1967" y2="108.858" gradientUnits="userSpaceOnUse">
<stop stop-color="#84A820"/>
<stop offset="0.6237" stop-color="#BE997E"/>
<stop offset="1" stop-color="white"/>
</linearGradient>
<linearGradient id="paint5_linear_1431_159" x1="50.2833" y1="93.1122" x2="55.5331" y2="96.978" gradientUnits="userSpaceOnUse">
<stop stop-color="#BE997E"/>
<stop offset="1" stop-color="white"/>
</linearGradient>
<linearGradient id="paint6_linear_1431_159" x1="72.6825" y1="64.4296" x2="62.4523" y2="109.253" gradientUnits="userSpaceOnUse">
<stop stop-color="#84A820"/>
<stop offset="0.6237" stop-color="#BE997E"/>
<stop offset="1" stop-color="white"/>
</linearGradient>
<clipPath id="clip0_1431_159">
<rect width="92" height="110" fill="white"/>
</clipPath>
</defs>
</svg>
