<svg width="207" height="331" viewBox="0 0 207 331" fill="none" xmlns="http://www.w3.org/2000/svg">
<g clip-path="url(#clip0)">
<path d="M103.147 40.5861V42.6115C103.147 44.2474 104.238 45.4938 105.521 45.4938H108.536C109.883 45.4938 110.909 44.1695 110.909 42.6115V40.5861C110.909 40.1187 110.781 39.5734 110.588 39.1839C108.215 39.1839 105.842 39.106 103.404 39.0281C103.276 39.4955 103.147 39.9629 103.147 40.5861Z" fill="#23180F"/>
<path d="M108.6 37.626H105.585C104.751 37.626 103.981 38.1713 103.532 39.0282C105.97 39.0282 108.343 39.184 110.717 39.184C110.268 38.2492 109.498 37.626 108.6 37.626Z" fill="#3D2C1E"/>
<path d="M105.713 41.5991C104.623 41.677 103.596 41.7549 102.57 41.9107C92.884 47.3638 87.6241 58.8152 86.6619 71.2793H95.7706C95.7706 70.8119 95.7065 70.3445 95.7065 69.955C95.2575 59.5163 98.5931 48.6102 105.713 41.5991Z" fill="#5E4938"/>
<path d="M111.486 41.9105C110.075 41.6768 108.536 41.521 107.06 41.521C106.611 41.521 106.162 41.521 105.713 41.521C98.593 48.61 95.2574 59.5161 95.7065 69.8769C95.7065 70.3443 95.7706 70.7338 95.7706 71.2012H127.331C127.331 59.3603 120.788 48.1426 111.486 41.9105Z" fill="#3D2C1E"/>
<path d="M133.938 68.319C133.938 54.998 124.251 44.014 111.551 41.9106C120.852 48.1427 127.395 59.3604 127.395 71.2792H133.809C133.873 70.2665 133.938 69.3317 133.938 68.319Z" fill="#23180F"/>
<path d="M80.2471 68.319C80.2471 69.3317 80.3112 70.2665 80.3754 71.2013H86.5976C87.6239 58.8151 92.8839 47.2858 102.506 41.8328C89.869 44.014 80.2471 55.0759 80.2471 68.319Z" fill="#3D2C1E"/>
<path d="M80.2471 69.6433C79.9905 69.6433 79.7981 69.877 79.7981 70.1886V70.7339C79.7981 71.0455 79.9905 71.2792 80.2471 71.2792H86.5334V69.7212H80.2471V69.6433Z" fill="#493526"/>
<path d="M96.0912 69.6433H86.4692V71.2013H96.0912V69.6433Z" fill="#705743"/>
<path d="M127.202 69.6433H96.1553V71.2013H127.202V69.6433Z" fill="#493526"/>
<path d="M134.002 69.6433H127.138V71.2013H134.002C134.258 71.2013 134.451 70.9676 134.451 70.656V70.1107C134.451 69.877 134.258 69.6433 134.002 69.6433Z" fill="#302115"/>
<path d="M107.381 0.389503L106.868 0V29.4465C107.06 29.2907 107.189 29.1349 107.381 28.9791V0.389503Z" fill="#23180F"/>
<path d="M106.868 29.4464V37.626H107.381V28.979C107.189 29.1348 106.996 29.2906 106.868 29.4464Z" fill="#23180F"/>
<path opacity="0.21" d="M80.1393 71.9565L0 536.949C21.2039 547.447 58.6792 554.154 101.6 557.362C144.52 560.57 200.701 551.821 206.722 550.072L133.566 71.9565H80.1393Z" fill="#EAD88B"/>
</g>
<defs>
<clipPath id="clip0">
<rect width="207" height="331" fill="white"/>
</clipPath>
</defs>
</svg>
