<svg width="390" height="430" viewBox="0 0 390 430" fill="none" xmlns="http://www.w3.org/2000/svg">
<path d="M300.983 372.824C300.799 372.552 301.258 373.096 300.983 372.824C297.953 372.098 287.485 370.737 275.733 370.737C264.715 370.737 254.523 372.28 250.85 373.006C250.575 373.369 251.125 372.643 250.85 373.006C253.696 373.822 263.705 374.367 275.733 374.367C288.495 374.367 299.054 373.732 300.983 372.824Z" fill="#493E3A"/>
<path d="M304.288 325.724C303.186 326.45 286.751 361.662 284.364 372.553C282.344 381.628 278.854 403.319 278.854 403.319L281.793 403.228C281.793 403.228 288.495 369.558 290.607 360.664C293.637 347.868 306.4 324.907 306.4 324.907L304.288 325.724Z" fill="#1C4222"/>
<path d="M304.288 325.723C304.288 325.723 295.933 323.001 294.831 319.552C293.729 316.103 306.124 317.374 309.889 314.47C313.653 311.566 316.959 311.293 324.855 310.84C332.66 310.386 339.638 309.66 344.045 311.112C344.78 311.384 341.75 310.749 338.995 312.836C331.282 318.645 321.366 318.372 315.765 321.186C310.348 323.818 306.675 324.634 304.288 325.723Z" fill="#1C4222"/>
<path d="M249.473 350.317C250.575 351.043 267.01 386.256 269.398 397.147C271.418 406.222 274.907 427.913 274.907 427.913L271.968 427.822C271.968 427.822 265.266 394.152 263.154 385.258C260.124 372.461 247.361 349.5 247.361 349.5L249.473 350.317Z" fill="#1C4222"/>
<path d="M249.473 350.317C249.473 350.317 257.829 347.595 258.93 344.146C260.032 340.697 247.637 341.968 243.872 339.064C240.108 336.159 236.802 335.887 228.906 335.433C221.101 334.98 214.123 334.254 209.716 335.706C208.982 335.978 212.012 335.343 214.766 337.43C222.479 343.238 232.395 342.966 237.996 345.779C243.321 348.502 247.086 349.319 249.473 350.317Z" fill="#1C4222"/>
<path d="M275.917 202.75C272.336 206.29 263.981 209.648 261.685 205.382C259.39 201.117 264.164 198.848 269.949 198.848C274.264 198.848 285.099 196.579 290.424 193.221C290.516 188.32 287.945 178.519 284.823 171.894C283.354 172.801 275.917 181.786 273.53 185.507C270.867 189.591 267.011 190.952 263.705 187.141C260.4 183.329 261.593 184.509 267.286 183.51C271.693 182.694 279.957 175.161 284.089 170.714C280.049 164.633 271.142 157.464 261.226 153.289C259.849 156.284 259.665 164.452 259.941 167.991C260.216 172.62 253.973 178.882 248.831 177.248C243.689 175.524 245.25 171.077 249.473 167.628C252.32 165.269 257.462 158.281 259.206 152.835C253.054 150.748 245.709 149.296 236.894 148.57C235.701 151.383 234.324 155.467 234.415 157.736C234.691 161.639 229.457 166.902 225.142 165.45C220.826 164.089 222.204 160.277 225.601 157.373C227.437 155.83 230.467 152.019 232.395 148.207C222.112 147.753 210.084 148.388 196.036 150.385C193.556 150.748 224.407 170.714 221.653 171.259C218.898 171.894 270.408 201.298 258.288 218.179L266.643 228.888C266.643 228.888 281.701 224.713 281.701 219.086C281.701 213.459 283.538 215.275 286.017 214.095C288.404 212.915 288.129 209.012 286.017 206.108C283.905 203.113 287.67 202.66 289.414 201.117C289.598 200.935 290.332 196.67 290.608 195.218C286.751 196.579 278.396 200.3 275.917 202.75ZM284.364 184.327C285.466 184.327 286.384 185.688 286.292 187.413C286.201 189.046 285.282 190.408 284.181 190.408C283.079 190.408 282.161 189.046 282.252 187.322C282.344 185.598 283.262 184.327 284.364 184.327ZM243.505 152.563C244.056 151.746 245.893 151.655 247.545 152.472C249.29 153.289 250.208 154.56 249.657 155.467C249.106 156.284 247.27 156.375 245.617 155.558C243.964 154.741 243.046 153.38 243.505 152.563Z" fill="#1C4222"/>
<path d="M257.001 216.999C257.001 216.999 269.58 235.876 275.365 303.397C277.017 323.182 270.59 380.811 270.59 380.811H274.355C274.355 380.811 279.864 322.365 277.752 302.399C275.64 282.433 268.111 232.881 266.458 228.797C263.612 221.264 257.001 216.999 257.001 216.999Z" fill="#1C4222"/>
<path d="M246.167 186.324C240.933 184.236 241.392 179.426 249.932 176.522C254.798 174.889 258.011 171.44 259.848 168.808C252.594 162.546 245.8 157.645 238.454 154.378C237.995 154.197 237.628 154.015 237.169 153.834C233.221 160.277 233.68 170.714 229.732 170.805C223.947 170.986 221.835 166.448 227.895 160.549C230.65 157.917 233.037 155.467 233.588 152.744C224.314 149.114 218.989 148.025 215.775 146.936C215.683 146.936 215.592 146.936 215.5 146.936C213.204 150.476 216.051 157.191 213.847 157.827C211.001 158.553 209.256 156.647 211.368 152.926C212.654 150.657 212.378 148.116 211.919 146.573C208.614 146.21 204.665 145.938 202.462 145.756C195.484 145.212 188.597 144.758 181.803 144.395C196.677 156.556 227.161 177.339 232.027 184.327C237.169 191.769 254.798 210.374 257.92 218.995C257.92 218.995 267.561 217.18 266.183 212.189C264.806 207.107 264.439 203.023 268.295 199.755C271.692 196.851 270.04 181.241 264.163 172.983C255.992 176.159 250.207 187.957 246.167 186.324ZM241.484 161.729C242.402 161.094 244.422 162.001 245.892 163.726C247.361 165.45 247.82 167.356 246.902 167.9C245.983 168.536 243.963 167.628 242.494 165.904C240.933 164.27 240.566 162.364 241.484 161.729ZM261.501 195.036C260.307 195.036 259.297 193.312 259.297 191.134C259.297 188.956 260.307 187.231 261.501 187.231C262.694 187.231 263.704 188.956 263.704 191.134C263.704 193.312 262.694 195.036 261.501 195.036Z" fill="#798533"/>
<path d="M287.026 235.241C285.925 243.862 285.098 252.484 280.783 260.289C277.661 265.916 270.407 270.726 267.286 276.352C264.439 281.435 262.97 286.88 262.144 292.416C257.645 321.73 271.142 351.497 283.537 378.27C285.466 382.445 287.21 387.345 290.332 391.066C290.975 391.792 289.597 392.7 288.955 391.974C287.118 389.796 285.925 386.982 284.731 384.532C278.947 373.097 274.08 361.208 269.397 349.319C263.797 334.889 259.94 319.824 259.665 304.577C259.481 293.777 261.134 282.252 267.561 272.722C269.948 269.183 272.978 265.916 275.274 262.285C277.845 258.202 279.865 253.845 281.517 249.398C283.262 244.77 284.639 239.96 285.282 235.059C285.466 234.152 287.118 234.333 287.026 235.241Z" fill="#1C4222"/>
<path d="M285.099 139.313C285.099 139.313 288.588 131.689 292.628 131.054C296.668 130.419 300.616 137.316 303.462 142.035C306.4 146.755 304.472 151.292 299.422 153.652C294.372 156.012 287.119 168.173 289.322 168.264C291.526 168.354 307.502 156.647 313.011 160.277C318.429 163.907 319.989 171.531 312.185 174.979C304.289 178.337 299.055 182.603 302.269 183.42C305.574 184.236 323.295 178.337 324.029 184.962C324.764 191.588 328.345 204.565 324.948 204.747C321.55 204.928 319.347 197.759 305.849 197.85C292.26 197.94 293.546 208.831 296.668 209.829C299.789 210.737 319.714 207.923 323.203 216.364C326.692 224.804 321.918 226.619 314.48 228.615C307.135 230.612 303.37 227.708 305.115 231.883C306.859 236.148 309.798 246.04 305.482 250.306C301.075 254.571 300.891 255.751 295.749 250.85C290.608 245.95 288.312 246.494 289.69 237.691C291.067 228.797 289.047 201.207 289.139 200.754C289.23 200.209 291.25 183.42 291.434 182.875C291.526 182.331 288.22 172.983 288.22 172.983C288.22 172.983 289.139 159.097 289.047 157.373C288.863 155.649 287.119 141.763 285.099 139.313Z" fill="#1C4222"/>
<path d="M283.446 242.682C283.446 242.682 292.995 171.258 285.098 139.313C285.098 139.313 286.935 134.412 295.015 131.054C303.095 127.696 305.757 133.323 306.676 134.593C307.594 135.864 299.973 137.588 295.29 142.761C290.607 147.844 290.148 148.933 290.883 149.931C291.617 150.929 298.596 143.85 304.747 143.124C310.899 142.398 315.215 146.21 316.592 150.294C317.969 154.378 301.534 154.469 296.392 158.643C291.25 162.818 290.24 173.981 292.627 172.983C295.107 171.984 314.939 159.097 321.458 160.64C327.977 162.183 321.458 175.252 316.684 176.431C311.909 177.611 302.636 178.882 299.697 181.695C296.759 184.599 290.607 190.317 294.923 191.043C299.238 191.769 307.686 186.959 315.582 182.058C323.478 177.157 327.059 175.705 327.794 180.334C328.528 184.962 330.089 197.577 321.091 199.211C312.001 200.844 300.34 200.3 298.871 202.296C297.402 204.384 302.911 206.562 315.582 204.202C328.253 201.933 330.915 206.108 337.435 204.565C343.954 203.022 342.025 207.651 339.546 214.639C337.067 221.627 332.66 228.434 325.774 228.434C318.887 228.434 310.073 221.355 307.226 221.899C304.288 222.444 302.636 228.615 313.195 230.067C323.754 231.519 331.007 225.53 330.824 232.699C330.64 239.96 316.684 257.385 312.093 256.568C307.502 255.751 305.941 252.756 301.442 246.948C296.851 241.23 294.28 237.963 293.087 240.413C291.893 242.864 293.729 249.035 299.514 252.03C305.298 254.934 310.44 257.112 307.226 260.107C304.013 263.102 299.973 268.91 295.107 265.371C290.24 261.922 287.118 255.66 285.466 251.576C283.721 247.311 282.803 247.311 283.446 242.682Z" fill="#798533"/>
<path d="M309.614 149.205C309.614 149.205 309.247 149.114 308.604 149.114C308.237 149.114 307.87 149.114 307.41 149.114C306.951 149.114 306.4 149.205 305.85 149.296C305.299 149.387 304.656 149.477 304.013 149.659C303.738 149.75 303.37 149.84 303.003 149.84C302.636 149.931 302.36 150.022 301.993 150.113C301.35 150.294 300.616 150.566 299.973 150.839C299.33 151.111 298.596 151.383 297.953 151.746C297.31 152.109 296.668 152.381 296.025 152.835C295.382 153.198 294.831 153.561 294.28 154.015C293.73 154.378 293.179 154.832 292.72 155.195C292.26 155.558 291.801 156.012 291.434 156.284C291.25 156.465 291.067 156.647 290.883 156.828C290.7 157.01 290.516 157.191 290.424 157.282C290.149 157.554 289.873 157.827 289.69 158.099C289.231 158.553 289.047 158.825 289.047 158.825C289.047 158.825 289.322 158.643 289.781 158.19C290.057 158.008 290.332 157.736 290.608 157.464C290.975 157.191 291.342 156.919 291.71 156.556C292.169 156.193 292.628 155.921 293.087 155.558C293.638 155.195 294.097 154.832 294.648 154.469C295.199 154.106 295.841 153.743 296.392 153.38C297.035 153.017 297.678 152.744 298.32 152.381C298.963 152.018 299.606 151.746 300.249 151.474C300.891 151.202 301.534 150.929 302.269 150.748C302.636 150.657 302.911 150.566 303.279 150.385C303.554 150.294 303.921 150.203 304.197 150.113C304.84 149.931 305.39 149.84 305.941 149.659C306.492 149.568 307.043 149.477 307.41 149.387C307.87 149.296 308.237 149.296 308.604 149.296C309.247 149.205 309.614 149.205 309.614 149.205Z" fill="#1C4222"/>
<path d="M301.625 133.777C301.625 133.777 301.35 133.777 300.799 133.868C300.248 133.958 299.514 134.049 298.687 134.412C298.228 134.594 297.769 134.684 297.31 134.866C296.851 135.047 296.3 135.229 295.841 135.501C295.29 135.773 294.831 136.046 294.372 136.318C293.821 136.59 293.362 136.953 292.903 137.226C292.444 137.589 291.985 137.952 291.525 138.315C291.066 138.678 290.699 139.041 290.332 139.404C289.965 139.767 289.597 140.13 289.322 140.493C288.955 140.856 288.771 141.219 288.495 141.582C288.22 141.945 288.036 142.217 287.853 142.489C287.669 142.762 287.485 143.034 287.394 143.215C287.118 143.578 287.026 143.851 287.026 143.851C287.026 143.851 287.21 143.669 287.577 143.306C287.761 143.125 287.945 142.943 288.128 142.671C288.312 142.399 288.587 142.126 288.863 141.854C289.138 141.582 289.414 141.219 289.781 140.856C290.148 140.493 290.515 140.22 290.883 139.857C291.25 139.494 291.709 139.131 292.168 138.768C292.627 138.405 293.086 138.133 293.545 137.77C294.005 137.498 294.464 137.135 295.015 136.863C295.474 136.59 295.933 136.318 296.484 136.046C296.943 135.773 297.402 135.592 297.861 135.32C298.32 135.138 298.779 134.957 299.146 134.775C299.973 134.503 300.707 134.231 301.166 134.049C301.35 133.777 301.625 133.777 301.625 133.777Z" fill="#1C4222"/>
<path d="M318.705 168.899C318.705 168.899 318.154 168.808 317.236 168.899C316.96 168.899 316.777 168.899 316.501 168.989C316.226 168.989 315.95 169.08 315.583 169.08C315.307 169.171 314.94 169.171 314.573 169.262C314.206 169.353 313.838 169.443 313.471 169.534C313.104 169.625 312.737 169.716 312.277 169.897C311.91 169.988 311.451 170.169 310.992 170.26C310.533 170.442 310.166 170.532 309.707 170.714C309.248 170.895 308.88 171.077 308.421 171.258C307.503 171.621 306.677 172.075 305.758 172.529C304.84 172.983 304.014 173.527 303.096 173.981C302.178 174.435 301.351 175.07 300.525 175.524C299.698 176.068 298.872 176.613 298.138 177.157C297.311 177.702 296.577 178.156 295.934 178.7C295.291 179.245 294.648 179.699 294.006 180.152C293.363 180.606 292.904 181.06 292.445 181.423C291.986 181.786 291.618 182.149 291.251 182.421C290.608 182.966 290.241 183.329 290.241 183.329C290.241 183.329 290.608 183.056 291.343 182.512C291.71 182.24 292.078 181.967 292.628 181.604C293.088 181.241 293.638 180.878 294.281 180.425C294.924 179.971 295.567 179.517 296.301 179.063C297.036 178.609 297.77 178.065 298.505 177.611C299.331 177.067 300.066 176.522 300.892 176.068C301.718 175.524 302.545 174.979 303.463 174.526C304.381 174.072 305.208 173.527 306.126 173.073C307.044 172.62 307.87 172.166 308.788 171.803C309.248 171.621 309.615 171.44 310.074 171.258C310.533 171.077 310.9 170.895 311.359 170.714C311.727 170.532 312.186 170.442 312.553 170.26C312.92 170.169 313.287 169.988 313.655 169.897C314.389 169.716 315.032 169.443 315.675 169.353C315.95 169.262 316.317 169.262 316.501 169.171C316.777 169.08 317.052 169.08 317.236 169.08C318.154 168.808 318.705 168.899 318.705 168.899Z" fill="#1C4222"/>
<path d="M326.876 190.499C326.876 190.499 326.233 190.499 325.131 190.499C324.03 190.589 322.377 190.589 320.54 190.862C319.622 190.952 318.521 191.134 317.511 191.315C316.409 191.497 315.307 191.678 314.113 191.951C313.562 192.041 312.92 192.223 312.369 192.404C311.818 192.586 311.175 192.677 310.624 192.858C310.073 193.04 309.431 193.221 308.788 193.403C308.237 193.584 307.594 193.856 307.043 194.038C305.85 194.492 304.748 195.036 303.646 195.581C302.544 196.125 301.534 196.67 300.432 197.214C299.881 197.487 299.422 197.759 298.871 197.94C298.321 198.122 297.861 198.394 297.402 198.576C296.943 198.757 296.484 199.029 296.025 199.211C295.566 199.392 295.107 199.574 294.648 199.756C293.821 200.119 292.995 200.3 292.261 200.572C291.893 200.663 291.526 200.754 291.251 200.845C290.883 200.935 290.608 200.935 290.332 201.026C289.782 201.117 289.322 201.208 289.047 201.208C288.772 201.208 288.588 201.208 288.588 201.208C288.588 201.208 288.772 201.208 289.047 201.208C289.322 201.208 289.782 201.208 290.332 201.117C290.608 201.026 290.883 201.026 291.251 200.935C291.618 200.845 291.985 200.845 292.352 200.754C293.087 200.572 294.005 200.391 294.831 200.028C295.291 199.846 295.75 199.756 296.209 199.574C296.668 199.392 297.127 199.211 297.678 199.029C298.137 198.848 298.688 198.576 299.239 198.394C299.79 198.213 300.249 197.94 300.8 197.668C301.81 197.124 302.911 196.67 304.013 196.125C305.115 195.581 306.217 195.127 307.411 194.673C307.961 194.492 308.604 194.219 309.155 194.038C309.706 193.856 310.349 193.675 310.9 193.493C311.451 193.312 312.093 193.13 312.644 192.949C313.195 192.767 313.838 192.677 314.389 192.495C315.491 192.223 316.684 191.951 317.694 191.769C318.796 191.588 319.806 191.406 320.724 191.225C321.642 191.134 322.56 190.952 323.295 190.862C324.03 190.771 324.764 190.68 325.315 190.68C326.233 190.589 326.876 190.499 326.876 190.499Z" fill="#1C4222"/>
<path d="M332.66 217.543C332.66 217.543 332.018 217.725 330.824 217.815C330.181 217.906 329.538 217.997 328.62 218.088C327.794 218.178 326.784 218.178 325.774 218.269C324.764 218.269 323.57 218.269 322.469 218.269C321.918 218.269 321.275 218.178 320.632 218.178C319.989 218.088 319.347 218.088 318.704 217.997C318.061 217.906 317.419 217.815 316.776 217.725C316.133 217.634 315.49 217.543 314.756 217.362C313.47 217.089 312.093 216.817 310.808 216.454C310.165 216.273 309.43 216.091 308.788 215.91L307.778 215.637C307.41 215.547 307.135 215.547 306.768 215.456C306.125 215.365 305.39 215.184 304.748 215.093C304.105 215.002 303.37 214.911 302.728 214.911C301.442 214.821 300.157 214.821 298.963 214.911C297.77 215.002 296.668 215.093 295.566 215.274C295.015 215.365 294.556 215.456 294.097 215.547C293.638 215.637 293.179 215.728 292.811 215.91C291.985 216.091 291.342 216.363 290.791 216.636C289.69 217.089 289.139 217.452 289.139 217.452C289.139 217.452 289.781 217.18 290.883 216.817C291.434 216.636 292.169 216.454 292.995 216.273C293.362 216.182 293.821 216.091 294.28 216C294.74 215.91 295.199 215.819 295.75 215.728C296.76 215.547 297.861 215.456 299.055 215.456C300.249 215.456 301.534 215.456 302.728 215.547C303.37 215.547 304.013 215.728 304.656 215.728C305.299 215.819 305.941 215.91 306.584 216.091C306.951 216.182 307.227 216.182 307.594 216.273L308.604 216.545C309.247 216.726 309.889 216.908 310.624 217.089C312.001 217.452 313.287 217.725 314.664 217.997C315.307 218.088 316.041 218.178 316.684 218.36C317.327 218.451 318.061 218.542 318.704 218.542C319.347 218.632 319.989 218.632 320.632 218.723C321.275 218.723 321.918 218.723 322.469 218.814C323.662 218.814 324.764 218.814 325.866 218.723C326.876 218.632 327.886 218.542 328.712 218.451C329.539 218.36 330.273 218.178 330.916 218.088C332.018 217.725 332.66 217.543 332.66 217.543Z" fill="#1C4222"/>
<path d="M322.285 242.228C322.285 242.228 321.642 242.228 320.632 242.228C319.53 242.228 318.061 242.138 316.225 242.047C315.307 241.956 314.297 241.865 313.287 241.774C312.277 241.593 311.175 241.502 310.073 241.23C308.971 241.048 307.778 240.776 306.676 240.504C306.125 240.322 305.574 240.232 304.931 240.05C304.381 239.869 303.83 239.687 303.279 239.506C302.728 239.324 302.177 239.143 301.626 238.87C301.075 238.689 300.524 238.417 299.973 238.235C298.871 237.781 297.953 237.237 296.943 236.692C296.025 236.148 295.107 235.603 294.372 234.968C293.546 234.333 292.903 233.788 292.261 233.244C291.985 232.971 291.618 232.699 291.434 232.427C291.159 232.155 290.883 231.882 290.7 231.61C290.241 231.065 289.873 230.612 289.598 230.249C289.047 229.432 288.68 229.069 288.68 229.069C288.68 229.069 288.955 229.523 289.506 230.339C289.782 230.702 290.149 231.247 290.516 231.791C290.975 232.336 291.434 232.881 292.077 233.516C292.628 234.151 293.362 234.696 294.097 235.331C294.464 235.603 294.923 235.966 295.291 236.238C295.75 236.511 296.209 236.874 296.668 237.146C297.586 237.691 298.596 238.235 299.698 238.78C300.249 239.052 300.8 239.233 301.351 239.506C301.901 239.778 302.452 239.959 303.003 240.141C303.554 240.322 304.197 240.504 304.748 240.685C305.299 240.867 305.941 241.048 306.492 241.139C307.686 241.411 308.788 241.684 309.981 241.865C311.083 242.047 312.185 242.228 313.287 242.319C314.297 242.41 315.307 242.501 316.225 242.501C318.061 242.591 319.622 242.591 320.632 242.501C321.642 242.319 322.285 242.228 322.285 242.228Z" fill="#1C4222"/>
<path d="M301.809 260.379C301.809 260.379 301.718 260.379 301.534 260.289C301.35 260.198 301.075 260.107 300.708 259.925C300.34 259.744 299.973 259.562 299.514 259.29C299.055 259.018 298.596 258.655 298.045 258.292C297.494 257.929 296.943 257.475 296.392 257.021C295.841 256.568 295.29 256.023 294.739 255.478C294.189 254.934 293.638 254.389 293.087 253.754C292.536 253.119 291.985 252.484 291.526 251.848C291.25 251.485 291.067 251.213 290.791 250.85C290.516 250.487 290.332 250.215 290.057 249.852C289.689 249.216 289.139 248.581 288.771 247.855C288.404 247.22 288.037 246.585 287.669 245.949C287.394 245.314 287.119 244.769 286.843 244.225C286.568 243.68 286.384 243.227 286.2 242.773C286.017 242.319 285.833 241.956 285.741 241.593C285.466 240.958 285.282 240.595 285.282 240.595C285.282 240.595 285.374 240.958 285.558 241.684C285.65 242.047 285.741 242.41 285.925 242.864C286.017 243.136 286.109 243.317 286.2 243.59C286.292 243.862 286.384 244.134 286.568 244.406C286.843 244.951 287.027 245.586 287.302 246.222C287.578 246.857 287.945 247.492 288.312 248.127C288.679 248.763 289.139 249.489 289.506 250.124C289.689 250.487 289.965 250.759 290.24 251.122C290.516 251.485 290.699 251.758 290.975 252.121C291.434 252.756 292.077 253.391 292.628 254.026C293.179 254.662 293.821 255.206 294.372 255.751C295.015 256.295 295.566 256.749 296.209 257.203C296.759 257.657 297.402 258.02 297.953 258.383C298.504 258.746 299.055 259.018 299.514 259.29C299.973 259.562 300.432 259.744 300.799 259.925C301.35 260.198 301.809 260.379 301.809 260.379Z" fill="#1C4222"/>
<path d="M248.83 248.491C246.534 251.667 240.474 255.298 237.903 252.212C235.424 249.126 238.821 246.676 243.412 246.041C246.901 245.496 255.073 242.501 258.746 239.234C258.011 235.332 254.522 227.799 250.941 222.898C249.931 223.806 245.432 231.792 244.055 234.969C242.586 238.508 239.648 240.051 236.526 237.419C233.312 234.787 234.414 235.604 238.821 234.061C242.219 232.881 247.636 225.984 250.207 221.991C246.075 217.634 237.811 213.006 229.364 210.737C228.722 213.278 229.915 219.813 230.65 222.535C231.66 226.165 227.62 231.883 223.304 231.157C218.989 230.431 219.54 226.619 222.294 223.443C224.222 221.174 227.252 215.093 227.712 210.556C222.478 209.648 216.418 209.285 209.348 209.739C208.889 212.098 208.338 215.456 208.797 217.362C209.623 220.448 206.226 225.167 202.645 224.532C198.973 223.987 199.432 220.811 201.727 218.088C202.921 216.636 204.757 213.278 205.675 210.011C197.412 210.828 187.954 212.643 177.12 215.91C175.192 216.455 202.829 228.797 200.717 229.614C198.605 230.431 244.147 247.856 237.169 262.649L245.432 270.181C245.432 270.181 256.726 265.19 255.9 260.652C254.981 256.205 256.818 257.385 258.562 256.205C260.307 255.025 259.389 251.94 257.277 249.852C255.165 247.765 258.011 246.857 259.205 245.496C259.297 245.315 259.297 241.866 259.205 240.686C256.451 242.411 250.391 246.222 248.83 248.491ZM252.686 232.881C253.604 232.791 254.522 233.789 254.706 235.059C254.89 236.421 254.339 237.601 253.421 237.691C252.502 237.782 251.584 236.784 251.401 235.513C251.217 234.152 251.768 232.972 252.686 232.881ZM215.224 212.371C215.5 211.645 216.969 211.372 218.438 211.826C219.907 212.28 220.917 213.187 220.55 213.914C220.274 214.64 218.805 214.912 217.336 214.458C215.959 214.004 214.949 213.097 215.224 212.371Z" fill="#1C4222"/>
<path d="M235.976 262.014C235.976 262.014 248.922 275.536 263.98 328.537C268.387 344.056 272.244 390.522 272.244 390.522L275.274 390.069C275.274 390.069 270.499 343.058 265.816 327.357C261.042 311.747 247.361 273.267 245.433 270.182C241.852 264.646 235.976 262.014 235.976 262.014Z" fill="#1C4222"/>
<path d="M222.662 238.871C218.163 237.782 217.795 233.879 224.131 230.612C227.712 228.706 229.732 225.621 230.833 223.352C224.039 219.268 217.795 216.182 211.46 214.367C211.093 214.276 210.725 214.186 210.358 214.095C208.246 219.631 210.174 227.89 207.053 228.434C202.462 229.251 200.074 225.893 204.023 220.448C205.767 217.997 207.328 215.819 207.328 213.55C199.432 211.735 195.024 211.463 192.27 211.009C192.178 211.009 192.086 211.009 192.086 211.009C190.801 214.095 194.106 219.086 192.454 219.812C190.342 220.72 188.597 219.359 189.699 216.182C190.342 214.186 189.699 212.28 189.148 211.009C186.485 211.1 183.272 211.282 181.527 211.463C176.018 211.917 170.417 212.28 165 212.915C178.681 220.902 206.134 233.97 211.001 238.962C216.234 244.225 233.129 257.022 236.985 263.556C236.985 263.556 244.422 261.015 242.494 257.203C240.658 253.392 239.74 250.125 242.219 247.039C244.422 244.407 240.75 232.155 234.782 226.256C228.905 229.614 226.059 239.688 222.662 238.871ZM215.041 219.903C215.683 219.268 217.428 219.812 218.897 220.992C220.366 222.172 221.009 223.624 220.366 224.259C219.723 224.895 217.979 224.35 216.51 223.17C215.041 221.9 214.398 220.448 215.041 219.903ZM236.159 243.953C235.241 244.044 234.139 242.864 233.863 241.14C233.496 239.415 234.047 237.963 234.965 237.782C235.883 237.6 236.985 238.871 237.261 240.595C237.628 242.41 237.077 243.862 236.159 243.953Z" fill="#798533"/>
<path d="M257.278 250.396C257.553 251.576 258.288 255.025 258.38 255.115C259.849 256.295 262.787 256.658 261.226 259.018C259.665 261.468 259.482 264.554 261.41 265.462C263.43 266.369 264.807 264.917 264.991 269.455C265.174 273.992 277.386 276.987 277.386 276.987L283.813 268.184C273.621 254.843 314.297 230.067 312.093 229.704C309.89 229.25 334.129 212.642 332.109 212.37C320.724 211.009 310.991 210.827 302.728 211.372C304.38 214.367 306.86 217.362 308.42 218.632C311.267 220.901 312.46 223.896 309.063 225.076C305.666 226.255 301.35 222.172 301.442 219.086C301.534 217.18 300.249 214.004 299.239 211.735C292.169 212.461 286.292 213.822 281.426 215.637C282.895 219.993 287.302 225.529 289.598 227.345C292.995 230.067 294.464 233.607 290.332 235.059C286.292 236.511 281.059 231.61 281.151 227.798C281.242 224.894 280.875 218.36 279.681 216C271.877 219.63 264.807 225.529 261.777 230.521C265.174 233.97 272.061 239.869 275.641 240.504C280.232 241.23 281.151 240.322 278.58 243.408C276.009 246.494 272.795 245.495 270.592 242.319C268.572 239.324 262.328 232.245 261.134 231.61C258.747 236.965 257.002 244.951 257.186 248.944C261.593 251.576 270.316 253.21 273.805 253.119C278.488 253.028 282.344 254.752 280.6 258.201C278.855 261.65 272.061 259.109 269.122 256.386C267.102 254.389 260.308 251.576 257.278 250.396ZM263.613 243.953C263.705 245.314 263.062 246.403 262.144 246.494C261.226 246.585 260.4 245.495 260.308 244.134C260.216 242.773 260.859 241.684 261.777 241.593C262.787 241.593 263.613 242.682 263.613 243.953ZM292.261 217.725C290.883 218.36 289.414 218.36 288.955 217.725C288.496 217.089 289.231 216 290.608 215.274C291.985 214.639 293.454 214.639 293.913 215.274C294.372 215.909 293.638 216.999 292.261 217.725Z" fill="#1C4222"/>
<path d="M284.824 267.458C284.824 267.458 275.183 282.886 272.336 337.43C271.51 353.403 278.213 399.688 278.213 399.688L275.183 399.597C275.183 399.597 269.215 352.677 270.316 336.522C271.418 320.368 276.193 280.436 277.386 276.987C279.59 270.997 284.824 267.458 284.824 267.458Z" fill="#1C4222"/>
<path d="M277.937 232.064C273.438 238.87 272.519 251.485 275.274 253.663C278.396 256.204 278.212 259.562 277.294 263.646C276.284 267.73 284.18 269.001 284.18 269.001C286.476 262.013 300.157 246.675 304.105 240.595C307.869 234.877 331.742 217.543 343.403 207.378C337.894 207.741 332.385 208.286 326.876 208.83C325.131 209.012 321.917 209.375 319.255 209.647C318.979 210.918 318.796 213.005 319.897 214.73C321.734 217.634 320.357 219.267 317.969 218.723C316.133 218.269 318.245 212.824 316.317 210.01C316.225 210.01 316.133 210.01 316.133 210.01C313.562 211.009 309.338 211.916 301.993 215.002C302.544 217.271 304.564 219.086 306.768 221.173C311.817 225.802 310.257 229.523 305.574 229.432C302.36 229.432 302.452 220.992 299.147 215.909C298.779 216.091 298.504 216.182 298.137 216.363C292.352 219.177 286.935 223.26 281.15 228.343C282.711 230.43 285.374 233.153 289.414 234.423C296.392 236.601 296.943 240.504 292.719 242.228C289.506 243.862 284.456 234.514 277.937 232.064ZM295.107 225.983C293.913 227.344 292.352 228.161 291.618 227.617C290.791 227.163 291.159 225.62 292.26 224.259C293.454 222.897 295.015 222.081 295.749 222.625C296.576 223.079 296.3 224.622 295.107 225.983ZM278.671 246.675C278.579 244.951 279.314 243.59 280.324 243.499C281.242 243.499 282.16 244.86 282.16 246.584C282.252 248.309 281.518 249.67 280.508 249.761C279.589 249.761 278.763 248.4 278.671 246.675Z" fill="#798533"/>
<path d="M249.564 312.563C254.797 324.089 271.6 384.986 271.692 388.979C271.784 392.881 276.558 390.703 276.558 390.703C276.558 390.703 254.43 315.468 250.298 310.476C242.677 301.491 247.452 307.844 249.564 312.563Z" fill="#1C4222"/>
<path d="M200.073 266.732C200.073 266.732 248.002 301.401 250.848 311.384L249.563 312.473C249.563 312.473 246.9 306.846 241.299 301.582C227.619 288.877 208.061 273.721 200.073 266.732Z" fill="#1C4222"/>
<path d="M219.54 319.551C229.456 322.002 236.159 321.003 240.015 319.188C243.872 317.373 247.085 313.199 245.8 309.841C244.515 306.392 242.495 302.762 241.393 301.31C241.393 301.31 241.117 300.947 242.678 301.037C244.239 301.128 251.768 303.942 259.114 300.584C266.367 297.316 268.479 290.873 263.98 283.34C259.481 275.808 253.696 270.453 249.932 267.912C246.167 265.371 246.994 265.825 247.085 269.092C247.177 272.359 246.443 281.888 244.055 287.152C241.576 292.416 239.097 292.779 239.465 290.328C239.832 287.878 243.78 283.794 244.698 278.984C245.616 274.174 245.433 267.64 244.882 266.006C244.239 264.463 234.231 258.927 225.325 259.653C225.325 259.653 230.558 265.189 232.67 272.54C234.874 279.892 234.965 284.52 231.201 285.881C227.436 287.243 228.079 277.986 228.355 273.085C228.538 268.184 226.977 262.376 225.049 260.289C223.121 258.201 223.121 258.292 221.836 258.564C220.55 258.746 214.582 258.292 211.276 260.561C211.276 260.561 213.021 260.47 217.153 265.099C221.285 269.727 220.55 274.083 218.714 274.9C216.786 275.717 213.939 274.083 213.756 270.272C213.572 266.46 210.083 263.102 210.083 263.102C210.083 263.102 204.39 261.831 196.953 265.189C196.953 265.189 195.392 266.551 195.759 270.816C196.127 275.082 194.29 277.26 193.556 280.708C192.821 284.157 193.739 288.06 193.739 288.06C193.739 288.06 199.157 289.421 203.564 288.967C207.971 288.513 216.235 287.243 219.265 288.15C222.295 288.967 222.754 292.87 216.51 294.412C210.266 295.955 199.616 295.864 191.077 293.051C191.077 293.051 190.985 297.589 193.647 301.219C196.31 304.849 196.861 305.212 197.596 305.394C198.33 305.484 204.941 304.758 211.276 302.762C217.612 300.765 222.754 298.587 224.682 297.77C226.61 296.863 229.181 297.407 227.161 299.313C225.141 301.219 223.488 302.853 217.979 303.488C217.979 303.488 217.336 303.579 216.418 304.214C215.5 304.849 211.46 307.118 207.512 308.116C203.564 309.115 199.799 308.57 198.697 308.933C197.596 309.296 198.147 310.748 199.707 311.746C201.177 312.926 209.624 317.101 219.54 319.551ZM256.451 291.962C256.175 290.691 257.461 288.06 256.818 284.792C256.175 281.525 258.654 282.614 259.389 284.066C259.389 284.066 261.501 287.424 260.307 290.691C259.205 293.868 256.726 293.323 256.451 291.962ZM202.187 281.797C201.819 282.433 200.534 283.159 198.789 282.614C197.045 281.979 195.117 280.799 196.218 279.71C196.218 279.71 196.769 278.44 199.524 279.166C202.278 279.801 202.554 281.162 202.187 281.797ZM198.422 271.633C198.422 271.633 199.065 270.907 200.717 271.724C202.462 272.631 202.37 273.539 202.003 273.902C201.636 274.265 200.626 274.628 199.616 273.902C198.514 273.357 197.504 272.268 198.422 271.633ZM232.486 315.558C232.027 315.014 231.844 313.652 233.221 312.654C234.598 311.565 236.802 310.657 237.445 312.019C237.445 312.019 238.455 313.017 236.526 314.832C234.506 316.556 232.945 316.103 232.486 315.558ZM216.326 312.654C217.336 312.291 219.724 312.654 222.295 311.746C224.866 310.839 224.498 313.743 223.396 314.378C223.396 314.378 220.917 316.193 218.071 316.012C215.316 315.74 215.316 313.017 216.326 312.654Z" fill="#798533"/>
<path d="M242.585 300.947C242.494 300.765 242.402 300.584 242.677 300.584C243.136 300.402 243.412 300.312 244.238 300.13C247.268 299.586 252.685 296.682 252.685 296.682C248.003 298.769 242.861 299.949 241.759 300.13L252.318 292.053C252.318 292.053 242.494 298.587 241.116 299.495C240.933 299.223 240.565 298.769 239.831 298.406C239.831 298.406 242.218 294.322 244.33 291.872C246.442 289.512 249.104 283.068 249.104 283.068C249.104 283.068 245.707 289.421 243.595 291.872C241.759 293.959 239.831 296.319 239.004 297.771C237.903 296.954 236.158 295.502 234.046 293.777C235.24 292.325 239.28 286.789 240.106 279.983C241.116 272.087 236.985 267.64 236.985 267.64C236.985 267.64 240.382 272.359 239.555 279.801C238.913 286.063 234.597 291.599 233.312 293.233C230.465 290.873 227.16 288.151 224.314 285.882C228.813 272.45 219.815 262.739 219.815 262.739C227.803 274.628 224.038 284.157 223.579 285.337C220.549 282.978 214.856 278.803 209.715 274.991C209.072 269.546 204.94 266.188 204.94 266.188C208.337 270.181 208.796 273.902 208.888 274.356C203.655 270.453 199.156 267.186 199.156 267.186C199.156 267.186 208.246 274.447 212.377 277.714C206.593 278.349 200.166 276.534 200.166 276.534C206.501 278.894 212.102 278.531 213.204 278.349C213.571 278.621 213.846 278.894 214.03 278.984C215.132 279.801 217.703 281.798 220.365 283.794C218.529 284.248 207.97 286.608 197.87 284.339C197.87 284.339 211.551 287.606 221.1 284.339C223.395 286.154 225.599 287.969 226.793 289.058C227.619 289.875 228.905 290.964 230.282 292.144C228.445 292.688 222.753 294.413 218.713 296.5C213.938 299.041 205.766 301.582 197.87 299.767C197.87 299.767 206.501 302.944 219.172 297.045C219.172 297.045 222.936 294.685 231.108 292.87C233.587 294.957 236.066 297.135 236.985 297.861C229.823 300.765 221.1 308.661 221.1 308.661C229.915 301.492 236.434 298.86 237.627 298.406C238.086 298.86 238.637 299.404 239.188 299.858C238.362 300.584 236.342 302.399 234.965 304.849C233.587 307.209 230.19 313.562 226.242 316.648C226.242 316.648 229.455 314.197 231.475 311.747C233.404 309.296 236.25 303.216 239.923 300.402C240.014 300.402 240.014 300.493 240.106 300.493C240.382 301.673 241.484 307.481 240.657 311.656C239.739 316.375 238.178 316.92 238.178 316.92C238.178 316.92 240.106 316.829 241.208 311.475C241.943 308.117 241.575 304.577 241.3 302.399C241.3 302.218 241.3 302.127 241.208 302.036C241.024 301.038 241.851 301.855 241.851 301.855L241.943 301.945C241.943 301.582 242.218 301.219 242.585 300.947Z" fill="#1C4222"/>
<path d="M241.943 301.945L242.402 302.308C242.126 301.854 241.943 301.4 241.851 300.947L229.823 290.782C229.823 290.782 225.415 286.789 215.315 279.166C207.695 273.448 200.166 267.64 196.952 265.099C196.952 265.099 195.391 266.46 195.758 270.725C196.126 274.991 194.289 277.169 193.555 280.618C192.82 284.066 193.738 287.969 193.738 287.969C193.738 287.969 199.156 289.33 203.563 288.876C207.97 288.423 216.234 287.152 219.264 288.06C222.294 288.876 222.753 292.779 216.509 294.322C210.265 295.864 199.615 295.774 191.076 292.96C191.076 292.96 190.984 297.498 193.646 301.128C196.309 304.758 196.86 305.121 197.595 305.303C198.329 305.394 204.94 304.668 211.275 302.671C217.611 300.674 222.753 298.496 224.681 297.68C226.609 296.772 229.18 297.317 227.16 299.222C225.14 301.128 223.487 302.762 217.978 303.397C217.978 303.397 217.335 303.488 216.417 304.123C215.499 304.758 211.459 307.027 207.511 308.026C203.563 309.024 199.798 308.479 198.696 308.842C197.595 309.205 198.146 310.657 199.706 311.656C201.176 312.745 209.623 316.92 219.539 319.37C229.455 321.82 236.158 320.822 240.014 319.007C243.871 317.192 247.084 313.017 245.799 309.659C244.697 306.846 243.044 303.669 241.943 301.945ZM198.421 271.633C198.421 271.633 199.064 270.907 200.716 271.724C202.461 272.631 202.369 273.539 202.002 273.902C201.635 274.265 200.625 274.628 199.615 273.902C198.513 273.357 197.503 272.268 198.421 271.633ZM202.186 281.797C201.818 282.433 200.533 283.159 198.788 282.614C197.044 281.979 195.116 280.799 196.217 279.71C196.217 279.71 196.768 278.44 199.523 279.166C202.277 279.801 202.553 281.162 202.186 281.797ZM223.487 314.378C223.487 314.378 221.008 316.193 218.162 316.012C215.315 315.83 215.315 313.017 216.325 312.654C217.335 312.291 219.723 312.654 222.294 311.747C224.956 310.839 224.589 313.652 223.487 314.378ZM236.525 314.741C234.597 316.557 233.036 316.103 232.485 315.558C232.026 315.014 231.843 313.652 233.22 312.654C234.597 311.565 236.801 310.657 237.444 312.019C237.444 311.928 238.454 312.926 236.525 314.741Z" fill="#1C4222"/>
<path d="M294.831 300.039C290.975 312.563 282.068 377.816 282.527 381.9C282.987 385.984 277.661 384.26 277.661 384.26C277.661 384.26 290.148 303.579 293.821 297.952C300.524 287.878 296.392 295.048 294.831 300.039Z" fill="#1C4222"/>
<path d="M339.913 247.22C339.913 247.22 294.83 288.241 293.361 299.041L294.83 300.039C294.83 300.039 296.759 293.959 301.9 287.878C314.388 273.176 332.568 255.388 339.913 247.22Z" fill="#1C4222"/>
<path d="M346.616 294.231C347.993 292.961 348.452 291.418 347.259 291.146C346.065 290.873 342.209 291.781 337.893 291.146C333.67 290.51 329.17 288.514 328.069 287.969C327.059 287.425 326.416 287.425 326.416 287.425C320.54 287.334 318.611 285.882 316.224 284.067C313.837 282.252 316.408 281.526 318.611 282.252C320.723 282.978 326.416 284.611 333.302 286.063C340.189 287.515 347.167 287.606 347.901 287.334C348.636 287.152 349.187 286.608 351.482 282.615C353.778 278.621 353.043 273.902 353.043 273.902C344.596 277.714 333.486 278.894 326.783 277.895C320.08 276.897 320.08 272.904 323.11 271.633C326.14 270.453 334.955 270.907 339.638 270.907C344.32 270.907 349.738 268.911 349.738 268.911C349.738 268.911 350.197 264.645 348.911 261.196C347.626 257.657 345.422 255.66 345.239 251.123C345.055 246.676 343.219 245.314 343.219 245.314C334.955 242.501 329.262 244.498 329.262 244.498C329.262 244.498 326.14 248.309 326.416 252.393C326.783 256.386 323.937 258.474 321.917 257.748C319.805 257.113 318.428 252.575 322.1 247.402C325.773 242.138 327.61 242.047 327.61 242.047C323.937 239.96 317.785 241.14 316.408 241.049C315.03 240.958 315.031 240.867 313.286 243.227C311.541 245.587 310.715 251.758 311.633 256.84C312.551 261.923 314.571 271.452 310.44 270.453C306.4 269.455 305.849 264.645 307.042 256.749C308.236 248.854 312.919 242.592 312.919 242.592C303.553 242.773 293.821 249.58 293.453 251.304C292.994 253.029 293.821 259.926 295.381 264.736C296.942 269.637 301.717 273.448 302.36 275.989C303.002 278.531 300.431 278.44 297.126 273.176C293.821 267.912 291.709 258.111 291.433 254.662C291.066 251.304 291.892 250.669 288.312 253.664C284.731 256.659 279.497 262.83 275.824 271.179C272.152 279.529 275.273 285.973 283.262 288.695C291.342 291.418 298.871 287.697 300.431 287.425C301.992 287.152 301.809 287.515 301.809 287.515C300.891 289.149 299.33 293.142 298.411 296.863C297.585 300.584 301.441 304.486 305.757 306.029C310.072 307.572 317.234 307.935 327.15 304.305C337.067 300.675 345.239 295.502 346.616 294.231ZM280.507 278.44C278.854 275.173 280.507 271.452 280.507 271.452C281.15 269.818 283.537 268.457 283.353 271.906C283.17 275.354 284.914 277.895 284.822 279.347C284.639 280.799 282.16 281.707 280.507 278.44ZM342.3 260.107C345.055 259.109 345.789 260.38 345.789 260.38C347.075 261.469 345.147 262.921 343.494 263.738C341.749 264.554 340.28 263.828 339.821 263.284C339.454 262.558 339.546 261.106 342.3 260.107ZM341.474 254.844C340.464 255.66 339.362 255.388 338.903 255.025C338.444 254.662 338.26 253.664 339.913 252.575C341.566 251.486 342.3 252.212 342.3 252.212C343.402 252.756 342.484 254.027 341.474 254.844ZM308.787 301.038C306.491 299.404 307.41 298.224 307.41 298.224C307.961 296.772 310.348 297.498 311.909 298.497C313.47 299.404 313.47 300.856 313.011 301.492C312.643 302.036 310.991 302.671 308.787 301.038ZM328.069 300.403C325.13 300.947 322.284 299.313 322.284 299.313C320.999 298.678 320.264 295.774 323.11 296.409C325.957 297.045 328.344 296.409 329.446 296.682C330.548 297.045 331.007 299.949 328.069 300.403Z" fill="#798533"/>
<path d="M300.523 287.243C300.615 287.061 300.707 286.88 300.431 286.88C299.972 286.789 299.605 286.698 298.779 286.607C295.565 286.335 289.505 283.885 289.505 283.885C294.647 285.609 300.248 286.244 301.441 286.335L289.321 278.984C289.321 278.984 300.431 284.792 301.992 285.518C302.176 285.155 302.543 284.702 303.094 284.248C303.094 284.248 300.064 280.164 297.493 277.986C294.922 275.717 291.341 269.273 291.341 269.273C291.341 269.273 295.749 275.535 298.319 277.804C300.523 279.801 302.819 281.979 303.92 283.522C304.93 282.524 306.583 280.799 308.511 278.803C307.134 277.441 302.084 271.996 300.248 265.099C298.044 257.021 301.809 251.848 301.809 251.848C301.809 251.848 298.87 257.112 300.799 264.736C302.359 271.179 307.593 276.534 309.154 278.077C311.817 275.354 314.847 272.087 317.509 269.455C310.898 256.023 318.887 244.86 318.887 244.86C312.184 258.02 317.509 267.64 318.152 268.729C320.998 266.006 326.324 261.015 331.098 256.477C331.007 250.759 334.863 246.766 334.863 246.766C331.925 251.213 331.925 255.206 331.925 255.751C336.883 251.122 341.015 247.311 341.015 247.311C341.015 247.311 332.567 255.842 328.711 259.653C334.863 259.653 341.29 257.112 341.29 257.112C335.047 260.198 329.17 260.379 327.977 260.379C327.609 260.742 327.334 261.015 327.15 261.196C326.14 262.194 323.661 264.463 321.274 266.914C323.294 267.186 334.587 268.547 344.779 265.189C344.779 265.189 330.915 269.999 320.539 267.64C318.428 269.727 316.316 271.905 315.306 273.176C314.571 274.083 313.378 275.354 312.092 276.715C314.02 277.078 320.264 278.349 324.671 280.073C329.997 282.161 338.811 284.066 346.891 281.344C346.891 281.344 338.352 285.518 324.304 280.708C324.304 280.708 319.988 278.712 311.266 277.623C309.062 280.073 306.675 282.524 305.848 283.431C313.745 285.791 323.937 293.051 323.937 293.051C313.837 286.517 306.583 284.429 305.206 284.066C304.838 284.52 304.288 285.246 303.828 285.791C304.838 286.426 307.134 288.06 308.878 290.51C310.623 292.87 315.03 299.132 319.621 301.945C319.621 301.945 315.948 299.676 313.561 297.317C311.174 294.957 307.409 288.967 303.186 286.426C303.094 286.517 303.094 286.517 303.002 286.607C302.91 287.878 302.543 294.049 304.012 298.315C305.665 303.125 307.318 303.579 307.318 303.579C307.318 303.579 305.298 303.669 303.369 298.224C302.176 294.775 301.992 291.054 302.084 288.786C302.084 288.604 302.084 288.423 302.084 288.332C302.176 287.334 301.441 288.241 301.441 288.241L301.349 288.332C301.258 287.878 300.89 287.515 300.523 287.243Z" fill="#1C4222"/>
<path d="M298.319 296.863C297.493 300.584 301.349 304.486 305.665 306.029C309.98 307.572 317.142 307.935 327.058 304.305C337.067 300.675 345.238 295.411 346.616 294.231C347.993 292.961 348.452 291.418 347.258 291.146C346.065 290.873 342.208 291.781 337.893 291.146C333.669 290.51 329.17 288.514 328.068 287.969C327.058 287.425 326.416 287.425 326.416 287.425C320.539 287.334 318.611 285.882 316.224 284.067C313.837 282.252 316.408 281.526 318.611 282.252C320.723 282.978 326.416 284.611 333.302 286.063C340.188 287.515 347.167 287.606 347.901 287.334C348.636 287.152 349.187 286.608 351.482 282.615C353.777 278.621 353.043 273.902 353.043 273.902C344.596 277.714 333.486 278.894 326.783 277.895C320.08 276.897 320.08 272.904 323.11 271.633C326.14 270.453 334.955 270.907 339.637 270.907C344.32 270.907 349.737 268.911 349.737 268.911C349.737 268.911 350.197 264.645 348.911 261.197C347.626 257.657 345.422 255.66 345.238 251.123C345.055 246.676 343.218 245.314 343.218 245.314C340.28 248.219 333.302 255.116 326.14 261.832C316.683 270.726 312.643 275.445 312.643 275.445L301.533 287.243C301.441 287.697 301.258 288.241 301.074 288.695L301.441 288.241C300.339 290.238 299.054 293.687 298.319 296.863ZM341.474 254.844C340.464 255.66 339.362 255.388 338.903 255.025C338.444 254.662 338.26 253.664 339.913 252.575C341.566 251.486 342.3 252.212 342.3 252.212C343.402 252.756 342.484 254.027 341.474 254.844ZM342.3 260.107C345.055 259.109 345.789 260.38 345.789 260.38C347.075 261.469 345.147 262.921 343.494 263.738C341.749 264.554 340.28 263.828 339.821 263.284C339.454 262.558 339.546 261.106 342.3 260.107ZM323.11 296.409C325.957 297.045 328.344 296.409 329.446 296.682C330.548 296.954 331.007 299.858 328.068 300.403C325.13 300.947 322.284 299.313 322.284 299.313C320.998 298.678 320.264 295.774 323.11 296.409ZM307.409 298.224C307.96 296.772 310.348 297.498 311.909 298.497C313.469 299.404 313.469 300.856 313.01 301.492C312.551 302.127 310.99 302.762 308.695 301.038C306.491 299.313 307.409 298.224 307.409 298.224Z" fill="#1C4222"/>
<path d="M300.34 373.097C297.126 373.823 287.393 374.367 275.916 374.367C263.98 374.367 253.88 373.823 251.125 373.006C246.626 379.177 253.145 389.16 253.145 397.691C253.145 411.577 251.033 421.469 261.409 427.368C263.062 428.366 264.898 429.092 266.734 429.728C286.291 419.109 295.381 395.059 300.34 373.097Z" fill="#D18629"/>
<path d="M300.706 373.006C300.614 373.006 300.431 373.097 300.339 373.097C295.381 395.059 286.291 419.109 266.733 429.728C267.009 429.818 267.192 429.909 267.468 430H275.915H284.362C286.474 429.365 288.494 428.457 290.422 427.368C300.798 421.469 298.686 411.577 298.686 397.691C298.686 389.16 305.297 379.177 300.706 373.006Z" fill="#BF7824"/>
<path d="M239.649 347.665C239.367 347.278 240.072 348.052 239.649 347.665C234.991 346.504 218.62 344.568 200.272 344.568C183.194 344.568 167.246 346.891 161.601 347.794C161.177 348.31 162.024 347.278 161.601 347.794C165.976 348.956 181.642 349.73 200.272 349.73C220.172 349.859 236.544 348.956 239.649 347.665Z" fill="#493E3A"/>
<path d="M188.981 347.923C189.263 349.988 189.545 351.924 189.827 353.73H194.485C193.779 343.793 193.215 334.889 193.074 333.211C192.791 329.469 191.662 309.595 192.791 302.497C193.779 295.399 200.695 277.977 202.953 271.008C205.211 264.039 220.877 229.067 221.301 216.29C221.724 203.643 221.724 179.511 219.889 169.058C218.055 158.604 211.28 135.633 208.599 129.697C208.599 129.697 208.457 140.795 208.034 149.829C207.469 158.862 207.611 176.413 205.211 182.866C202.812 189.319 192.227 259.265 189.545 275.525C186.864 291.786 183.759 302.11 185.311 311.401C186.44 320.435 187.428 334.244 188.981 347.923Z" fill="url(#paint0_linear_1345_203)"/>
<path d="M67.0394 215.774C75.3664 222.872 89.48 233.455 93.573 238.359C97.6659 243.262 105.005 252.425 110.086 257.329C115.167 262.233 121.518 267.008 128.857 271.396C136.196 275.913 145.793 281.333 150.168 288.043C154.544 294.754 164.423 314.499 168.798 324.694C173.174 334.76 178.113 344.826 181.218 352.698C181.359 352.956 181.501 353.343 181.642 353.602H188.84C187.005 345.729 185.17 336.567 184.606 330.372C183.335 317.983 184.464 318.241 181.077 305.594C177.69 292.947 172.468 269.718 158.072 252.425C143.676 235.132 135.208 225.066 117.707 214.613C100.206 204.031 82.2821 192.029 71.5558 188.286C60.8295 184.544 22.1583 172.284 16.5128 171.768C10.8674 171.252 2.82267 170.865 0.282227 168.025C0.282227 168.025 6.35106 179.898 10.8674 183.383C15.3838 186.867 22.5817 188.157 32.1789 193.061C41.4939 198.223 58.7124 208.677 67.0394 215.774Z" fill="url(#paint1_linear_1345_203)"/>
<path d="M189.686 353.73H194.344C194.202 351.407 194.061 349.084 193.92 346.89C193.638 347.019 193.497 347.277 193.215 347.406C192.509 348.052 191.803 348.826 191.098 349.342C190.674 348.826 189.968 348.439 189.404 348.052C189.263 347.923 189.263 347.794 189.122 347.794H188.98C188.98 347.794 188.98 347.794 188.98 347.923C189.122 349.987 189.404 351.923 189.686 353.73Z" fill="url(#paint2_linear_1345_203)"/>
<path d="M182.912 353.73C181.783 352.44 180.795 351.149 179.807 349.859C180.23 350.891 180.653 351.795 181.077 352.827C181.218 353.085 181.359 353.472 181.5 353.73H188.698C188.416 352.698 188.275 351.666 187.993 350.504C187.71 351.408 187.569 352.44 186.863 353.214C186.299 352.569 185.875 351.924 185.311 351.278C184.888 350.762 184.464 350.117 184.041 349.601C183.758 349.343 183.617 349.085 183.335 348.826L182.912 348.568V348.826C182.912 348.955 182.912 348.956 182.912 349.085C182.77 350.633 182.912 352.182 182.912 353.73C183.053 353.73 182.912 353.73 182.912 353.73Z" fill="url(#paint3_linear_1345_203)"/>
<path d="M189.686 353.73H191.803C191.803 352.182 191.803 350.504 191.662 348.955C191.521 349.084 191.239 349.214 191.098 349.343C190.674 348.826 189.968 348.439 189.404 348.052C189.263 347.923 189.263 347.794 189.122 347.794H188.98C188.98 347.794 188.98 347.794 188.98 347.923C189.122 349.988 189.404 351.924 189.686 353.73Z" fill="url(#paint4_linear_1345_203)"/>
<path opacity="0.41" d="M194.344 353.73C194.203 351.407 194.061 349.084 193.92 346.89C193.638 347.019 193.497 347.277 193.215 347.406C192.65 347.923 192.227 348.439 191.662 348.826C191.803 350.375 191.803 352.052 191.803 353.601H194.344V353.73Z" fill="url(#paint5_linear_1345_203)"/>
<path d="M31.8971 193.19C41.4943 198.223 58.7129 208.548 67.0399 215.774C75.3669 222.872 89.4805 233.455 93.5734 238.359C97.6664 243.262 105.005 252.425 110.086 257.329C115.167 262.233 121.518 267.008 128.857 271.396C136.196 275.913 145.794 281.333 150.169 288.043C154.544 294.754 164.424 314.499 168.799 324.694C172.609 333.47 176.844 342.245 179.948 349.601C180.654 350.633 181.36 351.537 182.207 352.44C182.348 352.698 182.63 352.827 182.771 353.085C182.912 353.214 182.912 353.343 183.053 353.343L183.195 353.473V353.343C183.195 352.827 183.053 352.182 183.053 351.666C182.912 350.633 182.912 349.472 182.912 348.44C183.759 348.956 184.324 349.73 184.888 350.504C185.453 351.279 186.017 352.053 186.582 352.698C186.723 352.827 186.723 352.827 186.864 352.956L187.005 353.085C187.146 353.085 187.005 353.085 187.146 353.085C187.288 352.956 187.288 352.827 187.429 352.698C187.57 352.44 187.711 352.053 187.852 351.795C187.993 351.408 188.134 350.892 188.275 350.375C186.723 343.407 185.312 335.663 184.747 330.372C183.477 317.983 184.606 318.241 181.219 305.594C177.831 292.947 172.609 269.718 158.214 252.425C143.818 235.132 135.35 225.066 117.849 214.613C100.348 204.031 82.4237 192.029 71.6974 188.286C60.9711 184.544 22.2999 172.284 16.6544 171.768C11.009 171.252 2.96427 170.865 0.423828 168.025C0.423828 168.025 6.49266 179.898 11.009 183.383C15.1019 186.996 22.2999 188.286 31.8971 193.19Z" fill="#798533"/>
<path d="M84.3992 216.936C79.4594 212.677 74.3785 208.677 69.0154 204.805C68.8743 204.676 68.592 204.547 68.4508 204.418C67.1806 203.515 65.7693 202.611 64.3579 201.708C58.0068 197.707 51.0911 194.739 43.7521 192.287C37.9655 190.222 32.179 188.416 26.5335 186.093C26.3924 186.093 26.3924 185.964 26.2513 185.964C23.7108 184.931 21.1704 183.77 18.7711 182.35C18.6299 182.221 18.4888 182.221 18.4888 182.092C18.2065 181.963 17.7831 181.705 17.5008 181.576C17.3597 181.576 17.3597 181.447 17.2186 181.447C16.9363 181.189 16.5129 181.06 16.2306 180.802C16.2306 180.802 16.0895 180.802 16.0895 180.672C11.1497 177.575 6.63338 173.833 2.68158 169.703C1.55249 169.316 0.564543 168.8 0 168.025C0 168.025 6.06884 179.898 10.5852 183.383C15.1015 186.867 22.2994 188.157 31.8967 193.061C41.4939 198.094 58.7125 208.419 67.0395 215.645C75.3665 222.743 89.4801 233.326 93.573 238.229C97.6659 243.133 105.005 252.296 110.086 257.2C115.167 262.104 121.518 266.879 128.857 271.267C136.196 275.783 145.793 281.204 150.168 287.914C154.544 294.625 164.423 314.37 168.798 324.565C172.609 333.34 176.843 342.116 179.948 349.472C180.654 350.504 181.359 351.408 182.206 352.311C182.347 352.569 182.63 352.698 182.771 352.956C182.912 353.085 182.912 353.214 183.053 353.214C181.924 347.536 180.371 341.858 178.678 336.309C177.549 332.308 176.279 328.307 175.432 324.178C174.444 319.661 173.597 315.144 172.609 310.627C171.48 306.24 169.927 302.11 168.093 297.851C166.117 293.464 164.141 288.947 161.459 284.817C158.778 280.816 155.249 277.203 151.862 273.848C148.334 270.363 144.664 267.008 140.853 263.782C133.091 257.071 124.764 250.618 116.719 244.166C114.884 242.617 113.05 241.198 111.215 239.649C107.828 236.939 104.582 234.1 101.335 231.261C95.4078 226.744 90.0446 221.711 84.3992 216.936Z" fill="#1C4222"/>
<path d="M328 254.232C320.096 259.135 306.971 266.104 302.878 269.718C298.785 273.331 291.446 279.913 286.506 283.397C281.708 286.882 275.639 289.979 269.005 292.818C262.372 295.657 253.622 299.012 249.105 304.045C244.589 309.078 233.58 324.177 228.499 332.05C223.418 339.793 217.914 347.536 214.245 353.73C214.104 353.988 213.962 354.246 213.821 354.505L207.894 353.601C210.575 347.407 213.398 339.922 214.809 335.018C217.632 324.952 216.644 325.081 221.301 315.015C225.959 304.949 233.58 286.494 247.835 273.976C262.231 261.458 270.558 254.231 286.506 247.65C302.455 241.068 318.967 233.196 328.282 231.518C337.597 229.712 371.329 224.162 375.986 224.421C380.644 224.679 387.418 225.324 389.959 223.388C389.959 223.388 383.325 232.422 379.091 234.745C374.857 237.068 368.788 237.326 360.179 240.165C351.429 242.746 335.763 249.328 328 254.232Z" fill="url(#paint6_linear_1345_203)"/>
<path d="M360.037 239.778C351.428 242.746 335.762 249.328 327.858 254.232C319.955 259.136 306.829 266.104 302.736 269.718C298.643 273.331 291.304 279.913 286.364 283.397C281.566 286.882 275.497 289.979 268.864 292.818C262.23 295.657 253.48 299.012 248.963 304.046C244.447 309.079 233.439 324.178 228.358 332.05C223.982 338.889 219.184 345.6 215.655 351.278C214.95 352.053 214.244 352.698 213.397 353.343C213.256 353.472 212.974 353.601 212.833 353.859C212.692 353.988 212.692 353.988 212.55 354.118L212.409 354.247V354.118C212.55 353.601 212.692 353.214 212.833 352.698C213.115 351.795 213.256 350.891 213.397 350.117C212.692 350.504 211.986 351.02 211.421 351.536C210.857 352.053 210.292 352.698 209.728 353.214C209.587 353.343 209.587 353.343 209.445 353.472L209.304 353.601C209.163 353.601 209.304 353.601 209.163 353.601C209.022 353.472 209.022 353.343 209.022 353.343C208.881 353.085 208.881 352.827 208.74 352.569C208.599 352.182 208.599 351.795 208.599 351.407C210.857 345.858 213.115 339.664 214.385 335.405C217.208 325.339 216.22 325.468 220.877 315.402C225.535 305.336 233.156 286.882 247.411 274.364C261.807 261.846 270.134 254.619 286.082 248.037C302.03 241.455 318.543 233.583 327.858 231.906C337.173 230.099 370.905 224.55 375.562 224.808C380.22 225.066 386.994 225.711 389.535 223.775C389.535 223.775 382.901 232.809 378.667 235.132C374.715 236.681 368.647 236.81 360.037 239.778Z" fill="#798533"/>
<path d="M313.321 253.07C317.979 250.231 322.777 247.521 327.717 244.94C327.858 244.811 327.999 244.811 328.282 244.682C329.552 244.037 330.681 243.521 331.951 243.004C337.738 240.552 343.948 238.875 350.299 237.584C355.38 236.552 360.461 235.778 365.4 234.616C365.541 234.616 365.541 234.616 365.683 234.616C367.941 234.1 370.199 233.326 372.316 232.551C372.457 232.551 372.457 232.422 372.598 232.422C372.88 232.293 373.163 232.164 373.445 232.035C373.586 232.035 373.586 231.906 373.727 231.906C374.01 231.777 374.292 231.648 374.574 231.519H374.715C379.232 229.583 383.466 227.002 387.417 224.034C388.405 223.776 389.252 223.518 389.958 223.001C389.958 223.001 383.325 232.035 379.09 234.358C374.856 236.681 368.788 236.939 360.178 239.778C351.569 242.746 335.903 249.328 327.999 254.232C320.096 259.136 306.97 266.105 302.877 269.718C298.784 273.332 291.445 279.913 286.505 283.398C281.707 286.882 275.638 289.979 269.005 292.818C262.371 295.657 253.621 299.013 249.104 304.046C244.588 309.079 233.579 324.178 228.499 332.05C224.123 338.89 219.325 345.6 215.796 351.279C215.091 352.053 214.385 352.698 213.538 353.344C213.397 353.473 213.115 353.602 212.974 353.86C212.833 353.989 212.833 353.989 212.691 354.118C214.385 349.601 216.502 345.084 218.76 340.697C220.313 337.47 221.865 334.373 223.277 331.147C224.829 327.533 226.099 323.92 227.652 320.306C229.204 316.822 231.18 313.596 233.156 310.369C235.414 306.885 237.672 303.53 240.495 300.432C243.177 297.464 246.705 294.883 250.092 292.56C253.48 290.108 257.008 287.785 260.678 285.591C268.158 280.946 275.779 276.687 283.4 272.299C285.094 271.267 286.929 270.234 288.622 269.202C291.727 267.395 294.832 265.459 297.937 263.395C302.877 259.781 308.099 256.297 313.321 253.07Z" fill="#1C4222"/>
<path d="M207.329 89.8199C206.905 101.564 207.47 124.277 204.506 132.665C201.542 141.053 189.828 231.906 186.723 252.812C183.618 273.847 180.09 287.398 182.207 299.4C184.324 311.401 185.876 329.34 188.275 347.02C188.699 347.536 189.404 347.923 189.969 348.31C190.251 348.439 190.534 348.697 190.675 348.826C190.816 348.955 190.816 349.085 190.957 349.085C191.098 349.214 191.098 349.214 191.098 349.085L191.239 348.955C192.368 348.052 193.356 346.891 194.485 345.987C193.639 336.954 193.074 329.727 192.933 328.178C192.509 323.274 190.534 297.464 191.663 288.172C192.792 278.88 201.119 256.425 203.8 247.392C206.482 238.358 225.676 193.19 225.959 176.672C226.241 160.153 225.535 128.793 222.854 115.114C220.172 101.435 210.857 71.3655 207.329 63.7515C207.611 63.7515 207.752 78.0762 207.329 89.8199Z" fill="#798533"/>
<path d="M197.308 232.551C200.836 223.259 204.506 213.968 206.905 204.289C209.163 195.255 210.434 186.093 211.28 176.93C212.127 167.896 212.692 158.863 213.539 149.958C214.527 140.537 215.938 130.987 215.091 121.438C214.244 111.243 211.139 101.177 209.305 91.1106C208.458 86.0775 208.034 80.9155 207.611 75.7534C207.611 80.2702 207.47 85.3032 207.329 90.0781C206.905 101.822 207.47 124.535 204.506 132.923C201.542 141.312 189.828 232.164 186.723 253.07C186.299 256.297 185.735 259.394 185.312 262.362C189.404 252.296 193.356 242.488 197.308 232.551Z" fill="#1C4222"/>
<path d="M185.029 311.272C186.441 320.435 187.429 334.244 188.981 347.794L185.029 311.272Z" fill="#798533"/>
<path d="M242.894 220.033C233.72 235.003 222.712 280.43 222.147 281.978C221.583 283.527 221.159 292.044 219.466 299.529C217.913 307.014 209.727 323.146 206.905 329.211C204.505 334.373 196.884 350.634 192.227 359.151L198.295 360.7C204.223 349.472 211.844 339.922 216.079 335.018C220.454 329.985 241.06 310.628 260.113 294.109C279.166 277.59 280.578 248.038 280.295 243.134C279.166 228.035 272.392 204.676 264.77 192.158C257.149 179.64 264.347 165.187 264.347 165.187C261.383 166.606 256.02 171.51 252.35 177.834C248.822 184.028 249.104 209.967 242.894 220.033ZM249.951 200.03C249.951 200.03 253.48 258.62 250.939 268.17C248.399 277.72 243.177 293.206 236.967 302.239C230.898 311.273 211.421 333.728 204.788 343.923C204.788 343.923 213.679 321.726 216.643 315.532C219.607 309.337 229.486 293.335 235.273 284.559C241.06 275.655 248.681 264.814 249.669 242.23C250.939 219.646 249.951 200.03 249.951 200.03Z" fill="#84A820"/>
<path d="M242.894 220.033C233.72 235.003 222.712 280.43 222.147 281.978C221.583 283.527 221.159 292.044 219.466 299.529C217.913 307.014 209.727 323.146 206.905 329.211C204.505 334.373 196.884 350.634 192.227 359.151L198.295 360.7C204.223 349.472 211.844 339.922 216.079 335.018C220.454 329.985 241.06 310.628 260.113 294.109C279.166 277.59 280.578 248.038 280.295 243.134C279.166 228.035 272.392 204.676 264.77 192.158C257.149 179.64 264.347 165.187 264.347 165.187C261.383 166.606 256.02 171.51 252.35 177.834C248.822 184.028 249.104 209.967 242.894 220.033ZM249.951 200.03C249.951 200.03 253.48 258.62 250.939 268.17C248.399 277.72 243.177 293.206 236.967 302.239C230.898 311.273 211.421 333.728 204.788 343.923C204.788 343.923 213.679 321.726 216.643 315.532C219.607 309.337 229.486 293.335 235.273 284.559C241.06 275.655 248.681 264.814 249.669 242.23C250.939 219.646 249.951 200.03 249.951 200.03Z" fill="#1C4222"/>
<path d="M264.488 164.928C261.524 166.348 256.161 171.252 252.491 177.575C248.822 184.028 249.104 209.967 242.894 220.033C233.72 235.003 222.712 280.429 222.147 281.978C221.583 283.527 221.159 292.044 219.466 299.529C217.913 307.014 209.727 323.145 206.904 329.211C206.058 331.018 204.646 334.244 202.812 337.857C202.812 338.244 202.953 338.761 202.953 339.148C203.094 340.955 203.235 342.761 203.517 344.568C203.517 344.697 203.517 344.826 203.517 344.955C203.517 345.084 203.517 345.213 203.658 345.213C203.799 345.213 203.941 345.084 204.082 345.084C204.223 345.084 204.364 344.955 204.364 344.955C204.787 344.826 205.352 344.568 205.775 344.439C206.763 344.052 207.751 343.665 208.739 343.148C209.163 343.019 209.445 342.761 209.868 342.632C212.268 339.406 214.526 336.825 216.219 334.889C220.595 329.856 241.2 310.498 260.254 293.98C279.307 277.461 280.718 247.908 280.436 243.004C279.307 227.905 272.533 204.547 264.911 192.029C257.29 179.382 264.488 164.928 264.488 164.928ZM250.939 268.04C248.398 277.59 243.176 293.076 236.966 302.11C230.898 311.144 211.421 333.599 204.787 343.794C204.787 343.794 213.679 321.597 216.643 315.402C219.607 309.208 229.486 293.205 235.273 284.43C241.059 275.525 248.681 264.685 249.669 242.101C250.657 219.646 249.81 199.901 249.81 199.901C249.81 199.901 253.62 258.491 250.939 268.04Z" fill="#798533"/>
<path d="M265.9 268.815C266.041 268.557 266.041 268.299 266.041 268.041C267.593 261.588 268.581 255.007 268.864 248.425C269.146 239.392 268.299 230.358 266.464 221.453C266.041 219.647 265.759 217.84 265.194 216.033C264.771 214.355 264.347 212.678 263.783 211.129C263.642 210.871 263.642 210.742 263.5 210.484C262.795 208.419 262.089 206.483 261.383 204.419C259.549 199.127 257.996 193.707 257.149 188.158C256.302 182.867 255.738 177.189 257.29 172.027C257.432 171.381 257.714 170.736 257.996 170.091C256.02 172.156 254.044 174.737 252.351 177.576C248.681 184.028 248.963 209.968 242.753 220.034C233.58 235.004 222.571 280.43 222.006 281.979C221.442 283.527 221.019 292.045 219.325 299.53C217.772 307.015 209.587 323.146 206.764 329.211C205.917 331.018 204.506 334.244 202.671 337.858C202.671 338.245 202.812 338.761 202.812 339.148C202.953 340.955 203.094 342.762 203.377 344.569C203.377 344.698 203.377 344.827 203.377 344.956C203.377 345.085 203.377 345.214 203.518 345.214C203.659 345.214 203.8 345.085 203.941 345.085C204.082 345.085 204.223 344.956 204.223 344.956C204.647 344.827 205.211 344.569 205.635 344.439C205.776 344.439 205.776 344.31 205.917 344.31C206.764 343.536 207.611 342.891 208.457 342.117C210.433 340.439 212.268 338.761 214.244 337.084C214.95 336.18 215.655 335.406 216.22 334.761C219.748 330.76 233.438 317.726 248.399 304.304C249.387 303.014 250.375 301.723 251.363 300.433C256.302 293.464 260.113 285.979 262.936 278.236C264.065 275.139 265.053 272.042 265.9 268.815C265.9 268.815 265.9 268.944 265.9 268.815ZM237.108 302.111C231.039 311.144 211.562 333.599 204.929 343.794C204.929 343.794 213.821 321.597 216.784 315.403C219.748 309.208 229.628 293.206 235.414 284.43C241.201 275.526 248.822 264.686 249.81 242.102C250.798 219.647 249.951 199.902 249.951 199.902C249.951 199.902 253.48 258.491 250.939 268.041C248.399 277.591 243.177 293.077 237.108 302.111Z" fill="#1C4222"/>
<path d="M212.691 338.503C210.574 340.439 208.316 342.246 206.199 344.181C207.046 343.794 207.893 343.407 208.74 343.02C209.163 342.891 209.445 342.633 209.869 342.504C211.421 340.439 212.833 338.632 214.103 337.083C213.679 337.6 213.256 338.116 212.691 338.503Z" fill="#798533"/>
<path d="M194.202 26.0684C192.509 13.9376 188.416 3.61344 185.734 0C185.734 0 188.416 27.1008 175.572 45.039C162.729 62.8481 147.063 99.2407 140.43 123.89C138.313 132.02 129.139 181.963 143.817 217.323C158.495 252.554 173.738 293.463 176.701 303.529C179.665 313.466 184.323 332.695 186.722 353.73H193.779C191.944 337.728 189.404 307.401 188.698 297.851C187.851 286.624 184.887 256.296 185.875 243.133C186.863 229.97 189.404 215.516 189.263 212.677C189.263 209.838 193.779 129.439 189.121 100.789C186.299 81.5606 195.896 38.3283 194.202 26.0684ZM173.879 134.988C166.963 173.058 171.197 194.223 174.302 211.516C177.407 228.679 182.347 259.394 183.335 270.879C184.323 282.365 186.016 323.145 186.016 323.145C182.488 303.4 169.645 257.974 166.257 240.423C162.87 222.872 162.729 194.868 163.435 177.833C164.14 160.927 188.98 64.5258 188.98 64.5258C188.98 64.5258 180.794 96.9177 173.879 134.988Z" fill="#84A820"/>
<path d="M194.202 26.0684C192.509 13.9376 188.416 3.61344 185.734 0C185.734 0 188.416 27.1008 175.572 45.039C162.729 62.8481 147.063 99.2407 140.43 123.89C138.313 132.02 129.139 181.963 143.817 217.323C158.495 252.554 173.738 293.463 176.701 303.529C179.665 313.466 184.323 332.695 186.722 353.73H193.779C191.944 337.728 189.404 307.401 188.698 297.851C187.851 286.624 184.887 256.296 185.875 243.133C186.863 229.97 189.404 215.516 189.263 212.677C189.263 209.838 193.779 129.439 189.121 100.789C186.299 81.5606 195.896 38.3283 194.202 26.0684ZM173.879 134.988C166.963 173.058 171.197 194.223 174.302 211.516C177.407 228.679 182.347 259.394 183.335 270.879C184.323 282.365 186.016 323.145 186.016 323.145C182.488 303.4 169.645 257.974 166.257 240.423C162.87 222.872 162.729 194.868 163.435 177.833C164.14 160.927 188.98 64.5258 188.98 64.5258C188.98 64.5258 180.794 96.9177 173.879 134.988Z" fill="#1C4222"/>
<path d="M175.572 45.0383C162.729 62.8475 147.063 99.24 140.43 123.889C138.313 132.019 129.139 181.962 143.817 217.322C158.495 252.553 173.738 293.463 176.701 303.529C177.831 307.4 179.242 312.82 180.794 319.144C181.218 319.531 181.5 320.047 181.924 320.434C182.77 321.596 183.758 322.628 184.605 323.79C185.028 324.306 185.452 324.822 186.016 325.338C186.158 325.467 186.158 325.596 186.299 325.726C186.44 325.855 186.581 326.113 186.581 326.113C186.722 326.113 186.722 325.726 186.722 325.596C186.722 325.467 186.863 325.209 186.863 325.08C187.851 322.241 188.557 319.273 189.404 316.305C189.545 315.66 189.827 314.885 189.968 314.24C189.404 307.271 188.98 301.335 188.698 297.979C187.851 286.752 184.887 256.425 185.875 243.262C186.863 230.098 189.404 215.645 189.263 212.805C189.263 209.966 193.779 129.567 189.121 100.918C186.016 81.5599 195.614 38.3277 193.92 26.1968C192.226 14.066 188.133 3.74183 185.452 0.128389C185.734 -0.000662699 188.416 27.1002 175.572 45.0383ZM188.839 64.5251C188.839 64.5251 180.794 96.9171 173.879 134.987C166.963 173.058 171.197 194.222 174.302 211.515C177.407 228.679 182.347 259.393 183.335 270.879C184.323 282.364 186.016 323.145 186.016 323.145C182.488 303.4 169.645 257.973 166.257 240.422C162.87 222.871 162.729 194.867 163.435 177.832C163.999 160.927 188.839 64.5251 188.839 64.5251Z" fill="#798533"/>
<path d="M146.921 173.316C146.639 178.865 146.639 184.543 146.639 190.221C146.921 204.288 148.333 218.355 151.156 231.905C151.72 234.486 152.285 236.938 152.849 239.519C164.281 268.169 174.302 295.527 176.701 303.529C177.124 304.948 177.548 306.497 177.971 308.175C179.383 311.788 180.935 315.272 182.347 318.886C183.052 320.434 183.617 321.983 184.181 323.532C184.322 323.661 184.322 323.661 184.464 323.79C184.887 324.306 185.31 324.822 185.875 325.338C186.016 325.467 186.016 325.596 186.157 325.726C186.298 325.855 186.439 326.113 186.439 326.113C186.581 326.113 186.581 325.726 186.581 325.597C186.581 325.467 186.722 325.209 186.722 325.08C187.71 322.241 188.415 319.273 189.262 316.305C189.403 315.66 189.686 314.885 189.827 314.24C189.262 307.271 188.839 301.335 188.556 297.979C187.71 286.752 184.746 256.425 185.734 243.262C186.722 230.098 189.262 215.645 189.121 212.805C189.121 209.966 193.637 129.567 188.98 100.918C185.875 81.56 195.472 38.3277 193.779 26.1969C193.073 20.7767 191.803 15.6147 190.391 11.356C190.532 12.5174 190.532 13.6789 190.532 14.8403C190.391 24.2611 187.851 33.4238 184.887 41.9412C181.923 50.7167 178.254 59.105 174.443 67.3643C173.032 70.4616 171.479 73.5588 170.068 76.6561C169.927 77.0432 169.785 77.3013 169.644 77.6885C168.515 80.2695 167.386 82.7215 166.257 85.3025C165.128 88.1416 163.999 90.9808 163.011 93.6909C157.789 107.757 153.555 122.598 150.732 137.826C148.615 148.925 147.204 160.281 146.639 171.638C146.639 172.154 146.639 172.541 146.498 173.058C146.921 173.187 146.921 173.187 146.921 173.316ZM163.293 177.832C163.999 160.927 188.839 64.5252 188.839 64.5252C188.839 64.5252 180.794 96.9171 173.878 134.987C166.963 173.058 171.197 194.222 174.302 211.515C177.407 228.679 182.347 259.393 183.334 270.879C184.322 282.364 186.016 323.145 186.016 323.145C182.488 303.4 169.644 257.973 166.257 240.422C162.729 222.871 162.588 194.867 163.293 177.832Z" fill="#1C4222"/>
<path d="M179.384 311.272C180.936 315.273 182.771 319.273 184.323 323.274C183.476 322.37 182.771 321.338 181.924 320.435C181.501 320.047 181.218 319.531 180.795 319.144C179.807 315.143 178.96 311.53 178.113 308.304C178.537 309.207 178.96 310.239 179.384 311.272Z" fill="#798533"/>
<path d="M117.425 166.864C118.837 171.767 135.208 203.127 140.43 213.58C145.794 224.033 149.887 233.196 152.992 237.455C156.096 241.713 161.177 247.392 163.577 250.231C165.976 253.07 170.916 262.62 172.468 264.814C173.88 267.008 185.17 276.557 188.84 280.816C192.368 285.204 193.215 290.882 195.897 296.431C198.578 302.11 198.437 309.465 198.719 312.176C199.002 314.886 198.861 335.792 198.578 341.341C198.437 343.793 198.578 353.214 198.719 363.28H207.47C206.905 352.182 206.2 340.567 206.059 338.115C205.776 333.598 204.506 311.014 204.788 308.562C205.071 306.11 211.845 279.655 213.256 274.622C214.668 269.589 223.983 254.231 227.652 250.102C231.463 245.972 249.952 218.097 253.904 208.418C257.714 198.739 266.041 171.638 267.594 165.186C269.287 158.733 274.086 139.505 273.945 129.439C273.804 119.502 272.392 102.467 269.005 90.0778C265.618 77.6889 261.807 67.1067 262.231 62.848C262.513 60.2669 262.936 58.5893 263.219 57.8149C261.807 61.5574 255.033 79.4956 252.351 89.8197C249.246 101.434 245.435 115.63 239.225 128.922C233.015 142.215 232.169 147.377 230.616 152.926C229.064 158.475 230.334 168.67 224.688 181.446C219.043 194.222 217.914 202.482 217.067 206.74C216.22 210.999 211.139 224.679 210.151 229.841C209.164 235.003 207.893 239.132 208.317 246.101C208.74 253.07 210.857 257.845 209.446 266.491C208.034 275.009 208.599 280.816 206.341 284.042C204.224 287.14 203.518 293.076 203.518 293.721C204.083 290.366 200.978 285.333 199.425 281.719C197.873 277.977 197.308 272.041 196.885 268.427C196.32 264.814 197.026 260.039 198.437 256.425C199.849 252.812 203.377 246.488 205.494 241.455C207.47 236.422 208.176 224.033 208.176 215C208.176 205.966 204.647 196.029 202.954 191.125C201.26 186.221 194.344 172.413 190.816 165.702C187.287 158.991 180.795 150.087 178.255 146.731C175.573 143.376 170.633 139.117 167.952 136.924C165.129 134.73 157.508 130.471 153.274 128.019C149.181 125.567 144.241 118.34 142.547 115.759C140.854 113.178 135.208 108.145 132.103 105.564C128.998 102.983 128.434 97.4338 128.434 97.4338C128.434 97.4338 128.434 97.4338 125.188 101.176C121.942 104.919 121.095 109.694 117.143 116.404C113.191 123.115 114.461 139.892 114.744 145.312C115.167 151.119 116.155 161.831 117.425 166.864Z" fill="#84A820"/>
<path d="M142.689 116.017C140.995 113.436 135.35 108.403 132.245 105.822C129.987 104.016 128.999 100.66 128.717 98.8535C126.741 112.404 131.257 125.567 137.467 137.827C143.112 148.926 150.169 159.25 156.238 170.09C163.577 183.253 169.364 197.836 171.904 212.548C173.316 220.42 174.021 228.292 177.126 235.777C180.372 243.52 184.748 250.747 188.699 258.103C190.675 261.846 192.933 265.588 194.627 269.589C196.038 272.686 197.309 275.912 198.579 279.01C198.72 279.268 198.861 279.655 199.002 279.913C198.014 276.299 197.591 271.654 197.167 268.685C196.603 265.072 197.309 260.297 198.72 256.684C200.131 253.07 203.66 246.747 205.777 241.714C207.753 236.681 208.458 224.292 208.458 215.258C208.458 206.224 204.93 196.287 203.236 191.384C201.543 186.48 194.627 172.671 191.099 165.96C187.57 159.25 181.078 150.345 178.538 146.99C175.856 143.634 170.916 139.376 168.235 137.182C165.412 134.988 157.791 130.729 153.557 128.277C149.322 125.825 144.383 118.598 142.689 116.017Z" fill="#1C4222"/>
<path d="M201.26 308.304C201.966 304.949 202.389 301.464 202.671 297.98C202.389 297.851 202.248 297.722 202.248 297.335C202.53 289.85 198.719 282.623 195.756 275.783C194.062 271.911 192.509 267.911 190.534 264.168C188.275 259.91 186.017 255.651 183.618 251.521C179.525 244.165 175.432 236.809 173.456 228.679C171.621 220.807 171.057 212.806 168.94 204.934C165.129 190.609 159.06 176.929 151.298 164.024C139.442 144.15 123.494 121.824 127.728 98.208C127.305 98.7242 126.458 99.6276 125.188 101.176C121.942 104.919 121.095 109.694 117.143 116.404C113.191 123.115 114.461 139.892 114.744 145.312C115.026 150.861 116.014 161.701 117.425 166.605C118.837 171.509 135.208 202.869 140.43 213.322C145.794 223.775 149.887 232.938 152.992 237.197C156.096 241.455 161.177 247.134 163.577 249.973C165.976 252.812 170.916 262.362 172.468 264.555C173.88 266.749 185.17 276.299 188.84 280.558C192.368 284.946 193.215 290.624 195.897 296.173C198.578 301.851 198.437 309.207 198.719 311.917C198.719 312.563 198.861 314.498 198.861 316.95C199.849 314.369 200.554 311.401 201.26 308.304Z" fill="#798533"/>
<path d="M202.53 288.043C202.107 287.01 201.684 286.107 201.119 285.075C201.684 286.494 202.107 288.043 202.53 289.462C202.53 289.075 202.53 288.559 202.53 288.043Z" fill="#798533"/>
<path d="M252.633 90.2067C249.528 101.821 245.718 116.017 239.508 129.309C233.298 142.602 232.451 147.764 230.898 153.313C229.346 158.862 230.616 169.057 224.971 181.833C219.325 194.609 218.196 202.869 217.349 207.127C216.503 211.386 211.422 225.066 210.434 230.228C209.446 235.39 208.176 239.519 208.599 246.488C209.022 253.457 211.139 258.232 209.728 266.878C208.317 275.396 208.881 281.203 206.623 284.429C204.506 287.527 203.8 293.334 203.8 294.108C203.941 293.076 203.8 291.914 203.377 290.624C203.377 294.624 203.518 298.625 203.8 302.626C203.941 305.723 204.365 308.949 204.224 312.175C204.506 311.401 204.647 310.498 204.788 309.724C204.788 309.336 204.788 308.949 204.788 308.691C205.071 306.239 211.845 279.784 213.256 274.751C214.668 269.718 223.983 254.36 227.652 250.231C231.463 246.101 249.952 218.226 253.904 208.547C257.714 198.868 266.041 171.767 267.594 165.315C269.287 158.862 274.086 139.634 273.945 129.567C273.804 119.631 272.392 102.596 269.005 90.2067C265.618 77.8178 261.807 67.2356 262.231 62.9769C262.513 60.3958 262.936 58.7182 263.219 57.9438C262.089 61.8154 255.315 79.7536 252.633 90.2067Z" fill="#798533"/>
<path d="M212.833 262.62C213.962 258.361 214.527 254.102 215.656 249.843C216.926 245.456 218.337 241.068 220.031 236.68C222.712 229.195 225.676 221.839 228.922 214.612C232.027 207.514 235.415 200.417 237.814 193.061C243.036 177.833 244.165 161.83 248.258 146.473C250.375 138.73 253.339 131.374 254.891 123.502C256.303 116.662 257.008 109.822 257.291 102.854C257.573 95.2396 257.15 87.4965 258.42 80.0115C258.984 76.6562 259.69 73.3008 260.819 70.0745C261.384 68.5259 262.089 66.9773 262.654 65.2996C262.513 64.3963 262.513 63.751 262.654 63.1058C262.936 60.5247 263.36 58.8471 263.642 58.0728C262.23 61.8152 255.456 79.7534 252.774 90.0775C249.669 101.692 245.859 115.888 239.649 129.18C233.439 142.472 232.592 147.635 231.039 153.184C229.487 158.733 230.757 168.928 225.112 181.704C219.466 194.48 218.337 202.74 217.49 206.998C216.644 211.257 211.563 224.936 210.575 230.099C209.587 235.261 208.317 239.39 208.74 246.359C209.163 253.328 211.28 258.103 209.869 266.749C209.305 270.104 209.022 272.944 208.74 275.396C210.151 271.266 211.704 267.007 212.833 262.62Z" fill="#1C4222"/>
<path d="M207.611 363.28C207.047 352.182 206.341 340.567 206.2 338.115C205.918 334.631 205.071 319.919 204.93 312.563C204.224 314.886 203.095 316.951 200.837 316.822C200.131 316.822 199.566 316.435 199.002 315.918C199.143 322.887 199.002 336.825 198.72 341.212C198.578 343.664 198.72 353.085 198.861 363.151H207.611V363.28Z" fill="#1C4222"/>
<path d="M238.661 348.053C233.58 349.086 218.478 349.86 200.695 349.86C182.065 349.86 166.399 348.957 162.165 347.924C155.108 356.829 165.411 371.154 165.411 383.413C165.411 403.416 162.165 417.612 178.254 426.13C180.936 427.549 183.618 428.711 186.581 429.614C216.785 414.257 231.039 379.671 238.661 348.053Z" fill="#D18629"/>
<path d="M239.366 347.923C239.225 347.923 238.942 348.052 238.801 348.052C231.18 379.67 216.925 414.256 186.581 429.613C187.004 429.742 187.287 429.871 187.71 430H200.836H213.961C217.208 429.097 220.454 427.806 223.417 426.258C239.648 417.74 236.261 403.545 236.261 383.542C236.12 371.153 246.281 356.699 239.366 347.923Z" fill="#BF7824"/>
<defs>
<linearGradient id="paint0_linear_1345_203" x1="200.111" y1="209.426" x2="213.664" y2="424.29" gradientUnits="userSpaceOnUse">
<stop stop-color="#84A820"/>
<stop offset="0.6237" stop-color="#BE997E"/>
<stop offset="1" stop-color="white"/>
</linearGradient>
<linearGradient id="paint1_linear_1345_203" x1="90.9617" y1="216.31" x2="104.515" y2="431.176" gradientUnits="userSpaceOnUse">
<stop stop-color="#84A820"/>
<stop offset="0.6237" stop-color="#BE997E"/>
<stop offset="1" stop-color="white"/>
</linearGradient>
<linearGradient id="paint2_linear_1345_203" x1="181.063" y1="210.621" x2="194.617" y2="425.493" gradientUnits="userSpaceOnUse">
<stop stop-color="#84A820"/>
<stop offset="0.6237" stop-color="#BE997E"/>
<stop offset="1" stop-color="white"/>
</linearGradient>
<linearGradient id="paint3_linear_1345_203" x1="173.668" y1="211.055" x2="187.226" y2="425.977" gradientUnits="userSpaceOnUse">
<stop stop-color="#84A820"/>
<stop offset="0.6237" stop-color="#BE997E"/>
<stop offset="1" stop-color="white"/>
</linearGradient>
<linearGradient id="paint4_linear_1345_203" x1="179.88" y1="210.72" x2="193.432" y2="425.558" gradientUnits="userSpaceOnUse">
<stop stop-color="#84A820"/>
<stop offset="0.6237" stop-color="#BE997E"/>
<stop offset="1" stop-color="white"/>
</linearGradient>
<linearGradient id="paint5_linear_1345_203" x1="213.133" y1="363.874" x2="234.085" y2="380.609" gradientUnits="userSpaceOnUse">
<stop stop-color="#BE997E"/>
<stop offset="1" stop-color="white"/>
</linearGradient>
<linearGradient id="paint6_linear_1345_203" x1="308.077" y1="251.785" x2="270.943" y2="428.262" gradientUnits="userSpaceOnUse">
<stop stop-color="#84A820"/>
<stop offset="0.6237" stop-color="#BE997E"/>
<stop offset="1" stop-color="white"/>
</linearGradient>
</defs>
</svg>
