<svg width="222" height="102" viewBox="0 0 222 102" fill="none" xmlns="http://www.w3.org/2000/svg">
<g opacity="0.95">
<g opacity="0.95">
<path opacity="0.95" d="M208.879 1L22.0939 22.3C21.7931 32.6 13.0705 42 2.44287 43.5L1.23975 85.8C11.8674 84 20.0887 91 19.8882 101.4L207.375 67C207.576 58.3 213.591 50.3 220.71 49.1L221.512 15C214.393 15.9 208.679 9.7 208.879 1Z" fill="url(#paint0_linear)" stroke="black" stroke-width="0.6242" stroke-miterlimit="10"/>
<path opacity="0.95" d="M205.57 6L25.8034 27.4C25.6029 36.3 17.0807 45.6 8.05729 46.8L7.05469 80.9C16.1784 79.4 24.1992 86.3 23.8984 95.2L204.367 63C204.568 55.6 210.784 47.6 217 46.6L217.602 18.7C211.385 19.6 205.47 13.5 205.57 6Z" fill="url(#paint1_linear)" stroke="black" stroke-width="0.6242" stroke-miterlimit="10"/>
</g>
<g opacity="0.95">
<path opacity="0.95" d="M87.7645 70.7998L84.0549 71.2998C80.5457 71.7998 77.5379 71.0998 75.0314 69.2998C72.6252 67.2998 70.2189 65.1998 67.8127 63.1998C64.103 60.5998 59.2905 58.8998 53.4754 58.0998C52.4728 59.1998 51.1694 60.6998 49.5653 62.4998C47.8608 64.2998 45.9559 66.1998 43.6499 68.1998C41.3439 70.1998 39.439 71.2998 38.0353 71.4998C37.3335 71.5998 36.8322 71.4998 36.5314 71.2998C36.2306 71.0998 36.1304 70.6998 36.1304 70.1998C36.1304 69.6998 37.7345 68.4998 40.8426 66.5998C43.9507 64.6998 47.5601 61.6998 51.6707 57.7998C50.0666 57.6998 48.5627 57.6998 47.159 57.7998C45.6551 57.9998 44.452 58.1998 43.6499 58.4998C42.8478 58.7998 41.8452 59.2998 40.5418 59.9998C41.5444 59.0998 42.7476 58.3998 44.1512 57.8998C45.4546 57.3998 46.9585 57.0998 48.4624 56.8998C49.8661 56.6998 51.2697 56.6998 52.5731 56.7998C55.7814 53.0998 58.4885 49.1998 60.7944 45.2998C63.1004 41.3998 64.7046 37.8998 65.6069 34.7998C66.8101 39.0998 68.2137 43.7998 69.8179 48.8998C71.422 53.9998 73.6278 58.6998 76.6356 62.8998C79.6434 66.9998 83.353 69.6998 87.7645 70.7998ZM62.6994 44.3998C61.6968 46.4998 60.4937 48.5998 59.09 50.5998C57.6864 52.5998 56.1825 54.6998 54.3778 56.8998C57.0848 57.0998 59.5913 57.4998 61.8973 57.9998C64.2033 58.4998 66.1082 59.1998 67.7124 59.9998C66.9103 58.7998 66.1082 56.6998 65.1056 53.6998C64.103 50.7998 63.3009 47.6998 62.6994 44.3998Z" fill="black"/>
<path opacity="0.95" d="M82.8516 50.3998C84.4557 47.8998 85.9596 45.9998 87.4635 44.6998C88.8672 43.3998 90.1706 42.6998 91.1732 42.5998C92.3763 42.4998 93.0781 42.6998 93.4792 43.1998C93.8802 43.6998 94.0807 44.6998 94.0807 46.0998L94.181 51.1998C94.181 54.0998 93.3789 56.3998 91.5742 58.2998C89.7695 60.1998 87.5638 61.1998 84.957 61.5998C82.9518 61.7998 81.3477 61.4998 80.1445 60.4998C78.9414 59.4998 78.2396 57.5998 78.2396 54.7998L78.0391 41.0998C78.0391 38.9998 78.6406 37.1998 79.8437 35.6998C81.0469 34.1998 82.7513 33.2998 84.8568 33.1998L89.2682 32.7998C88.2656 34.4998 86.9622 35.4998 85.2578 35.6998C83.5534 35.8998 82.7513 36.2998 82.7513 36.6998L82.8516 50.3998ZM82.9518 56.1998C82.9518 58.6998 84.0547 59.7998 86.1602 59.5998C87.0625 59.4998 87.8646 58.9998 88.4661 58.1998C89.168 57.2998 89.4687 55.9998 89.4687 54.1998L89.3685 48.7998C89.3685 48.1998 89.2682 47.7998 89.168 47.4998C89.0677 47.1998 88.6667 47.0998 87.9648 47.0998C86.862 47.1998 85.7591 47.9998 84.6562 49.4998C83.4531 50.9998 82.9518 51.9998 82.9518 52.5998V56.1998Z" fill="black"/>
<path opacity="0.95" d="M106.413 40.8998C108.919 40.6998 110.924 41.2998 112.328 42.6998C113.732 44.1998 114.534 46.0998 114.534 48.3998C114.534 50.8998 113.632 53.1998 111.526 55.3998C109.521 57.5998 107.115 58.7998 104.608 59.0998C102.102 59.3998 100.197 58.7998 98.6927 57.2998C97.1888 55.7998 96.3867 53.7998 96.3867 51.2998C96.3867 48.7998 97.3893 46.4998 99.3945 44.2998C101.4 42.3998 103.706 41.1998 106.413 40.8998ZM100.397 48.5998C100.397 50.8998 100.798 52.8998 101.5 54.6998C102.202 56.4998 103.706 57.2998 106.012 56.9998C107.315 56.7998 108.418 56.1998 109.22 55.0998C110.022 53.9998 110.423 52.6998 110.423 51.1998C110.423 48.9998 109.922 46.9998 109.12 45.2998C108.217 43.4998 106.814 42.7998 104.809 42.9998C103.405 43.0998 102.402 43.6998 101.6 44.7998C100.798 45.7998 100.397 47.0998 100.397 48.5998Z" fill="black"/>
<path opacity="0.95" d="M120.048 39.5999C121.051 39.4999 121.652 39.7999 121.853 40.3999C122.053 40.9999 122.254 41.6999 122.354 42.3999L122.454 49.8999V50.9999C122.454 51.7999 122.555 52.4999 122.855 52.8999C123.056 53.2999 123.557 53.4999 124.359 53.3999C125.061 53.2999 125.964 52.6999 127.066 51.5999C128.169 50.4999 128.671 49.4999 128.671 48.6999L128.57 41.7999C128.57 40.9999 128.971 40.1999 129.673 39.5999C130.475 38.8999 131.378 38.4999 132.48 38.3999L132.681 52.4999C132.781 52.5999 132.882 52.6999 132.982 52.7999C133.082 52.8999 133.383 52.8999 133.684 52.8999C134.085 52.8999 134.586 52.6999 135.087 52.2999C135.689 51.9999 136.29 51.3999 137.092 50.5999C136.491 51.5999 135.589 52.6999 134.385 53.9999C133.182 55.2999 132.079 55.9999 130.977 56.0999C130.174 56.1999 129.573 56.0999 129.272 55.6999C128.971 55.2999 128.771 54.6999 128.771 53.7999V52.0999C127.467 53.5999 126.164 54.7999 125.061 55.6999C123.958 56.5999 122.755 57.1999 121.452 57.2999C120.349 57.3999 119.647 57.0999 119.146 56.1999C118.745 55.2999 118.444 54.1999 118.444 52.8999L118.344 43.4999C118.344 42.9999 118.243 42.5999 118.143 42.3999C118.043 42.1999 117.742 42.0999 117.341 42.0999C116.84 42.0999 116.238 42.4999 115.336 42.9999C116.038 41.8999 116.74 41.0999 117.542 40.5999C118.243 39.9999 119.146 39.5999 120.048 39.5999Z" fill="black"/>
<path opacity="0.95" d="M143.409 37.4999L146.818 37.1999C146.517 37.9999 146.016 38.4999 145.314 38.6999C144.712 38.8999 144.01 39.0999 143.409 39.1999L143.609 50.9999C143.609 51.5999 143.91 51.7999 144.311 51.7999C144.712 51.7999 145.214 51.4999 145.815 51.0999C146.417 50.6999 147.119 50.0999 147.921 49.2999C147.219 50.7999 146.316 51.9999 145.214 52.9999C144.211 53.9999 143.108 54.5999 142.005 54.6999C141.203 54.7999 140.602 54.5999 140.201 53.9999C139.9 53.3999 139.699 52.2999 139.699 50.5999L139.499 39.5999L136.992 39.7999C137.092 39.1999 137.794 38.3999 139.198 37.5999C140.602 36.6999 141.905 34.6999 143.208 31.3999L143.409 37.4999Z" fill="black"/>
<path opacity="0.95" d="M162.258 35.5C163.16 35.4 163.661 35.7 163.862 36.3C164.063 36.9 164.263 37.5 164.263 38.2L164.363 45.3V46.3C164.363 47.1 164.464 47.7 164.664 48.1C164.865 48.5 165.366 48.6 166.068 48.6C166.77 48.5 167.471 48 168.474 46.9C169.376 45.8 169.878 44.9 169.878 44.2L169.777 37.7C169.777 36.9 170.078 36.2 170.78 35.6C171.482 35 172.284 34.6 173.286 34.5L173.487 47.8C173.587 47.9 173.687 48 173.788 48.1C173.888 48.2 174.089 48.2 174.389 48.2C174.79 48.2 175.191 48 175.693 47.7C176.194 47.4 176.796 46.9 177.497 46.1C176.996 47 176.194 48.1 175.091 49.3C173.988 50.5 172.986 51.1 171.983 51.2C171.281 51.3 170.78 51.1 170.479 50.8C170.178 50.4 169.978 49.8 169.978 49V47.4C168.775 48.8 167.672 49.9 166.669 50.8C165.667 51.7 164.564 52.2 163.461 52.3C162.559 52.4 161.857 52.1 161.456 51.3C161.055 50.5 160.854 49.5 160.854 48.2L160.754 39.4C160.754 38.9 160.654 38.6 160.553 38.4C160.453 38.2 160.253 38.1 159.852 38.1C159.451 38.1 158.849 38.4 158.047 39C158.648 38 159.35 37.2 160.052 36.7C160.754 35.8 161.556 35.5 162.258 35.5Z" fill="black"/>
<path opacity="0.95" d="M189.027 32.7998C188.626 33.4998 188.326 34.1998 188.125 34.8998C187.924 35.5998 187.824 36.1998 187.624 36.7998C186.822 35.9998 186.12 35.3998 185.418 35.1998C184.716 34.8998 183.914 34.7998 183.012 34.8998C182.109 34.9998 181.408 35.1998 181.107 35.5998C180.706 35.9998 180.605 36.3998 180.605 36.9998C180.605 37.5998 181.608 38.1998 183.413 38.7998C185.318 39.3998 186.721 39.9998 187.824 40.5998C188.927 41.1998 189.428 42.3998 189.428 44.0998C189.428 46.0998 188.827 47.3998 187.724 48.1998C186.521 48.9998 185.017 49.4998 183.112 49.6998C181.207 49.8998 180.004 49.6998 179.402 49.0998C178.901 48.4998 178.6 46.7998 178.5 43.9998C179.001 45.1998 179.803 46.2998 180.906 47.1998C182.009 48.0998 183.312 48.4998 184.816 48.2998C186.521 48.0998 187.323 47.1998 187.323 45.6998C187.323 44.9998 186.421 44.2998 184.616 43.6998C182.811 43.0998 181.307 42.4998 180.305 41.7998C179.302 41.0998 178.701 39.8998 178.701 38.0998C178.701 36.4998 179.102 35.3998 180.104 34.6998C181.107 33.9998 182.41 33.5998 184.014 33.3998C184.415 33.3998 185.017 33.3998 185.719 33.4998C186.421 33.5998 186.922 33.5998 187.022 33.5998C187.423 33.5998 187.724 33.4998 188.025 33.3998C188.225 33.1998 188.526 33.0998 189.027 32.7998Z" fill="black"/>
</g>
</g>
<defs>
<linearGradient id="paint0_linear" x1="52.9959" y1="-8.4863" x2="167.785" y2="106.601" gradientUnits="userSpaceOnUse">
<stop stop-color="#EAC459"/>
<stop offset="0.01" stop-color="#EAC459"/>
<stop offset="0.25" stop-color="#EAC459"/>
<stop offset="0.67" stop-color="#FCF16B"/>
<stop offset="1" stop-color="#DABB3B"/>
</linearGradient>
<linearGradient id="paint1_linear" x1="43.1742" y1="116.973" x2="179.655" y2="-19.8632" gradientUnits="userSpaceOnUse">
<stop stop-color="#EAC459"/>
<stop offset="0.01" stop-color="#EAC459"/>
<stop offset="0.25" stop-color="#EAC459"/>
<stop offset="0.67" stop-color="#FCF16B"/>
<stop offset="1" stop-color="#DABB3B"/>
</linearGradient>
</defs>
</svg>
