<svg width="391" height="107" viewBox="0 0 391 107" fill="none" xmlns="http://www.w3.org/2000/svg">
<path d="M49.8262 0.5H338.174C338.426 14.4011 349.181 25.5782 362.5 25.8517V81.0583C349.181 81.3334 338.427 92.5746 338.174 106.41H49.8262C49.5726 92.5746 38.8194 81.3334 25.5 81.0583V25.8517C38.8194 25.5766 49.5726 14.3354 49.8262 0.5Z" fill="url(#paint0_linear_1530_159)" stroke="black"/>
<path d="M54.8885 8.03857H332.389C332.541 14.0108 335.399 19.722 339.63 23.9707C343.857 28.2146 349.495 31.0405 355.267 31.1957V75.7829C349.496 75.9372 343.858 78.7459 339.631 82.9818C335.398 87.2234 332.54 92.9357 332.389 98.94H54.8885C54.7461 92.9449 52.0556 87.2342 47.9821 82.9888C43.9135 78.7486 38.4327 75.9374 32.668 75.7829V31.1957C38.4327 31.0413 43.9135 28.23 47.9821 23.9898C52.0556 19.7444 54.7461 14.0338 54.8885 8.03857Z" fill="url(#paint1_linear_1530_159)" stroke="black"/>
<path d="M150.685 76.088H147.037C143.613 76.088 140.717 74.888 138.349 72.488C136.077 69.864 133.821 67.256 131.581 64.664C128.125 61.272 123.757 58.792 118.477 57.224C117.581 58.312 116.381 59.752 114.877 61.544C113.373 63.304 111.597 65.096 109.549 66.92C107.501 68.776 105.853 69.704 104.605 69.704C103.997 69.704 103.565 69.576 103.309 69.32C103.085 69.096 102.973 68.68 102.973 68.072C102.973 67.592 104.349 66.52 107.101 64.856C109.885 63.16 113.149 60.44 116.893 56.696C115.453 56.344 114.093 56.168 112.813 56.168C111.469 56.168 110.429 56.296 109.693 56.552C108.989 56.776 108.077 57.176 106.957 57.752C107.885 56.888 108.941 56.264 110.125 55.88C111.341 55.496 112.621 55.304 113.965 55.304C115.213 55.304 116.445 55.432 117.661 55.688C120.605 52.008 123.165 48.136 125.341 44.072C127.517 40.008 129.069 36.312 129.997 32.984C131.053 37.848 132.285 43.208 133.693 49.064C135.101 54.888 137.197 60.36 139.981 65.48C142.765 70.632 146.333 74.168 150.685 76.088ZM127.117 43.4C126.125 45.576 124.973 47.704 123.661 49.784C122.381 51.832 120.925 53.928 119.293 56.072C121.757 56.68 124.045 57.416 126.157 58.28C128.301 59.112 130.109 60.12 131.581 61.304C130.877 59.864 130.093 57.432 129.229 54.008C128.365 50.584 127.661 47.048 127.117 43.4ZM146.133 52.328C147.733 49.672 149.253 47.704 150.693 46.424C152.133 45.112 153.365 44.456 154.389 44.456C155.541 44.456 156.293 44.776 156.645 45.416C157.029 46.024 157.221 47.16 157.221 48.824V54.68C157.221 57.976 156.309 60.568 154.485 62.456C152.693 64.312 150.501 65.24 147.909 65.24C145.989 65.24 144.437 64.6 143.253 63.32C142.101 62.04 141.525 59.816 141.525 56.648V41.288C141.525 38.952 142.133 36.984 143.349 35.384C144.597 33.784 146.229 32.984 148.245 32.984H152.565C151.541 34.84 150.213 35.832 148.581 35.96C146.949 36.056 146.133 36.344 146.133 36.824V52.328ZM146.133 58.952C146.133 61.768 147.157 63.176 149.205 63.176C150.069 63.176 150.837 62.744 151.509 61.88C152.213 60.984 152.565 59.496 152.565 57.416V51.272C152.565 50.6 152.501 50.088 152.373 49.736C152.245 49.352 151.845 49.16 151.173 49.16C150.117 49.16 149.013 49.944 147.861 51.512C146.709 53.08 146.133 54.184 146.133 54.824V58.952ZM169.946 44.216C172.57 44.216 174.618 45.16 176.09 47.048C177.594 48.936 178.346 51.272 178.346 54.056C178.346 57 177.258 59.608 175.082 61.88C172.906 64.152 170.474 65.288 167.786 65.288C165.258 65.288 163.242 64.344 161.738 62.456C160.234 60.536 159.482 58.136 159.482 55.256C159.482 52.376 160.538 49.816 162.65 47.576C164.762 45.336 167.194 44.216 169.946 44.216ZM163.706 52.424C163.706 55.048 164.042 57.464 164.714 59.672C165.418 61.88 166.97 62.984 169.37 62.984C170.746 62.984 171.866 62.408 172.73 61.256C173.594 60.104 174.026 58.632 174.026 56.84C174.026 54.248 173.594 51.88 172.73 49.736C171.866 47.56 170.394 46.472 168.314 46.472C166.906 46.472 165.786 47.032 164.954 48.152C164.122 49.272 163.706 50.696 163.706 52.424ZM184.356 44.168C185.412 44.168 186.068 44.568 186.324 45.368C186.58 46.168 186.74 46.984 186.804 47.816V56.84V58.136C186.804 59.128 186.916 59.896 187.14 60.44C187.396 60.952 187.956 61.208 188.82 61.208C189.62 61.208 190.612 60.6 191.796 59.384C192.98 58.136 193.572 57.032 193.572 56.072V47.816C193.572 46.824 193.988 45.976 194.82 45.272C195.684 44.536 196.74 44.168 197.988 44.168V61.256C198.084 61.384 198.196 61.512 198.324 61.64C198.484 61.768 198.74 61.832 199.092 61.832C199.54 61.832 200.068 61.672 200.676 61.352C201.316 61 202.084 60.392 202.98 59.528C202.276 60.648 201.236 61.896 199.86 63.272C198.516 64.616 197.236 65.288 196.02 65.288C195.124 65.288 194.484 65.032 194.1 64.52C193.748 63.976 193.572 63.192 193.572 62.168V60.056C192.068 61.656 190.692 62.936 189.444 63.896C188.196 64.824 186.884 65.288 185.508 65.288C184.356 65.288 183.54 64.744 183.06 63.656C182.612 62.568 182.388 61.24 182.388 59.672V48.536C182.388 47.928 182.324 47.48 182.196 47.192C182.068 46.904 181.796 46.76 181.38 46.76C180.868 46.76 180.148 47.048 179.22 47.624C179.956 46.44 180.756 45.576 181.62 45.032C182.484 44.456 183.396 44.168 184.356 44.168ZM210.335 44.408H214.271C213.855 45.336 213.263 45.912 212.495 46.136C211.759 46.328 211.039 46.44 210.335 46.472V61.016C210.335 61.72 210.607 62.072 211.151 62.072C211.599 62.072 212.159 61.864 212.831 61.448C213.535 61 214.367 60.328 215.327 59.432C214.431 61.128 213.375 62.536 212.159 63.656C210.943 64.744 209.711 65.288 208.463 65.288C207.503 65.288 206.831 64.904 206.447 64.136C206.095 63.336 205.919 61.928 205.919 59.912V46.472H203.087C203.183 45.736 204.031 44.92 205.631 44.024C207.263 43.096 208.831 40.712 210.335 36.872V44.408ZM245.213 33.752H256.445C252.605 37.784 249.837 41.48 248.141 44.84C246.477 48.2 245.645 51.752 245.645 55.496C245.645 60.36 246.477 63.448 248.141 64.76C249.805 66.04 252.205 66.68 255.341 66.68C257.293 66.68 259.133 66.04 260.861 64.76C262.621 63.48 263.501 61.992 263.501 60.296V36.584C263.501 35.688 263.309 35.08 262.925 34.76C262.541 34.408 261.917 34.072 261.053 33.752H270.317C271.181 33.752 271.997 33.992 272.765 34.472C273.533 34.952 274.141 35.576 274.589 36.344C274.109 36.056 273.597 35.752 273.053 35.432C272.541 35.112 272.029 34.952 271.517 34.952C271.165 34.952 270.733 35.144 270.221 35.528C269.741 35.88 269.501 36.504 269.501 37.4V61.88C269.501 62.904 269.885 63.912 270.653 64.904C271.421 65.896 272.589 66.68 274.157 67.256H263.501V64.808C262.317 66.472 260.653 68.072 258.509 69.608C256.365 71.176 253.949 71.96 251.261 71.96C246.877 71.96 243.789 70.664 241.997 68.072C240.237 65.48 239.357 61.944 239.357 57.464C239.357 53.848 240.029 50.6 241.373 47.72C242.717 44.84 244.285 42.408 246.077 40.424C247.901 38.408 249.757 36.664 251.645 35.192H243.197C239.165 35.192 236.141 36.2 234.125 38.216C232.141 40.2 231.149 42.744 231.149 45.848C231.149 47.96 231.581 49.928 232.445 51.752C233.341 53.544 234.717 54.92 236.573 55.88C234.077 55.592 232.077 54.536 230.573 52.712C229.069 50.856 228.317 48.696 228.317 46.232C228.317 43.256 229.629 40.44 232.253 37.784C234.877 35.096 239.197 33.752 245.213 33.752ZM287.015 44.072C286.471 44.936 286.071 45.8 285.815 46.664C285.559 47.528 285.335 48.312 285.143 49.016C284.119 47.896 283.159 47.112 282.263 46.664C281.367 46.216 280.327 45.992 279.143 45.992C277.959 45.992 277.127 46.2 276.647 46.616C276.167 47.032 275.927 47.592 275.927 48.296C275.927 49.096 277.127 50.008 279.527 51.032C281.927 52.024 283.815 53.016 285.191 54.008C286.599 55 287.303 56.584 287.303 58.76C287.303 61.32 286.503 63.016 284.903 63.848C283.335 64.68 281.335 65.096 278.903 65.096C276.439 65.096 274.871 64.648 274.199 63.752C273.527 62.824 273.191 60.584 273.191 57.032C273.799 58.696 274.791 60.2 276.167 61.544C277.543 62.888 279.191 63.56 281.111 63.56C283.319 63.56 284.423 62.568 284.423 60.584C284.423 59.624 283.255 58.616 280.919 57.56C278.583 56.504 276.759 55.48 275.447 54.488C274.135 53.496 273.479 51.832 273.479 49.496C273.479 47.48 274.103 46.088 275.351 45.32C276.599 44.552 278.263 44.168 280.343 44.168C280.887 44.168 281.639 44.264 282.599 44.456C283.559 44.648 284.119 44.744 284.279 44.744C284.791 44.744 285.223 44.712 285.575 44.648C285.927 44.552 286.407 44.36 287.015 44.072Z" fill="black"/>
<defs>
<linearGradient id="paint0_linear_1530_159" x1="96.0195" y1="-48.6577" x2="300.071" y2="147.136" gradientUnits="userSpaceOnUse">
<stop stop-color="#EAC459"/>
<stop offset="0.00819684" stop-color="#EAC459"/>
<stop offset="0.2464" stop-color="#EAC459"/>
<stop offset="0.373" stop-color="#C8972C"/>
<stop offset="0.8876" stop-color="#FCF16B"/>
<stop offset="1" stop-color="#DABB3B"/>
</linearGradient>
<linearGradient id="paint1_linear_1530_159" x1="102.135" y1="149.194" x2="293.382" y2="-34.3134" gradientUnits="userSpaceOnUse">
<stop stop-color="#EAC459"/>
<stop offset="0.00819684" stop-color="#EAC459"/>
<stop offset="0.2464" stop-color="#EAC459"/>
<stop offset="0.373" stop-color="#C8972C"/>
<stop offset="0.8876" stop-color="#FCF16B"/>
<stop offset="1" stop-color="#DABB3B"/>
</linearGradient>
</defs>
</svg>
