<svg width="391" height="107" viewBox="0 0 391 107" fill="none" xmlns="http://www.w3.org/2000/svg">
<path d="M46.8262 0.5H335.174C335.426 14.4011 346.181 25.5782 359.5 25.8517V81.0583C346.181 81.3334 335.427 92.5746 335.174 106.41H46.8262C46.5726 92.5746 35.8194 81.3334 22.5 81.0583V25.8517C35.8194 25.5766 46.5726 14.3354 46.8262 0.5Z" fill="url(#paint0_linear_1419_2295)" stroke="black"/>
<path d="M51.8885 8.03857H329.389C329.541 14.0108 332.399 19.722 336.63 23.9707C340.857 28.2146 346.495 31.0405 352.267 31.1957V75.7829C346.496 75.9372 340.858 78.7459 336.631 82.9818C332.398 87.2234 329.54 92.9357 329.389 98.94H51.8885C51.7461 92.9449 49.0556 87.2342 44.9821 82.9888C40.9135 78.7486 35.4327 75.9374 29.668 75.7829V31.1957C35.4327 31.0413 40.9135 28.23 44.9821 23.9898C49.0556 19.7444 51.7461 14.0338 51.8885 8.03857Z" fill="url(#paint1_linear_1419_2295)" stroke="black"/>
<path d="M105.339 33.8H117.243C117.499 34.984 118.155 36.536 119.211 38.456C120.299 40.376 120.971 41.768 121.227 42.632C118.955 40.872 116.683 39.096 114.411 37.304C111.595 35.8 108.651 35.048 105.579 35.048C101.035 35.048 97.9313 36.424 96.2673 39.176C94.6353 41.896 93.8193 45.464 93.8193 49.88C93.8193 54.808 95.0673 59.64 97.5633 64.376C100.059 69.08 103.659 71.432 108.363 71.432C112.203 71.432 115.035 70.696 116.859 69.224C118.683 67.752 120.187 65.864 121.371 63.56C121.371 66.536 120.395 68.84 118.443 70.472C116.491 72.104 112.843 72.92 107.499 72.92C101.867 72.92 97.1953 71.384 93.4833 68.312C89.7713 65.24 87.9153 60.632 87.9153 54.488C87.9153 48.12 89.6273 43.08 93.0513 39.368C96.4753 35.656 100.571 33.8 105.339 33.8ZM133.829 44.216C136.453 44.216 138.501 45.16 139.973 47.048C141.477 48.936 142.229 51.272 142.229 54.056C142.229 57 141.141 59.608 138.965 61.88C136.789 64.152 134.357 65.288 131.669 65.288C129.141 65.288 127.125 64.344 125.621 62.456C124.117 60.536 123.365 58.136 123.365 55.256C123.365 52.376 124.421 49.816 126.533 47.576C128.645 45.336 131.077 44.216 133.829 44.216ZM127.589 52.424C127.589 55.048 127.925 57.464 128.597 59.672C129.301 61.88 130.853 62.984 133.253 62.984C134.629 62.984 135.749 62.408 136.613 61.256C137.477 60.104 137.909 58.632 137.909 56.84C137.909 54.248 137.477 51.88 136.613 49.736C135.749 47.56 134.277 46.472 132.197 46.472C130.789 46.472 129.669 47.032 128.837 48.152C128.005 49.272 127.589 50.696 127.589 52.424ZM161.439 61.976C161.439 62.68 161.679 63.032 162.159 63.032C162.799 63.032 163.679 62.504 164.799 61.448C164.159 62.664 163.343 63.608 162.351 64.28C161.391 64.952 160.527 65.288 159.759 65.288C158.895 65.288 158.191 65.032 157.647 64.52C157.135 63.976 156.879 63.16 156.879 62.072L156.927 51.272C156.927 50.536 156.847 49.96 156.687 49.544C156.527 49.096 156.079 48.872 155.343 48.872C154.543 48.872 153.487 49.72 152.175 51.416C150.863 53.08 150.207 54.056 150.207 54.344V62.504C150.047 63.176 149.487 63.816 148.527 64.424C147.599 65 146.671 65.288 145.743 65.288V48.872C145.743 48.36 145.551 48.104 145.167 48.104C144.687 48.104 143.775 48.536 142.431 49.4C143.647 47.864 144.751 46.664 145.743 45.8C146.767 44.904 147.567 44.456 148.143 44.456C149.039 44.456 149.599 44.952 149.823 45.944C150.079 46.904 150.207 48.408 150.207 50.456V52.232C151.455 50.28 152.767 48.504 154.143 46.904C155.551 45.272 157.023 44.456 158.559 44.456C159.743 44.456 160.527 44.856 160.911 45.656C161.295 46.456 161.487 47.656 161.487 49.256C161.487 49.736 161.471 50.216 161.439 50.696C161.439 51.144 161.439 51.608 161.439 52.088C161.439 53.016 161.423 54.008 161.391 55.064C161.391 56.088 161.391 57.336 161.391 58.808C161.391 59.64 161.391 60.376 161.391 61.016C161.391 61.624 161.407 61.944 161.439 61.976ZM172.108 44.408H176.044C175.628 45.336 175.036 45.912 174.268 46.136C173.532 46.328 172.812 46.44 172.108 46.472V61.016C172.108 61.72 172.38 62.072 172.924 62.072C173.372 62.072 173.932 61.864 174.604 61.448C175.308 61 176.14 60.328 177.1 59.432C176.204 61.128 175.148 62.536 173.932 63.656C172.716 64.744 171.484 65.288 170.236 65.288C169.276 65.288 168.604 64.904 168.22 64.136C167.868 63.336 167.692 61.928 167.692 59.912V46.472H164.86C164.956 45.736 165.804 44.92 167.404 44.024C169.036 43.096 170.604 40.712 172.108 36.872V44.408ZM196.282 44.456V62.216C196.314 62.632 196.522 62.84 196.906 62.84C197.194 62.84 197.53 62.744 197.914 62.552C198.33 62.328 198.986 61.96 199.882 61.448C199.466 62.312 198.762 63.16 197.77 63.992C196.81 64.824 195.882 65.24 194.986 65.24C194.474 65.24 193.802 64.888 192.97 64.184C192.17 63.48 191.77 62.536 191.77 61.352V58.76C189.818 60.712 188.17 62.28 186.826 63.464C185.482 64.648 184.314 65.24 183.322 65.24C182.234 65.24 181.258 64.6 180.394 63.32C179.562 62.04 179.146 60.328 179.146 58.184C179.146 53.832 180.346 50.456 182.746 48.056C185.146 45.656 188.266 44.456 192.106 44.456H196.282ZM183.754 54.536C183.754 56.104 184.01 57.256 184.522 57.992C185.034 58.728 185.738 59.096 186.634 59.096C187.402 59.096 188.218 58.872 189.082 58.424C189.978 57.944 190.874 57.304 191.77 56.504V45.8C189.37 45.8 187.434 46.696 185.962 48.488C184.49 50.248 183.754 52.264 183.754 54.536ZM212.262 44.312C213.51 44.312 214.822 44.728 216.198 45.56C217.574 46.36 218.262 47.352 218.262 48.536C218.262 48.856 217.846 49.448 217.014 50.312C216.182 51.176 215.462 51.784 214.854 52.136C214.566 50.696 213.83 49.528 212.646 48.632C211.462 47.736 210.246 47.288 208.998 47.288C207.814 47.288 206.838 47.944 206.07 49.256C205.334 50.536 204.966 52.04 204.966 53.768C204.966 56.84 205.67 59.016 207.078 60.296C208.518 61.544 210.15 62.168 211.974 62.168C212.742 62.168 213.574 61.96 214.47 61.544C215.366 61.096 216.294 60.552 217.254 59.912C215.974 61.864 214.694 63.24 213.414 64.04C212.166 64.808 210.422 65.192 208.182 65.192C205.078 65.192 203.094 64.36 202.23 62.696C201.366 61.032 200.934 58.984 200.934 56.552C200.934 52.872 201.99 49.912 204.102 47.672C206.214 45.432 208.934 44.312 212.262 44.312ZM225.921 44.408H229.857C229.441 45.336 228.849 45.912 228.081 46.136C227.345 46.328 226.625 46.44 225.921 46.472V61.016C225.921 61.72 226.193 62.072 226.737 62.072C227.185 62.072 227.745 61.864 228.417 61.448C229.121 61 229.953 60.328 230.913 59.432C230.017 61.128 228.961 62.536 227.745 63.656C226.529 64.744 225.297 65.288 224.049 65.288C223.089 65.288 222.417 64.904 222.033 64.136C221.681 63.336 221.505 61.928 221.505 59.912V46.472H218.673C218.769 45.736 219.617 44.92 221.217 44.024C222.849 43.096 224.417 40.712 225.921 36.872V44.408ZM260.799 33.752H272.031C268.191 37.784 265.423 41.48 263.727 44.84C262.063 48.2 261.231 51.752 261.231 55.496C261.231 60.36 262.063 63.448 263.727 64.76C265.391 66.04 267.791 66.68 270.927 66.68C272.879 66.68 274.719 66.04 276.447 64.76C278.207 63.48 279.087 61.992 279.087 60.296V36.584C279.087 35.688 278.895 35.08 278.511 34.76C278.127 34.408 277.503 34.072 276.639 33.752H285.903C286.767 33.752 287.583 33.992 288.351 34.472C289.119 34.952 289.727 35.576 290.175 36.344C289.695 36.056 289.183 35.752 288.639 35.432C288.127 35.112 287.615 34.952 287.103 34.952C286.751 34.952 286.319 35.144 285.807 35.528C285.327 35.88 285.087 36.504 285.087 37.4V61.88C285.087 62.904 285.471 63.912 286.239 64.904C287.007 65.896 288.175 66.68 289.743 67.256H279.087V64.808C277.903 66.472 276.239 68.072 274.095 69.608C271.951 71.176 269.535 71.96 266.847 71.96C262.463 71.96 259.375 70.664 257.583 68.072C255.823 65.48 254.943 61.944 254.943 57.464C254.943 53.848 255.615 50.6 256.959 47.72C258.303 44.84 259.871 42.408 261.663 40.424C263.487 38.408 265.343 36.664 267.231 35.192H258.783C254.751 35.192 251.727 36.2 249.711 38.216C247.727 40.2 246.735 42.744 246.735 45.848C246.735 47.96 247.167 49.928 248.031 51.752C248.927 53.544 250.303 54.92 252.159 55.88C249.663 55.592 247.663 54.536 246.159 52.712C244.655 50.856 243.903 48.696 243.903 46.232C243.903 43.256 245.215 40.44 247.839 37.784C250.463 35.096 254.783 33.752 260.799 33.752ZM302.601 44.072C302.057 44.936 301.657 45.8 301.401 46.664C301.145 47.528 300.921 48.312 300.729 49.016C299.705 47.896 298.745 47.112 297.849 46.664C296.953 46.216 295.913 45.992 294.729 45.992C293.545 45.992 292.713 46.2 292.233 46.616C291.753 47.032 291.513 47.592 291.513 48.296C291.513 49.096 292.713 50.008 295.113 51.032C297.513 52.024 299.401 53.016 300.777 54.008C302.185 55 302.889 56.584 302.889 58.76C302.889 61.32 302.089 63.016 300.489 63.848C298.921 64.68 296.921 65.096 294.489 65.096C292.025 65.096 290.457 64.648 289.785 63.752C289.113 62.824 288.777 60.584 288.777 57.032C289.385 58.696 290.377 60.2 291.753 61.544C293.129 62.888 294.777 63.56 296.697 63.56C298.905 63.56 300.009 62.568 300.009 60.584C300.009 59.624 298.841 58.616 296.505 57.56C294.169 56.504 292.345 55.48 291.033 54.488C289.721 53.496 289.065 51.832 289.065 49.496C289.065 47.48 289.689 46.088 290.937 45.32C292.185 44.552 293.849 44.168 295.929 44.168C296.473 44.168 297.225 44.264 298.185 44.456C299.145 44.648 299.705 44.744 299.865 44.744C300.377 44.744 300.809 44.712 301.161 44.648C301.513 44.552 301.993 44.36 302.601 44.072Z" fill="black"/>
<defs>
<linearGradient id="paint0_linear_1419_2295" x1="93.0195" y1="-48.6577" x2="297.071" y2="147.136" gradientUnits="userSpaceOnUse">
<stop stop-color="#EAC459"/>
<stop offset="0.00819684" stop-color="#EAC459"/>
<stop offset="0.2464" stop-color="#EAC459"/>
<stop offset="0.373" stop-color="#C8972C"/>
<stop offset="0.8876" stop-color="#FCF16B"/>
<stop offset="1" stop-color="#DABB3B"/>
</linearGradient>
<linearGradient id="paint1_linear_1419_2295" x1="99.1353" y1="149.194" x2="290.382" y2="-34.3134" gradientUnits="userSpaceOnUse">
<stop stop-color="#EAC459"/>
<stop offset="0.00819684" stop-color="#EAC459"/>
<stop offset="0.2464" stop-color="#EAC459"/>
<stop offset="0.373" stop-color="#C8972C"/>
<stop offset="0.8876" stop-color="#FCF16B"/>
<stop offset="1" stop-color="#DABB3B"/>
</linearGradient>
</defs>
</svg>
