<svg width="391" height="107" viewBox="0 0 391 107" fill="none" xmlns="http://www.w3.org/2000/svg">
<path d="M46.8262 0.5H335.174C335.426 14.4011 346.181 25.5782 359.5 25.8517V81.0583C346.181 81.3334 335.427 92.5746 335.174 106.41H46.8262C46.5726 92.5746 35.8194 81.3334 22.5 81.0583V25.8517C35.8194 25.5766 46.5726 14.3354 46.8262 0.5Z" fill="url(#paint0_linear_1530_160)" stroke="black"/>
<path d="M51.8885 8.03857H329.389C329.541 14.0108 332.399 19.722 336.63 23.9707C340.857 28.2146 346.495 31.0405 352.267 31.1957V75.7829C346.496 75.9372 340.858 78.7459 336.631 82.9818C332.398 87.2234 329.54 92.9357 329.389 98.94H51.8885C51.7461 92.9449 49.0556 87.2342 44.9821 82.9888C40.9135 78.7486 35.4327 75.9374 29.668 75.7829V31.1957C35.4327 31.0413 40.9135 28.23 44.9821 23.9898C49.0556 19.7444 51.7461 14.0338 51.8885 8.03857Z" fill="url(#paint1_linear_1530_160)" stroke="black"/>
<path d="M141.386 33.8H153.29C153.546 34.984 154.202 36.536 155.258 38.456C156.346 40.376 157.018 41.768 157.274 42.632C155.002 40.872 152.73 39.096 150.458 37.304C147.642 35.8 144.698 35.048 141.626 35.048C137.082 35.048 133.978 36.424 132.314 39.176C130.682 41.896 129.866 45.464 129.866 49.88C129.866 54.808 131.114 59.64 133.61 64.376C136.106 69.08 139.706 71.432 144.41 71.432C148.25 71.432 151.082 70.696 152.906 69.224C154.73 67.752 156.234 65.864 157.418 63.56C157.418 66.536 156.442 68.84 154.49 70.472C152.538 72.104 148.89 72.92 143.546 72.92C137.914 72.92 133.242 71.384 129.53 68.312C125.818 65.24 123.962 60.632 123.962 54.488C123.962 48.12 125.674 43.08 129.098 39.368C132.522 35.656 136.618 33.8 141.386 33.8ZM169.876 44.216C172.5 44.216 174.548 45.16 176.02 47.048C177.524 48.936 178.276 51.272 178.276 54.056C178.276 57 177.188 59.608 175.012 61.88C172.836 64.152 170.404 65.288 167.716 65.288C165.188 65.288 163.172 64.344 161.668 62.456C160.164 60.536 159.412 58.136 159.412 55.256C159.412 52.376 160.468 49.816 162.58 47.576C164.692 45.336 167.124 44.216 169.876 44.216ZM163.636 52.424C163.636 55.048 163.972 57.464 164.644 59.672C165.348 61.88 166.9 62.984 169.3 62.984C170.676 62.984 171.796 62.408 172.66 61.256C173.524 60.104 173.956 58.632 173.956 56.84C173.956 54.248 173.524 51.88 172.66 49.736C171.796 47.56 170.324 46.472 168.244 46.472C166.836 46.472 165.716 47.032 164.884 48.152C164.052 49.272 163.636 50.696 163.636 52.424ZM197.485 61.976C197.485 62.68 197.725 63.032 198.205 63.032C198.845 63.032 199.725 62.504 200.845 61.448C200.205 62.664 199.389 63.608 198.397 64.28C197.437 64.952 196.573 65.288 195.805 65.288C194.941 65.288 194.237 65.032 193.693 64.52C193.181 63.976 192.925 63.16 192.925 62.072L192.973 51.272C192.973 50.536 192.893 49.96 192.733 49.544C192.573 49.096 192.125 48.872 191.389 48.872C190.589 48.872 189.533 49.72 188.221 51.416C186.909 53.08 186.253 54.056 186.253 54.344V62.504C186.093 63.176 185.533 63.816 184.573 64.424C183.645 65 182.717 65.288 181.789 65.288V48.872C181.789 48.36 181.597 48.104 181.213 48.104C180.733 48.104 179.821 48.536 178.477 49.4C179.693 47.864 180.797 46.664 181.789 45.8C182.813 44.904 183.613 44.456 184.189 44.456C185.085 44.456 185.645 44.952 185.869 45.944C186.125 46.904 186.253 48.408 186.253 50.456V52.232C187.501 50.28 188.813 48.504 190.189 46.904C191.597 45.272 193.069 44.456 194.605 44.456C195.789 44.456 196.573 44.856 196.957 45.656C197.341 46.456 197.533 47.656 197.533 49.256C197.533 49.736 197.517 50.216 197.485 50.696C197.485 51.144 197.485 51.608 197.485 52.088C197.485 53.016 197.469 54.008 197.437 55.064C197.437 56.088 197.437 57.336 197.437 58.808C197.437 59.64 197.437 60.376 197.437 61.016C197.437 61.624 197.453 61.944 197.485 61.976ZM208.155 44.408H212.091C211.675 45.336 211.083 45.912 210.315 46.136C209.579 46.328 208.859 46.44 208.155 46.472V61.016C208.155 61.72 208.427 62.072 208.971 62.072C209.419 62.072 209.979 61.864 210.651 61.448C211.355 61 212.187 60.328 213.147 59.432C212.251 61.128 211.195 62.536 209.979 63.656C208.763 64.744 207.531 65.288 206.283 65.288C205.323 65.288 204.651 64.904 204.267 64.136C203.915 63.336 203.739 61.928 203.739 59.912V46.472H200.907C201.003 45.736 201.851 44.92 203.451 44.024C205.083 43.096 206.651 40.712 208.155 36.872V44.408ZM232.329 44.456V62.216C232.361 62.632 232.569 62.84 232.953 62.84C233.241 62.84 233.577 62.744 233.961 62.552C234.377 62.328 235.033 61.96 235.929 61.448C235.513 62.312 234.809 63.16 233.817 63.992C232.857 64.824 231.929 65.24 231.033 65.24C230.521 65.24 229.849 64.888 229.017 64.184C228.217 63.48 227.817 62.536 227.817 61.352V58.76C225.865 60.712 224.217 62.28 222.873 63.464C221.529 64.648 220.361 65.24 219.369 65.24C218.281 65.24 217.305 64.6 216.441 63.32C215.609 62.04 215.193 60.328 215.193 58.184C215.193 53.832 216.393 50.456 218.793 48.056C221.193 45.656 224.313 44.456 228.153 44.456H232.329ZM219.801 54.536C219.801 56.104 220.057 57.256 220.569 57.992C221.081 58.728 221.785 59.096 222.681 59.096C223.449 59.096 224.265 58.872 225.129 58.424C226.025 57.944 226.921 57.304 227.817 56.504V45.8C225.417 45.8 223.481 46.696 222.009 48.488C220.537 50.248 219.801 52.264 219.801 54.536ZM248.309 44.312C249.557 44.312 250.869 44.728 252.245 45.56C253.621 46.36 254.309 47.352 254.309 48.536C254.309 48.856 253.893 49.448 253.061 50.312C252.229 51.176 251.509 51.784 250.901 52.136C250.613 50.696 249.877 49.528 248.693 48.632C247.509 47.736 246.293 47.288 245.045 47.288C243.861 47.288 242.885 47.944 242.117 49.256C241.381 50.536 241.013 52.04 241.013 53.768C241.013 56.84 241.717 59.016 243.125 60.296C244.565 61.544 246.197 62.168 248.021 62.168C248.789 62.168 249.621 61.96 250.517 61.544C251.413 61.096 252.341 60.552 253.301 59.912C252.021 61.864 250.741 63.24 249.461 64.04C248.213 64.808 246.469 65.192 244.229 65.192C241.125 65.192 239.141 64.36 238.277 62.696C237.413 61.032 236.981 58.984 236.981 56.552C236.981 52.872 238.037 49.912 240.149 47.672C242.261 45.432 244.981 44.312 248.309 44.312ZM261.968 44.408H265.904C265.488 45.336 264.896 45.912 264.128 46.136C263.392 46.328 262.672 46.44 261.968 46.472V61.016C261.968 61.72 262.24 62.072 262.784 62.072C263.232 62.072 263.792 61.864 264.464 61.448C265.168 61 266 60.328 266.96 59.432C266.064 61.128 265.008 62.536 263.792 63.656C262.576 64.744 261.344 65.288 260.096 65.288C259.136 65.288 258.464 64.904 258.08 64.136C257.728 63.336 257.552 61.928 257.552 59.912V46.472H254.72C254.816 45.736 255.664 44.92 257.264 44.024C258.896 43.096 260.464 40.712 261.968 36.872V44.408Z" fill="black"/>
<defs>
<linearGradient id="paint0_linear_1530_160" x1="93.0195" y1="-48.6577" x2="297.071" y2="147.136" gradientUnits="userSpaceOnUse">
<stop stop-color="#EAC459"/>
<stop offset="0.00819684" stop-color="#EAC459"/>
<stop offset="0.2464" stop-color="#EAC459"/>
<stop offset="0.373" stop-color="#C8972C"/>
<stop offset="0.8876" stop-color="#FCF16B"/>
<stop offset="1" stop-color="#DABB3B"/>
</linearGradient>
<linearGradient id="paint1_linear_1530_160" x1="99.1353" y1="149.194" x2="290.382" y2="-34.3134" gradientUnits="userSpaceOnUse">
<stop stop-color="#EAC459"/>
<stop offset="0.00819684" stop-color="#EAC459"/>
<stop offset="0.2464" stop-color="#EAC459"/>
<stop offset="0.373" stop-color="#C8972C"/>
<stop offset="0.8876" stop-color="#FCF16B"/>
<stop offset="1" stop-color="#DABB3B"/>
</linearGradient>
</defs>
</svg>
