<svg width="172" height="69" viewBox="0 0 172 69" fill="none" xmlns="http://www.w3.org/2000/svg">
<g opacity="0.95">
<path opacity="0.95" d="M10.1471 1L154.923 13.9C154.923 21 161.941 27.4 170.564 28.4L170.865 57.6C162.242 56.3 155.324 61.1 155.424 68.3L10.0469 44.5C10.0469 38.8 5.73568 33.5 0.421875 32.8L0.522111 10.3C5.73565 10.9 10.1471 6.7 10.1471 1Z" fill="url(#paint0_linear)" stroke="black" stroke-width="0.6242" stroke-miterlimit="10"/>
<path opacity="0.95" d="M12.4529 4.30005L151.815 17.4001C151.815 23.5001 158.532 29.8001 165.952 30.7001L166.152 54.2001C158.733 53.1001 152.116 57.8001 152.216 63.9001L12.3527 41.8001C12.3527 36.9001 7.84098 31.7001 3.229 31.0001L3.32924 12.7001C7.94122 13.3001 12.4529 9.20005 12.4529 4.30005Z" fill="url(#paint1_linear)" stroke="black" stroke-width="0.6242" stroke-miterlimit="10"/>
<g opacity="0.95">
<path opacity="0.95" d="M41.2277 16.6999L46.6418 17.2999C46.742 17.9999 47.0428 18.8999 47.5441 19.9999C48.0454 21.0999 48.3463 21.9999 48.4465 22.4999C47.4439 21.3999 46.3411 20.2999 45.3384 19.0999C44.0351 18.0999 42.7317 17.4999 41.328 17.3999C39.3228 17.1999 37.9191 17.7999 37.117 19.1999C36.4151 20.5999 36.0141 22.4999 36.0141 24.9999C36.0141 27.6999 36.6156 30.3999 37.7185 33.1999C38.8214 36 40.4256 37.5 42.5311 37.8C44.2355 38.1 45.5389 37.8 46.4413 37.1C47.2434 36.4 47.9452 35.4 48.5468 34.1999C48.5468 35.9 48.0454 37.1 47.1431 37.9C46.2407 38.7 44.5363 38.9 42.13 38.5C39.6235 38.1 37.5181 37 35.8137 34.9999C34.2095 33.0999 33.3071 30.4999 33.3071 27.0999C33.3071 23.5999 34.1091 20.9999 35.6131 19.0999C37.2172 17.2999 39.0219 16.4999 41.2277 16.6999Z" fill="black"/>
<path opacity="0.95" d="M54.362 24.0999C55.5651 24.1999 56.5676 24.8999 57.2695 26.0999C57.9713 27.2999 58.3724 28.5999 58.3724 30.1999C58.3724 31.8999 57.871 33.2999 56.7682 34.5C55.7656 35.6 54.5624 36.1 53.259 36C52.0559 35.8 51.1536 35.2 50.4518 33.9999C49.75 32.7999 49.4492 31.3999 49.4492 29.7999C49.4492 28.1999 49.9505 26.7999 50.9531 25.6999C51.9557 24.3999 53.0586 23.8999 54.362 24.0999ZM51.4544 28.2999C51.4544 29.7999 51.655 31.1999 51.9557 32.4C52.2565 33.7 52.9583 34.4 54.1614 34.6C54.763 34.7 55.3645 34.3999 55.7656 33.7999C56.1666 33.1999 56.3672 32.4 56.3672 31.3999C56.3672 29.8999 56.1666 28.5999 55.7656 27.2999C55.3645 25.9999 54.6627 25.2999 53.6601 25.1999C52.9583 25.0999 52.457 25.3999 52.056 25.9999C51.6549 26.5999 51.4544 27.3999 51.4544 28.2999Z" fill="black"/>
<path opacity="0.95" d="M67.6962 36.0001C67.6962 36.4001 67.7965 36.6001 68.0973 36.7001C68.3981 36.7001 68.8995 36.5001 69.4008 36.0001C69.1 36.7001 68.6989 37.1001 68.1976 37.5001C67.6962 37.8001 67.2953 38.0001 66.8942 37.9001C66.4932 37.8001 66.0922 37.6001 65.8916 37.3001C65.5908 37.0001 65.4906 36.5001 65.4906 35.8001V29.6001C65.4906 29.2001 65.4906 28.8001 65.3903 28.6001C65.2901 28.3001 65.0895 28.2001 64.6884 28.1001C64.2874 28.1001 63.7861 28.5001 63.0843 29.4001C62.4827 30.3001 62.0817 30.8001 62.0817 31.0001V35.7001C61.9814 36.1001 61.7808 36.4001 61.2795 36.7001C60.7782 37.0001 60.3773 37.1001 59.9762 37.0001V27.6001C59.9762 27.3 59.8759 27.1 59.6754 27.1C59.4749 27.1 58.9736 27.3001 58.3721 27.7001C58.9736 26.9 59.4749 26.3 59.9762 25.8C60.4775 25.4 60.8785 25.1 61.0791 25.2C61.4801 25.3 61.7809 25.6 61.8812 26.1C61.9815 26.7 62.0817 27.6001 62.0817 28.7001V29.7001C62.6832 28.7001 63.2848 27.7001 63.9866 26.9C64.6885 26 65.3903 25.7 66.0921 25.8C66.6937 25.9 67.0947 26.1 67.2952 26.6C67.4957 27.1 67.596 27.8001 67.596 28.7001C67.596 29.0001 67.596 29.3001 67.596 29.5001C67.596 29.8001 67.596 30.0001 67.596 30.3001C67.596 30.8001 67.596 31.4001 67.596 32.0001C67.596 32.6001 67.596 33.3001 67.596 34.2001C67.596 34.7001 67.596 35.1001 67.596 35.5001C67.6963 35.8001 67.6962 35.9001 67.6962 36.0001Z" fill="black"/>
<path opacity="0.95" d="M73.1104 26.3999L75.1156 26.5999C74.9151 27.0999 74.6143 27.3999 74.2133 27.4999C73.8122 27.5999 73.5115 27.5999 73.1104 27.5999V36.0999C73.1104 36.4999 73.2107 36.6999 73.5115 36.7999C73.712 36.7999 74.0128 36.6999 74.4139 36.4999C74.7147 36.2999 75.2159 35.9999 75.6169 35.4999C75.1156 36.3999 74.6144 37.1999 74.0128 37.6999C73.4113 38.2999 72.8097 38.4999 72.1078 38.3999C71.6065 38.2999 71.3058 38.0999 71.1052 37.5999C70.9047 37.0999 70.8044 36.2999 70.8044 35.0999V27.2999L69.4009 27.0999C69.4009 26.6999 69.9021 26.2999 70.7042 25.7999C71.5063 25.3999 72.3084 24.0999 73.0102 21.8999V26.3999H73.1104Z" fill="black"/>
<path opacity="0.95" d="M85.5429 27.8998V38.4998C85.5429 38.7998 85.6431 38.8998 85.8436 38.8998C86.0441 38.8998 86.1444 38.8998 86.3449 38.7998C86.5454 38.6998 86.9465 38.4998 87.3475 38.2998C87.147 38.7998 86.746 39.1998 86.2447 39.6998C85.7434 40.0998 85.2421 40.2998 84.7408 40.1998C84.44 40.1998 84.1392 39.8998 83.7382 39.3998C83.3371 38.8998 83.1366 38.2998 83.1366 37.5998V36.0998C82.134 37.0998 81.2317 37.8998 80.5298 38.5998C79.828 39.1998 79.2264 39.4998 78.7251 39.3998C78.1235 39.2998 77.6222 38.8998 77.2212 38.0998C76.8201 37.2998 76.6196 36.1998 76.6196 34.9998C76.6196 32.3998 77.2212 30.4998 78.4244 29.2998C79.6275 27.9998 81.2316 27.4998 83.2368 27.6998L85.5429 27.8998ZM79.0259 33.0998C79.0259 33.9998 79.1262 34.6998 79.427 35.1998C79.7278 35.6998 80.0285 35.8998 80.5298 35.9998C80.9309 36.0998 81.3319 35.9998 81.8332 35.7998C82.3345 35.5998 82.7355 35.2998 83.2368 34.8998V28.4998C82.0337 28.3998 81.0311 28.7998 80.229 29.6998C79.4269 30.5998 79.0259 31.7998 79.0259 33.0998Z" fill="black"/>
<path opacity="0.95" d="M94.0649 28.8999C94.7668 28.9999 95.4685 29.2999 96.1704 29.8999C96.8722 30.4999 97.2732 31.0999 97.2732 31.8999C97.2732 32.0999 97.0727 32.3999 96.5714 32.8999C96.0701 33.3999 95.7693 33.6999 95.3682 33.8999C95.1677 32.9999 94.7667 32.1999 94.1652 31.5999C93.5636 30.9999 92.8618 30.5999 92.16 30.4999C91.5584 30.3999 91.0571 30.7999 90.6561 31.4999C90.255 32.1999 90.0546 33.0999 90.0546 34.1999C90.0546 36.0999 90.4556 37.3999 91.1574 38.2999C91.9595 39.1999 92.7615 39.6999 93.7641 39.7999C94.1651 39.8999 94.6665 39.7999 95.0675 39.5999C95.5688 39.3999 96.0701 39.0999 96.5714 38.7999C95.8696 39.8999 95.1678 40.6999 94.466 40.9999C93.7642 41.3999 92.8618 41.4999 91.6587 41.2999C89.9543 41.0999 88.9517 40.3999 88.4504 39.3999C87.9491 38.2999 87.7485 37.0999 87.7485 35.5999C87.7485 33.3999 88.3502 31.6999 89.453 30.4999C90.7564 29.0999 92.2603 28.5999 94.0649 28.8999Z" fill="black"/>
<path opacity="0.95" d="M101.484 29.7999L103.69 30.0999C103.489 30.5999 103.088 30.9999 102.687 30.9999C102.286 31.0999 101.885 31.0999 101.484 31.0999V39.9999C101.484 40.3999 101.584 40.6999 101.885 40.6999C102.086 40.6999 102.487 40.5999 102.787 40.3999C103.188 40.1999 103.589 39.8999 104.191 39.3999C103.69 40.3999 103.088 41.0999 102.386 41.6999C101.684 42.2999 100.983 42.4999 100.381 42.3999C99.8798 42.2999 99.4788 41.9999 99.2782 41.4999C99.0777 40.9999 98.9775 40.0999 98.9775 38.8999V30.6999L97.4736 30.4999C97.5739 30.0999 97.9748 29.5999 98.8772 29.1999C99.7795 28.6999 100.582 27.3999 101.484 25.0999V29.7999Z" fill="black"/>
<path opacity="0.95" d="M114.017 31.0999C114.619 31.1999 115.02 31.4999 115.12 31.9999C115.22 32.4999 115.32 32.9999 115.421 33.5999V39.1999V39.9999C115.421 40.5999 115.521 41.0999 115.621 41.4999C115.721 41.7999 116.122 42.0999 116.624 42.0999C117.125 42.1999 117.626 41.8999 118.328 41.1999C119.03 40.4999 119.331 39.8999 119.331 39.2999V34.0999C119.331 33.4999 119.531 32.9999 120.033 32.5999C120.534 32.1999 121.135 31.9999 121.837 32.0999V42.8999C121.937 42.9999 121.938 43.0999 122.038 43.1999C122.138 43.2999 122.238 43.3999 122.439 43.3999C122.74 43.3999 123.04 43.3999 123.341 43.1999C123.742 42.9999 124.143 42.6999 124.645 42.2999C124.243 42.9999 123.642 43.6999 122.84 44.3999C122.038 45.0999 121.236 45.4999 120.534 45.3999C120.033 45.2999 119.631 45.0999 119.431 44.6999C119.23 44.2999 119.13 43.7999 119.13 43.1999V41.8999C118.228 42.7999 117.426 43.4999 116.724 43.9999C116.022 44.4999 115.22 44.6999 114.418 44.5999C113.716 44.4999 113.315 44.0999 113.014 43.3999C112.714 42.6999 112.613 41.7999 112.613 40.8999V33.6999C112.613 33.2999 112.613 32.9999 112.513 32.7999C112.413 32.5999 112.313 32.4999 112.012 32.4999C111.711 32.4999 111.31 32.5999 110.809 32.8999C111.21 32.1999 111.711 31.6999 112.212 31.3999C113.014 31.1999 113.516 31.0999 114.017 31.0999Z" fill="black"/>
<path opacity="0.95" d="M133.969 33.3999C133.668 33.8999 133.367 34.3999 133.267 34.9999C133.066 35.4999 132.966 35.9999 132.866 36.4999C132.264 35.6999 131.663 35.0999 131.161 34.6999C130.66 34.2999 129.958 34.0999 129.257 33.9999C128.555 33.8999 128.053 33.9999 127.753 34.1999C127.452 34.3999 127.352 34.7999 127.352 35.1999C127.352 35.6999 128.053 36.3999 129.557 37.1999C130.961 37.9999 132.164 38.7999 132.966 39.5999C133.768 40.3999 134.27 41.3999 134.27 42.7999C134.27 44.4999 133.768 45.4999 132.866 45.8999C131.863 46.2999 130.66 46.3999 129.257 46.1999C127.753 45.9999 126.85 45.5999 126.449 44.8999C126.048 44.2999 125.848 42.7999 125.848 40.4999C126.249 41.5999 126.85 42.5999 127.652 43.5999C128.454 44.5999 129.457 45.0999 130.66 45.2999C131.964 45.4999 132.665 44.8999 132.665 43.5999C132.665 42.9999 131.964 42.1999 130.56 41.3999C129.156 40.4999 128.053 39.6999 127.251 38.9999C126.449 38.2999 126.048 37.0999 126.048 35.5999C126.048 34.2999 126.449 33.4999 127.151 33.0999C127.853 32.6999 128.856 32.5999 130.159 32.6999C130.46 32.6999 130.961 32.8999 131.563 33.0999C132.164 33.2999 132.465 33.3999 132.565 33.3999C132.866 33.3999 133.167 33.3999 133.367 33.3999C133.367 33.5999 133.668 33.5999 133.969 33.3999Z" fill="black"/>
</g>
</g>
<defs>
<linearGradient id="paint0_linear" x1="130.878" y1="-11.1232" x2="42.7896" y2="77.1943" gradientUnits="userSpaceOnUse">
<stop stop-color="#EAC459"/>
<stop offset="0.01" stop-color="#EAC459"/>
<stop offset="0.25" stop-color="#EAC459"/>
<stop offset="0.67" stop-color="#FCF16B"/>
<stop offset="1" stop-color="#DABB3B"/>
</linearGradient>
<linearGradient id="paint1_linear" x1="136.649" y1="83.6521" x2="34.7139" y2="-18.5491" gradientUnits="userSpaceOnUse">
<stop stop-color="#EAC459"/>
<stop offset="0.01" stop-color="#EAC459"/>
<stop offset="0.25" stop-color="#EAC459"/>
<stop offset="0.67" stop-color="#FCF16B"/>
<stop offset="1" stop-color="#DABB3B"/>
</linearGradient>
</defs>
</svg>
