<svg width="185" height="91" viewBox="0 0 185 91" fill="none" xmlns="http://www.w3.org/2000/svg">
<g opacity="0.95">
<g opacity="0.95">
<path opacity="0.95" d="M11.9639 1L167.468 16.5C167.668 26.1 174.787 34.5 183.309 35.6L184.311 74.6C175.689 73.3 169.072 80.1 169.272 89.7L13.2672 63.9C13.0667 55.7 7.95345 48.2 1.83756 47.3L1.13574 14.7C7.25162 15.3 12.1644 9.3 11.9639 1Z" fill="url(#paint0_linear)" stroke="black" stroke-width="0.6242" stroke-miterlimit="10"/>
<path opacity="0.95" d="M14.771 5.69995L164.46 21.2999C164.66 29.4999 171.478 37.8999 178.797 38.7999L179.599 70.2999C172.18 69.1999 165.763 75.7999 165.964 84.0999L15.7736 59.8999C15.6733 52.8999 10.2593 45.3999 4.94547 44.6999L4.54443 18.0999C9.75797 18.7999 14.8712 12.7999 14.771 5.69995Z" fill="url(#paint1_linear)" stroke="black" stroke-width="0.6242" stroke-miterlimit="10"/>
</g>
</g>
<path d="M51.0654 23.6001L51.5667 23.1001V23.7001L63.6981 24.9001C63.6981 25.9001 64.0992 27.2001 64.9013 28.8001C65.7033 30.4001 66.2046 31.6001 66.4052 32.6001C64.9013 30.9001 63.3974 29.3001 61.9937 27.6001C60.3896 26.3001 58.6851 25.6001 56.7802 25.4001L51.6669 24.9001V36.9001C52.7698 35.5001 53.8727 34.3001 54.8753 33.5001C55.9781 32.6001 57.2815 32.3001 58.8857 32.5001C59.788 32.6001 60.4898 33.0001 60.8909 33.6001C61.3922 34.2001 61.5927 35.0001 61.5927 35.9001C61.5927 36.8001 61.3922 37.6001 60.8909 38.6001C60.9911 37.9001 60.9911 37.4001 60.9911 36.9001C60.9911 35.8001 60.7906 35.1001 60.4898 34.8001C60.189 34.4001 59.6877 34.2001 59.0862 34.2001C57.8831 34.1001 56.2789 35.0001 54.374 37.1001C52.469 39.1001 51.5667 41.8001 51.5667 45.2001C51.5667 47.3001 51.8675 48.6001 52.469 49.1001C53.0706 49.6001 54.374 50.0001 56.2789 50.3001C58.4846 50.6001 60.4898 50.3001 62.1942 49.3001C63.8987 48.3001 65.3023 46.8001 66.3049 44.6001C66.2046 45.8001 65.8036 47.1001 65.3023 48.5001C64.7007 49.9001 64.1994 51.1001 63.6981 52.3001L44.2477 49.6001C44.6487 49.4001 45.0498 49.2001 45.4508 49.0001C46.7542 48.2001 47.456 47.2001 47.456 45.9001V32.4001C47.456 31.2001 47.5563 30.2001 47.8571 29.4001C48.1578 28.6001 48.8597 27.0001 49.9625 24.7001C46.4534 24.3001 43.9469 24.7001 42.5433 25.7001C41.1396 26.7001 40.4378 28.7001 40.4378 31.5001C40.4378 34.3001 40.8389 36.5001 41.6409 38.1001C42.443 39.6001 43.7464 41.1001 45.5511 42.5001C43.0446 42.2001 41.2399 41.1001 40.2373 39.2001C39.2347 37.3001 38.7334 35.0001 38.7334 32.3001C38.7334 29.1001 39.6357 26.7001 41.5407 25.2001C43.3454 23.7001 46.5537 23.2001 51.0654 23.6001Z" fill="black"/>
<path d="M80.2408 34.6001C80.6419 34.6001 81.1432 35.2001 81.9452 36.4001C82.6471 37.6001 83.0481 38.8001 83.0481 40.1001C83.0481 40.8001 82.246 42.4001 80.6419 45.1001C79.0377 47.8001 77.8346 50.2001 77.0325 52.3001C75.9296 50.2001 74.8268 47.7001 73.7239 44.8001C72.6211 41.9001 71.819 40.0001 71.3177 39.2001C70.8164 38.3001 70.1146 37.9001 69.112 37.7001C68.9114 37.7001 68.5104 37.8001 67.8086 38.0001C67.1068 38.2001 66.6055 38.4001 66.3047 38.6001C66.806 37.8001 67.6081 36.9001 68.8112 35.8001C70.0143 34.7001 70.9166 34.2001 71.4179 34.3001C72.5208 34.4001 73.7239 36.4001 75.2278 40.1001C76.7317 43.9001 77.8346 46.3001 78.4361 47.3001C78.7369 46.9001 79.138 46.2001 79.539 45.3001C79.94 44.4001 80.1406 43.4001 80.1406 42.3001C80.1406 41.3001 79.94 40.4001 79.4387 39.7001C78.9374 39.0001 78.2356 38.2001 77.233 37.4001C77.5338 36.9001 77.9348 36.2001 78.5364 35.5001C79.2382 34.9001 79.7395 34.6001 80.2408 34.6001Z" fill="black"/>
<path d="M93.0744 36.7002C94.077 36.8002 94.879 37.1002 95.4806 37.5002C96.0822 38.0002 96.9845 38.8002 98.0874 40.2002L89.064 49.0002C89.5653 50.0002 90.1668 50.6002 90.8686 51.0002C91.5705 51.4002 92.3725 51.6002 93.3751 51.7002C94.2775 51.8002 95.1798 51.7002 95.9819 51.3002C96.784 50.9002 97.4858 50.5002 98.1876 50.1002C97.185 51.6002 96.0822 52.7002 94.879 53.4002C93.6759 54.1002 92.2723 54.3002 90.7684 54.1002C88.5626 53.8002 87.0587 52.8002 86.1564 51.2002C85.2541 49.6002 84.853 47.8002 84.853 46.1002C84.853 43.0002 85.6551 40.6002 87.2593 38.9002C88.7632 37.2002 90.6681 36.5002 93.0744 36.7002ZM88.6629 48.0002C89.5652 47.2002 90.3673 46.4002 91.2697 45.6002C92.5731 44.2002 93.2749 43.1002 93.2749 42.3002C93.2749 41.3002 93.0744 40.6002 92.6733 40.0002C92.2723 39.4002 91.6707 39.1002 90.9689 39.0002C90.0666 38.9002 89.465 39.4002 88.9637 40.4002C88.4624 41.5002 88.2619 42.8002 88.2619 44.3002C88.2619 44.9002 88.2619 45.6002 88.3621 46.2002C88.3621 46.9002 88.5626 47.4002 88.6629 48.0002Z" fill="black"/>
<path d="M113.227 54.3002C113.227 54.9002 113.427 55.2002 113.828 55.3002C114.329 55.4002 115.132 55.0002 116.034 54.2002C115.533 55.2002 114.831 55.9002 114.029 56.4002C113.227 56.9002 112.525 57.1002 111.923 57.0002C111.221 56.9002 110.62 56.6002 110.219 56.1002C109.818 55.6002 109.617 54.9002 109.617 53.9002V44.6002C109.617 44.0002 109.517 43.5002 109.417 43.1002C109.316 42.7002 108.915 42.5002 108.314 42.4002C107.612 42.3002 106.81 42.9002 105.707 44.3002C104.604 45.6002 104.103 46.4002 104.103 46.6002V53.6002C104.003 54.2002 103.501 54.6002 102.799 55.0002C102.098 55.4002 101.296 55.6002 100.594 55.5002V41.5002C100.594 41.1002 100.393 40.8002 100.092 40.8002C99.6914 40.8002 98.9896 41.0002 97.8867 41.7002C98.8893 40.5002 99.6914 39.6002 100.493 38.9002C101.296 38.2002 101.897 37.9002 102.398 38.0002C103.1 38.1002 103.602 38.5002 103.702 39.4002C103.902 40.3002 104.003 41.6002 104.003 43.3002V44.8002C105.005 43.2002 106.008 41.8002 107.211 40.6002C108.314 39.3002 109.517 38.8002 110.72 38.9002C111.723 39.0002 112.324 39.4002 112.625 40.2002C112.926 40.9002 113.126 42.0002 113.126 43.4002C113.126 43.8002 113.126 44.2002 113.126 44.6002C113.126 45.0002 113.126 45.4002 113.126 45.8002C113.126 46.6002 113.126 47.5002 113.126 48.4002C113.126 49.3002 113.126 50.4002 113.126 51.7002C113.126 52.4002 113.126 53.1002 113.126 53.6002C113.227 54.0002 113.227 54.3002 113.227 54.3002Z" fill="black"/>
<path d="M122.15 40.1L125.459 40.5C125.058 41.3 124.657 41.7 123.955 41.8C123.353 41.9 122.752 41.9 122.15 41.9V54.6C122.15 55.2 122.351 55.6 122.852 55.6C123.253 55.6 123.754 55.5 124.256 55.2C124.857 54.9 125.559 54.4 126.361 53.7C125.559 55.1 124.757 56.2 123.654 57C122.651 57.8 121.549 58.2 120.546 58C119.744 57.9 119.142 57.5 118.841 56.7C118.541 56 118.34 54.7 118.34 53V41.5L116.034 41.2C116.134 40.6 116.836 39.9 118.14 39.3C119.443 38.7 120.746 36.7 122.05 33.5V40.1H122.15Z" fill="black"/>
<path d="M139.696 41.7002C139.194 42.4002 138.894 43.2002 138.693 43.9002C138.493 44.7002 138.292 45.3002 138.091 45.9002C137.189 44.8002 136.387 43.9002 135.585 43.4002C134.783 42.9002 133.881 42.6002 132.878 42.5002C131.875 42.4002 131.174 42.5002 130.772 42.8002C130.371 43.1002 130.171 43.6002 130.171 44.2002C130.171 44.9002 131.174 45.8002 133.279 47.0002C135.384 48.2002 136.989 49.3002 138.192 50.3002C139.395 51.3002 139.996 52.9002 139.996 54.8002C139.996 57.1002 139.295 58.6002 137.891 59.1002C136.487 59.7002 134.783 59.8002 132.677 59.5002C130.572 59.2002 129.168 58.6002 128.667 57.7002C128.065 56.8002 127.765 54.8002 127.765 51.7002C128.266 53.2002 129.168 54.7002 130.271 56.0002C131.474 57.4002 132.878 58.1002 134.482 58.4002C136.387 58.7002 137.39 57.9002 137.39 56.1002C137.39 55.2002 136.387 54.2002 134.382 53.0002C132.377 51.8002 130.772 50.7002 129.67 49.7002C128.567 48.7002 127.965 47.1002 127.965 45.1002C127.965 43.3002 128.466 42.1002 129.569 41.6002C130.672 41.0002 132.076 40.9002 133.881 41.1002C134.382 41.2002 134.983 41.3002 135.886 41.6002C136.688 41.9002 137.189 42.1002 137.39 42.1002C137.791 42.2002 138.192 42.2002 138.493 42.1002C138.693 42.1002 139.094 42.0002 139.696 41.7002Z" fill="black"/>
<defs>
<linearGradient id="paint0_linear" x1="143.525" y1="-7.35811" x2="42.9068" y2="93.5227" gradientUnits="userSpaceOnUse">
<stop stop-color="#EAC459"/>
<stop offset="0.01" stop-color="#EAC459"/>
<stop offset="0.25" stop-color="#EAC459"/>
<stop offset="0.67" stop-color="#FCF16B"/>
<stop offset="1" stop-color="#DABB3B"/>
</linearGradient>
<linearGradient id="paint1_linear" x1="149.847" y1="100.214" x2="35.2391" y2="-14.693" gradientUnits="userSpaceOnUse">
<stop stop-color="#EAC459"/>
<stop offset="0.01" stop-color="#EAC459"/>
<stop offset="0.25" stop-color="#EAC459"/>
<stop offset="0.67" stop-color="#FCF16B"/>
<stop offset="1" stop-color="#DABB3B"/>
</linearGradient>
</defs>
</svg>
