<svg width="209" height="102" viewBox="0 0 209 102" fill="none" xmlns="http://www.w3.org/2000/svg">
<g opacity="0.95">
<g opacity="0.95">
<path opacity="0.95" d="M13.2365 1L188.965 18.5616C189.192 29.4384 197.236 38.9557 206.867 40.202L208 84.3892C198.256 82.9163 190.778 90.6207 191.005 101.498L14.7094 72.266C14.4828 62.9754 8.70443 54.4778 1.7931 53.4581L1 16.5222C7.91133 17.202 13.4631 10.4039 13.2365 1Z" fill="url(#paint0_linear_1361_174)" stroke="black" stroke-width="0.6242" stroke-miterlimit="10"/>
<path opacity="0.95" d="M16.4092 6.32507L185.567 24C185.793 33.2906 193.498 42.8078 201.769 43.8275L202.675 79.5172C194.291 78.2709 187.04 85.7487 187.266 95.1527L17.5422 67.7339C17.4289 59.8029 11.3107 51.3054 5.30574 50.5123L4.85254 20.3743C10.7442 21.1674 16.5225 14.3694 16.4092 6.32507Z" fill="url(#paint1_linear_1361_174)" stroke="black" stroke-width="0.6242" stroke-miterlimit="10"/>
</g>
<path d="M49.6061 27.2858L58.2169 28.1922C57.0839 29.4385 55.9509 31.3646 55.1578 33.9705C54.2514 36.5764 53.7982 39.7488 53.7982 43.4877C53.7982 47.7932 54.3647 51.6454 55.3844 55.0444C56.5174 58.4434 57.9903 60.3695 59.9165 60.7094C60.3697 60.8227 61.1628 60.3695 62.2958 59.3498C63.4288 58.3301 64.5618 56.7439 65.4682 54.3646C66.4879 52.0986 66.9411 49.1528 66.9411 45.5272C66.9411 43.0345 66.4879 40.6552 65.4682 38.5025C64.4485 36.3498 63.2022 35.1035 61.7293 34.9902C61.5027 34.9902 61.1628 35.1035 60.9362 35.3301C60.5963 35.5567 60.2564 36.0099 59.9165 36.4631C60.1431 34.9902 60.7096 33.5173 61.7293 32.0444C62.749 30.6848 63.6554 30.005 64.5618 30.1183C65.8081 30.2316 67.281 31.7045 69.0938 34.6503C70.9066 37.5961 71.813 40.6552 71.813 44.0542C71.813 47.9065 70.3401 51.872 67.3943 56.1774C64.4485 60.3695 61.616 62.1823 58.6701 61.7291C55.611 61.2759 53.345 59.2365 51.8721 55.9508C50.3992 52.6651 49.7194 48.8129 49.7194 44.6207C49.7194 41.4483 50.1726 38.6158 51.1923 36.1232C52.0987 33.6306 53.345 31.2513 54.9312 28.9853L50.3992 28.5321C47.9066 28.3055 45.8672 28.7587 44.1677 30.1183C42.4682 31.3646 41.6751 33.2907 41.6751 35.67C41.6751 37.4828 42.1283 39.4089 43.0347 41.4483C43.9411 43.4877 45.5273 45.5272 47.7933 47.34C45.5273 47.0001 43.7145 45.8671 42.2416 43.9409C40.7687 42.0148 40.0889 39.7488 40.0889 37.0296C40.0889 33.6306 41.1086 31.0247 43.0347 29.3252C44.6209 27.739 46.8869 27.0592 49.6061 27.2858Z" fill="black"/>
<path d="M77.2517 39.2956C78.0448 39.4089 78.6113 39.7488 78.8379 40.5419C79.1778 41.2217 79.2911 42.1281 79.2911 43.0345V54.9311C79.4044 55.7242 79.631 56.1774 80.0842 56.1774C80.4241 56.1774 80.764 56.0641 81.1039 55.8375C81.5571 55.4976 81.7837 55.3843 81.897 55.271C81.3305 56.2907 80.6507 57.0838 80.0842 57.537C79.5177 57.9902 78.7246 58.1035 78.0448 57.9902C77.365 57.8769 76.9118 57.537 76.4586 56.8572C76.1187 56.1774 75.8921 55.3843 75.8921 54.5912V42.2414C75.8921 41.6749 75.6655 41.4483 75.3256 41.335C74.8724 41.2217 74.0793 41.6749 73.1729 42.468C73.2862 41.9015 73.8527 41.335 74.6458 40.4286C75.5522 39.5222 76.4586 39.1823 77.2517 39.2956ZM77.7049 30.1183C78.3847 30.2316 78.8379 30.4582 79.2911 31.0247C79.7443 31.5912 79.9709 32.271 79.9709 33.1774C79.9709 34.1971 79.631 34.8769 78.8379 35.3301C78.0448 35.7833 77.365 36.0099 76.7985 35.8966C76.232 35.7833 75.8921 35.4434 75.6655 34.8769C75.4389 34.1971 75.3256 33.5173 75.3256 32.6109C75.3256 31.5912 75.5522 30.7981 76.0054 30.4582C76.3453 30.2316 76.9118 30.1183 77.7049 30.1183Z" fill="black"/>
<path d="M97.4194 57.9903C97.4194 58.3302 97.646 58.5568 97.9859 58.6701C98.2125 58.6701 98.5524 58.6701 98.8923 58.5568C99.2322 58.4435 99.7987 58.2169 100.478 57.877C100.139 58.5568 99.5721 59.2366 98.779 59.8031C97.9859 60.3696 97.1928 60.7095 96.3997 60.7095C95.9465 60.5962 95.38 60.2563 94.7002 59.4632C94.0204 58.6701 93.6805 57.7637 93.6805 56.744V54.478C92.0943 55.9509 90.7346 57.1972 89.6016 58.1036C88.4686 59.01 87.5622 59.4632 86.7691 59.2366C85.8627 59.1233 85.0696 58.4435 84.3898 57.1972C83.71 55.9509 83.3701 54.3647 83.3701 52.4386C83.3701 48.5863 84.2765 45.7538 86.2026 43.8277C88.1287 41.9016 90.6213 41.1085 93.5672 41.4484V38.5026C93.5672 36.4632 94.1337 34.7637 95.0401 33.4041C96.0598 32.0445 97.4194 31.478 99.2322 31.7046L102.858 32.0445C101.951 33.6307 100.818 34.4238 99.4588 34.4238C98.0992 34.4238 97.3061 34.5371 97.3061 34.9903L97.4194 57.9903ZM87.109 49.606C87.109 50.9657 87.3356 52.0987 87.6755 52.7785C88.1287 53.4583 88.6952 53.9115 89.375 54.0248C90.0549 54.1381 90.6213 54.0248 91.4145 53.6849C92.0943 53.345 92.8874 52.8918 93.5672 52.3253V42.6947C91.6411 42.4681 90.0549 43.0346 88.8085 44.5075C87.6755 45.8671 87.109 47.5666 87.109 49.606Z" fill="black"/>
<path d="M111.014 43.2611C112.147 43.3744 113.054 43.7143 113.734 44.1675C114.413 44.6207 115.433 45.6404 116.679 47.1133L106.369 56.6305C106.935 57.6502 107.615 58.4433 108.408 58.7832C109.201 59.2364 110.108 59.463 111.241 59.5763C112.261 59.6896 113.28 59.5763 114.187 59.2364C115.093 58.8965 116 58.4433 116.679 57.9901C115.546 59.6896 114.3 60.8226 112.94 61.6157C111.581 62.2956 109.995 62.5222 108.295 62.2956C105.802 61.9557 104.103 60.8226 103.083 59.0098C102.064 57.197 101.61 55.2709 101.61 53.3448C101.61 49.9458 102.517 47.3399 104.33 45.5271C106.142 43.8276 108.408 43.0345 111.014 43.2611ZM106.029 55.7241C107.049 54.8177 107.955 54.0246 108.975 53.1182C110.448 51.6453 111.241 50.399 111.241 49.6059C111.241 48.5862 111.014 47.6798 110.561 47.1133C110.108 46.4335 109.428 46.0936 108.635 45.9803C107.615 45.867 106.935 46.4335 106.369 47.5665C105.802 48.6995 105.576 50.1724 105.576 51.8719C105.576 52.5517 105.576 53.2315 105.689 53.9113C105.689 54.3645 105.802 55.0443 106.029 55.7241Z" fill="black"/>
<path d="M128.464 45.3006C130.956 45.6405 132.882 46.7735 134.242 48.6996C135.602 50.739 136.395 53.005 136.281 55.7242C136.281 58.5567 135.262 60.9361 133.109 62.8622C131.069 64.7883 128.803 65.4681 126.311 65.1282C123.932 64.7883 122.119 63.6553 120.759 61.6159C119.4 59.5764 118.72 57.3104 118.72 54.5912C118.72 51.872 119.739 49.606 121.666 47.6799C123.705 45.8671 125.858 45.074 128.464 45.3006ZM122.685 52.4385C122.685 54.9311 123.025 57.1971 123.592 59.4631C124.158 61.6159 125.631 62.8622 127.897 63.2021C129.143 63.4287 130.276 62.9755 131.069 61.9558C131.863 60.936 132.316 59.5764 132.316 57.8769C132.316 55.3843 131.976 53.005 131.183 50.8523C130.39 48.6996 129.03 47.4533 127.104 47.2267C125.858 47.1134 124.725 47.4533 124.045 48.473C123.025 49.4927 122.685 50.739 122.685 52.4385Z" fill="black"/>
<path d="M152.143 47.9065C151.576 48.6996 151.237 49.4927 150.897 50.3991C150.67 51.1922 150.443 51.9854 150.217 52.6652C149.197 51.4188 148.291 50.5124 147.384 49.9459C146.478 49.3794 145.458 49.0395 144.325 48.9262C143.192 48.8129 142.399 48.9262 141.833 49.2661C141.379 49.606 141.153 50.1725 141.153 50.8523C141.153 51.6454 142.286 52.6652 144.665 53.9115C147.044 55.1578 148.857 56.4041 150.217 57.6504C151.576 58.7834 152.256 60.4829 152.256 62.6356C152.256 65.2415 151.463 66.7144 149.877 67.3942C148.291 67.9607 146.365 68.074 143.872 67.7341C141.493 67.3942 139.907 66.7144 139.34 65.6947C138.66 64.675 138.434 62.5223 138.434 59.01C139 60.7095 139.907 62.2957 141.266 63.7686C142.626 65.2415 144.212 66.1479 146.138 66.4878C148.291 66.8277 149.424 66.0346 149.424 63.9952C149.424 63.0888 148.291 61.8425 146.025 60.4829C143.759 59.1233 141.946 57.877 140.7 56.744C139.453 55.611 138.773 53.9115 138.773 51.6454C138.773 49.7193 139.34 48.3597 140.586 47.7932C141.833 47.2267 143.419 47.0001 145.458 47.2267C146.025 47.34 146.705 47.4533 147.724 47.7932C148.631 48.1331 149.197 48.3597 149.424 48.3597C149.877 48.473 150.33 48.473 150.67 48.3597C151.01 48.3597 151.576 48.1331 152.143 47.9065Z" fill="black"/>
</g>
<defs>
<linearGradient id="paint0_linear_1361_174" x1="161.909" y1="-8.46978" x2="47.9075" y2="105.532" gradientUnits="userSpaceOnUse">
<stop stop-color="#EAC459"/>
<stop offset="0.01" stop-color="#EAC459"/>
<stop offset="0.25" stop-color="#EAC459"/>
<stop offset="0.67" stop-color="#FCF16B"/>
<stop offset="1" stop-color="#DABB3B"/>
</linearGradient>
<linearGradient id="paint1_linear_1361_174" x1="169.054" y1="113.41" x2="39.2018" y2="-16.4426" gradientUnits="userSpaceOnUse">
<stop stop-color="#EAC459"/>
<stop offset="0.01" stop-color="#EAC459"/>
<stop offset="0.25" stop-color="#EAC459"/>
<stop offset="0.67" stop-color="#FCF16B"/>
<stop offset="1" stop-color="#DABB3B"/>
</linearGradient>
</defs>
</svg>
