<svg width="391" height="107" viewBox="0 0 391 107" fill="none" xmlns="http://www.w3.org/2000/svg">
<path d="M47.8262 0.5H336.174C336.426 14.4011 347.181 25.5782 360.5 25.8517V81.0583C347.181 81.3334 336.427 92.5746 336.174 106.41H47.8262C47.5726 92.5746 36.8194 81.3334 23.5 81.0583V25.8517C36.8194 25.5766 47.5726 14.3354 47.8262 0.5Z" fill="url(#paint0_linear_1512_160)" stroke="black"/>
<path d="M52.8885 8.03857H330.389C330.541 14.0108 333.399 19.722 337.63 23.9707C341.857 28.2146 347.495 31.0405 353.267 31.1957V75.7829C347.496 75.9372 341.858 78.7459 337.631 82.9818C333.398 87.2234 330.54 92.9357 330.389 98.94H52.8885C52.7461 92.9449 50.0556 87.2342 45.9821 82.9888C41.9135 78.7486 36.4327 75.9374 30.668 75.7829V31.1957C36.4327 31.0413 41.9135 28.23 45.9821 23.9898C50.0556 19.7444 52.7461 14.0338 52.8885 8.03857Z" fill="url(#paint1_linear_1512_160)" stroke="black"/>
<path d="M141.091 35.752H153.139C151.507 37.384 150.067 39.816 148.819 43.048C147.603 46.28 146.995 50.136 146.995 54.616C146.995 59.736 147.763 64.232 149.299 68.104C150.835 72.008 152.899 73.96 155.491 73.96C156.099 73.96 157.171 73.256 158.707 71.848C160.275 70.472 161.715 68.36 163.027 65.512C164.339 62.664 164.995 59.16 164.995 55C164.995 52.088 164.307 49.432 162.931 47.032C161.587 44.6 159.923 43.384 157.939 43.384C157.587 43.384 157.203 43.56 156.787 43.912C156.403 44.264 155.923 44.76 155.347 45.4C155.635 43.576 156.435 41.784 157.747 40.024C159.059 38.232 160.323 37.336 161.539 37.336C163.171 37.336 165.171 38.904 167.539 42.04C169.939 45.144 171.139 48.648 171.139 52.552C171.139 56.936 169.187 61.832 165.283 67.24C161.411 72.68 157.491 75.4 153.523 75.4C149.235 75.4 146.067 73.528 144.019 69.784C141.971 66.072 140.947 61.672 140.947 56.584C140.947 52.776 141.619 49.288 142.963 46.12C144.307 42.952 146.035 39.96 148.147 37.144H141.715C138.163 37.144 135.171 38.04 132.739 39.832C130.307 41.592 129.091 43.96 129.091 46.936C129.091 49.144 129.731 51.432 131.011 53.8C132.291 56.168 134.579 58.296 137.875 60.184C134.643 60.184 131.955 59.144 129.811 57.064C127.699 54.952 126.643 52.264 126.643 49C126.643 44.808 128.099 41.56 131.011 39.256C133.955 36.92 137.315 35.752 141.091 35.752ZM179.105 35.752C179.905 35.752 180.577 36.04 181.121 36.616C181.665 37.192 181.937 37.976 181.937 38.968C181.937 40.088 181.457 40.968 180.497 41.608C179.537 42.248 178.673 42.568 177.905 42.568C177.233 42.568 176.721 42.216 176.369 41.512C176.049 40.776 175.889 39.928 175.889 38.968C175.889 37.752 176.177 36.92 176.753 36.472C177.329 35.992 178.113 35.752 179.105 35.752ZM178.481 46.216C179.473 46.216 180.161 46.6 180.545 47.368C180.961 48.136 181.169 49.048 181.169 50.104V63.592C181.297 64.488 181.633 64.936 182.177 64.936C182.561 64.936 183.009 64.728 183.521 64.312C184.033 63.896 184.369 63.624 184.529 63.496C183.761 64.808 182.977 65.768 182.177 66.376C181.409 66.984 180.529 67.288 179.537 67.288C178.705 67.288 178.033 66.936 177.521 66.232C177.009 65.528 176.753 64.696 176.753 63.736V49.576C176.753 48.968 176.529 48.664 176.081 48.664C175.473 48.664 174.529 49.208 173.249 50.296C173.409 49.688 174.065 48.856 175.217 47.8C176.369 46.744 177.457 46.216 178.481 46.216ZM203.525 64.216C203.557 64.632 203.765 64.84 204.149 64.84C204.437 64.84 204.773 64.744 205.157 64.552C205.573 64.328 206.229 63.96 207.125 63.448C206.741 64.28 206.053 65.112 205.061 65.944C204.069 66.744 203.125 67.192 202.229 67.288C201.717 67.288 201.045 66.92 200.213 66.184C199.413 65.448 199.013 64.504 199.013 63.352V60.76C197.093 62.68 195.445 64.248 194.069 65.464C192.725 66.68 191.557 67.288 190.565 67.288C189.477 67.288 188.501 66.648 187.637 65.368C186.805 64.056 186.389 62.328 186.389 60.184C186.389 55.832 187.573 52.456 189.941 50.056C192.309 47.656 195.333 46.456 199.013 46.456V43.192C199.013 40.888 199.621 38.952 200.837 37.384C202.053 35.784 203.701 34.984 205.781 34.984H210.053C209.029 36.84 207.685 37.832 206.021 37.96C204.357 38.056 203.525 38.344 203.525 38.824V64.216ZM190.997 56.536C190.997 58.104 191.253 59.256 191.765 59.992C192.277 60.728 192.981 61.096 193.877 61.096C194.645 61.096 195.461 60.872 196.325 60.424C197.221 59.944 198.117 59.304 199.013 58.504V47.8C196.613 47.8 194.677 48.696 193.205 50.488C191.733 52.248 190.997 54.264 190.997 56.536ZM219.413 46.264C220.661 46.264 221.685 46.488 222.485 46.936C223.317 47.384 224.437 48.312 225.845 49.72L214.181 61.384C214.821 62.44 215.605 63.128 216.533 63.448C217.493 63.736 218.565 63.88 219.749 63.88C220.933 63.88 222.037 63.608 223.061 63.064C224.117 62.52 225.061 61.944 225.893 61.336C224.613 63.288 223.205 64.76 221.669 65.752C220.133 66.712 218.373 67.192 216.389 67.192C213.541 67.192 211.525 66.28 210.341 64.456C209.157 62.632 208.565 60.664 208.565 58.552C208.565 54.84 209.605 51.864 211.685 49.624C213.765 47.384 216.341 46.264 219.413 46.264ZM213.749 60.28C214.869 59.192 215.989 58.104 217.109 57.016C218.805 55.192 219.653 53.816 219.653 52.888C219.653 51.768 219.381 50.904 218.837 50.296C218.293 49.656 217.573 49.336 216.677 49.336C215.557 49.336 214.677 50.008 214.037 51.352C213.397 52.664 213.077 54.232 213.077 56.056C213.077 56.824 213.125 57.56 213.221 58.264C213.317 58.936 213.493 59.608 213.749 60.28ZM238.712 46.216C241.336 46.216 243.384 47.16 244.856 49.048C246.36 50.936 247.112 53.272 247.112 56.056C247.112 59 246.024 61.608 243.848 63.88C241.672 66.152 239.24 67.288 236.552 67.288C234.024 67.288 232.008 66.344 230.504 64.456C229 62.536 228.248 60.136 228.248 57.256C228.248 54.376 229.304 51.816 231.416 49.576C233.528 47.336 235.96 46.216 238.712 46.216ZM232.472 54.424C232.472 57.048 232.808 59.464 233.48 61.672C234.184 63.88 235.736 64.984 238.136 64.984C239.512 64.984 240.632 64.408 241.496 63.256C242.36 62.104 242.792 60.632 242.792 58.84C242.792 56.248 242.36 53.88 241.496 51.736C240.632 49.56 239.16 48.472 237.08 48.472C235.672 48.472 234.552 49.032 233.72 50.152C232.888 51.272 232.472 52.696 232.472 54.424ZM263.249 46.072C262.705 46.936 262.305 47.8 262.049 48.664C261.793 49.528 261.569 50.312 261.377 51.016C260.353 49.896 259.393 49.112 258.497 48.664C257.601 48.216 256.561 47.992 255.377 47.992C254.193 47.992 253.361 48.2 252.881 48.616C252.401 49.032 252.161 49.592 252.161 50.296C252.161 51.096 253.361 52.008 255.761 53.032C258.161 54.024 260.049 55.016 261.425 56.008C262.833 57 263.537 58.584 263.537 60.76C263.537 63.32 262.737 65.016 261.137 65.848C259.569 66.68 257.569 67.096 255.137 67.096C252.673 67.096 251.105 66.648 250.433 65.752C249.761 64.824 249.425 62.584 249.425 59.032C250.033 60.696 251.025 62.2 252.401 63.544C253.777 64.888 255.425 65.56 257.345 65.56C259.553 65.56 260.657 64.568 260.657 62.584C260.657 61.624 259.489 60.616 257.153 59.56C254.817 58.504 252.993 57.48 251.681 56.488C250.369 55.496 249.713 53.832 249.713 51.496C249.713 49.48 250.337 48.088 251.585 47.32C252.833 46.552 254.497 46.168 256.577 46.168C257.121 46.168 257.873 46.264 258.833 46.456C259.793 46.648 260.353 46.744 260.513 46.744C261.025 46.744 261.457 46.712 261.809 46.648C262.161 46.552 262.641 46.36 263.249 46.072Z" fill="black"/>
<defs>
<linearGradient id="paint0_linear_1512_160" x1="94.0195" y1="-48.6577" x2="298.071" y2="147.136" gradientUnits="userSpaceOnUse">
<stop stop-color="#EAC459"/>
<stop offset="0.00819684" stop-color="#EAC459"/>
<stop offset="0.2464" stop-color="#EAC459"/>
<stop offset="0.373" stop-color="#C8972C"/>
<stop offset="0.8876" stop-color="#FCF16B"/>
<stop offset="1" stop-color="#DABB3B"/>
</linearGradient>
<linearGradient id="paint1_linear_1512_160" x1="100.135" y1="149.194" x2="291.382" y2="-34.3134" gradientUnits="userSpaceOnUse">
<stop stop-color="#EAC459"/>
<stop offset="0.00819684" stop-color="#EAC459"/>
<stop offset="0.2464" stop-color="#EAC459"/>
<stop offset="0.373" stop-color="#C8972C"/>
<stop offset="0.8876" stop-color="#FCF16B"/>
<stop offset="1" stop-color="#DABB3B"/>
</linearGradient>
</defs>
</svg>
