<svg width="391" height="107" viewBox="0 0 391 107" fill="none" xmlns="http://www.w3.org/2000/svg">
<path d="M50.8262 0.5H339.174C339.426 14.4011 350.181 25.5782 363.5 25.8517V81.0583C350.181 81.3334 339.427 92.5746 339.174 106.41H50.8262C50.5726 92.5746 39.8194 81.3334 26.5 81.0583V25.8517C39.8194 25.5766 50.5726 14.3354 50.8262 0.5Z" fill="url(#paint0_linear_1512_161)" stroke="black"/>
<path d="M55.8885 8.03857H333.389C333.541 14.0108 336.399 19.722 340.63 23.9707C344.857 28.2146 350.495 31.0405 356.267 31.1957V75.7829C350.496 75.9372 344.858 78.7459 340.631 82.9818C336.398 87.2234 333.54 92.9357 333.389 98.94H55.8885C55.7461 92.9449 53.0556 87.2342 48.9821 82.9888C44.9135 78.7486 39.4327 75.9374 33.668 75.7829V31.1957C39.4327 31.0413 44.9135 28.23 48.9821 23.9898C53.0556 19.7444 55.7461 14.0338 55.8885 8.03857Z" fill="url(#paint1_linear_1512_161)" stroke="black"/>
<path d="M132.792 54.632C132.792 61.704 130.84 66.936 126.936 70.328C123.064 73.752 116.136 75.464 106.152 75.464H104.424C101.736 75.464 99.3361 74.984 97.2241 74.024C95.1441 73.064 93.7201 70.984 92.9521 67.784C94.1361 69.928 95.5281 71.384 97.1281 72.152C98.7281 72.92 100.504 73.512 102.456 73.928V46.28C102.456 44.904 102.952 43.08 103.944 40.808C104.936 38.504 105.832 36.824 106.632 35.768C100.52 35.768 96.0401 36.36 93.1921 37.544C90.3441 38.696 88.9201 41.192 88.9201 45.032C88.9201 48.264 89.6081 50.744 90.9841 52.472C92.3601 54.2 94.9201 56.136 98.6641 58.28C94.6321 58.28 91.5921 57.208 89.5441 55.064C87.5281 52.92 86.5201 50.248 86.5201 47.048C86.5201 43.144 87.9441 39.976 90.7921 37.544C93.6721 35.112 99.3201 33.896 107.736 33.896L108.6 33.128V33.896C115.832 33.896 121.672 35.464 126.12 38.6C130.568 41.736 132.792 47.08 132.792 54.632ZM108.744 64.568C108.744 65.976 108.264 67.512 107.304 69.176C106.344 70.872 105.352 72.424 104.328 73.832C109.032 73.832 112.968 73.464 116.136 72.728C119.336 71.992 121.896 70.488 123.816 68.216C125.768 65.944 126.744 62.6 126.744 58.184C126.744 51.112 125.448 45.592 122.856 41.624C120.264 37.624 115.56 35.624 108.744 35.624V64.568ZM146.569 44.264C147.817 44.264 148.841 44.488 149.641 44.936C150.473 45.384 151.593 46.312 153.001 47.72L141.337 59.384C141.977 60.44 142.761 61.128 143.689 61.448C144.649 61.736 145.721 61.88 146.905 61.88C148.089 61.88 149.193 61.608 150.217 61.064C151.273 60.52 152.217 59.944 153.049 59.336C151.769 61.288 150.361 62.76 148.825 63.752C147.289 64.712 145.529 65.192 143.545 65.192C140.697 65.192 138.681 64.28 137.497 62.456C136.313 60.632 135.721 58.664 135.721 56.552C135.721 52.84 136.761 49.864 138.841 47.624C140.921 45.384 143.497 44.264 146.569 44.264ZM140.905 58.28C142.025 57.192 143.145 56.104 144.265 55.016C145.961 53.192 146.809 51.816 146.809 50.888C146.809 49.768 146.537 48.904 145.993 48.296C145.449 47.656 144.729 47.336 143.833 47.336C142.713 47.336 141.833 48.008 141.193 49.352C140.553 50.664 140.233 52.232 140.233 54.056C140.233 54.824 140.281 55.56 140.377 56.264C140.473 56.936 140.649 57.608 140.905 58.28ZM172.252 43.496C172.764 43.496 173.516 44.152 174.508 45.464C175.5 46.744 175.996 48.168 175.996 49.736C175.996 50.536 174.94 52.664 172.828 56.12C170.716 59.576 169.1 62.68 167.98 65.432C166.476 63.096 164.956 60.248 163.42 56.888C161.916 53.528 160.844 51.368 160.204 50.408C159.564 49.416 158.54 48.92 157.132 48.92C156.908 48.92 156.316 49.096 155.356 49.448C154.428 49.768 153.74 50.072 153.292 50.36C153.932 49.304 155.068 48.04 156.7 46.568C158.364 45.064 159.58 44.312 160.348 44.312C161.788 44.312 163.516 46.52 165.532 50.936C167.548 55.32 169.004 58.056 169.9 59.144C170.348 58.6 170.812 57.736 171.292 56.552C171.804 55.336 172.06 54.104 172.06 52.856C172.06 51.608 171.74 50.584 171.1 49.784C170.492 48.952 169.532 48.12 168.22 47.288C168.572 46.616 169.164 45.816 169.996 44.888C170.86 43.96 171.612 43.496 172.252 43.496ZM189.085 44.264C190.333 44.264 191.357 44.488 192.157 44.936C192.989 45.384 194.109 46.312 195.517 47.72L183.853 59.384C184.493 60.44 185.277 61.128 186.205 61.448C187.165 61.736 188.237 61.88 189.421 61.88C190.605 61.88 191.709 61.608 192.733 61.064C193.789 60.52 194.733 59.944 195.565 59.336C194.285 61.288 192.877 62.76 191.341 63.752C189.805 64.712 188.045 65.192 186.061 65.192C183.213 65.192 181.197 64.28 180.013 62.456C178.829 60.632 178.237 58.664 178.237 56.552C178.237 52.84 179.277 49.864 181.357 47.624C183.437 45.384 186.013 44.264 189.085 44.264ZM183.421 58.28C184.541 57.192 185.661 56.104 186.781 55.016C188.477 53.192 189.325 51.816 189.325 50.888C189.325 49.768 189.053 48.904 188.509 48.296C187.965 47.656 187.245 47.336 186.349 47.336C185.229 47.336 184.349 48.008 183.709 49.352C183.069 50.664 182.749 52.232 182.749 54.056C182.749 54.824 182.797 55.56 182.893 56.264C182.989 56.936 183.165 57.608 183.421 58.28ZM197.632 41.288C197.632 38.984 198.256 37.032 199.504 35.432C200.784 33.8 202.432 32.984 204.448 32.984H208.768C207.744 34.84 206.416 35.832 204.784 35.96C203.152 36.056 202.336 36.344 202.336 36.824V61.256C202.336 61.832 202.56 62.12 203.008 62.12C203.392 62.12 203.904 61.912 204.544 61.496C205.216 61.048 205.952 60.472 206.752 59.768C205.952 61.24 204.928 62.536 203.68 63.656C202.464 64.744 201.36 65.288 200.368 65.288C199.408 65.288 198.704 64.936 198.256 64.232C197.84 63.496 197.632 62.504 197.632 61.256V41.288ZM218.931 44.216C221.555 44.216 223.603 45.16 225.075 47.048C226.579 48.936 227.331 51.272 227.331 54.056C227.331 57 226.243 59.608 224.067 61.88C221.891 64.152 219.459 65.288 216.771 65.288C214.243 65.288 212.227 64.344 210.723 62.456C209.219 60.536 208.467 58.136 208.467 55.256C208.467 52.376 209.523 49.816 211.635 47.576C213.747 45.336 216.179 44.216 218.931 44.216ZM212.691 52.424C212.691 55.048 213.027 57.464 213.699 59.672C214.403 61.88 215.955 62.984 218.355 62.984C219.731 62.984 220.851 62.408 221.715 61.256C222.579 60.104 223.011 58.632 223.011 56.84C223.011 54.248 222.579 51.88 221.715 49.736C220.851 47.56 219.379 46.472 217.299 46.472C215.891 46.472 214.771 47.032 213.939 48.152C213.107 49.272 212.691 50.696 212.691 52.424ZM234.348 44.168C234.924 44.168 235.276 44.424 235.404 44.936C235.564 45.448 235.644 46.888 235.644 49.256C236.508 48.2 237.388 47.128 238.284 46.04C239.532 44.792 240.94 44.168 242.508 44.168C243.596 44.168 244.86 45.048 246.3 46.808C247.74 48.536 248.46 50.952 248.46 54.056C248.46 57.224 247.18 59.88 244.62 62.024C242.092 64.168 240.028 65.24 238.428 65.24C238.012 65.24 237.532 65.064 236.988 64.712C236.476 64.328 236.028 63.976 235.644 63.656V74.12C235.644 75.304 236.188 76.424 237.276 77.48C238.364 78.536 238.988 79.224 239.148 79.544C237.644 78.776 236.636 78.312 236.124 78.152C235.644 77.992 235.084 77.912 234.444 77.912C233.516 77.912 232.764 78.04 232.188 78.296C231.644 78.552 230.172 79.464 227.772 81.032C227.9 80.648 228.508 79.864 229.596 78.68C230.684 77.496 231.228 76.216 231.228 74.84V49.64C231.228 49.32 231.148 49.096 230.988 48.968C230.828 48.84 230.604 48.776 230.316 48.776C229.74 48.776 229.212 48.904 228.732 49.16C228.22 49.416 227.836 49.624 227.58 49.784C228.508 48.536 229.564 47.288 230.748 46.04C231.932 44.792 233.132 44.168 234.348 44.168ZM235.644 59.144C235.644 60.008 235.964 60.808 236.604 61.544C237.276 62.248 238.108 62.6 239.1 62.6C240.54 62.6 241.676 61.816 242.508 60.248C243.372 58.68 243.804 57.016 243.804 55.256C243.804 52.888 243.484 51.176 242.844 50.12C242.236 49.064 241.452 48.536 240.492 48.536C239.404 48.536 238.316 49.048 237.228 50.072C236.172 51.064 235.644 51.8 235.644 52.28V59.144ZM261.929 44.264C263.177 44.264 264.201 44.488 265.001 44.936C265.833 45.384 266.953 46.312 268.361 47.72L256.697 59.384C257.337 60.44 258.121 61.128 259.049 61.448C260.009 61.736 261.081 61.88 262.265 61.88C263.449 61.88 264.553 61.608 265.577 61.064C266.633 60.52 267.577 59.944 268.409 59.336C267.129 61.288 265.721 62.76 264.185 63.752C262.649 64.712 260.889 65.192 258.905 65.192C256.057 65.192 254.041 64.28 252.857 62.456C251.673 60.632 251.081 58.664 251.081 56.552C251.081 52.84 252.121 49.864 254.201 47.624C256.281 45.384 258.857 44.264 261.929 44.264ZM256.265 58.28C257.385 57.192 258.505 56.104 259.625 55.016C261.321 53.192 262.169 51.816 262.169 50.888C262.169 49.768 261.897 48.904 261.353 48.296C260.809 47.656 260.089 47.336 259.193 47.336C258.073 47.336 257.193 48.008 256.553 49.352C255.913 50.664 255.593 52.232 255.593 54.056C255.593 54.824 255.641 55.56 255.737 56.264C255.833 56.936 256.009 57.608 256.265 58.28ZM274.508 44.216C275.404 44.216 275.964 44.648 276.188 45.512C276.444 46.344 276.572 47.816 276.572 49.928V52.088C277.788 50.392 279.02 48.696 280.268 47C281.836 45.144 283.388 44.216 284.924 44.216C285.788 44.216 286.46 44.536 286.94 45.176C287.452 45.784 287.708 46.536 287.708 47.432C287.708 48.52 287.1 49.736 285.884 51.08C284.668 52.392 283.468 53.624 282.284 54.776C282.444 54.456 282.604 53.928 282.764 53.192C282.956 52.424 283.052 51.752 283.052 51.176C283.052 50.472 282.924 49.896 282.668 49.448C282.444 49 282.044 48.776 281.468 48.776C280.86 48.776 280.092 49.336 279.164 50.456C278.268 51.544 277.404 52.648 276.572 53.768V62.744C276.028 63.256 275.388 63.784 274.652 64.328C273.916 64.84 273.068 65.16 272.108 65.288V49.4C272.108 48.728 271.788 48.392 271.148 48.392C270.86 48.392 270.524 48.504 270.14 48.728C269.756 48.92 269.324 49.256 268.844 49.736C269.356 48.68 270.268 47.496 271.58 46.184C272.892 44.872 273.868 44.216 274.508 44.216ZM303.468 44.072C302.924 44.936 302.524 45.8 302.268 46.664C302.012 47.528 301.788 48.312 301.596 49.016C300.572 47.896 299.612 47.112 298.716 46.664C297.82 46.216 296.78 45.992 295.596 45.992C294.412 45.992 293.58 46.2 293.1 46.616C292.62 47.032 292.38 47.592 292.38 48.296C292.38 49.096 293.58 50.008 295.98 51.032C298.38 52.024 300.268 53.016 301.644 54.008C303.052 55 303.756 56.584 303.756 58.76C303.756 61.32 302.956 63.016 301.356 63.848C299.788 64.68 297.788 65.096 295.356 65.096C292.892 65.096 291.324 64.648 290.652 63.752C289.98 62.824 289.644 60.584 289.644 57.032C290.252 58.696 291.244 60.2 292.62 61.544C293.996 62.888 295.644 63.56 297.564 63.56C299.772 63.56 300.876 62.568 300.876 60.584C300.876 59.624 299.708 58.616 297.372 57.56C295.036 56.504 293.212 55.48 291.9 54.488C290.588 53.496 289.932 51.832 289.932 49.496C289.932 47.48 290.556 46.088 291.804 45.32C293.052 44.552 294.716 44.168 296.796 44.168C297.34 44.168 298.092 44.264 299.052 44.456C300.012 44.648 300.572 44.744 300.732 44.744C301.244 44.744 301.676 44.712 302.028 44.648C302.38 44.552 302.86 44.36 303.468 44.072Z" fill="black"/>
<defs>
<linearGradient id="paint0_linear_1512_161" x1="97.0195" y1="-48.6577" x2="301.071" y2="147.136" gradientUnits="userSpaceOnUse">
<stop stop-color="#EAC459"/>
<stop offset="0.00819684" stop-color="#EAC459"/>
<stop offset="0.2464" stop-color="#EAC459"/>
<stop offset="0.373" stop-color="#C8972C"/>
<stop offset="0.8876" stop-color="#FCF16B"/>
<stop offset="1" stop-color="#DABB3B"/>
</linearGradient>
<linearGradient id="paint1_linear_1512_161" x1="103.135" y1="149.194" x2="294.382" y2="-34.3134" gradientUnits="userSpaceOnUse">
<stop stop-color="#EAC459"/>
<stop offset="0.00819684" stop-color="#EAC459"/>
<stop offset="0.2464" stop-color="#EAC459"/>
<stop offset="0.373" stop-color="#C8972C"/>
<stop offset="0.8876" stop-color="#FCF16B"/>
<stop offset="1" stop-color="#DABB3B"/>
</linearGradient>
</defs>
</svg>
