<svg width="339" height="598" viewBox="0 0 339 598" fill="none" xmlns="http://www.w3.org/2000/svg">
<path d="M0 94.6387L34.0671 138.405H304.589L338.656 94.6387H0Z" fill="#939393"/>
<path d="M308.472 589.768H30.1475V602H308.472V589.768Z" fill="#B7B7B9"/>
<path d="M272.757 546.44H65.8997L30.1475 589.767H308.509L272.757 546.44Z" fill="#D6D6D6"/>
<path d="M17.6934 134.266L48.2072 173.454H290.45L320.964 134.266H17.6934Z" fill="#939393"/>
<path d="M145.683 31.8633H142.643V75.6298H145.683V31.8633Z" fill="#808080"/>
<path d="M144.181 31.8633H142.643V75.6298H144.181V31.8633Z" fill="white"/>
<path d="M146.196 72.2969H142.166C140.335 72.2969 138.833 73.7985 138.833 75.6297H149.493C149.493 73.7985 148.027 72.2969 146.196 72.2969Z" fill="#3F3F3F"/>
<path d="M149.492 75.6297H141.36C141.36 73.7985 142.862 72.2969 144.694 72.2969H146.196C147.111 72.2969 147.954 72.6631 148.54 73.2857C149.126 73.8717 149.492 74.6775 149.492 75.6297Z" fill="#333333"/>
<path d="M144.181 0C138.759 0 134.4 4.39496 134.4 9.77879V25.8937C134.4 31.3141 138.796 35.6724 144.181 35.6724C149.566 35.6724 153.961 31.2775 153.961 25.8937V9.77879C153.961 4.39496 149.566 0 144.181 0Z" fill="#333333"/>
<path d="M146.306 2.12423V18.2391C146.306 23.6595 141.91 28.0179 136.525 28.0179C135.866 28.0179 135.206 27.9446 134.584 27.8348C134.474 27.2121 134.4 26.5529 134.4 25.8937V9.77879C134.4 4.35834 138.796 0 144.181 0C144.84 0 145.5 0.0732494 146.122 0.183123C146.232 0.805743 146.306 1.46499 146.306 2.12423Z" fill="#BFBEBF"/>
<path d="M196.014 31.8633H192.974V75.6298H196.014V31.8633Z" fill="#808080"/>
<path d="M194.512 31.8633H192.974V75.6298H194.512V31.8633Z" fill="white"/>
<path d="M196.527 72.2969H192.497C190.666 72.2969 189.164 73.7985 189.164 75.6297H199.824C199.824 73.7985 198.358 72.2969 196.527 72.2969Z" fill="#3F3F3F"/>
<path d="M199.823 75.6297H191.691C191.691 73.7985 193.193 72.2969 195.025 72.2969H196.527C197.442 72.2969 198.285 72.6631 198.871 73.2857C199.457 73.8717 199.823 74.6775 199.823 75.6297Z" fill="#333333"/>
<path d="M194.512 0C189.091 0 184.695 4.39496 184.695 9.77879V25.8937C184.695 31.3141 189.091 35.6724 194.476 35.6724C199.861 35.6724 204.256 31.2775 204.256 25.8937V9.77879C204.293 4.39496 199.897 0 194.512 0Z" fill="#333333"/>
<path d="M196.636 2.12423V18.2391C196.636 23.6595 192.241 28.0179 186.856 28.0179C186.197 28.0179 185.538 27.9446 184.915 27.8348C184.805 27.2121 184.732 26.5529 184.732 25.8937V9.77879C184.695 4.39496 189.091 0 194.512 0C195.171 0 195.831 0.0732494 196.453 0.183123C196.563 0.805743 196.636 1.46499 196.636 2.12423Z" fill="#BFBEBF"/>
<path d="M320.964 94.6387H17.6934V134.267H320.964V94.6387Z" fill="#B7B7B9"/>
<path d="M303.49 142.909H35.166V152.175H303.49V142.909Z" fill="#B7B7B9"/>
<path d="M338.656 75.6299H0V94.6381H338.656V75.6299Z" fill="#CBCCCE"/>
<path d="M35.166 152.212L62.1634 186.859H276.493L303.49 152.212H35.166Z" fill="#868689"/>
<path d="M80.7358 172.978L76.1934 167.118H262.464L257.921 172.978H80.7358Z" fill="#6B6B6D"/>
<path d="M282.941 566.475L260.083 537.102H78.5747L55.7168 566.475H282.941Z" fill="#E0E0E0"/>
<path d="M257.884 169.279H80.7354V555.816H257.884V169.279Z" fill="#B7B7B9"/>
<path d="M104.326 169.279H80.7354V555.816H104.326V169.279Z" fill="#CBCCCE"/>
<path d="M257.885 169.279H234.294V555.816H257.885V169.279Z" fill="#CBCCCE"/>
<path d="M282.941 566.474H55.7168V578.706H282.941V566.474Z" fill="#B7B7B9"/>
</svg>
