<svg width="827" height="1012" viewBox="0 0 827 1012" fill="none" xmlns="http://www.w3.org/2000/svg">
<path d="M479.571 751.313C434.422 715.415 398.528 669.235 374.89 616.636C363.05 589.83 312.622 474.382 367.02 373.654C381.547 347.689 401.006 324.809 424.306 306.297C478.452 263.005 511.552 277.436 575.913 244.966C594.287 235.73 697.812 183.634 701.494 101.774C703.588 55.1624 672.617 17.8223 654.965 0C681.003 8.199 704.912 22.032 724.993 40.515C731.78 46.7924 758.455 71.9023 770.62 106.392C803.396 199.4 709.616 301.427 702.433 309.039C686.767 325.635 652.655 348.364 584.432 393.785C508.629 444.294 500.435 444.294 484.191 465.219C440.875 521.319 444.484 592.355 446.217 625.907C448.622 669.551 459.975 712.236 479.571 751.313V751.313Z" fill="black" fill-opacity="0.1"/>
<path d="M16.9174 708.957C12.1526 697.954 -19.1795 623.057 17.8198 563.421C41.9326 524.53 85.7543 507.068 120.119 493.395C132.247 488.596 148.527 487.695 171.845 477.737C189.274 470.186 205.911 460.929 221.515 450.102C233.645 441.76 245.265 432.7 256.312 422.972C299.268 384.297 329.12 319.105 334.029 308.245C369.476 229.561 383.373 152.391 389.329 101.017C400.725 115.501 408.352 132.581 411.529 150.731C413.746 164.843 413.12 179.255 409.688 193.122C395.61 254.454 344.714 376.901 326.665 447.36C315.15 492.673 294.395 574.425 330.275 653.687C353.991 705.999 390.99 738.649 442.717 782.628C518.52 847.278 562.523 854.782 598.764 914.671C616.193 944.148 627.087 977.022 630.71 1011.07C606.985 989.361 581.031 970.218 553.282 953.959C502.746 924.448 440.731 888.046 371.173 898.797C337.422 903.992 332.585 915.609 273.133 926.324C222.814 935.416 202.889 931.339 192.024 928.164C157.01 917.99 135.099 893.746 124.739 880.289C136.109 886.511 148.671 890.249 161.594 891.257C204.91 894.396 242.451 863.982 260.211 837.826C305.548 771.119 261.113 673.674 220.504 625.979C206.065 609.167 185.454 585.428 151.378 579.908C109.795 573.198 77.0188 598.236 68.3555 604.802C20.9964 641.168 17.3506 699.253 16.9174 708.957Z" fill="black" fill-opacity="0.1"/>
<path d="M165.275 430.765C198.866 430.765 226.098 403.548 226.098 369.975C226.098 336.401 198.866 309.184 165.275 309.184C131.683 309.184 104.451 336.401 104.451 369.975C104.451 403.548 131.683 430.765 165.275 430.765Z" fill="black" fill-opacity="0.1"/>
<path d="M585.551 422.467C571.113 435.022 464.843 529.617 479.571 653.687C487.295 718.627 525.161 766.213 551.44 799.224C589.17 846.293 636.656 884.633 690.63 911.605C662.454 864.007 644.827 810.921 638.939 755.931C631.564 682.754 644.976 608.981 677.635 543.074C649.412 550.37 624.436 566.877 606.668 589.974C586.543 617.26 577.643 651.215 581.797 684.858C564.809 663.694 552.317 639.289 545.087 613.136C519.025 518.072 575.589 436.393 585.551 422.467Z" fill="black" fill-opacity="0.1"/>
<path d="M417.808 80.7407C429.231 98.5412 436.475 118.695 438.997 139.691C439.646 145.5 440.946 160.472 430.73 213.398C426.29 236.271 421.923 254.959 418.746 267.73C429.4 256.331 441.542 246.416 454.843 238.255C489.893 216.609 520.467 215.418 546.096 209.718C574.144 203.476 613.056 188.071 656.697 147.051C641.668 152.02 626.249 155.725 610.601 158.127C590.754 161.045 570.763 162.887 550.717 163.647C535.303 164.08 525.16 163.647 511.985 169.167C504.182 172.525 497.014 177.199 490.796 182.984C493.378 167.493 491.796 151.593 486.211 136.913C469.282 93.9451 423.186 82.0395 417.808 80.7407Z" fill="black" fill-opacity="0.1"/>
<path d="M594.753 469.476C593.304 452.021 596.821 434.512 604.896 418.968C607.64 413.917 617.061 397.682 653.735 374.773C671.224 363.783 689.746 354.527 709.036 347.137C739.429 335.629 777.62 291.686 813.175 150.912L827 162.89C785.85 339.669 744.687 516.473 703.513 693.301C724.057 696.642 743.786 703.827 761.665 714.478C774.335 722.09 802.887 739.732 816.929 773.429C821.513 784.252 825.484 793.885 822.488 804.744C816.676 825.813 787.979 840.244 764.408 838.837C718.565 836.095 686.764 773.176 680.555 736.594C678.011 719.946 677.032 703.096 677.631 686.265C678.861 673.892 681.279 661.666 684.851 649.755C706.798 566.236 713.042 538.348 716.652 508.151C717.627 499.962 718.168 493.359 718.493 489.716C704.426 498.705 688.787 504.96 672.397 508.151C653.049 511.759 650.739 507.502 637.383 510.893C599.337 520.49 579.628 563.963 575.694 572.73C569.775 585.818 566.032 599.782 564.612 614.075C556.17 601.505 551.373 586.846 550.751 571.72C549.415 521.428 600.853 475.501 647.527 461.178C667.813 454.937 673.913 458.761 690.843 450.102C720.298 435.058 735.783 406.124 744.266 383.792C728.644 392.537 712.306 399.935 695.427 405.908C668.21 415.576 656.876 415.432 640.127 424.307C627.349 431.017 610.239 443.609 594.753 469.476Z" fill="black" fill-opacity="0.1"/>
</svg>
