<svg width="735" height="226" viewBox="0 0 735 226" fill="none" xmlns="http://www.w3.org/2000/svg">
<path d="M119.793 30.5033C114.649 26.8923 100.739 18.1499 82.8272 19.8604C63.963 21.5709 52.149 34.0193 41.9548 44.5672C35.6667 51.124 21.852 65.8531 17.3741 89.4196C15.945 96.7367 13.4679 109.66 18.708 124.674C20.0418 128.475 29.1881 153.562 54.1498 161.069C70.0605 165.821 83.7799 160.784 89.5916 158.694C103.883 153.467 112.362 144.535 117.888 138.643C123.604 132.562 137.61 117.357 140.754 93.5058C144.66 63.1924 127.987 40.6711 124.176 35.7298C129.892 39.6259 141.992 48.9384 148.471 65.283C156.188 84.5733 151.615 101.963 148.757 112.606C142.659 135.507 129.702 149.571 125.605 153.847C121.413 158.124 113.41 166.106 100.262 171.807C82.8272 179.41 67.3928 178.079 64.3441 177.794C62.3433 177.604 32.9038 174.278 14.2301 149.666C-9.77888 118.023 4.51218 77.6364 7.94203 68.1338C20.4229 33.069 49.1003 14.4439 66.3448 7.9821C72.2518 5.7965 77.3966 4.75121 82.9225 5.03629C103.502 6.46168 116.649 25.657 119.793 30.5033Z" fill="white"/>
<path d="M258.417 123.629C253.462 129.806 246.222 137.408 236.027 144.06C233.836 145.485 231.74 146.721 229.739 147.861C229.453 150.522 229.263 153.562 229.263 156.983C229.263 159.359 229.358 161.26 229.453 162.59C225.928 163.16 221.736 164.3 217.068 166.201C210.494 168.957 205.635 172.378 202.205 175.133C204.396 169.147 206.588 163.16 208.779 157.173C205.54 158.979 200.967 161.165 195.155 162.97C192.011 163.92 182.96 166.486 170.574 166.106C161.809 165.821 157.427 165.631 154.282 162.97C146.661 156.508 149.328 142.539 150.186 138.263C151.043 133.892 152.853 127.905 159.427 117.928C168.574 104.149 175.624 93.4107 189.629 86.8539C204.873 79.727 219.736 81.6275 227.072 83.2429C219.831 82.8628 205.349 83.338 191.82 92.1754C185.628 96.2615 181.626 100.823 179.339 103.484C175.338 108.14 168.192 116.502 165.811 129.141C164.572 135.507 163.333 142.349 167.24 147.576C171.527 153.372 179.625 153.943 186.676 154.323C191.63 154.608 200.204 154.418 210.494 150.236C213.733 141.969 219.545 126.005 223.356 109.47C223.737 107.665 224.69 103.389 226.5 94.6461C227.929 87.7092 228.215 82.2927 229.549 75.5458C229.835 74.1204 230.501 70.6995 229.453 66.6133C228.12 61.1968 224.499 56.7306 220.688 54.2599C216.591 51.5992 211.923 51.029 198.585 53.0246C185.532 55.0201 174.576 56.6356 160.094 63.0023C154.282 65.568 146.184 69.4641 137.324 75.6408C145.517 66.6133 157.903 55.8754 175.052 48.1782C191.439 40.9562 204.206 40.101 211.066 40.196C226.786 40.291 232.693 45.1374 234.217 46.4678C240.505 52.0743 242.125 59.7714 242.22 60.5316C243.173 65.283 242.315 69.179 241.934 70.9845C239.648 82.2927 238.695 93.8859 236.599 105.194C232.312 128.38 233.741 127.525 231.264 139.403C231.073 140.164 230.883 141.304 230.597 142.729C235.551 140.354 241.172 137.313 246.889 133.322C251.271 129.901 255.177 126.67 258.417 123.629Z" fill="white"/>
<path d="M300.337 45.9925C298.908 44.187 294.24 38.4854 285.951 36.775C278.805 35.2546 269.087 36.87 263.561 44.282C260.132 48.8433 257.94 56.2554 260.894 62.337C263.18 66.9933 267.563 69.0839 272.041 71.1745C279.853 74.6905 286.141 74.7855 291 75.3557C301.099 76.496 307.959 79.6318 319.582 85.0483C321.678 85.9986 357.406 103.388 362.265 136.648C365.314 157.173 355.12 173.898 351.785 179.219C323.965 223.692 256.321 224.832 238.219 225.117C189.248 225.972 151.043 207.632 129.702 194.804C138.467 198.32 150.662 202.691 165.429 206.492C181.245 210.483 210.875 217.8 248.889 214.759C272.422 212.859 293.192 211.243 314.533 197.084C324.06 190.813 343.21 178.174 346.64 156.128C349.022 140.924 342.829 128.665 338.828 120.968C337.399 118.213 323.108 90.94 296.24 84.2881C291.286 83.0528 291.477 83.908 280.901 81.8174C262.99 78.3015 253.843 76.4009 248.508 69.6541C244.411 64.5227 242.22 56.6355 244.126 49.7936C249.27 31.7386 282.33 23.9464 294.716 35.4446C298.146 38.4854 299.575 42.4765 300.337 45.9925Z" fill="white"/>
<path d="M262.323 123.154C283.283 97.9722 305.005 82.9581 319.201 74.5958C335.493 65.0931 356.358 53.2149 385.321 51.7895C393.61 51.4094 400.565 51.9795 405.233 52.5497C404.471 69.8445 403.137 88.2796 400.851 107.665C398.278 129.901 394.944 150.617 391.133 169.812C392.467 167.722 395.23 164.016 400.089 161.07C405.805 157.649 411.14 157.269 413.713 157.174C407.996 160.975 401.899 165.441 395.706 170.477C391.419 173.993 387.417 177.509 383.797 180.93C382.654 181.5 380.843 182.166 378.462 182.356C375.222 182.641 372.65 181.69 371.411 181.12C373.126 162.97 375.222 148.526 376.747 138.644C379.414 122.109 382.082 105.669 384.75 89.1348C385.035 87.5193 385.702 83.0531 383.892 78.1117C383.321 76.5913 381.891 72.6002 378.176 69.9395C374.174 67.0887 369.696 67.3738 365.79 67.4688C350.356 68.134 338.828 72.7903 338.828 72.7903C320.916 80.1073 307.673 88.8497 302.624 92.1756C291.953 99.5877 277.948 109.66 262.323 123.154Z" fill="white"/>
<path d="M407.33 108.33C406.186 112.321 401.613 129.806 411.236 147.386C413.237 150.997 419.81 162.685 434.102 168.767C449.536 175.228 463.541 170.762 469.162 169.052C474.879 167.246 485.549 163.825 493.457 153.277C494.886 151.377 503.08 140.259 501.746 124.864C501.46 121.253 500.793 113.841 495.648 107.189C491.17 101.393 485.454 99.0172 477.451 95.5012C467.447 91.225 464.78 92.3653 456.3 87.7091C450.393 84.4782 446.773 82.4826 444.582 78.0164C441.723 72.0297 442.676 63.6674 447.726 58.1559C452.775 52.5493 459.73 52.0742 462.112 52.0742C470.782 52.0742 476.308 57.6808 477.165 58.631C475.546 56.0653 471.354 50.3637 464.017 47.9881C451.632 43.9019 436.388 50.9339 431.624 62.8122C428.48 70.6043 430.957 77.9214 431.339 79.0617C434.578 87.9941 442.676 92.0803 447.154 94.3609C455.633 98.6371 457.729 96.1664 467.161 100.158C473.164 102.723 482.024 106.524 485.93 114.982C490.313 124.674 486.121 135.982 481.262 142.634C472.116 155.083 456.3 156.413 446.963 157.173C439.532 157.743 432.387 158.409 425.527 154.988C412.284 148.431 405.519 129.711 407.33 108.33Z" fill="white"/>
<path d="M528.995 8.17226C528.899 8.36232 527.851 9.88274 528.328 10.6429C528.804 11.4032 530.328 10.6429 531.853 10.928C534.806 11.4982 536.331 15.5843 536.426 15.7744C537.76 19.5754 535.187 22.7113 531.376 31.2637C529.566 35.3498 528.328 38.7707 527.661 40.7663C530.614 38.5807 534.235 35.3498 537.379 30.6935C545.953 18.15 544.619 4.46624 544.048 0C540.523 2.85079 537.474 4.18116 535.092 4.84634C533.187 5.4165 530.519 5.89163 528.995 8.17226Z" fill="white"/>
<path d="M561.292 91.9855C562.149 92.5556 563.007 92.7457 563.007 92.7457C563.388 92.8407 564.722 93.0307 565.96 92.2705C566.151 92.1755 566.722 91.7004 567.199 90.6551C567.866 89.0396 567.485 87.3292 567.199 86.1889C567.199 86.1889 566.437 82.7679 566.246 79.2519C566.151 78.1116 566.246 76.8763 567.675 71.9349C568.723 68.2289 569.581 64.903 570.819 61.8621C577.774 44.6624 595.495 33.7343 598.639 32.404C601.974 30.8835 601.974 31.5487 614.836 28.0328C615.598 27.8427 617.122 27.3676 619.028 27.7477C619.028 27.7477 621.505 28.1278 623.887 30.2184C626.935 32.7841 631.318 41.5265 631.699 50.0789C632.366 67.7538 615.693 87.7093 600.068 106.049C593.208 114.127 577.107 132.277 552.527 151.187C549.287 153.658 546.62 155.653 544.714 156.983C544.142 158.029 543.571 159.549 543.571 161.355C543.666 165.251 546.524 168.862 550.907 170.762C561.292 168.672 575.297 165.916 592.923 162.495C592.923 162.495 601.307 160.88 614.74 160.119C627.602 159.454 634.557 160.214 639.607 164.776C641.226 166.296 642.274 167.816 642.941 168.862C643.037 168.957 644.561 170.667 646.848 170.192C648.372 169.907 649.611 168.767 649.896 167.436C650.087 166.391 649.801 165.346 648.467 163.445C648.182 163.065 645.133 158.789 642.275 156.983C631.223 149.856 602.355 153.562 602.355 153.562C593.399 154.703 581.68 156.603 568.151 159.834C580.823 149.286 590.827 139.784 597.972 132.467C599.115 131.326 616.741 113.271 635.224 87.0441C638.368 82.5779 643.894 74.5006 647.515 62.9074C651.611 49.9838 650.087 42.8569 649.611 40.9563C648.944 38.3906 647.229 31.3587 641.036 25.8472C635.415 20.7157 629.031 19.5754 624.077 18.8152C605.213 15.6793 589.874 23.9466 587.302 25.4671C572.725 33.6393 565.865 45.8027 563.292 51.0291C553.575 71.5548 559.386 90.6551 561.292 91.9855Z" fill="white"/>
<path d="M672.763 56.1606C672.477 56.2557 672.191 56.2557 671.81 56.2557C671.524 56.2557 671.333 56.2557 671.047 56.1606C671.619 56.1606 672.191 56.1606 672.763 56.1606Z" fill="white"/>
<path d="M699.439 140.354C698.105 147.291 697.915 150.712 697.915 153.182C697.915 155.843 698.105 158.029 698.201 159.549C700.964 159.739 704.489 160.214 708.49 161.45C711.825 162.495 714.588 163.825 716.779 165.061C716.779 165.631 716.588 166.866 715.826 168.101C714.778 169.717 713.254 170.382 712.778 170.572C711.73 170.002 710.11 169.242 708.109 168.672C704.775 167.531 701.916 167.246 700.106 167.151C690.769 166.391 680.289 167.531 674.859 168.196C672.477 168.482 669.523 168.862 665.998 169.432C665.617 169.147 664.474 168.196 664.093 166.391C663.616 164.205 664.76 162.495 664.95 162.21C667.999 161.545 671.334 161.07 674.763 160.594C676.669 160.404 678.574 160.119 680.385 160.024C680.003 158.314 679.527 155.653 679.527 152.422C679.527 149.476 679.908 147.291 680.099 146.245C682.48 132.752 683.719 126.1 684.005 124.864C685.91 117.167 688.292 108.805 692.58 95.5014C695.247 87.3291 700.964 69.9393 709.729 46.8479C711.539 42.0015 713.159 37.9154 714.302 35.0646C708.776 40.101 703.727 43.712 699.916 46.2777C694.39 49.8887 690.769 52.3594 685.339 54.0699C680.48 55.6853 676.192 56.1605 672.953 56.3505C672.381 56.3505 671.81 56.3505 671.238 56.3505C669.714 55.9704 668.571 54.64 668.571 52.9296C668.571 51.2191 669.809 49.7937 671.524 49.5086C671.715 49.5086 672 49.5086 672.191 49.5086C673.43 49.4136 675.24 49.2235 677.24 48.8434C680.003 48.2733 685.339 46.8479 695.057 40.2911C697.724 38.4856 700.487 36.3 705.918 32.0238C710.586 28.4128 716.112 23.8515 718.589 21.856C719.733 20.9057 720.59 20.1455 721.257 19.6704C722.4 19.5753 725.735 19.4803 728.974 21.5709C733.738 24.6117 734.405 29.9332 734.5 30.6934C730.022 42.9518 726.306 53.2146 723.639 60.7217C714.493 86.3788 711.063 97.4019 710.015 100.823C707.823 107.95 705.823 115.362 701.916 130.091C701.726 130.376 700.583 134.652 699.439 140.354Z" fill="white"/>
</svg>
