<svg width="165" height="254" viewBox="0 0 165 254" fill="none" xmlns="http://www.w3.org/2000/svg">
<path d="M82.3228 154.69H76.9087V293.88H82.3228V154.69Z" fill="url(#paint0_linear)"/>
<path d="M164.045 176.09H0.0991211V236.61H164.045V176.09Z" fill="#FCF6F2"/>
<path d="M52.9637 192.003C52.9637 194.467 52.0027 196.413 50.0808 197.842C48.1589 199.247 45.7441 199.949 42.8366 199.949C43.7729 201.6 45.0665 203.793 46.7174 206.528C48.3683 209.238 50.6229 212.01 53.4811 214.844C56.3393 217.702 59.2345 219.131 62.1667 219.131C63.6697 219.131 65.2221 218.688 66.8237 217.801C68.4253 216.914 69.571 216.125 70.2609 215.435C69.1521 217.062 67.7969 218.331 66.1953 219.242C64.5937 220.179 62.4377 220.647 59.7273 220.647C56.3763 220.647 53.3702 219.587 50.7091 217.468C48.0726 215.374 45.8304 212.836 43.9824 209.854C42.159 206.898 40.311 203.411 38.4384 199.395C41.6909 199.395 44.1425 199.001 45.7934 198.212C47.4689 197.424 48.3067 195.773 48.3067 193.259C48.3067 190.5 47.5182 188.516 45.9413 187.309C44.3889 186.077 41.3829 185.461 36.923 185.461V206.158C36.923 207.021 37.1694 207.797 37.6622 208.487C38.1797 209.177 39.0544 209.756 40.2864 210.224H27.683C29.1121 209.953 30.2333 209.436 31.0464 208.672C31.8841 207.908 32.303 206.972 32.303 205.863V193.888C32.303 192.459 32.5741 190.894 33.1161 189.194C33.6582 187.494 34.3728 186.249 35.2598 185.461C29.9129 185.461 26.3278 186.101 24.5045 187.383C22.7057 188.664 21.8064 190.413 21.8064 192.631C21.8064 194.775 22.3854 196.697 23.5435 198.397C24.7262 200.097 26.7344 201.538 29.568 202.721C26.488 202.721 24.1102 201.883 22.4347 200.208C20.7838 198.508 19.9584 196.401 19.9584 193.888C19.9584 190.709 21.2027 188.319 23.6913 186.717C26.18 185.116 30.4181 184.315 36.4056 184.315L36.9969 183.761V184.352C42.8859 184.352 47.0131 184.894 49.3785 185.978C51.7686 187.062 52.9637 189.071 52.9637 192.003ZM63.2726 192.483C64.2336 192.483 65.0221 192.656 65.6381 193.001C66.2787 193.346 67.1411 194.06 68.2253 195.144L59.244 204.126C59.7368 204.939 60.3405 205.469 61.055 205.715C61.7942 205.937 62.6197 206.048 63.5313 206.048C64.443 206.048 65.2931 205.838 66.0816 205.419C66.8947 205 67.6216 204.557 68.2622 204.089C67.2766 205.592 66.1925 206.725 65.0097 207.489C63.827 208.228 62.4718 208.598 60.9441 208.598C58.7512 208.598 57.1989 207.896 56.2872 206.491C55.3755 205.087 54.9197 203.571 54.9197 201.945C54.9197 199.087 55.7205 196.795 57.3221 195.07C58.9237 193.346 60.9072 192.483 63.2726 192.483ZM58.9113 203.276C59.7737 202.438 60.6361 201.6 61.4985 200.762C62.8045 199.358 63.4574 198.298 63.4574 197.584C63.4574 196.721 63.248 196.056 62.8291 195.588C62.4102 195.095 61.8558 194.849 61.1659 194.849C60.3035 194.849 59.6259 195.366 59.1331 196.401C58.6403 197.411 58.3939 198.619 58.3939 200.023C58.3939 200.614 58.4309 201.181 58.5048 201.723C58.5787 202.241 58.7142 202.758 58.9113 203.276ZM83.2703 210.335C83.2703 213.267 82.3832 215.756 80.6092 217.801C78.8597 219.846 76.8639 220.869 74.6216 220.869C72.9708 220.869 71.8127 220.376 71.1474 219.39C70.5068 218.405 70.1864 217.136 70.1864 215.583C70.1864 214.524 70.3589 213.464 70.7039 212.405C71.0735 211.345 71.9359 210.027 73.2911 208.45C72.4287 208.45 71.6772 207.994 71.0365 207.082C70.3959 206.146 70.0756 204.853 70.0756 203.202C70.0756 199.998 71.1351 197.436 73.2541 195.514C75.3978 193.592 77.6647 192.631 80.0548 192.631L83.2703 192.594V210.335ZM79.796 203.645C78.022 205.395 76.2602 207.144 74.5108 208.893C73.1063 210.865 72.404 212.836 72.404 214.807C72.404 216.212 72.712 217.209 73.328 217.801C73.944 218.392 74.7818 218.688 75.8413 218.688C77.024 218.688 77.9727 218.146 78.6872 217.062C79.4264 215.977 79.796 214.684 79.796 213.181V203.645ZM73.6237 200.393C73.6237 201.6 73.8208 202.487 74.2151 203.054C74.6093 203.621 75.1514 203.904 75.8413 203.904C76.4327 203.904 77.061 203.731 77.7263 203.386C78.4162 203.017 79.1061 202.524 79.796 201.908V193.666C77.948 193.666 76.4573 194.356 75.3239 195.736C74.1904 197.091 73.6237 198.643 73.6237 200.393ZM89.2636 184.389C89.8796 184.389 90.397 184.611 90.8159 185.054C91.2348 185.498 91.4442 186.101 91.4442 186.865C91.4442 187.728 91.0746 188.405 90.3354 188.898C89.5962 189.391 88.9309 189.637 88.3396 189.637C87.8221 189.637 87.4279 189.366 87.1569 188.824C86.9105 188.257 86.7873 187.605 86.7873 186.865C86.7873 185.929 87.009 185.288 87.4525 184.943C87.8961 184.574 88.4997 184.389 89.2636 184.389ZM88.7831 192.446C89.5469 192.446 90.0767 192.742 90.3724 193.333C90.6927 193.925 90.8529 194.627 90.8529 195.44V205.826C90.9514 206.516 91.2101 206.861 91.629 206.861C91.9247 206.861 92.2697 206.701 92.6639 206.38C93.0581 206.06 93.3169 205.85 93.4401 205.752C92.8487 206.762 92.245 207.501 91.629 207.969C91.0377 208.438 90.3601 208.672 89.5962 208.672C88.9556 208.672 88.4381 208.401 88.0439 207.859C87.6497 207.317 87.4525 206.676 87.4525 205.937V195.033C87.4525 194.565 87.2801 194.331 86.9351 194.331C86.4669 194.331 85.7401 194.75 84.7545 195.588C84.8777 195.12 85.3828 194.479 86.2698 193.666C87.1569 192.853 87.9946 192.446 88.7831 192.446ZM105.184 192.335C104.765 193.001 104.457 193.666 104.26 194.331C104.063 194.997 103.89 195.6 103.742 196.142C102.954 195.28 102.215 194.676 101.525 194.331C100.835 193.986 100.034 193.814 99.1224 193.814C98.2107 193.814 97.5701 193.974 97.2005 194.294C96.8309 194.615 96.6461 195.046 96.6461 195.588C96.6461 196.204 97.5701 196.906 99.4181 197.695C101.266 198.458 102.72 199.222 103.779 199.986C104.863 200.75 105.406 201.97 105.406 203.645C105.406 205.616 104.79 206.922 103.558 207.563C102.35 208.204 100.81 208.524 98.9376 208.524C97.0403 208.524 95.8329 208.179 95.3155 207.489C94.7981 206.774 94.5393 205.05 94.5393 202.315C95.0075 203.596 95.7713 204.754 96.8309 205.789C97.8904 206.824 99.1593 207.341 100.638 207.341C102.338 207.341 103.188 206.577 103.188 205.05C103.188 204.31 102.289 203.534 100.49 202.721C98.6912 201.908 97.2867 201.12 96.2765 200.356C95.2662 199.592 94.7611 198.311 94.7611 196.512C94.7611 194.96 95.2416 193.888 96.2025 193.296C97.1635 192.705 98.4448 192.409 100.046 192.409C100.465 192.409 101.044 192.483 101.783 192.631C102.523 192.779 102.954 192.853 103.077 192.853C103.471 192.853 103.804 192.828 104.075 192.779C104.346 192.705 104.716 192.557 105.184 192.335ZM111.47 192.594H114.501C114.18 193.309 113.724 193.752 113.133 193.925C112.566 194.073 112.012 194.159 111.47 194.183V205.382C111.47 205.924 111.679 206.195 112.098 206.195C112.443 206.195 112.874 206.035 113.392 205.715C113.934 205.37 114.575 204.853 115.314 204.163C114.624 205.469 113.811 206.553 112.874 207.415C111.938 208.253 110.989 208.672 110.028 208.672C109.289 208.672 108.772 208.376 108.476 207.785C108.205 207.169 108.07 206.085 108.07 204.532V194.183H105.889C105.963 193.617 106.616 192.988 107.848 192.298C109.104 191.584 110.312 189.748 111.47 186.791V192.594ZM125.39 192.483C126.351 192.483 127.139 192.656 127.755 193.001C128.396 193.346 129.258 194.06 130.343 195.144L121.361 204.126C121.854 204.939 122.458 205.469 123.172 205.715C123.912 205.937 124.737 206.048 125.649 206.048C126.56 206.048 127.41 205.838 128.199 205.419C129.012 205 129.739 204.557 130.38 204.089C129.394 205.592 128.31 206.725 127.127 207.489C125.944 208.228 124.589 208.598 123.061 208.598C120.869 208.598 119.316 207.896 118.405 206.491C117.493 205.087 117.037 203.571 117.037 201.945C117.037 199.087 117.838 196.795 119.439 195.07C121.041 193.346 123.025 192.483 125.39 192.483ZM121.029 203.276C121.891 202.438 122.753 201.6 123.616 200.762C124.922 199.358 125.575 198.298 125.575 197.584C125.575 196.721 125.365 196.056 124.946 195.588C124.528 195.095 123.973 194.849 123.283 194.849C122.421 194.849 121.743 195.366 121.25 196.401C120.758 197.411 120.511 198.619 120.511 200.023C120.511 200.614 120.548 201.181 120.622 201.723C120.696 202.241 120.832 202.758 121.029 203.276ZM135.076 192.446C135.766 192.446 136.197 192.779 136.369 193.444C136.567 194.085 136.665 195.218 136.665 196.845V198.508C137.601 197.202 138.55 195.896 139.511 194.59C140.718 193.161 141.913 192.446 143.096 192.446C143.761 192.446 144.279 192.693 144.648 193.185C145.043 193.654 145.24 194.233 145.24 194.923C145.24 195.76 144.772 196.697 143.835 197.732C142.899 198.742 141.975 199.69 141.063 200.577C141.187 200.331 141.31 199.925 141.433 199.358C141.581 198.766 141.655 198.249 141.655 197.805C141.655 197.263 141.556 196.82 141.359 196.475C141.187 196.13 140.879 195.957 140.435 195.957C139.967 195.957 139.375 196.389 138.661 197.251C137.971 198.089 137.306 198.939 136.665 199.801V206.713C136.246 207.107 135.753 207.514 135.187 207.933C134.62 208.327 133.967 208.573 133.228 208.672V196.438C133.228 195.921 132.981 195.662 132.489 195.662C132.267 195.662 132.008 195.748 131.712 195.921C131.417 196.068 131.084 196.327 130.715 196.697C131.109 195.884 131.811 194.972 132.821 193.962C133.831 192.951 134.583 192.446 135.076 192.446Z" fill="black"/>
<path d="M143.732 162.69H10.5762L26.8685 0H155.272L143.732 162.69Z" fill="white"/>
<defs>
<linearGradient id="paint0_linear" x1="76.8485" y1="224.28" x2="81.9017" y2="224.28" gradientUnits="userSpaceOnUse">
<stop offset="0.01" stop-color="#FBC926"/>
<stop offset="0.25" stop-color="#FFFBCC"/>
<stop offset="0.3" stop-color="#F8F0BB"/>
<stop offset="0.41" stop-color="#E7D28E"/>
<stop offset="0.55" stop-color="#CCA246"/>
<stop offset="0.6" stop-color="#C3922E"/>
<stop offset="0.87" stop-color="#EED688"/>
<stop offset="1" stop-color="#FFFBCC"/>
</linearGradient>
</defs>
</svg>
