<svg width="391" height="107" viewBox="0 0 391 107" fill="none" xmlns="http://www.w3.org/2000/svg">
<path d="M48.8262 0.5H337.174C337.426 14.4011 348.181 25.5782 361.5 25.8517V81.0583C348.181 81.3334 337.427 92.5746 337.174 106.41H48.8262C48.5726 92.5746 37.8194 81.3334 24.5 81.0583V25.8517C37.8194 25.5766 48.5726 14.3354 48.8262 0.5Z" fill="url(#paint0_linear_1419_2299)" stroke="black"/>
<path d="M53.8885 8.03857H331.389C331.541 14.0108 334.399 19.722 338.63 23.9707C342.857 28.2146 348.495 31.0405 354.267 31.1957V75.7829C348.496 75.9372 342.858 78.7459 338.631 82.9818C334.398 87.2234 331.54 92.9357 331.389 98.94H53.8885C53.7461 92.9449 51.0556 87.2342 46.9821 82.9888C42.9135 78.7486 37.4327 75.9374 31.668 75.7829V31.1957C37.4327 31.0413 42.9135 28.23 46.9821 23.9898C51.0556 19.7444 53.7461 14.0338 53.8885 8.03857Z" fill="url(#paint1_linear_1419_2299)" stroke="black"/>
<path d="M121.705 34.752H137.593C137.593 35.904 138.265 37.728 139.609 40.224C140.985 42.72 141.737 44.24 141.865 44.784C139.017 41.616 136.249 39.36 133.561 38.016C130.905 36.64 127.561 35.952 123.529 35.952C120.553 35.952 118.345 36.56 116.905 37.776C115.497 38.992 114.793 40.528 114.793 42.384C114.793 45.648 117.273 47.872 122.233 49.056C127.193 50.24 132.073 51.376 136.873 52.464C142.057 54.448 144.649 57.952 144.649 62.976C144.649 66.944 143.385 70.304 140.857 73.056C138.329 75.84 134.089 77.232 128.137 77.232C124.745 77.232 121.641 76.912 118.825 76.272C116.041 75.632 113.625 74.272 111.577 72.192C109.529 70.112 108.505 67.056 108.505 63.024C108.505 61.424 108.681 60.064 109.033 58.944C109.385 57.824 110.137 56.944 111.289 56.304C110.777 56.88 110.441 57.536 110.281 58.272C110.153 58.976 110.089 59.84 110.089 60.864C110.089 64.704 112.041 67.84 115.945 70.272C119.881 72.736 124.873 73.968 130.921 73.968C134.697 73.968 137.449 73.296 139.177 71.952C140.937 70.608 141.817 68.544 141.817 65.76C141.817 61.664 139.289 58.848 134.233 57.312C129.529 56.224 124.825 55.136 120.121 54.048C115.033 52.288 112.489 49.072 112.489 44.4C112.489 41.744 113.401 39.472 115.225 37.584C117.049 35.696 119.209 34.752 121.705 34.752ZM151.754 45.168C152.33 45.168 152.682 45.424 152.81 45.936C152.97 46.448 153.05 47.888 153.05 50.256C153.914 49.2 154.794 48.128 155.69 47.04C156.938 45.792 158.346 45.168 159.914 45.168C161.002 45.168 162.266 46.048 163.706 47.808C165.146 49.536 165.866 51.952 165.866 55.056C165.866 58.224 164.586 60.88 162.026 63.024C159.498 65.168 157.434 66.24 155.834 66.24C155.418 66.24 154.938 66.064 154.394 65.712C153.882 65.328 153.434 64.976 153.05 64.656V75.12C153.05 76.304 153.594 77.424 154.682 78.48C155.77 79.536 156.394 80.224 156.554 80.544C155.05 79.776 154.042 79.312 153.53 79.152C153.05 78.992 152.49 78.912 151.85 78.912C150.922 78.912 150.17 79.04 149.594 79.296C149.05 79.552 147.578 80.464 145.178 82.032C145.306 81.648 145.914 80.864 147.002 79.68C148.09 78.496 148.634 77.216 148.634 75.84V50.64C148.634 50.32 148.554 50.096 148.394 49.968C148.234 49.84 148.01 49.776 147.722 49.776C147.146 49.776 146.618 49.904 146.138 50.16C145.626 50.416 145.242 50.624 144.986 50.784C145.914 49.536 146.97 48.288 148.154 47.04C149.338 45.792 150.538 45.168 151.754 45.168ZM153.05 60.144C153.05 61.008 153.37 61.808 154.01 62.544C154.682 63.248 155.514 63.6 156.506 63.6C157.946 63.6 159.082 62.816 159.914 61.248C160.778 59.68 161.21 58.016 161.21 56.256C161.21 53.888 160.89 52.176 160.25 51.12C159.642 50.064 158.858 49.536 157.898 49.536C156.81 49.536 155.722 50.048 154.634 51.072C153.578 52.064 153.05 52.8 153.05 53.28V60.144ZM178.759 45.216C181.383 45.216 183.431 46.16 184.903 48.048C186.407 49.936 187.159 52.272 187.159 55.056C187.159 58 186.071 60.608 183.895 62.88C181.719 65.152 179.287 66.288 176.599 66.288C174.071 66.288 172.055 65.344 170.551 63.456C169.047 61.536 168.295 59.136 168.295 56.256C168.295 53.376 169.351 50.816 171.463 48.576C173.575 46.336 176.007 45.216 178.759 45.216ZM172.519 53.424C172.519 56.048 172.855 58.464 173.527 60.672C174.231 62.88 175.783 63.984 178.183 63.984C179.559 63.984 180.679 63.408 181.543 62.256C182.407 61.104 182.839 59.632 182.839 57.84C182.839 55.248 182.407 52.88 181.543 50.736C180.679 48.56 179.207 47.472 177.127 47.472C175.719 47.472 174.599 48.032 173.767 49.152C172.935 50.272 172.519 51.696 172.519 53.424ZM206.368 62.976C206.368 63.68 206.608 64.032 207.088 64.032C207.728 64.032 208.608 63.504 209.728 62.448C209.088 63.664 208.272 64.608 207.28 65.28C206.32 65.952 205.456 66.288 204.688 66.288C203.824 66.288 203.12 66.032 202.576 65.52C202.064 64.976 201.808 64.16 201.808 63.072L201.856 52.272C201.856 51.536 201.776 50.96 201.616 50.544C201.456 50.096 201.008 49.872 200.272 49.872C199.472 49.872 198.416 50.72 197.104 52.416C195.792 54.08 195.136 55.056 195.136 55.344V63.504C194.976 64.176 194.416 64.816 193.456 65.424C192.528 66 191.6 66.288 190.672 66.288V49.872C190.672 49.36 190.48 49.104 190.096 49.104C189.616 49.104 188.704 49.536 187.36 50.4C188.576 48.864 189.68 47.664 190.672 46.8C191.696 45.904 192.496 45.456 193.072 45.456C193.968 45.456 194.528 45.952 194.752 46.944C195.008 47.904 195.136 49.408 195.136 51.456V53.232C196.384 51.28 197.696 49.504 199.072 47.904C200.48 46.272 201.952 45.456 203.488 45.456C204.672 45.456 205.456 45.856 205.84 46.656C206.224 47.456 206.416 48.656 206.416 50.256C206.416 50.736 206.4 51.216 206.368 51.696C206.368 52.144 206.368 52.608 206.368 53.088C206.368 54.016 206.352 55.008 206.32 56.064C206.32 57.088 206.32 58.336 206.32 59.808C206.32 60.64 206.32 61.376 206.32 62.016C206.32 62.624 206.336 62.944 206.368 62.976ZM224.718 45.072C224.174 45.936 223.774 46.8 223.518 47.664C223.262 48.528 223.038 49.312 222.846 50.016C221.822 48.896 220.862 48.112 219.966 47.664C219.07 47.216 218.03 46.992 216.846 46.992C215.662 46.992 214.83 47.2 214.35 47.616C213.87 48.032 213.63 48.592 213.63 49.296C213.63 50.096 214.83 51.008 217.23 52.032C219.63 53.024 221.518 54.016 222.894 55.008C224.302 56 225.006 57.584 225.006 59.76C225.006 62.32 224.206 64.016 222.606 64.848C221.038 65.68 219.038 66.096 216.606 66.096C214.142 66.096 212.574 65.648 211.902 64.752C211.23 63.824 210.894 61.584 210.894 58.032C211.502 59.696 212.494 61.2 213.87 62.544C215.246 63.888 216.894 64.56 218.814 64.56C221.022 64.56 222.126 63.568 222.126 61.584C222.126 60.624 220.958 59.616 218.622 58.56C216.286 57.504 214.462 56.48 213.15 55.488C211.838 54.496 211.182 52.832 211.182 50.496C211.182 48.48 211.806 47.088 213.054 46.32C214.302 45.552 215.966 45.168 218.046 45.168C218.59 45.168 219.342 45.264 220.302 45.456C221.262 45.648 221.822 45.744 221.982 45.744C222.494 45.744 222.926 45.712 223.278 45.648C223.63 45.552 224.11 45.36 224.718 45.072ZM237.634 45.216C240.258 45.216 242.306 46.16 243.778 48.048C245.282 49.936 246.034 52.272 246.034 55.056C246.034 58 244.946 60.608 242.77 62.88C240.594 65.152 238.162 66.288 235.474 66.288C232.946 66.288 230.93 65.344 229.426 63.456C227.922 61.536 227.17 59.136 227.17 56.256C227.17 53.376 228.226 50.816 230.338 48.576C232.45 46.336 234.882 45.216 237.634 45.216ZM231.394 53.424C231.394 56.048 231.73 58.464 232.402 60.672C233.106 62.88 234.658 63.984 237.058 63.984C238.434 63.984 239.554 63.408 240.418 62.256C241.282 61.104 241.714 59.632 241.714 57.84C241.714 55.248 241.282 52.88 240.418 50.736C239.554 48.56 238.082 47.472 236.002 47.472C234.594 47.472 233.474 48.032 232.642 49.152C231.81 50.272 231.394 51.696 231.394 53.424ZM252.523 45.216C253.419 45.216 253.979 45.648 254.203 46.512C254.459 47.344 254.587 48.816 254.587 50.928V53.088C255.803 51.392 257.035 49.696 258.283 48C259.851 46.144 261.403 45.216 262.939 45.216C263.803 45.216 264.475 45.536 264.955 46.176C265.467 46.784 265.723 47.536 265.723 48.432C265.723 49.52 265.115 50.736 263.899 52.08C262.683 53.392 261.483 54.624 260.299 55.776C260.459 55.456 260.619 54.928 260.779 54.192C260.971 53.424 261.067 52.752 261.067 52.176C261.067 51.472 260.939 50.896 260.683 50.448C260.459 50 260.059 49.776 259.483 49.776C258.875 49.776 258.107 50.336 257.179 51.456C256.283 52.544 255.419 53.648 254.587 54.768V63.744C254.043 64.256 253.403 64.784 252.667 65.328C251.931 65.84 251.083 66.16 250.123 66.288V50.4C250.123 49.728 249.803 49.392 249.163 49.392C248.875 49.392 248.539 49.504 248.155 49.728C247.771 49.92 247.339 50.256 246.859 50.736C247.371 49.68 248.283 48.496 249.595 47.184C250.907 45.872 251.883 45.216 252.523 45.216ZM281.484 45.072C280.94 45.936 280.54 46.8 280.284 47.664C280.028 48.528 279.804 49.312 279.612 50.016C278.588 48.896 277.628 48.112 276.732 47.664C275.836 47.216 274.796 46.992 273.612 46.992C272.428 46.992 271.596 47.2 271.116 47.616C270.636 48.032 270.396 48.592 270.396 49.296C270.396 50.096 271.596 51.008 273.996 52.032C276.396 53.024 278.284 54.016 279.66 55.008C281.068 56 281.772 57.584 281.772 59.76C281.772 62.32 280.972 64.016 279.372 64.848C277.804 65.68 275.804 66.096 273.372 66.096C270.908 66.096 269.34 65.648 268.668 64.752C267.996 63.824 267.66 61.584 267.66 58.032C268.268 59.696 269.26 61.2 270.636 62.544C272.012 63.888 273.66 64.56 275.58 64.56C277.788 64.56 278.892 63.568 278.892 61.584C278.892 60.624 277.724 59.616 275.388 58.56C273.052 57.504 271.228 56.48 269.916 55.488C268.604 54.496 267.948 52.832 267.948 50.496C267.948 48.48 268.572 47.088 269.82 46.32C271.068 45.552 272.732 45.168 274.812 45.168C275.356 45.168 276.108 45.264 277.068 45.456C278.028 45.648 278.588 45.744 278.748 45.744C279.26 45.744 279.692 45.712 280.044 45.648C280.396 45.552 280.876 45.36 281.484 45.072Z" fill="black"/>
<defs>
<linearGradient id="paint0_linear_1419_2299" x1="95.0195" y1="-48.6577" x2="299.071" y2="147.136" gradientUnits="userSpaceOnUse">
<stop stop-color="#EAC459"/>
<stop offset="0.00819684" stop-color="#EAC459"/>
<stop offset="0.2464" stop-color="#EAC459"/>
<stop offset="0.373" stop-color="#C8972C"/>
<stop offset="0.8876" stop-color="#FCF16B"/>
<stop offset="1" stop-color="#DABB3B"/>
</linearGradient>
<linearGradient id="paint1_linear_1419_2299" x1="101.135" y1="149.194" x2="292.382" y2="-34.3134" gradientUnits="userSpaceOnUse">
<stop stop-color="#EAC459"/>
<stop offset="0.00819684" stop-color="#EAC459"/>
<stop offset="0.2464" stop-color="#EAC459"/>
<stop offset="0.373" stop-color="#C8972C"/>
<stop offset="0.8876" stop-color="#FCF16B"/>
<stop offset="1" stop-color="#DABB3B"/>
</linearGradient>
</defs>
</svg>
